M48
; DRILL file {KiCad (5.1.10-1-10_14)} date Sunday, November 28, 2021 at 11:58:16 PM
; FORMAT={-:-/ absolute / inch / decimal}
; #@! TF.CreationDate,2021-11-28T23:58:16-05:00
; #@! TF.GenerationSoftware,Kicad,Pcbnew,(5.1.10-1-10_14)
FMAT,2
INCH
T1C0.0118
T2C0.0315
T3C0.0394
%
G90
G05
T1
X4.1776Y-4.3421
X4.178Y-4.4232
X4.2185Y-4.3028
X4.2185Y-4.3815
X4.913Y-4.2827
X4.9858Y-4.2563
X5.0587Y-4.2276
X5.1333Y-4.2022
X5.2104Y-4.1793
X5.2862Y-4.1551
X5.3634Y-4.1323
X5.4396Y-4.1085
X5.4689Y-4.3106
X5.513Y-4.0819
X5.5594Y-4.2862
X5.602Y-4.4
X5.6185Y-4.2551
X5.6846Y-4.2339
X5.7012Y-4.4626
X5.7484Y-4.2134
X5.811Y-4.1913
X5.872Y-4.1689
X5.9323Y-4.148
X5.9886Y-4.1276
X6.0421Y-4.1051
X6.3122Y-4.5217
X6.3272Y-4.087
X6.3646Y-4.4693
X6.4102Y-4.4217
X6.4638Y-4.3701
T3
X4.5346Y-4.0035
X4.5346Y-4.6035
X4.6346Y-4.0035
X4.6346Y-4.6035
X4.7346Y-4.0035
X4.7346Y-4.6035
X4.8346Y-4.0035
X4.8346Y-4.4098
X4.8346Y-4.5098
X4.8346Y-4.6035
X4.9346Y-4.0035
X4.9346Y-4.4098
X4.9346Y-4.5098
X4.9346Y-4.6035
X5.0346Y-4.0035
X5.0346Y-4.4098
X5.0346Y-4.5098
X5.0346Y-4.6035
X5.1346Y-4.0035
X5.1346Y-4.4098
X5.1346Y-4.5098
X5.1346Y-4.6035
X5.2346Y-4.0035
X5.2346Y-4.4098
X5.2346Y-4.5098
X5.2346Y-4.6035
X5.3346Y-4.0035
X5.3346Y-4.4098
X5.3346Y-4.5098
X5.3346Y-4.6035
X5.4343Y-4.4098
X5.4343Y-4.5098
X5.4346Y-4.0035
X5.4346Y-4.6035
X5.5346Y-4.0035
X5.5346Y-4.4098
X5.5346Y-4.5098
X5.5346Y-4.6035
X5.6346Y-4.0035
X5.6346Y-4.6035
X5.7346Y-4.0035
X5.7346Y-4.6035
X5.8346Y-4.0035
X5.8346Y-4.6035
X5.9346Y-4.0035
X5.9346Y-4.6035
T2
G00X4.0835Y-4.0173
M15
G01X4.1071Y-4.0173
M16
G05
G00X4.0835Y-4.5882
M15
G01X4.1071Y-4.5882
M16
G05
G00X4.2945Y-4.0173
M15
G01X4.3654Y-4.0173
M16
G05
G00X4.2945Y-4.5882
M15
G01X4.3654Y-4.5882
M16
G05
G00X6.1634Y-4.0177
M15
G01X6.2343Y-4.0177
M16
G05
G00X6.1634Y-4.5886
M15
G01X6.2343Y-4.5886
M16
G05
G00X6.4217Y-4.0177
M15
G01X6.4453Y-4.0177
M16
G05
G00X6.4217Y-4.5886
M15
G01X6.4453Y-4.5886
M16
G05
T0
M30
