G04 #@! TF.GenerationSoftware,KiCad,Pcbnew,(5.1.10-1-10_14)*
G04 #@! TF.CreationDate,2021-11-29T00:01:07-05:00*
G04 #@! TF.ProjectId,SNAC Sniffer SQUARE,534e4143-2053-46e6-9966-666572205351,1*
G04 #@! TF.SameCoordinates,Original*
G04 #@! TF.FileFunction,Soldermask,Top*
G04 #@! TF.FilePolarity,Negative*
%FSLAX46Y46*%
G04 Gerber Fmt 4.6, Leading zero omitted, Abs format (unit mm)*
G04 Created by KiCad (PCBNEW (5.1.10-1-10_14)) date 2021-11-29 00:01:07*
%MOMM*%
%LPD*%
G01*
G04 APERTURE LIST*
%ADD10C,1.601600*%
%ADD11C,1.609600*%
G04 APERTURE END LIST*
D10*
X130530000Y-131690000D03*
X130530000Y-129150000D03*
X133070000Y-131690000D03*
X133070000Y-129150000D03*
X135610000Y-131690000D03*
X135610000Y-129150000D03*
X138150000Y-131690000D03*
X138150000Y-129150000D03*
X140690000Y-131690000D03*
X140690000Y-129150000D03*
X143230000Y-131690000D03*
X143230000Y-129150000D03*
X145770000Y-131690000D03*
X145770000Y-129150000D03*
X148310000Y-131690000D03*
X148310000Y-129150000D03*
G36*
G01*
X120850800Y-94154600D02*
X120850800Y-96405400D01*
G75*
G02*
X120425400Y-96830800I-425400J0D01*
G01*
X119574600Y-96830800D01*
G75*
G02*
X119149200Y-96405400I0J425400D01*
G01*
X119149200Y-94154600D01*
G75*
G02*
X119574600Y-93729200I425400J0D01*
G01*
X120425400Y-93729200D01*
G75*
G02*
X120850800Y-94154600I0J-425400D01*
G01*
G37*
G36*
G01*
X135350800Y-94154600D02*
X135350800Y-96405400D01*
G75*
G02*
X134925400Y-96830800I-425400J0D01*
G01*
X134074600Y-96830800D01*
G75*
G02*
X133649200Y-96405400I0J425400D01*
G01*
X133649200Y-94154600D01*
G75*
G02*
X134074600Y-93729200I425400J0D01*
G01*
X134925400Y-93729200D01*
G75*
G02*
X135350800Y-94154600I0J-425400D01*
G01*
G37*
G36*
G01*
X135350800Y-99714600D02*
X135350800Y-102765400D01*
G75*
G02*
X134925400Y-103190800I-425400J0D01*
G01*
X134074600Y-103190800D01*
G75*
G02*
X133649200Y-102765400I0J425400D01*
G01*
X133649200Y-99714600D01*
G75*
G02*
X134074600Y-99289200I425400J0D01*
G01*
X134925400Y-99289200D01*
G75*
G02*
X135350800Y-99714600I0J-425400D01*
G01*
G37*
G36*
G01*
X120850800Y-99714600D02*
X120850800Y-102765400D01*
G75*
G02*
X120425400Y-103190800I-425400J0D01*
G01*
X119574600Y-103190800D01*
G75*
G02*
X119149200Y-102765400I0J425400D01*
G01*
X119149200Y-99714600D01*
G75*
G02*
X119574600Y-99289200I425400J0D01*
G01*
X120425400Y-99289200D01*
G75*
G02*
X120850800Y-99714600I0J-425400D01*
G01*
G37*
G36*
G01*
X131950800Y-100700000D02*
X131950800Y-103300000D01*
G75*
G02*
X131900000Y-103350800I-50800J0D01*
G01*
X131600000Y-103350800D01*
G75*
G02*
X131549200Y-103300000I0J50800D01*
G01*
X131549200Y-100700000D01*
G75*
G02*
X131600000Y-100649200I50800J0D01*
G01*
X131900000Y-100649200D01*
G75*
G02*
X131950800Y-100700000I0J-50800D01*
G01*
G37*
G36*
G01*
X131450800Y-100700000D02*
X131450800Y-103300000D01*
G75*
G02*
X131400000Y-103350800I-50800J0D01*
G01*
X131100000Y-103350800D01*
G75*
G02*
X131049200Y-103300000I0J50800D01*
G01*
X131049200Y-100700000D01*
G75*
G02*
X131100000Y-100649200I50800J0D01*
G01*
X131400000Y-100649200D01*
G75*
G02*
X131450800Y-100700000I0J-50800D01*
G01*
G37*
G36*
G01*
X130950800Y-100700000D02*
X130950800Y-103300000D01*
G75*
G02*
X130900000Y-103350800I-50800J0D01*
G01*
X130600000Y-103350800D01*
G75*
G02*
X130549200Y-103300000I0J50800D01*
G01*
X130549200Y-100700000D01*
G75*
G02*
X130600000Y-100649200I50800J0D01*
G01*
X130900000Y-100649200D01*
G75*
G02*
X130950800Y-100700000I0J-50800D01*
G01*
G37*
G36*
G01*
X130450800Y-100700000D02*
X130450800Y-103300000D01*
G75*
G02*
X130400000Y-103350800I-50800J0D01*
G01*
X130100000Y-103350800D01*
G75*
G02*
X130049200Y-103300000I0J50800D01*
G01*
X130049200Y-100700000D01*
G75*
G02*
X130100000Y-100649200I50800J0D01*
G01*
X130400000Y-100649200D01*
G75*
G02*
X130450800Y-100700000I0J-50800D01*
G01*
G37*
G36*
G01*
X129950800Y-100700000D02*
X129950800Y-103300000D01*
G75*
G02*
X129900000Y-103350800I-50800J0D01*
G01*
X129600000Y-103350800D01*
G75*
G02*
X129549200Y-103300000I0J50800D01*
G01*
X129549200Y-100700000D01*
G75*
G02*
X129600000Y-100649200I50800J0D01*
G01*
X129900000Y-100649200D01*
G75*
G02*
X129950800Y-100700000I0J-50800D01*
G01*
G37*
G36*
G01*
X129450800Y-100700000D02*
X129450800Y-103300000D01*
G75*
G02*
X129400000Y-103350800I-50800J0D01*
G01*
X129100000Y-103350800D01*
G75*
G02*
X129049200Y-103300000I0J50800D01*
G01*
X129049200Y-100700000D01*
G75*
G02*
X129100000Y-100649200I50800J0D01*
G01*
X129400000Y-100649200D01*
G75*
G02*
X129450800Y-100700000I0J-50800D01*
G01*
G37*
G36*
G01*
X128950800Y-100700000D02*
X128950800Y-103300000D01*
G75*
G02*
X128900000Y-103350800I-50800J0D01*
G01*
X128600000Y-103350800D01*
G75*
G02*
X128549200Y-103300000I0J50800D01*
G01*
X128549200Y-100700000D01*
G75*
G02*
X128600000Y-100649200I50800J0D01*
G01*
X128900000Y-100649200D01*
G75*
G02*
X128950800Y-100700000I0J-50800D01*
G01*
G37*
G36*
G01*
X128450800Y-100700000D02*
X128450800Y-103300000D01*
G75*
G02*
X128400000Y-103350800I-50800J0D01*
G01*
X128100000Y-103350800D01*
G75*
G02*
X128049200Y-103300000I0J50800D01*
G01*
X128049200Y-100700000D01*
G75*
G02*
X128100000Y-100649200I50800J0D01*
G01*
X128400000Y-100649200D01*
G75*
G02*
X128450800Y-100700000I0J-50800D01*
G01*
G37*
G36*
G01*
X127950800Y-100700000D02*
X127950800Y-103300000D01*
G75*
G02*
X127900000Y-103350800I-50800J0D01*
G01*
X127600000Y-103350800D01*
G75*
G02*
X127549200Y-103300000I0J50800D01*
G01*
X127549200Y-100700000D01*
G75*
G02*
X127600000Y-100649200I50800J0D01*
G01*
X127900000Y-100649200D01*
G75*
G02*
X127950800Y-100700000I0J-50800D01*
G01*
G37*
G36*
G01*
X127450800Y-100700000D02*
X127450800Y-103300000D01*
G75*
G02*
X127400000Y-103350800I-50800J0D01*
G01*
X127100000Y-103350800D01*
G75*
G02*
X127049200Y-103300000I0J50800D01*
G01*
X127049200Y-100700000D01*
G75*
G02*
X127100000Y-100649200I50800J0D01*
G01*
X127400000Y-100649200D01*
G75*
G02*
X127450800Y-100700000I0J-50800D01*
G01*
G37*
G36*
G01*
X126950800Y-100700000D02*
X126950800Y-103300000D01*
G75*
G02*
X126900000Y-103350800I-50800J0D01*
G01*
X126600000Y-103350800D01*
G75*
G02*
X126549200Y-103300000I0J50800D01*
G01*
X126549200Y-100700000D01*
G75*
G02*
X126600000Y-100649200I50800J0D01*
G01*
X126900000Y-100649200D01*
G75*
G02*
X126950800Y-100700000I0J-50800D01*
G01*
G37*
G36*
G01*
X126450800Y-100700000D02*
X126450800Y-103300000D01*
G75*
G02*
X126400000Y-103350800I-50800J0D01*
G01*
X126100000Y-103350800D01*
G75*
G02*
X126049200Y-103300000I0J50800D01*
G01*
X126049200Y-100700000D01*
G75*
G02*
X126100000Y-100649200I50800J0D01*
G01*
X126400000Y-100649200D01*
G75*
G02*
X126450800Y-100700000I0J-50800D01*
G01*
G37*
G36*
G01*
X125950800Y-100700000D02*
X125950800Y-103300000D01*
G75*
G02*
X125900000Y-103350800I-50800J0D01*
G01*
X125600000Y-103350800D01*
G75*
G02*
X125549200Y-103300000I0J50800D01*
G01*
X125549200Y-100700000D01*
G75*
G02*
X125600000Y-100649200I50800J0D01*
G01*
X125900000Y-100649200D01*
G75*
G02*
X125950800Y-100700000I0J-50800D01*
G01*
G37*
G36*
G01*
X125450800Y-100700000D02*
X125450800Y-103300000D01*
G75*
G02*
X125400000Y-103350800I-50800J0D01*
G01*
X125100000Y-103350800D01*
G75*
G02*
X125049200Y-103300000I0J50800D01*
G01*
X125049200Y-100700000D01*
G75*
G02*
X125100000Y-100649200I50800J0D01*
G01*
X125400000Y-100649200D01*
G75*
G02*
X125450800Y-100700000I0J-50800D01*
G01*
G37*
G36*
G01*
X124950800Y-100700000D02*
X124950800Y-103300000D01*
G75*
G02*
X124900000Y-103350800I-50800J0D01*
G01*
X124600000Y-103350800D01*
G75*
G02*
X124549200Y-103300000I0J50800D01*
G01*
X124549200Y-100700000D01*
G75*
G02*
X124600000Y-100649200I50800J0D01*
G01*
X124900000Y-100649200D01*
G75*
G02*
X124950800Y-100700000I0J-50800D01*
G01*
G37*
G36*
G01*
X124450800Y-100700000D02*
X124450800Y-103300000D01*
G75*
G02*
X124400000Y-103350800I-50800J0D01*
G01*
X124100000Y-103350800D01*
G75*
G02*
X124049200Y-103300000I0J50800D01*
G01*
X124049200Y-100700000D01*
G75*
G02*
X124100000Y-100649200I50800J0D01*
G01*
X124400000Y-100649200D01*
G75*
G02*
X124450800Y-100700000I0J-50800D01*
G01*
G37*
G36*
G01*
X123950800Y-100700000D02*
X123950800Y-103300000D01*
G75*
G02*
X123900000Y-103350800I-50800J0D01*
G01*
X123600000Y-103350800D01*
G75*
G02*
X123549200Y-103300000I0J50800D01*
G01*
X123549200Y-100700000D01*
G75*
G02*
X123600000Y-100649200I50800J0D01*
G01*
X123900000Y-100649200D01*
G75*
G02*
X123950800Y-100700000I0J-50800D01*
G01*
G37*
G36*
G01*
X123450800Y-100700000D02*
X123450800Y-103300000D01*
G75*
G02*
X123400000Y-103350800I-50800J0D01*
G01*
X123100000Y-103350800D01*
G75*
G02*
X123049200Y-103300000I0J50800D01*
G01*
X123049200Y-100700000D01*
G75*
G02*
X123100000Y-100649200I50800J0D01*
G01*
X123400000Y-100649200D01*
G75*
G02*
X123450800Y-100700000I0J-50800D01*
G01*
G37*
G36*
G01*
X122950800Y-100700000D02*
X122950800Y-103300000D01*
G75*
G02*
X122900000Y-103350800I-50800J0D01*
G01*
X122600000Y-103350800D01*
G75*
G02*
X122549200Y-103300000I0J50800D01*
G01*
X122549200Y-100700000D01*
G75*
G02*
X122600000Y-100649200I50800J0D01*
G01*
X122900000Y-100649200D01*
G75*
G02*
X122950800Y-100700000I0J-50800D01*
G01*
G37*
G36*
G01*
X147170800Y-94154600D02*
X147170800Y-96405400D01*
G75*
G02*
X146745400Y-96830800I-425400J0D01*
G01*
X145894600Y-96830800D01*
G75*
G02*
X145469200Y-96405400I0J425400D01*
G01*
X145469200Y-94154600D01*
G75*
G02*
X145894600Y-93729200I425400J0D01*
G01*
X146745400Y-93729200D01*
G75*
G02*
X147170800Y-94154600I0J-425400D01*
G01*
G37*
G36*
G01*
X161670800Y-94154600D02*
X161670800Y-96405400D01*
G75*
G02*
X161245400Y-96830800I-425400J0D01*
G01*
X160394600Y-96830800D01*
G75*
G02*
X159969200Y-96405400I0J425400D01*
G01*
X159969200Y-94154600D01*
G75*
G02*
X160394600Y-93729200I425400J0D01*
G01*
X161245400Y-93729200D01*
G75*
G02*
X161670800Y-94154600I0J-425400D01*
G01*
G37*
G36*
G01*
X161670800Y-99714600D02*
X161670800Y-102765400D01*
G75*
G02*
X161245400Y-103190800I-425400J0D01*
G01*
X160394600Y-103190800D01*
G75*
G02*
X159969200Y-102765400I0J425400D01*
G01*
X159969200Y-99714600D01*
G75*
G02*
X160394600Y-99289200I425400J0D01*
G01*
X161245400Y-99289200D01*
G75*
G02*
X161670800Y-99714600I0J-425400D01*
G01*
G37*
G36*
G01*
X147170800Y-99714600D02*
X147170800Y-102765400D01*
G75*
G02*
X146745400Y-103190800I-425400J0D01*
G01*
X145894600Y-103190800D01*
G75*
G02*
X145469200Y-102765400I0J425400D01*
G01*
X145469200Y-99714600D01*
G75*
G02*
X145894600Y-99289200I425400J0D01*
G01*
X146745400Y-99289200D01*
G75*
G02*
X147170800Y-99714600I0J-425400D01*
G01*
G37*
G36*
G01*
X158270800Y-100700000D02*
X158270800Y-103300000D01*
G75*
G02*
X158220000Y-103350800I-50800J0D01*
G01*
X157920000Y-103350800D01*
G75*
G02*
X157869200Y-103300000I0J50800D01*
G01*
X157869200Y-100700000D01*
G75*
G02*
X157920000Y-100649200I50800J0D01*
G01*
X158220000Y-100649200D01*
G75*
G02*
X158270800Y-100700000I0J-50800D01*
G01*
G37*
G36*
G01*
X157770800Y-100700000D02*
X157770800Y-103300000D01*
G75*
G02*
X157720000Y-103350800I-50800J0D01*
G01*
X157420000Y-103350800D01*
G75*
G02*
X157369200Y-103300000I0J50800D01*
G01*
X157369200Y-100700000D01*
G75*
G02*
X157420000Y-100649200I50800J0D01*
G01*
X157720000Y-100649200D01*
G75*
G02*
X157770800Y-100700000I0J-50800D01*
G01*
G37*
G36*
G01*
X157270800Y-100700000D02*
X157270800Y-103300000D01*
G75*
G02*
X157220000Y-103350800I-50800J0D01*
G01*
X156920000Y-103350800D01*
G75*
G02*
X156869200Y-103300000I0J50800D01*
G01*
X156869200Y-100700000D01*
G75*
G02*
X156920000Y-100649200I50800J0D01*
G01*
X157220000Y-100649200D01*
G75*
G02*
X157270800Y-100700000I0J-50800D01*
G01*
G37*
G36*
G01*
X156770800Y-100700000D02*
X156770800Y-103300000D01*
G75*
G02*
X156720000Y-103350800I-50800J0D01*
G01*
X156420000Y-103350800D01*
G75*
G02*
X156369200Y-103300000I0J50800D01*
G01*
X156369200Y-100700000D01*
G75*
G02*
X156420000Y-100649200I50800J0D01*
G01*
X156720000Y-100649200D01*
G75*
G02*
X156770800Y-100700000I0J-50800D01*
G01*
G37*
G36*
G01*
X156270800Y-100700000D02*
X156270800Y-103300000D01*
G75*
G02*
X156220000Y-103350800I-50800J0D01*
G01*
X155920000Y-103350800D01*
G75*
G02*
X155869200Y-103300000I0J50800D01*
G01*
X155869200Y-100700000D01*
G75*
G02*
X155920000Y-100649200I50800J0D01*
G01*
X156220000Y-100649200D01*
G75*
G02*
X156270800Y-100700000I0J-50800D01*
G01*
G37*
G36*
G01*
X155770800Y-100700000D02*
X155770800Y-103300000D01*
G75*
G02*
X155720000Y-103350800I-50800J0D01*
G01*
X155420000Y-103350800D01*
G75*
G02*
X155369200Y-103300000I0J50800D01*
G01*
X155369200Y-100700000D01*
G75*
G02*
X155420000Y-100649200I50800J0D01*
G01*
X155720000Y-100649200D01*
G75*
G02*
X155770800Y-100700000I0J-50800D01*
G01*
G37*
G36*
G01*
X155270800Y-100700000D02*
X155270800Y-103300000D01*
G75*
G02*
X155220000Y-103350800I-50800J0D01*
G01*
X154920000Y-103350800D01*
G75*
G02*
X154869200Y-103300000I0J50800D01*
G01*
X154869200Y-100700000D01*
G75*
G02*
X154920000Y-100649200I50800J0D01*
G01*
X155220000Y-100649200D01*
G75*
G02*
X155270800Y-100700000I0J-50800D01*
G01*
G37*
G36*
G01*
X154770800Y-100700000D02*
X154770800Y-103300000D01*
G75*
G02*
X154720000Y-103350800I-50800J0D01*
G01*
X154420000Y-103350800D01*
G75*
G02*
X154369200Y-103300000I0J50800D01*
G01*
X154369200Y-100700000D01*
G75*
G02*
X154420000Y-100649200I50800J0D01*
G01*
X154720000Y-100649200D01*
G75*
G02*
X154770800Y-100700000I0J-50800D01*
G01*
G37*
G36*
G01*
X154270800Y-100700000D02*
X154270800Y-103300000D01*
G75*
G02*
X154220000Y-103350800I-50800J0D01*
G01*
X153920000Y-103350800D01*
G75*
G02*
X153869200Y-103300000I0J50800D01*
G01*
X153869200Y-100700000D01*
G75*
G02*
X153920000Y-100649200I50800J0D01*
G01*
X154220000Y-100649200D01*
G75*
G02*
X154270800Y-100700000I0J-50800D01*
G01*
G37*
G36*
G01*
X153770800Y-100700000D02*
X153770800Y-103300000D01*
G75*
G02*
X153720000Y-103350800I-50800J0D01*
G01*
X153420000Y-103350800D01*
G75*
G02*
X153369200Y-103300000I0J50800D01*
G01*
X153369200Y-100700000D01*
G75*
G02*
X153420000Y-100649200I50800J0D01*
G01*
X153720000Y-100649200D01*
G75*
G02*
X153770800Y-100700000I0J-50800D01*
G01*
G37*
G36*
G01*
X153270800Y-100700000D02*
X153270800Y-103300000D01*
G75*
G02*
X153220000Y-103350800I-50800J0D01*
G01*
X152920000Y-103350800D01*
G75*
G02*
X152869200Y-103300000I0J50800D01*
G01*
X152869200Y-100700000D01*
G75*
G02*
X152920000Y-100649200I50800J0D01*
G01*
X153220000Y-100649200D01*
G75*
G02*
X153270800Y-100700000I0J-50800D01*
G01*
G37*
G36*
G01*
X152770800Y-100700000D02*
X152770800Y-103300000D01*
G75*
G02*
X152720000Y-103350800I-50800J0D01*
G01*
X152420000Y-103350800D01*
G75*
G02*
X152369200Y-103300000I0J50800D01*
G01*
X152369200Y-100700000D01*
G75*
G02*
X152420000Y-100649200I50800J0D01*
G01*
X152720000Y-100649200D01*
G75*
G02*
X152770800Y-100700000I0J-50800D01*
G01*
G37*
G36*
G01*
X152270800Y-100700000D02*
X152270800Y-103300000D01*
G75*
G02*
X152220000Y-103350800I-50800J0D01*
G01*
X151920000Y-103350800D01*
G75*
G02*
X151869200Y-103300000I0J50800D01*
G01*
X151869200Y-100700000D01*
G75*
G02*
X151920000Y-100649200I50800J0D01*
G01*
X152220000Y-100649200D01*
G75*
G02*
X152270800Y-100700000I0J-50800D01*
G01*
G37*
G36*
G01*
X151770800Y-100700000D02*
X151770800Y-103300000D01*
G75*
G02*
X151720000Y-103350800I-50800J0D01*
G01*
X151420000Y-103350800D01*
G75*
G02*
X151369200Y-103300000I0J50800D01*
G01*
X151369200Y-100700000D01*
G75*
G02*
X151420000Y-100649200I50800J0D01*
G01*
X151720000Y-100649200D01*
G75*
G02*
X151770800Y-100700000I0J-50800D01*
G01*
G37*
G36*
G01*
X151270800Y-100700000D02*
X151270800Y-103300000D01*
G75*
G02*
X151220000Y-103350800I-50800J0D01*
G01*
X150920000Y-103350800D01*
G75*
G02*
X150869200Y-103300000I0J50800D01*
G01*
X150869200Y-100700000D01*
G75*
G02*
X150920000Y-100649200I50800J0D01*
G01*
X151220000Y-100649200D01*
G75*
G02*
X151270800Y-100700000I0J-50800D01*
G01*
G37*
G36*
G01*
X150770800Y-100700000D02*
X150770800Y-103300000D01*
G75*
G02*
X150720000Y-103350800I-50800J0D01*
G01*
X150420000Y-103350800D01*
G75*
G02*
X150369200Y-103300000I0J50800D01*
G01*
X150369200Y-100700000D01*
G75*
G02*
X150420000Y-100649200I50800J0D01*
G01*
X150720000Y-100649200D01*
G75*
G02*
X150770800Y-100700000I0J-50800D01*
G01*
G37*
G36*
G01*
X150270800Y-100700000D02*
X150270800Y-103300000D01*
G75*
G02*
X150220000Y-103350800I-50800J0D01*
G01*
X149920000Y-103350800D01*
G75*
G02*
X149869200Y-103300000I0J50800D01*
G01*
X149869200Y-100700000D01*
G75*
G02*
X149920000Y-100649200I50800J0D01*
G01*
X150220000Y-100649200D01*
G75*
G02*
X150270800Y-100700000I0J-50800D01*
G01*
G37*
G36*
G01*
X149770800Y-100700000D02*
X149770800Y-103300000D01*
G75*
G02*
X149720000Y-103350800I-50800J0D01*
G01*
X149420000Y-103350800D01*
G75*
G02*
X149369200Y-103300000I0J50800D01*
G01*
X149369200Y-100700000D01*
G75*
G02*
X149420000Y-100649200I50800J0D01*
G01*
X149720000Y-100649200D01*
G75*
G02*
X149770800Y-100700000I0J-50800D01*
G01*
G37*
G36*
G01*
X149270800Y-100700000D02*
X149270800Y-103300000D01*
G75*
G02*
X149220000Y-103350800I-50800J0D01*
G01*
X148920000Y-103350800D01*
G75*
G02*
X148869200Y-103300000I0J50800D01*
G01*
X148869200Y-100700000D01*
G75*
G02*
X148920000Y-100649200I50800J0D01*
G01*
X149220000Y-100649200D01*
G75*
G02*
X149270800Y-100700000I0J-50800D01*
G01*
G37*
G36*
G01*
X157696000Y-108695200D02*
X159204000Y-108695200D01*
G75*
G02*
X159254800Y-108746000I0J-50800D01*
G01*
X159254800Y-110254000D01*
G75*
G02*
X159204000Y-110304800I-50800J0D01*
G01*
X157696000Y-110304800D01*
G75*
G02*
X157645200Y-110254000I0J50800D01*
G01*
X157645200Y-108746000D01*
G75*
G02*
X157696000Y-108695200I50800J0D01*
G01*
G37*
D11*
X155910000Y-109500000D03*
X153370000Y-109500000D03*
X150830000Y-109500000D03*
X148290000Y-109500000D03*
X145750000Y-109500000D03*
X143210000Y-109500000D03*
X140670000Y-109500000D03*
X138130000Y-109500000D03*
X135590000Y-109500000D03*
X133050000Y-109500000D03*
X130510000Y-109500000D03*
X127970000Y-109500000D03*
X125430000Y-109500000D03*
X122890000Y-109500000D03*
X122890000Y-124740000D03*
X125430000Y-124740000D03*
X127970000Y-124740000D03*
X130510000Y-124740000D03*
X133050000Y-124740000D03*
X135590000Y-124740000D03*
X138130000Y-124740000D03*
X140670000Y-124740000D03*
X143210000Y-124740000D03*
X145750000Y-124740000D03*
X148290000Y-124740000D03*
X150830000Y-124740000D03*
X153370000Y-124740000D03*
X155910000Y-124740000D03*
X158450000Y-124740000D03*
M02*
