G04 #@! TF.GenerationSoftware,KiCad,Pcbnew,(5.1.10-1-10_14)*
G04 #@! TF.CreationDate,2021-11-29T21:51:49-05:00*
G04 #@! TF.ProjectId,SNAC Sniffer Indent,534e4143-2053-46e6-9966-66657220496e,1*
G04 #@! TF.SameCoordinates,Original*
G04 #@! TF.FileFunction,Copper,L1,Top*
G04 #@! TF.FilePolarity,Positive*
%FSLAX46Y46*%
G04 Gerber Fmt 4.6, Leading zero omitted, Abs format (unit mm)*
G04 Created by KiCad (PCBNEW (5.1.10-1-10_14)) date 2021-11-29 21:51:49*
%MOMM*%
%LPD*%
G01*
G04 APERTURE LIST*
G04 #@! TA.AperFunction,ComponentPad*
%ADD10C,1.500000*%
G04 #@! TD*
G04 #@! TA.AperFunction,SMDPad,CuDef*
%ADD11R,2.600000X0.300000*%
G04 #@! TD*
G04 #@! TA.AperFunction,ComponentPad*
%ADD12C,1.508000*%
G04 #@! TD*
G04 #@! TA.AperFunction,ViaPad*
%ADD13C,0.700000*%
G04 #@! TD*
G04 #@! TA.AperFunction,Conductor*
%ADD14C,0.250000*%
G04 #@! TD*
G04 #@! TA.AperFunction,Conductor*
%ADD15C,0.160000*%
G04 #@! TD*
G04 #@! TA.AperFunction,Conductor*
%ADD16C,0.152400*%
G04 #@! TD*
G04 APERTURE END LIST*
D10*
X160750000Y-123140000D03*
X163290000Y-123140000D03*
X163290000Y-120600000D03*
X160750000Y-120600000D03*
X160750000Y-118060000D03*
X163290000Y-118060000D03*
X163290000Y-115520000D03*
X160750000Y-115520000D03*
X160750000Y-112980000D03*
X163290000Y-112980000D03*
X163290000Y-110440000D03*
X160750000Y-110440000D03*
X163290000Y-107900000D03*
X160750000Y-107900000D03*
X160750000Y-105360000D03*
X163290000Y-105360000D03*
G04 #@! TA.AperFunction,ComponentPad*
G36*
G01*
X150630000Y-88420000D02*
X147630000Y-88420000D01*
G75*
G02*
X147230000Y-88020000I0J400000D01*
G01*
X147230000Y-87220000D01*
G75*
G02*
X147630000Y-86820000I400000J0D01*
G01*
X150630000Y-86820000D01*
G75*
G02*
X151030000Y-87220000I0J-400000D01*
G01*
X151030000Y-88020000D01*
G75*
G02*
X150630000Y-88420000I-400000J0D01*
G01*
G37*
G04 #@! TD.AperFunction*
G04 #@! TA.AperFunction,ComponentPad*
G36*
G01*
X150630000Y-102920000D02*
X147630000Y-102920000D01*
G75*
G02*
X147230000Y-102520000I0J400000D01*
G01*
X147230000Y-101720000D01*
G75*
G02*
X147630000Y-101320000I400000J0D01*
G01*
X150630000Y-101320000D01*
G75*
G02*
X151030000Y-101720000I0J-400000D01*
G01*
X151030000Y-102520000D01*
G75*
G02*
X150630000Y-102920000I-400000J0D01*
G01*
G37*
G04 #@! TD.AperFunction*
G04 #@! TA.AperFunction,ComponentPad*
G36*
G01*
X144270000Y-102920000D02*
X142070000Y-102920000D01*
G75*
G02*
X141670000Y-102520000I0J400000D01*
G01*
X141670000Y-101720000D01*
G75*
G02*
X142070000Y-101320000I400000J0D01*
G01*
X144270000Y-101320000D01*
G75*
G02*
X144670000Y-101720000I0J-400000D01*
G01*
X144670000Y-102520000D01*
G75*
G02*
X144270000Y-102920000I-400000J0D01*
G01*
G37*
G04 #@! TD.AperFunction*
G04 #@! TA.AperFunction,ComponentPad*
G36*
G01*
X144270000Y-88420000D02*
X142070000Y-88420000D01*
G75*
G02*
X141670000Y-88020000I0J400000D01*
G01*
X141670000Y-87220000D01*
G75*
G02*
X142070000Y-86820000I400000J0D01*
G01*
X144270000Y-86820000D01*
G75*
G02*
X144670000Y-87220000I0J-400000D01*
G01*
X144670000Y-88020000D01*
G75*
G02*
X144270000Y-88420000I-400000J0D01*
G01*
G37*
G04 #@! TD.AperFunction*
G04 #@! TA.AperFunction,ComponentPad*
G36*
G01*
X161610000Y-88420000D02*
X159410000Y-88420000D01*
G75*
G02*
X159010000Y-88020000I0J400000D01*
G01*
X159010000Y-87220000D01*
G75*
G02*
X159410000Y-86820000I400000J0D01*
G01*
X161610000Y-86820000D01*
G75*
G02*
X162010000Y-87220000I0J-400000D01*
G01*
X162010000Y-88020000D01*
G75*
G02*
X161610000Y-88420000I-400000J0D01*
G01*
G37*
G04 #@! TD.AperFunction*
G04 #@! TA.AperFunction,ComponentPad*
G36*
G01*
X161610000Y-102920000D02*
X159410000Y-102920000D01*
G75*
G02*
X159010000Y-102520000I0J400000D01*
G01*
X159010000Y-101720000D01*
G75*
G02*
X159410000Y-101320000I400000J0D01*
G01*
X161610000Y-101320000D01*
G75*
G02*
X162010000Y-101720000I0J-400000D01*
G01*
X162010000Y-102520000D01*
G75*
G02*
X161610000Y-102920000I-400000J0D01*
G01*
G37*
G04 #@! TD.AperFunction*
G04 #@! TA.AperFunction,ComponentPad*
G36*
G01*
X156050000Y-102920000D02*
X153050000Y-102920000D01*
G75*
G02*
X152650000Y-102520000I0J400000D01*
G01*
X152650000Y-101720000D01*
G75*
G02*
X153050000Y-101320000I400000J0D01*
G01*
X156050000Y-101320000D01*
G75*
G02*
X156450000Y-101720000I0J-400000D01*
G01*
X156450000Y-102520000D01*
G75*
G02*
X156050000Y-102920000I-400000J0D01*
G01*
G37*
G04 #@! TD.AperFunction*
G04 #@! TA.AperFunction,ComponentPad*
G36*
G01*
X156050000Y-88420000D02*
X153050000Y-88420000D01*
G75*
G02*
X152650000Y-88020000I0J400000D01*
G01*
X152650000Y-87220000D01*
G75*
G02*
X153050000Y-86820000I400000J0D01*
G01*
X156050000Y-86820000D01*
G75*
G02*
X156450000Y-87220000I0J-400000D01*
G01*
X156450000Y-88020000D01*
G75*
G02*
X156050000Y-88420000I-400000J0D01*
G01*
G37*
G04 #@! TD.AperFunction*
D11*
X153790000Y-99370000D03*
X153790000Y-98870000D03*
X153790000Y-98370000D03*
X153790000Y-97870000D03*
X153790000Y-97370000D03*
X153790000Y-96870000D03*
X153790000Y-96370000D03*
X153790000Y-95870000D03*
X153790000Y-95370000D03*
X153790000Y-94870000D03*
X153790000Y-94370000D03*
X153790000Y-93870000D03*
X153790000Y-93370000D03*
X153790000Y-92870000D03*
X153790000Y-92370000D03*
X153790000Y-91870000D03*
X153790000Y-91370000D03*
X153790000Y-90870000D03*
X153790000Y-90370000D03*
D12*
X154910000Y-123760000D03*
X152370000Y-123760000D03*
X149830000Y-123760000D03*
X147290000Y-123760000D03*
X144750000Y-123760000D03*
X142210000Y-123760000D03*
X139670000Y-123760000D03*
X137130000Y-123760000D03*
X134590000Y-123760000D03*
X132050000Y-123760000D03*
X129510000Y-123760000D03*
X126970000Y-123760000D03*
X124430000Y-123760000D03*
X121890000Y-123760000D03*
X119350000Y-123760000D03*
X121890000Y-108520000D03*
X124430000Y-108520000D03*
X126970000Y-108520000D03*
X129510000Y-108520000D03*
X132050000Y-108520000D03*
X134590000Y-108520000D03*
X137130000Y-108520000D03*
X139670000Y-108520000D03*
X142210000Y-108520000D03*
X144750000Y-108520000D03*
X147290000Y-108520000D03*
D13*
X129510000Y-121330000D03*
X132050000Y-120080000D03*
X134593605Y-118873767D03*
X137127020Y-117657405D03*
X146240000Y-90370000D03*
X156100000Y-90870000D03*
X160640002Y-97160000D03*
X147560000Y-99370000D03*
X147560000Y-91370000D03*
X157300000Y-91870000D03*
X159281805Y-95881238D03*
X161430000Y-98240000D03*
X146240000Y-98390000D03*
X146230000Y-92360002D03*
X156090000Y-92870000D03*
X160543042Y-94851949D03*
X147560000Y-97390000D03*
X147550000Y-93370000D03*
X141149998Y-100040000D03*
X158680000Y-93890000D03*
X146230000Y-94369999D03*
X146237027Y-96380386D03*
X140390000Y-99120000D03*
X155674424Y-94867087D03*
X147549998Y-95370000D03*
X157140000Y-94870000D03*
X157851272Y-95885852D03*
X158600000Y-97210000D03*
X157850000Y-98380000D03*
X156910004Y-99230000D03*
X155670000Y-99230000D03*
X139672920Y-116419237D03*
X142211865Y-115222805D03*
X144750000Y-114029999D03*
D14*
X126970000Y-123760000D02*
X128310000Y-122420000D01*
X128310000Y-122420000D02*
X136710000Y-122420000D01*
X136710000Y-122420000D02*
X160030000Y-122420000D01*
X160030000Y-122420000D02*
X160750000Y-123140000D01*
X129815001Y-121635001D02*
X159714999Y-121635001D01*
X129510000Y-121330000D02*
X129815001Y-121635001D01*
X159714999Y-121635001D02*
X160750000Y-120600000D01*
X160750000Y-118060000D02*
X158730000Y-120080000D01*
X158730000Y-120080000D02*
X132050000Y-120080000D01*
X160750000Y-115520000D02*
X157396233Y-118873767D01*
X157396233Y-118873767D02*
X134593605Y-118873767D01*
X160750000Y-112980000D02*
X156072595Y-117657405D01*
X156072595Y-117657405D02*
X137127020Y-117657405D01*
X146240000Y-90370000D02*
X153790000Y-90370000D01*
X153790000Y-90870000D02*
X156100000Y-90870000D01*
X161930000Y-97160000D02*
X160640002Y-97160000D01*
X162690000Y-92600000D02*
X162690000Y-96400000D01*
X162690000Y-96400000D02*
X161930000Y-97160000D01*
X160960000Y-90870000D02*
X162690000Y-92600000D01*
X156100000Y-90870000D02*
X160960000Y-90870000D01*
X147560000Y-91370000D02*
X153800000Y-91370000D01*
X153800000Y-91370000D02*
X153790000Y-91370000D01*
X141260000Y-106930000D02*
X139670000Y-108520000D01*
X144050000Y-106930000D02*
X141260000Y-106930000D01*
X146410000Y-104570000D02*
X144050000Y-106930000D01*
X146410000Y-100520000D02*
X146410000Y-104570000D01*
X147560000Y-99370000D02*
X146410000Y-100520000D01*
X153790000Y-91870000D02*
X157300000Y-91870000D01*
X159310000Y-95990000D02*
X159310000Y-95990000D01*
X161660000Y-95320000D02*
X161098762Y-95881238D01*
X161660000Y-93080000D02*
X161660000Y-95320000D01*
X161098762Y-95881238D02*
X159281805Y-95881238D01*
X160450000Y-91870000D02*
X161660000Y-93080000D01*
X157300000Y-91870000D02*
X160450000Y-91870000D01*
X138650000Y-110040000D02*
X137130000Y-108520000D01*
X151960000Y-108150000D02*
X150070000Y-110040000D01*
X151960000Y-104140000D02*
X151960000Y-108150000D01*
X151950000Y-104130000D02*
X151960000Y-104140000D01*
X151950000Y-100890000D02*
X151950000Y-104130000D01*
X150070000Y-110040000D02*
X138650000Y-110040000D01*
X152280000Y-100560000D02*
X151950000Y-100890000D01*
X157800000Y-100560000D02*
X152280000Y-100560000D01*
X160120000Y-98240000D02*
X157800000Y-100560000D01*
X161430000Y-98240000D02*
X160120000Y-98240000D01*
X153790000Y-92370000D02*
X146239998Y-92370000D01*
X146239998Y-92370000D02*
X146230000Y-92360002D01*
X143170000Y-106170000D02*
X145540000Y-103800000D01*
X145540000Y-99090000D02*
X146240000Y-98390000D01*
X145540000Y-103800000D02*
X145540000Y-99090000D01*
X136940000Y-106170000D02*
X143170000Y-106170000D01*
X134590000Y-108520000D02*
X136940000Y-106170000D01*
X153790000Y-92870000D02*
X156090000Y-92870000D01*
X160540000Y-94790000D02*
X160540000Y-94790000D01*
X156090000Y-92870000D02*
X159970000Y-92870000D01*
X160543042Y-93443042D02*
X160543042Y-94851949D01*
X159970000Y-92870000D02*
X160543042Y-93443042D01*
X147550000Y-93370000D02*
X153790000Y-93370000D01*
X143799998Y-97390000D02*
X141149998Y-100040000D01*
X147560000Y-97390000D02*
X143799998Y-97390000D01*
X158680000Y-93890000D02*
X153810000Y-93890000D01*
X153810000Y-93890000D02*
X153790000Y-93870000D01*
X152239999Y-94369999D02*
X146230000Y-94369999D01*
X153790000Y-94370000D02*
X152239999Y-94369999D01*
X143129614Y-96380386D02*
X140390000Y-99120000D01*
X146237027Y-96380386D02*
X143129614Y-96380386D01*
X153790000Y-94870000D02*
X155671511Y-94870000D01*
X155671511Y-94870000D02*
X155674424Y-94867087D01*
X147549998Y-95370000D02*
X153790000Y-95370000D01*
X125230000Y-105180000D02*
X121890000Y-108520000D01*
X138820000Y-105180000D02*
X125230000Y-105180000D01*
X139190000Y-98400000D02*
X139190000Y-104810000D01*
X142220000Y-95370000D02*
X139190000Y-98400000D01*
X139190000Y-104810000D02*
X138820000Y-105180000D01*
X147549998Y-95370000D02*
X142220000Y-95370000D01*
X156140000Y-95870000D02*
X157140000Y-94870000D01*
X153790000Y-95870000D02*
X156140000Y-95870000D01*
X153790000Y-96370000D02*
X157367124Y-96370000D01*
X157367124Y-96370000D02*
X157851272Y-95885852D01*
X153790000Y-96870000D02*
X158260000Y-96870000D01*
X158260000Y-96870000D02*
X158600000Y-97210000D01*
X153790000Y-97870000D02*
X157340000Y-97870000D01*
X157340000Y-97870000D02*
X157850000Y-98380000D01*
X153790000Y-98370000D02*
X156050004Y-98370000D01*
X156050004Y-98370000D02*
X156910004Y-99230000D01*
X153790000Y-98870000D02*
X155130000Y-98870000D01*
X155130000Y-98870000D02*
X155310000Y-98870000D01*
X155310000Y-98870000D02*
X155670000Y-99230000D01*
X155670000Y-99230000D02*
X155670000Y-99230000D01*
X160750000Y-110440000D02*
X154770763Y-116419237D01*
X154770763Y-116419237D02*
X139672920Y-116419237D01*
X160750000Y-107900000D02*
X153427195Y-115222805D01*
X153427195Y-115222805D02*
X142211865Y-115222805D01*
X160750000Y-105360000D02*
X152080001Y-114029999D01*
X152080001Y-114029999D02*
X144750000Y-114029999D01*
D15*
X141344775Y-86755309D02*
X141338403Y-86820000D01*
X141340000Y-87492500D01*
X141422500Y-87575000D01*
X143125000Y-87575000D01*
X143125000Y-87555000D01*
X143215000Y-87555000D01*
X143215000Y-87575000D01*
X144917500Y-87575000D01*
X145000000Y-87492500D01*
X145001597Y-86820000D01*
X144995225Y-86755309D01*
X144987548Y-86730000D01*
X146912452Y-86730000D01*
X146904775Y-86755309D01*
X146898403Y-86820000D01*
X146900000Y-87492500D01*
X146982500Y-87575000D01*
X149085000Y-87575000D01*
X149085000Y-87555000D01*
X149175000Y-87555000D01*
X149175000Y-87575000D01*
X151277500Y-87575000D01*
X151360000Y-87492500D01*
X151361597Y-86820000D01*
X151355225Y-86755309D01*
X151347548Y-86730000D01*
X152332452Y-86730000D01*
X152324775Y-86755309D01*
X152318403Y-86820000D01*
X152320000Y-87492500D01*
X152402500Y-87575000D01*
X154505000Y-87575000D01*
X154505000Y-87555000D01*
X154595000Y-87555000D01*
X154595000Y-87575000D01*
X156697500Y-87575000D01*
X156780000Y-87492500D01*
X156781597Y-86820000D01*
X156775225Y-86755309D01*
X156767548Y-86730000D01*
X158692452Y-86730000D01*
X158684775Y-86755309D01*
X158678403Y-86820000D01*
X158680000Y-87492500D01*
X158762500Y-87575000D01*
X160465000Y-87575000D01*
X160465000Y-87555000D01*
X160555000Y-87555000D01*
X160555000Y-87575000D01*
X162257500Y-87575000D01*
X162340000Y-87492500D01*
X162341597Y-86820000D01*
X162335225Y-86755309D01*
X162327548Y-86730000D01*
X163525816Y-86730000D01*
X163871874Y-86763931D01*
X164191109Y-86860314D01*
X164485545Y-87016869D01*
X164743960Y-87227626D01*
X164956522Y-87484570D01*
X165115124Y-87777898D01*
X165213735Y-88096455D01*
X165250024Y-88441722D01*
X165250025Y-123365806D01*
X165216093Y-123711872D01*
X165119710Y-124031109D01*
X164963155Y-124325545D01*
X164752398Y-124583960D01*
X164495455Y-124796522D01*
X164202123Y-124955125D01*
X163883565Y-125053736D01*
X163538302Y-125090024D01*
X117214184Y-125090024D01*
X116868128Y-125056093D01*
X116548891Y-124959710D01*
X116254455Y-124803155D01*
X115996040Y-124592398D01*
X115783478Y-124335455D01*
X115624875Y-124042123D01*
X115526264Y-123723565D01*
X115519804Y-123662100D01*
X118356000Y-123662100D01*
X118356000Y-123857900D01*
X118394198Y-124049939D01*
X118469128Y-124230836D01*
X118577909Y-124393638D01*
X118716362Y-124532091D01*
X118879164Y-124640872D01*
X119060061Y-124715802D01*
X119252100Y-124754000D01*
X119447900Y-124754000D01*
X119639939Y-124715802D01*
X119820836Y-124640872D01*
X119983638Y-124532091D01*
X120122091Y-124393638D01*
X120230872Y-124230836D01*
X120305802Y-124049939D01*
X120344000Y-123857900D01*
X120344000Y-123662100D01*
X120896000Y-123662100D01*
X120896000Y-123857900D01*
X120934198Y-124049939D01*
X121009128Y-124230836D01*
X121117909Y-124393638D01*
X121256362Y-124532091D01*
X121419164Y-124640872D01*
X121600061Y-124715802D01*
X121792100Y-124754000D01*
X121987900Y-124754000D01*
X122179939Y-124715802D01*
X122360836Y-124640872D01*
X122523638Y-124532091D01*
X122662091Y-124393638D01*
X122770872Y-124230836D01*
X122845802Y-124049939D01*
X122884000Y-123857900D01*
X122884000Y-123662100D01*
X123436000Y-123662100D01*
X123436000Y-123857900D01*
X123474198Y-124049939D01*
X123549128Y-124230836D01*
X123657909Y-124393638D01*
X123796362Y-124532091D01*
X123959164Y-124640872D01*
X124140061Y-124715802D01*
X124332100Y-124754000D01*
X124527900Y-124754000D01*
X124719939Y-124715802D01*
X124900836Y-124640872D01*
X125063638Y-124532091D01*
X125202091Y-124393638D01*
X125310872Y-124230836D01*
X125385802Y-124049939D01*
X125424000Y-123857900D01*
X125424000Y-123662100D01*
X125976000Y-123662100D01*
X125976000Y-123857900D01*
X126014198Y-124049939D01*
X126089128Y-124230836D01*
X126197909Y-124393638D01*
X126336362Y-124532091D01*
X126499164Y-124640872D01*
X126680061Y-124715802D01*
X126872100Y-124754000D01*
X127067900Y-124754000D01*
X127259939Y-124715802D01*
X127440836Y-124640872D01*
X127603638Y-124532091D01*
X127742091Y-124393638D01*
X127850872Y-124230836D01*
X127925802Y-124049939D01*
X127964000Y-123857900D01*
X127964000Y-123662100D01*
X127925802Y-123470061D01*
X127881963Y-123364224D01*
X128461187Y-122785000D01*
X129316578Y-122785000D01*
X129220061Y-122804198D01*
X129039164Y-122879128D01*
X128876362Y-122987909D01*
X128737909Y-123126362D01*
X128629128Y-123289164D01*
X128554198Y-123470061D01*
X128516000Y-123662100D01*
X128516000Y-123857900D01*
X128554198Y-124049939D01*
X128629128Y-124230836D01*
X128737909Y-124393638D01*
X128876362Y-124532091D01*
X129039164Y-124640872D01*
X129220061Y-124715802D01*
X129412100Y-124754000D01*
X129607900Y-124754000D01*
X129799939Y-124715802D01*
X129980836Y-124640872D01*
X130143638Y-124532091D01*
X130282091Y-124393638D01*
X130390872Y-124230836D01*
X130465802Y-124049939D01*
X130504000Y-123857900D01*
X130504000Y-123662100D01*
X130465802Y-123470061D01*
X130390872Y-123289164D01*
X130282091Y-123126362D01*
X130143638Y-122987909D01*
X129980836Y-122879128D01*
X129799939Y-122804198D01*
X129703422Y-122785000D01*
X131856578Y-122785000D01*
X131760061Y-122804198D01*
X131579164Y-122879128D01*
X131416362Y-122987909D01*
X131277909Y-123126362D01*
X131169128Y-123289164D01*
X131094198Y-123470061D01*
X131056000Y-123662100D01*
X131056000Y-123857900D01*
X131094198Y-124049939D01*
X131169128Y-124230836D01*
X131277909Y-124393638D01*
X131416362Y-124532091D01*
X131579164Y-124640872D01*
X131760061Y-124715802D01*
X131952100Y-124754000D01*
X132147900Y-124754000D01*
X132339939Y-124715802D01*
X132520836Y-124640872D01*
X132683638Y-124532091D01*
X132822091Y-124393638D01*
X132930872Y-124230836D01*
X133005802Y-124049939D01*
X133044000Y-123857900D01*
X133044000Y-123662100D01*
X133005802Y-123470061D01*
X132930872Y-123289164D01*
X132822091Y-123126362D01*
X132683638Y-122987909D01*
X132520836Y-122879128D01*
X132339939Y-122804198D01*
X132243422Y-122785000D01*
X134396578Y-122785000D01*
X134300061Y-122804198D01*
X134119164Y-122879128D01*
X133956362Y-122987909D01*
X133817909Y-123126362D01*
X133709128Y-123289164D01*
X133634198Y-123470061D01*
X133596000Y-123662100D01*
X133596000Y-123857900D01*
X133634198Y-124049939D01*
X133709128Y-124230836D01*
X133817909Y-124393638D01*
X133956362Y-124532091D01*
X134119164Y-124640872D01*
X134300061Y-124715802D01*
X134492100Y-124754000D01*
X134687900Y-124754000D01*
X134879939Y-124715802D01*
X135060836Y-124640872D01*
X135223638Y-124532091D01*
X135362091Y-124393638D01*
X135470872Y-124230836D01*
X135545802Y-124049939D01*
X135584000Y-123857900D01*
X135584000Y-123662100D01*
X135545802Y-123470061D01*
X135470872Y-123289164D01*
X135362091Y-123126362D01*
X135223638Y-122987909D01*
X135060836Y-122879128D01*
X134879939Y-122804198D01*
X134783422Y-122785000D01*
X136936578Y-122785000D01*
X136840061Y-122804198D01*
X136659164Y-122879128D01*
X136496362Y-122987909D01*
X136357909Y-123126362D01*
X136249128Y-123289164D01*
X136174198Y-123470061D01*
X136136000Y-123662100D01*
X136136000Y-123857900D01*
X136174198Y-124049939D01*
X136249128Y-124230836D01*
X136357909Y-124393638D01*
X136496362Y-124532091D01*
X136659164Y-124640872D01*
X136840061Y-124715802D01*
X137032100Y-124754000D01*
X137227900Y-124754000D01*
X137419939Y-124715802D01*
X137600836Y-124640872D01*
X137763638Y-124532091D01*
X137902091Y-124393638D01*
X138010872Y-124230836D01*
X138085802Y-124049939D01*
X138124000Y-123857900D01*
X138124000Y-123662100D01*
X138085802Y-123470061D01*
X138010872Y-123289164D01*
X137902091Y-123126362D01*
X137763638Y-122987909D01*
X137600836Y-122879128D01*
X137419939Y-122804198D01*
X137323422Y-122785000D01*
X139476578Y-122785000D01*
X139380061Y-122804198D01*
X139199164Y-122879128D01*
X139036362Y-122987909D01*
X138897909Y-123126362D01*
X138789128Y-123289164D01*
X138714198Y-123470061D01*
X138676000Y-123662100D01*
X138676000Y-123857900D01*
X138714198Y-124049939D01*
X138789128Y-124230836D01*
X138897909Y-124393638D01*
X139036362Y-124532091D01*
X139199164Y-124640872D01*
X139380061Y-124715802D01*
X139572100Y-124754000D01*
X139767900Y-124754000D01*
X139959939Y-124715802D01*
X140140836Y-124640872D01*
X140303638Y-124532091D01*
X140442091Y-124393638D01*
X140550872Y-124230836D01*
X140625802Y-124049939D01*
X140664000Y-123857900D01*
X140664000Y-123662100D01*
X140625802Y-123470061D01*
X140550872Y-123289164D01*
X140442091Y-123126362D01*
X140303638Y-122987909D01*
X140140836Y-122879128D01*
X139959939Y-122804198D01*
X139863422Y-122785000D01*
X142016578Y-122785000D01*
X141920061Y-122804198D01*
X141739164Y-122879128D01*
X141576362Y-122987909D01*
X141437909Y-123126362D01*
X141329128Y-123289164D01*
X141254198Y-123470061D01*
X141216000Y-123662100D01*
X141216000Y-123857900D01*
X141254198Y-124049939D01*
X141329128Y-124230836D01*
X141437909Y-124393638D01*
X141576362Y-124532091D01*
X141739164Y-124640872D01*
X141920061Y-124715802D01*
X142112100Y-124754000D01*
X142307900Y-124754000D01*
X142499939Y-124715802D01*
X142680836Y-124640872D01*
X142843638Y-124532091D01*
X142982091Y-124393638D01*
X143090872Y-124230836D01*
X143165802Y-124049939D01*
X143204000Y-123857900D01*
X143204000Y-123662100D01*
X143165802Y-123470061D01*
X143090872Y-123289164D01*
X142982091Y-123126362D01*
X142843638Y-122987909D01*
X142680836Y-122879128D01*
X142499939Y-122804198D01*
X142403422Y-122785000D01*
X144556578Y-122785000D01*
X144460061Y-122804198D01*
X144279164Y-122879128D01*
X144116362Y-122987909D01*
X143977909Y-123126362D01*
X143869128Y-123289164D01*
X143794198Y-123470061D01*
X143756000Y-123662100D01*
X143756000Y-123857900D01*
X143794198Y-124049939D01*
X143869128Y-124230836D01*
X143977909Y-124393638D01*
X144116362Y-124532091D01*
X144279164Y-124640872D01*
X144460061Y-124715802D01*
X144652100Y-124754000D01*
X144847900Y-124754000D01*
X145039939Y-124715802D01*
X145220836Y-124640872D01*
X145383638Y-124532091D01*
X145522091Y-124393638D01*
X145630872Y-124230836D01*
X145705802Y-124049939D01*
X145744000Y-123857900D01*
X145744000Y-123662100D01*
X145705802Y-123470061D01*
X145630872Y-123289164D01*
X145522091Y-123126362D01*
X145383638Y-122987909D01*
X145220836Y-122879128D01*
X145039939Y-122804198D01*
X144943422Y-122785000D01*
X147096578Y-122785000D01*
X147000061Y-122804198D01*
X146819164Y-122879128D01*
X146656362Y-122987909D01*
X146517909Y-123126362D01*
X146409128Y-123289164D01*
X146334198Y-123470061D01*
X146296000Y-123662100D01*
X146296000Y-123857900D01*
X146334198Y-124049939D01*
X146409128Y-124230836D01*
X146517909Y-124393638D01*
X146656362Y-124532091D01*
X146819164Y-124640872D01*
X147000061Y-124715802D01*
X147192100Y-124754000D01*
X147387900Y-124754000D01*
X147579939Y-124715802D01*
X147760836Y-124640872D01*
X147923638Y-124532091D01*
X148062091Y-124393638D01*
X148170872Y-124230836D01*
X148245802Y-124049939D01*
X148284000Y-123857900D01*
X148284000Y-123662100D01*
X148245802Y-123470061D01*
X148170872Y-123289164D01*
X148062091Y-123126362D01*
X147923638Y-122987909D01*
X147760836Y-122879128D01*
X147579939Y-122804198D01*
X147483422Y-122785000D01*
X149636578Y-122785000D01*
X149540061Y-122804198D01*
X149359164Y-122879128D01*
X149196362Y-122987909D01*
X149057909Y-123126362D01*
X148949128Y-123289164D01*
X148874198Y-123470061D01*
X148836000Y-123662100D01*
X148836000Y-123857900D01*
X148874198Y-124049939D01*
X148949128Y-124230836D01*
X149057909Y-124393638D01*
X149196362Y-124532091D01*
X149359164Y-124640872D01*
X149540061Y-124715802D01*
X149732100Y-124754000D01*
X149927900Y-124754000D01*
X150119939Y-124715802D01*
X150300836Y-124640872D01*
X150463638Y-124532091D01*
X150492744Y-124502985D01*
X151690655Y-124502985D01*
X151766711Y-124666915D01*
X151955233Y-124767185D01*
X152159695Y-124828749D01*
X152372239Y-124849243D01*
X152584697Y-124827876D01*
X152788904Y-124765472D01*
X152973289Y-124666915D01*
X153049345Y-124502985D01*
X152370000Y-123823640D01*
X151690655Y-124502985D01*
X150492744Y-124502985D01*
X150602091Y-124393638D01*
X150710872Y-124230836D01*
X150785802Y-124049939D01*
X150824000Y-123857900D01*
X150824000Y-123762239D01*
X151280757Y-123762239D01*
X151302124Y-123974697D01*
X151364528Y-124178904D01*
X151463085Y-124363289D01*
X151627015Y-124439345D01*
X152306360Y-123760000D01*
X152433640Y-123760000D01*
X153112985Y-124439345D01*
X153276915Y-124363289D01*
X153377185Y-124174767D01*
X153438749Y-123970305D01*
X153459243Y-123757761D01*
X153437876Y-123545303D01*
X153375472Y-123341096D01*
X153276915Y-123156711D01*
X153112985Y-123080655D01*
X152433640Y-123760000D01*
X152306360Y-123760000D01*
X151627015Y-123080655D01*
X151463085Y-123156711D01*
X151362815Y-123345233D01*
X151301251Y-123549695D01*
X151280757Y-123762239D01*
X150824000Y-123762239D01*
X150824000Y-123662100D01*
X150785802Y-123470061D01*
X150710872Y-123289164D01*
X150602091Y-123126362D01*
X150463638Y-122987909D01*
X150300836Y-122879128D01*
X150119939Y-122804198D01*
X150023422Y-122785000D01*
X151894088Y-122785000D01*
X151766711Y-122853085D01*
X151690655Y-123017015D01*
X152370000Y-123696360D01*
X153049345Y-123017015D01*
X152973289Y-122853085D01*
X152845279Y-122785000D01*
X154716578Y-122785000D01*
X154620061Y-122804198D01*
X154439164Y-122879128D01*
X154276362Y-122987909D01*
X154137909Y-123126362D01*
X154029128Y-123289164D01*
X153954198Y-123470061D01*
X153916000Y-123662100D01*
X153916000Y-123857900D01*
X153954198Y-124049939D01*
X154029128Y-124230836D01*
X154137909Y-124393638D01*
X154276362Y-124532091D01*
X154439164Y-124640872D01*
X154620061Y-124715802D01*
X154812100Y-124754000D01*
X155007900Y-124754000D01*
X155199939Y-124715802D01*
X155380836Y-124640872D01*
X155543638Y-124532091D01*
X155682091Y-124393638D01*
X155790872Y-124230836D01*
X155865802Y-124049939D01*
X155904000Y-123857900D01*
X155904000Y-123662100D01*
X155865802Y-123470061D01*
X155790872Y-123289164D01*
X155682091Y-123126362D01*
X155543638Y-122987909D01*
X155380836Y-122879128D01*
X155199939Y-122804198D01*
X155103422Y-122785000D01*
X159825478Y-122785000D01*
X159798045Y-122851228D01*
X159760000Y-123042494D01*
X159760000Y-123237506D01*
X159798045Y-123428772D01*
X159872674Y-123608941D01*
X159981017Y-123771088D01*
X160118912Y-123908983D01*
X160281059Y-124017326D01*
X160461228Y-124091955D01*
X160652494Y-124130000D01*
X160847506Y-124130000D01*
X161038772Y-124091955D01*
X161218941Y-124017326D01*
X161381088Y-123908983D01*
X161409931Y-123880140D01*
X162613500Y-123880140D01*
X162689074Y-124043662D01*
X162876917Y-124143533D01*
X163080633Y-124204838D01*
X163292396Y-124225223D01*
X163504067Y-124203903D01*
X163707510Y-124141698D01*
X163890926Y-124043662D01*
X163966500Y-123880140D01*
X163290000Y-123203640D01*
X162613500Y-123880140D01*
X161409931Y-123880140D01*
X161518983Y-123771088D01*
X161627326Y-123608941D01*
X161701955Y-123428772D01*
X161740000Y-123237506D01*
X161740000Y-123142396D01*
X162204777Y-123142396D01*
X162226097Y-123354067D01*
X162288302Y-123557510D01*
X162386338Y-123740926D01*
X162549860Y-123816500D01*
X163226360Y-123140000D01*
X163353640Y-123140000D01*
X164030140Y-123816500D01*
X164193662Y-123740926D01*
X164293533Y-123553083D01*
X164354838Y-123349367D01*
X164375223Y-123137604D01*
X164353903Y-122925933D01*
X164291698Y-122722490D01*
X164193662Y-122539074D01*
X164030140Y-122463500D01*
X163353640Y-123140000D01*
X163226360Y-123140000D01*
X162549860Y-122463500D01*
X162386338Y-122539074D01*
X162286467Y-122726917D01*
X162225162Y-122930633D01*
X162204777Y-123142396D01*
X161740000Y-123142396D01*
X161740000Y-123042494D01*
X161701955Y-122851228D01*
X161627326Y-122671059D01*
X161518983Y-122508912D01*
X161409931Y-122399860D01*
X162613500Y-122399860D01*
X163290000Y-123076360D01*
X163966500Y-122399860D01*
X163890926Y-122236338D01*
X163703083Y-122136467D01*
X163499367Y-122075162D01*
X163287604Y-122054777D01*
X163075933Y-122076097D01*
X162872490Y-122138302D01*
X162689074Y-122236338D01*
X162613500Y-122399860D01*
X161409931Y-122399860D01*
X161381088Y-122371017D01*
X161218941Y-122262674D01*
X161038772Y-122188045D01*
X160847506Y-122150000D01*
X160652494Y-122150000D01*
X160461228Y-122188045D01*
X160357286Y-122231099D01*
X160300779Y-122174592D01*
X160289343Y-122160657D01*
X160233764Y-122115045D01*
X160170355Y-122081152D01*
X160101552Y-122060281D01*
X160047931Y-122055000D01*
X160047929Y-122055000D01*
X160030000Y-122053234D01*
X160012071Y-122055000D01*
X128327928Y-122055000D01*
X128309999Y-122053234D01*
X128292070Y-122055000D01*
X128292069Y-122055000D01*
X128238448Y-122060281D01*
X128169645Y-122081152D01*
X128106236Y-122115045D01*
X128050657Y-122160657D01*
X128039221Y-122174592D01*
X127365776Y-122848037D01*
X127259939Y-122804198D01*
X127067900Y-122766000D01*
X126872100Y-122766000D01*
X126680061Y-122804198D01*
X126499164Y-122879128D01*
X126336362Y-122987909D01*
X126197909Y-123126362D01*
X126089128Y-123289164D01*
X126014198Y-123470061D01*
X125976000Y-123662100D01*
X125424000Y-123662100D01*
X125385802Y-123470061D01*
X125310872Y-123289164D01*
X125202091Y-123126362D01*
X125063638Y-122987909D01*
X124900836Y-122879128D01*
X124719939Y-122804198D01*
X124527900Y-122766000D01*
X124332100Y-122766000D01*
X124140061Y-122804198D01*
X123959164Y-122879128D01*
X123796362Y-122987909D01*
X123657909Y-123126362D01*
X123549128Y-123289164D01*
X123474198Y-123470061D01*
X123436000Y-123662100D01*
X122884000Y-123662100D01*
X122845802Y-123470061D01*
X122770872Y-123289164D01*
X122662091Y-123126362D01*
X122523638Y-122987909D01*
X122360836Y-122879128D01*
X122179939Y-122804198D01*
X121987900Y-122766000D01*
X121792100Y-122766000D01*
X121600061Y-122804198D01*
X121419164Y-122879128D01*
X121256362Y-122987909D01*
X121117909Y-123126362D01*
X121009128Y-123289164D01*
X120934198Y-123470061D01*
X120896000Y-123662100D01*
X120344000Y-123662100D01*
X120305802Y-123470061D01*
X120230872Y-123289164D01*
X120122091Y-123126362D01*
X119983638Y-122987909D01*
X119820836Y-122879128D01*
X119639939Y-122804198D01*
X119447900Y-122766000D01*
X119252100Y-122766000D01*
X119060061Y-122804198D01*
X118879164Y-122879128D01*
X118716362Y-122987909D01*
X118577909Y-123126362D01*
X118469128Y-123289164D01*
X118394198Y-123470061D01*
X118356000Y-123662100D01*
X115519804Y-123662100D01*
X115489976Y-123378302D01*
X115489976Y-121271890D01*
X128920000Y-121271890D01*
X128920000Y-121388110D01*
X128942673Y-121502097D01*
X128987149Y-121609470D01*
X129051717Y-121706103D01*
X129133897Y-121788283D01*
X129230530Y-121852851D01*
X129337903Y-121897327D01*
X129451890Y-121920000D01*
X129568110Y-121920000D01*
X129583251Y-121916988D01*
X129611237Y-121939956D01*
X129640752Y-121955732D01*
X129674645Y-121973849D01*
X129695516Y-121980180D01*
X129743449Y-121994720D01*
X129797070Y-122000001D01*
X129797072Y-122000001D01*
X129815001Y-122001767D01*
X129832930Y-122000001D01*
X159697070Y-122000001D01*
X159714999Y-122001767D01*
X159732928Y-122000001D01*
X159732930Y-122000001D01*
X159786551Y-121994720D01*
X159855354Y-121973849D01*
X159918763Y-121939956D01*
X159974342Y-121894344D01*
X159985778Y-121880409D01*
X160357287Y-121508901D01*
X160461228Y-121551955D01*
X160652494Y-121590000D01*
X160847506Y-121590000D01*
X161038772Y-121551955D01*
X161218941Y-121477326D01*
X161381088Y-121368983D01*
X161409931Y-121340140D01*
X162613500Y-121340140D01*
X162689074Y-121503662D01*
X162876917Y-121603533D01*
X163080633Y-121664838D01*
X163292396Y-121685223D01*
X163504067Y-121663903D01*
X163707510Y-121601698D01*
X163890926Y-121503662D01*
X163966500Y-121340140D01*
X163290000Y-120663640D01*
X162613500Y-121340140D01*
X161409931Y-121340140D01*
X161518983Y-121231088D01*
X161627326Y-121068941D01*
X161701955Y-120888772D01*
X161740000Y-120697506D01*
X161740000Y-120602396D01*
X162204777Y-120602396D01*
X162226097Y-120814067D01*
X162288302Y-121017510D01*
X162386338Y-121200926D01*
X162549860Y-121276500D01*
X163226360Y-120600000D01*
X163353640Y-120600000D01*
X164030140Y-121276500D01*
X164193662Y-121200926D01*
X164293533Y-121013083D01*
X164354838Y-120809367D01*
X164375223Y-120597604D01*
X164353903Y-120385933D01*
X164291698Y-120182490D01*
X164193662Y-119999074D01*
X164030140Y-119923500D01*
X163353640Y-120600000D01*
X163226360Y-120600000D01*
X162549860Y-119923500D01*
X162386338Y-119999074D01*
X162286467Y-120186917D01*
X162225162Y-120390633D01*
X162204777Y-120602396D01*
X161740000Y-120602396D01*
X161740000Y-120502494D01*
X161701955Y-120311228D01*
X161627326Y-120131059D01*
X161518983Y-119968912D01*
X161409931Y-119859860D01*
X162613500Y-119859860D01*
X163290000Y-120536360D01*
X163966500Y-119859860D01*
X163890926Y-119696338D01*
X163703083Y-119596467D01*
X163499367Y-119535162D01*
X163287604Y-119514777D01*
X163075933Y-119536097D01*
X162872490Y-119598302D01*
X162689074Y-119696338D01*
X162613500Y-119859860D01*
X161409931Y-119859860D01*
X161381088Y-119831017D01*
X161218941Y-119722674D01*
X161038772Y-119648045D01*
X160847506Y-119610000D01*
X160652494Y-119610000D01*
X160461228Y-119648045D01*
X160281059Y-119722674D01*
X160118912Y-119831017D01*
X159981017Y-119968912D01*
X159872674Y-120131059D01*
X159798045Y-120311228D01*
X159760000Y-120502494D01*
X159760000Y-120697506D01*
X159798045Y-120888772D01*
X159841099Y-120992713D01*
X159563812Y-121270001D01*
X130099624Y-121270001D01*
X130077327Y-121157903D01*
X130032851Y-121050530D01*
X129968283Y-120953897D01*
X129886103Y-120871717D01*
X129789470Y-120807149D01*
X129682097Y-120762673D01*
X129568110Y-120740000D01*
X129451890Y-120740000D01*
X129337903Y-120762673D01*
X129230530Y-120807149D01*
X129133897Y-120871717D01*
X129051717Y-120953897D01*
X128987149Y-121050530D01*
X128942673Y-121157903D01*
X128920000Y-121271890D01*
X115489976Y-121271890D01*
X115489976Y-120021890D01*
X131460000Y-120021890D01*
X131460000Y-120138110D01*
X131482673Y-120252097D01*
X131527149Y-120359470D01*
X131591717Y-120456103D01*
X131673897Y-120538283D01*
X131770530Y-120602851D01*
X131877903Y-120647327D01*
X131991890Y-120670000D01*
X132108110Y-120670000D01*
X132222097Y-120647327D01*
X132329470Y-120602851D01*
X132426103Y-120538283D01*
X132508283Y-120456103D01*
X132515702Y-120445000D01*
X158712071Y-120445000D01*
X158730000Y-120446766D01*
X158747929Y-120445000D01*
X158747931Y-120445000D01*
X158801552Y-120439719D01*
X158870355Y-120418848D01*
X158933764Y-120384955D01*
X158989343Y-120339343D01*
X159000779Y-120325408D01*
X160357287Y-118968901D01*
X160461228Y-119011955D01*
X160652494Y-119050000D01*
X160847506Y-119050000D01*
X161038772Y-119011955D01*
X161218941Y-118937326D01*
X161381088Y-118828983D01*
X161409931Y-118800140D01*
X162613500Y-118800140D01*
X162689074Y-118963662D01*
X162876917Y-119063533D01*
X163080633Y-119124838D01*
X163292396Y-119145223D01*
X163504067Y-119123903D01*
X163707510Y-119061698D01*
X163890926Y-118963662D01*
X163966500Y-118800140D01*
X163290000Y-118123640D01*
X162613500Y-118800140D01*
X161409931Y-118800140D01*
X161518983Y-118691088D01*
X161627326Y-118528941D01*
X161701955Y-118348772D01*
X161740000Y-118157506D01*
X161740000Y-118062396D01*
X162204777Y-118062396D01*
X162226097Y-118274067D01*
X162288302Y-118477510D01*
X162386338Y-118660926D01*
X162549860Y-118736500D01*
X163226360Y-118060000D01*
X163353640Y-118060000D01*
X164030140Y-118736500D01*
X164193662Y-118660926D01*
X164293533Y-118473083D01*
X164354838Y-118269367D01*
X164375223Y-118057604D01*
X164353903Y-117845933D01*
X164291698Y-117642490D01*
X164193662Y-117459074D01*
X164030140Y-117383500D01*
X163353640Y-118060000D01*
X163226360Y-118060000D01*
X162549860Y-117383500D01*
X162386338Y-117459074D01*
X162286467Y-117646917D01*
X162225162Y-117850633D01*
X162204777Y-118062396D01*
X161740000Y-118062396D01*
X161740000Y-117962494D01*
X161701955Y-117771228D01*
X161627326Y-117591059D01*
X161518983Y-117428912D01*
X161409931Y-117319860D01*
X162613500Y-117319860D01*
X163290000Y-117996360D01*
X163966500Y-117319860D01*
X163890926Y-117156338D01*
X163703083Y-117056467D01*
X163499367Y-116995162D01*
X163287604Y-116974777D01*
X163075933Y-116996097D01*
X162872490Y-117058302D01*
X162689074Y-117156338D01*
X162613500Y-117319860D01*
X161409931Y-117319860D01*
X161381088Y-117291017D01*
X161218941Y-117182674D01*
X161038772Y-117108045D01*
X160847506Y-117070000D01*
X160652494Y-117070000D01*
X160461228Y-117108045D01*
X160281059Y-117182674D01*
X160118912Y-117291017D01*
X159981017Y-117428912D01*
X159872674Y-117591059D01*
X159798045Y-117771228D01*
X159760000Y-117962494D01*
X159760000Y-118157506D01*
X159798045Y-118348772D01*
X159841099Y-118452713D01*
X158578813Y-119715000D01*
X132515702Y-119715000D01*
X132508283Y-119703897D01*
X132426103Y-119621717D01*
X132329470Y-119557149D01*
X132222097Y-119512673D01*
X132108110Y-119490000D01*
X131991890Y-119490000D01*
X131877903Y-119512673D01*
X131770530Y-119557149D01*
X131673897Y-119621717D01*
X131591717Y-119703897D01*
X131527149Y-119800530D01*
X131482673Y-119907903D01*
X131460000Y-120021890D01*
X115489976Y-120021890D01*
X115489976Y-118815657D01*
X134003605Y-118815657D01*
X134003605Y-118931877D01*
X134026278Y-119045864D01*
X134070754Y-119153237D01*
X134135322Y-119249870D01*
X134217502Y-119332050D01*
X134314135Y-119396618D01*
X134421508Y-119441094D01*
X134535495Y-119463767D01*
X134651715Y-119463767D01*
X134765702Y-119441094D01*
X134873075Y-119396618D01*
X134969708Y-119332050D01*
X135051888Y-119249870D01*
X135059307Y-119238767D01*
X157378304Y-119238767D01*
X157396233Y-119240533D01*
X157414162Y-119238767D01*
X157414164Y-119238767D01*
X157467785Y-119233486D01*
X157536588Y-119212615D01*
X157599997Y-119178722D01*
X157655576Y-119133110D01*
X157667012Y-119119175D01*
X160357287Y-116428901D01*
X160461228Y-116471955D01*
X160652494Y-116510000D01*
X160847506Y-116510000D01*
X161038772Y-116471955D01*
X161218941Y-116397326D01*
X161381088Y-116288983D01*
X161409931Y-116260140D01*
X162613500Y-116260140D01*
X162689074Y-116423662D01*
X162876917Y-116523533D01*
X163080633Y-116584838D01*
X163292396Y-116605223D01*
X163504067Y-116583903D01*
X163707510Y-116521698D01*
X163890926Y-116423662D01*
X163966500Y-116260140D01*
X163290000Y-115583640D01*
X162613500Y-116260140D01*
X161409931Y-116260140D01*
X161518983Y-116151088D01*
X161627326Y-115988941D01*
X161701955Y-115808772D01*
X161740000Y-115617506D01*
X161740000Y-115522396D01*
X162204777Y-115522396D01*
X162226097Y-115734067D01*
X162288302Y-115937510D01*
X162386338Y-116120926D01*
X162549860Y-116196500D01*
X163226360Y-115520000D01*
X163353640Y-115520000D01*
X164030140Y-116196500D01*
X164193662Y-116120926D01*
X164293533Y-115933083D01*
X164354838Y-115729367D01*
X164375223Y-115517604D01*
X164353903Y-115305933D01*
X164291698Y-115102490D01*
X164193662Y-114919074D01*
X164030140Y-114843500D01*
X163353640Y-115520000D01*
X163226360Y-115520000D01*
X162549860Y-114843500D01*
X162386338Y-114919074D01*
X162286467Y-115106917D01*
X162225162Y-115310633D01*
X162204777Y-115522396D01*
X161740000Y-115522396D01*
X161740000Y-115422494D01*
X161701955Y-115231228D01*
X161627326Y-115051059D01*
X161518983Y-114888912D01*
X161409931Y-114779860D01*
X162613500Y-114779860D01*
X163290000Y-115456360D01*
X163966500Y-114779860D01*
X163890926Y-114616338D01*
X163703083Y-114516467D01*
X163499367Y-114455162D01*
X163287604Y-114434777D01*
X163075933Y-114456097D01*
X162872490Y-114518302D01*
X162689074Y-114616338D01*
X162613500Y-114779860D01*
X161409931Y-114779860D01*
X161381088Y-114751017D01*
X161218941Y-114642674D01*
X161038772Y-114568045D01*
X160847506Y-114530000D01*
X160652494Y-114530000D01*
X160461228Y-114568045D01*
X160281059Y-114642674D01*
X160118912Y-114751017D01*
X159981017Y-114888912D01*
X159872674Y-115051059D01*
X159798045Y-115231228D01*
X159760000Y-115422494D01*
X159760000Y-115617506D01*
X159798045Y-115808772D01*
X159841099Y-115912713D01*
X157245046Y-118508767D01*
X135059307Y-118508767D01*
X135051888Y-118497664D01*
X134969708Y-118415484D01*
X134873075Y-118350916D01*
X134765702Y-118306440D01*
X134651715Y-118283767D01*
X134535495Y-118283767D01*
X134421508Y-118306440D01*
X134314135Y-118350916D01*
X134217502Y-118415484D01*
X134135322Y-118497664D01*
X134070754Y-118594297D01*
X134026278Y-118701670D01*
X134003605Y-118815657D01*
X115489976Y-118815657D01*
X115489976Y-117599295D01*
X136537020Y-117599295D01*
X136537020Y-117715515D01*
X136559693Y-117829502D01*
X136604169Y-117936875D01*
X136668737Y-118033508D01*
X136750917Y-118115688D01*
X136847550Y-118180256D01*
X136954923Y-118224732D01*
X137068910Y-118247405D01*
X137185130Y-118247405D01*
X137299117Y-118224732D01*
X137406490Y-118180256D01*
X137503123Y-118115688D01*
X137585303Y-118033508D01*
X137592722Y-118022405D01*
X156054666Y-118022405D01*
X156072595Y-118024171D01*
X156090524Y-118022405D01*
X156090526Y-118022405D01*
X156144147Y-118017124D01*
X156212950Y-117996253D01*
X156276359Y-117962360D01*
X156331938Y-117916748D01*
X156343374Y-117902813D01*
X160357287Y-113888901D01*
X160461228Y-113931955D01*
X160652494Y-113970000D01*
X160847506Y-113970000D01*
X161038772Y-113931955D01*
X161218941Y-113857326D01*
X161381088Y-113748983D01*
X161409931Y-113720140D01*
X162613500Y-113720140D01*
X162689074Y-113883662D01*
X162876917Y-113983533D01*
X163080633Y-114044838D01*
X163292396Y-114065223D01*
X163504067Y-114043903D01*
X163707510Y-113981698D01*
X163890926Y-113883662D01*
X163966500Y-113720140D01*
X163290000Y-113043640D01*
X162613500Y-113720140D01*
X161409931Y-113720140D01*
X161518983Y-113611088D01*
X161627326Y-113448941D01*
X161701955Y-113268772D01*
X161740000Y-113077506D01*
X161740000Y-112982396D01*
X162204777Y-112982396D01*
X162226097Y-113194067D01*
X162288302Y-113397510D01*
X162386338Y-113580926D01*
X162549860Y-113656500D01*
X163226360Y-112980000D01*
X163353640Y-112980000D01*
X164030140Y-113656500D01*
X164193662Y-113580926D01*
X164293533Y-113393083D01*
X164354838Y-113189367D01*
X164375223Y-112977604D01*
X164353903Y-112765933D01*
X164291698Y-112562490D01*
X164193662Y-112379074D01*
X164030140Y-112303500D01*
X163353640Y-112980000D01*
X163226360Y-112980000D01*
X162549860Y-112303500D01*
X162386338Y-112379074D01*
X162286467Y-112566917D01*
X162225162Y-112770633D01*
X162204777Y-112982396D01*
X161740000Y-112982396D01*
X161740000Y-112882494D01*
X161701955Y-112691228D01*
X161627326Y-112511059D01*
X161518983Y-112348912D01*
X161409931Y-112239860D01*
X162613500Y-112239860D01*
X163290000Y-112916360D01*
X163966500Y-112239860D01*
X163890926Y-112076338D01*
X163703083Y-111976467D01*
X163499367Y-111915162D01*
X163287604Y-111894777D01*
X163075933Y-111916097D01*
X162872490Y-111978302D01*
X162689074Y-112076338D01*
X162613500Y-112239860D01*
X161409931Y-112239860D01*
X161381088Y-112211017D01*
X161218941Y-112102674D01*
X161038772Y-112028045D01*
X160847506Y-111990000D01*
X160652494Y-111990000D01*
X160461228Y-112028045D01*
X160281059Y-112102674D01*
X160118912Y-112211017D01*
X159981017Y-112348912D01*
X159872674Y-112511059D01*
X159798045Y-112691228D01*
X159760000Y-112882494D01*
X159760000Y-113077506D01*
X159798045Y-113268772D01*
X159841099Y-113372713D01*
X155921408Y-117292405D01*
X137592722Y-117292405D01*
X137585303Y-117281302D01*
X137503123Y-117199122D01*
X137406490Y-117134554D01*
X137299117Y-117090078D01*
X137185130Y-117067405D01*
X137068910Y-117067405D01*
X136954923Y-117090078D01*
X136847550Y-117134554D01*
X136750917Y-117199122D01*
X136668737Y-117281302D01*
X136604169Y-117377935D01*
X136559693Y-117485308D01*
X136537020Y-117599295D01*
X115489976Y-117599295D01*
X115489976Y-116361127D01*
X139082920Y-116361127D01*
X139082920Y-116477347D01*
X139105593Y-116591334D01*
X139150069Y-116698707D01*
X139214637Y-116795340D01*
X139296817Y-116877520D01*
X139393450Y-116942088D01*
X139500823Y-116986564D01*
X139614810Y-117009237D01*
X139731030Y-117009237D01*
X139845017Y-116986564D01*
X139952390Y-116942088D01*
X140049023Y-116877520D01*
X140131203Y-116795340D01*
X140138622Y-116784237D01*
X154752834Y-116784237D01*
X154770763Y-116786003D01*
X154788692Y-116784237D01*
X154788694Y-116784237D01*
X154842315Y-116778956D01*
X154911118Y-116758085D01*
X154974527Y-116724192D01*
X155030106Y-116678580D01*
X155041542Y-116664645D01*
X160357287Y-111348901D01*
X160461228Y-111391955D01*
X160652494Y-111430000D01*
X160847506Y-111430000D01*
X161038772Y-111391955D01*
X161218941Y-111317326D01*
X161381088Y-111208983D01*
X161409931Y-111180140D01*
X162613500Y-111180140D01*
X162689074Y-111343662D01*
X162876917Y-111443533D01*
X163080633Y-111504838D01*
X163292396Y-111525223D01*
X163504067Y-111503903D01*
X163707510Y-111441698D01*
X163890926Y-111343662D01*
X163966500Y-111180140D01*
X163290000Y-110503640D01*
X162613500Y-111180140D01*
X161409931Y-111180140D01*
X161518983Y-111071088D01*
X161627326Y-110908941D01*
X161701955Y-110728772D01*
X161740000Y-110537506D01*
X161740000Y-110442396D01*
X162204777Y-110442396D01*
X162226097Y-110654067D01*
X162288302Y-110857510D01*
X162386338Y-111040926D01*
X162549860Y-111116500D01*
X163226360Y-110440000D01*
X163353640Y-110440000D01*
X164030140Y-111116500D01*
X164193662Y-111040926D01*
X164293533Y-110853083D01*
X164354838Y-110649367D01*
X164375223Y-110437604D01*
X164353903Y-110225933D01*
X164291698Y-110022490D01*
X164193662Y-109839074D01*
X164030140Y-109763500D01*
X163353640Y-110440000D01*
X163226360Y-110440000D01*
X162549860Y-109763500D01*
X162386338Y-109839074D01*
X162286467Y-110026917D01*
X162225162Y-110230633D01*
X162204777Y-110442396D01*
X161740000Y-110442396D01*
X161740000Y-110342494D01*
X161701955Y-110151228D01*
X161627326Y-109971059D01*
X161518983Y-109808912D01*
X161409931Y-109699860D01*
X162613500Y-109699860D01*
X163290000Y-110376360D01*
X163966500Y-109699860D01*
X163890926Y-109536338D01*
X163703083Y-109436467D01*
X163499367Y-109375162D01*
X163287604Y-109354777D01*
X163075933Y-109376097D01*
X162872490Y-109438302D01*
X162689074Y-109536338D01*
X162613500Y-109699860D01*
X161409931Y-109699860D01*
X161381088Y-109671017D01*
X161218941Y-109562674D01*
X161038772Y-109488045D01*
X160847506Y-109450000D01*
X160652494Y-109450000D01*
X160461228Y-109488045D01*
X160281059Y-109562674D01*
X160118912Y-109671017D01*
X159981017Y-109808912D01*
X159872674Y-109971059D01*
X159798045Y-110151228D01*
X159760000Y-110342494D01*
X159760000Y-110537506D01*
X159798045Y-110728772D01*
X159841099Y-110832713D01*
X154619576Y-116054237D01*
X140138622Y-116054237D01*
X140131203Y-116043134D01*
X140049023Y-115960954D01*
X139952390Y-115896386D01*
X139845017Y-115851910D01*
X139731030Y-115829237D01*
X139614810Y-115829237D01*
X139500823Y-115851910D01*
X139393450Y-115896386D01*
X139296817Y-115960954D01*
X139214637Y-116043134D01*
X139150069Y-116139767D01*
X139105593Y-116247140D01*
X139082920Y-116361127D01*
X115489976Y-116361127D01*
X115489976Y-115164695D01*
X141621865Y-115164695D01*
X141621865Y-115280915D01*
X141644538Y-115394902D01*
X141689014Y-115502275D01*
X141753582Y-115598908D01*
X141835762Y-115681088D01*
X141932395Y-115745656D01*
X142039768Y-115790132D01*
X142153755Y-115812805D01*
X142269975Y-115812805D01*
X142383962Y-115790132D01*
X142491335Y-115745656D01*
X142587968Y-115681088D01*
X142670148Y-115598908D01*
X142677567Y-115587805D01*
X153409266Y-115587805D01*
X153427195Y-115589571D01*
X153445124Y-115587805D01*
X153445126Y-115587805D01*
X153498747Y-115582524D01*
X153567550Y-115561653D01*
X153630959Y-115527760D01*
X153686538Y-115482148D01*
X153697974Y-115468213D01*
X160357287Y-108808901D01*
X160461228Y-108851955D01*
X160652494Y-108890000D01*
X160847506Y-108890000D01*
X161038772Y-108851955D01*
X161218941Y-108777326D01*
X161381088Y-108668983D01*
X161409931Y-108640140D01*
X162613500Y-108640140D01*
X162689074Y-108803662D01*
X162876917Y-108903533D01*
X163080633Y-108964838D01*
X163292396Y-108985223D01*
X163504067Y-108963903D01*
X163707510Y-108901698D01*
X163890926Y-108803662D01*
X163966500Y-108640140D01*
X163290000Y-107963640D01*
X162613500Y-108640140D01*
X161409931Y-108640140D01*
X161518983Y-108531088D01*
X161627326Y-108368941D01*
X161701955Y-108188772D01*
X161740000Y-107997506D01*
X161740000Y-107902396D01*
X162204777Y-107902396D01*
X162226097Y-108114067D01*
X162288302Y-108317510D01*
X162386338Y-108500926D01*
X162549860Y-108576500D01*
X163226360Y-107900000D01*
X163353640Y-107900000D01*
X164030140Y-108576500D01*
X164193662Y-108500926D01*
X164293533Y-108313083D01*
X164354838Y-108109367D01*
X164375223Y-107897604D01*
X164353903Y-107685933D01*
X164291698Y-107482490D01*
X164193662Y-107299074D01*
X164030140Y-107223500D01*
X163353640Y-107900000D01*
X163226360Y-107900000D01*
X162549860Y-107223500D01*
X162386338Y-107299074D01*
X162286467Y-107486917D01*
X162225162Y-107690633D01*
X162204777Y-107902396D01*
X161740000Y-107902396D01*
X161740000Y-107802494D01*
X161701955Y-107611228D01*
X161627326Y-107431059D01*
X161518983Y-107268912D01*
X161409931Y-107159860D01*
X162613500Y-107159860D01*
X163290000Y-107836360D01*
X163966500Y-107159860D01*
X163890926Y-106996338D01*
X163703083Y-106896467D01*
X163499367Y-106835162D01*
X163287604Y-106814777D01*
X163075933Y-106836097D01*
X162872490Y-106898302D01*
X162689074Y-106996338D01*
X162613500Y-107159860D01*
X161409931Y-107159860D01*
X161381088Y-107131017D01*
X161218941Y-107022674D01*
X161038772Y-106948045D01*
X160847506Y-106910000D01*
X160652494Y-106910000D01*
X160461228Y-106948045D01*
X160281059Y-107022674D01*
X160118912Y-107131017D01*
X159981017Y-107268912D01*
X159872674Y-107431059D01*
X159798045Y-107611228D01*
X159760000Y-107802494D01*
X159760000Y-107997506D01*
X159798045Y-108188772D01*
X159841099Y-108292713D01*
X153276008Y-114857805D01*
X142677567Y-114857805D01*
X142670148Y-114846702D01*
X142587968Y-114764522D01*
X142491335Y-114699954D01*
X142383962Y-114655478D01*
X142269975Y-114632805D01*
X142153755Y-114632805D01*
X142039768Y-114655478D01*
X141932395Y-114699954D01*
X141835762Y-114764522D01*
X141753582Y-114846702D01*
X141689014Y-114943335D01*
X141644538Y-115050708D01*
X141621865Y-115164695D01*
X115489976Y-115164695D01*
X115489976Y-113971889D01*
X144160000Y-113971889D01*
X144160000Y-114088109D01*
X144182673Y-114202096D01*
X144227149Y-114309469D01*
X144291717Y-114406102D01*
X144373897Y-114488282D01*
X144470530Y-114552850D01*
X144577903Y-114597326D01*
X144691890Y-114619999D01*
X144808110Y-114619999D01*
X144922097Y-114597326D01*
X145029470Y-114552850D01*
X145126103Y-114488282D01*
X145208283Y-114406102D01*
X145215702Y-114394999D01*
X152062072Y-114394999D01*
X152080001Y-114396765D01*
X152097930Y-114394999D01*
X152097932Y-114394999D01*
X152151553Y-114389718D01*
X152220356Y-114368847D01*
X152283765Y-114334954D01*
X152339344Y-114289342D01*
X152350780Y-114275407D01*
X160357286Y-106268901D01*
X160461228Y-106311955D01*
X160652494Y-106350000D01*
X160847506Y-106350000D01*
X161038772Y-106311955D01*
X161218941Y-106237326D01*
X161381088Y-106128983D01*
X161409931Y-106100140D01*
X162613500Y-106100140D01*
X162689074Y-106263662D01*
X162876917Y-106363533D01*
X163080633Y-106424838D01*
X163292396Y-106445223D01*
X163504067Y-106423903D01*
X163707510Y-106361698D01*
X163890926Y-106263662D01*
X163966500Y-106100140D01*
X163290000Y-105423640D01*
X162613500Y-106100140D01*
X161409931Y-106100140D01*
X161518983Y-105991088D01*
X161627326Y-105828941D01*
X161701955Y-105648772D01*
X161740000Y-105457506D01*
X161740000Y-105362396D01*
X162204777Y-105362396D01*
X162226097Y-105574067D01*
X162288302Y-105777510D01*
X162386338Y-105960926D01*
X162549860Y-106036500D01*
X163226360Y-105360000D01*
X163353640Y-105360000D01*
X164030140Y-106036500D01*
X164193662Y-105960926D01*
X164293533Y-105773083D01*
X164354838Y-105569367D01*
X164375223Y-105357604D01*
X164353903Y-105145933D01*
X164291698Y-104942490D01*
X164193662Y-104759074D01*
X164030140Y-104683500D01*
X163353640Y-105360000D01*
X163226360Y-105360000D01*
X162549860Y-104683500D01*
X162386338Y-104759074D01*
X162286467Y-104946917D01*
X162225162Y-105150633D01*
X162204777Y-105362396D01*
X161740000Y-105362396D01*
X161740000Y-105262494D01*
X161701955Y-105071228D01*
X161627326Y-104891059D01*
X161518983Y-104728912D01*
X161409931Y-104619860D01*
X162613500Y-104619860D01*
X163290000Y-105296360D01*
X163966500Y-104619860D01*
X163890926Y-104456338D01*
X163703083Y-104356467D01*
X163499367Y-104295162D01*
X163287604Y-104274777D01*
X163075933Y-104296097D01*
X162872490Y-104358302D01*
X162689074Y-104456338D01*
X162613500Y-104619860D01*
X161409931Y-104619860D01*
X161381088Y-104591017D01*
X161218941Y-104482674D01*
X161038772Y-104408045D01*
X160847506Y-104370000D01*
X160652494Y-104370000D01*
X160461228Y-104408045D01*
X160281059Y-104482674D01*
X160118912Y-104591017D01*
X159981017Y-104728912D01*
X159872674Y-104891059D01*
X159798045Y-105071228D01*
X159760000Y-105262494D01*
X159760000Y-105457506D01*
X159798045Y-105648772D01*
X159841099Y-105752714D01*
X151928814Y-113664999D01*
X145215702Y-113664999D01*
X145208283Y-113653896D01*
X145126103Y-113571716D01*
X145029470Y-113507148D01*
X144922097Y-113462672D01*
X144808110Y-113439999D01*
X144691890Y-113439999D01*
X144577903Y-113462672D01*
X144470530Y-113507148D01*
X144373897Y-113571716D01*
X144291717Y-113653896D01*
X144227149Y-113750529D01*
X144182673Y-113857902D01*
X144160000Y-113971889D01*
X115489976Y-113971889D01*
X115489976Y-108422100D01*
X120896000Y-108422100D01*
X120896000Y-108617900D01*
X120934198Y-108809939D01*
X121009128Y-108990836D01*
X121117909Y-109153638D01*
X121256362Y-109292091D01*
X121419164Y-109400872D01*
X121600061Y-109475802D01*
X121792100Y-109514000D01*
X121987900Y-109514000D01*
X122179939Y-109475802D01*
X122360836Y-109400872D01*
X122523638Y-109292091D01*
X122662091Y-109153638D01*
X122770872Y-108990836D01*
X122845802Y-108809939D01*
X122884000Y-108617900D01*
X122884000Y-108422100D01*
X123436000Y-108422100D01*
X123436000Y-108617900D01*
X123474198Y-108809939D01*
X123549128Y-108990836D01*
X123657909Y-109153638D01*
X123796362Y-109292091D01*
X123959164Y-109400872D01*
X124140061Y-109475802D01*
X124332100Y-109514000D01*
X124527900Y-109514000D01*
X124719939Y-109475802D01*
X124900836Y-109400872D01*
X125063638Y-109292091D01*
X125202091Y-109153638D01*
X125310872Y-108990836D01*
X125385802Y-108809939D01*
X125424000Y-108617900D01*
X125424000Y-108422100D01*
X125976000Y-108422100D01*
X125976000Y-108617900D01*
X126014198Y-108809939D01*
X126089128Y-108990836D01*
X126197909Y-109153638D01*
X126336362Y-109292091D01*
X126499164Y-109400872D01*
X126680061Y-109475802D01*
X126872100Y-109514000D01*
X127067900Y-109514000D01*
X127259939Y-109475802D01*
X127440836Y-109400872D01*
X127603638Y-109292091D01*
X127742091Y-109153638D01*
X127850872Y-108990836D01*
X127925802Y-108809939D01*
X127964000Y-108617900D01*
X127964000Y-108422100D01*
X128516000Y-108422100D01*
X128516000Y-108617900D01*
X128554198Y-108809939D01*
X128629128Y-108990836D01*
X128737909Y-109153638D01*
X128876362Y-109292091D01*
X129039164Y-109400872D01*
X129220061Y-109475802D01*
X129412100Y-109514000D01*
X129607900Y-109514000D01*
X129799939Y-109475802D01*
X129980836Y-109400872D01*
X130143638Y-109292091D01*
X130282091Y-109153638D01*
X130390872Y-108990836D01*
X130465802Y-108809939D01*
X130504000Y-108617900D01*
X130504000Y-108422100D01*
X131056000Y-108422100D01*
X131056000Y-108617900D01*
X131094198Y-108809939D01*
X131169128Y-108990836D01*
X131277909Y-109153638D01*
X131416362Y-109292091D01*
X131579164Y-109400872D01*
X131760061Y-109475802D01*
X131952100Y-109514000D01*
X132147900Y-109514000D01*
X132339939Y-109475802D01*
X132520836Y-109400872D01*
X132683638Y-109292091D01*
X132822091Y-109153638D01*
X132930872Y-108990836D01*
X133005802Y-108809939D01*
X133044000Y-108617900D01*
X133044000Y-108422100D01*
X133596000Y-108422100D01*
X133596000Y-108617900D01*
X133634198Y-108809939D01*
X133709128Y-108990836D01*
X133817909Y-109153638D01*
X133956362Y-109292091D01*
X134119164Y-109400872D01*
X134300061Y-109475802D01*
X134492100Y-109514000D01*
X134687900Y-109514000D01*
X134879939Y-109475802D01*
X135060836Y-109400872D01*
X135223638Y-109292091D01*
X135362091Y-109153638D01*
X135470872Y-108990836D01*
X135545802Y-108809939D01*
X135584000Y-108617900D01*
X135584000Y-108422100D01*
X136136000Y-108422100D01*
X136136000Y-108617900D01*
X136174198Y-108809939D01*
X136249128Y-108990836D01*
X136357909Y-109153638D01*
X136496362Y-109292091D01*
X136659164Y-109400872D01*
X136840061Y-109475802D01*
X137032100Y-109514000D01*
X137227900Y-109514000D01*
X137419939Y-109475802D01*
X137525776Y-109431963D01*
X138379225Y-110285413D01*
X138390657Y-110299343D01*
X138446236Y-110344955D01*
X138509645Y-110378848D01*
X138578448Y-110399719D01*
X138632069Y-110405000D01*
X138632071Y-110405000D01*
X138650000Y-110406766D01*
X138667929Y-110405000D01*
X150052071Y-110405000D01*
X150070000Y-110406766D01*
X150087929Y-110405000D01*
X150087931Y-110405000D01*
X150141552Y-110399719D01*
X150210355Y-110378848D01*
X150273764Y-110344955D01*
X150329343Y-110299343D01*
X150340779Y-110285408D01*
X152205413Y-108420775D01*
X152219343Y-108409343D01*
X152264955Y-108353764D01*
X152298848Y-108290355D01*
X152319719Y-108221552D01*
X152325000Y-108167931D01*
X152325000Y-108167929D01*
X152326766Y-108150000D01*
X152325000Y-108132071D01*
X152325000Y-104157928D01*
X152326766Y-104139999D01*
X152323314Y-104104955D01*
X152319719Y-104068448D01*
X152315000Y-104052891D01*
X152315000Y-102920000D01*
X152318403Y-102920000D01*
X152324775Y-102984691D01*
X152343644Y-103046897D01*
X152374287Y-103104225D01*
X152415526Y-103154474D01*
X152465775Y-103195713D01*
X152523103Y-103226356D01*
X152585309Y-103245225D01*
X152650000Y-103251597D01*
X154422500Y-103250000D01*
X154505000Y-103167500D01*
X154505000Y-102165000D01*
X154595000Y-102165000D01*
X154595000Y-103167500D01*
X154677500Y-103250000D01*
X156450000Y-103251597D01*
X156514691Y-103245225D01*
X156576897Y-103226356D01*
X156634225Y-103195713D01*
X156684474Y-103154474D01*
X156725713Y-103104225D01*
X156756356Y-103046897D01*
X156775225Y-102984691D01*
X156781597Y-102920000D01*
X158678403Y-102920000D01*
X158684775Y-102984691D01*
X158703644Y-103046897D01*
X158734287Y-103104225D01*
X158775526Y-103154474D01*
X158825775Y-103195713D01*
X158883103Y-103226356D01*
X158945309Y-103245225D01*
X159010000Y-103251597D01*
X160382500Y-103250000D01*
X160465000Y-103167500D01*
X160465000Y-102165000D01*
X160555000Y-102165000D01*
X160555000Y-103167500D01*
X160637500Y-103250000D01*
X162010000Y-103251597D01*
X162074691Y-103245225D01*
X162136897Y-103226356D01*
X162194225Y-103195713D01*
X162244474Y-103154474D01*
X162285713Y-103104225D01*
X162316356Y-103046897D01*
X162335225Y-102984691D01*
X162341597Y-102920000D01*
X162340000Y-102247500D01*
X162257500Y-102165000D01*
X160555000Y-102165000D01*
X160465000Y-102165000D01*
X158762500Y-102165000D01*
X158680000Y-102247500D01*
X158678403Y-102920000D01*
X156781597Y-102920000D01*
X156780000Y-102247500D01*
X156697500Y-102165000D01*
X154595000Y-102165000D01*
X154505000Y-102165000D01*
X152402500Y-102165000D01*
X152320000Y-102247500D01*
X152318403Y-102920000D01*
X152315000Y-102920000D01*
X152315000Y-101320000D01*
X152318403Y-101320000D01*
X152320000Y-101992500D01*
X152402500Y-102075000D01*
X154505000Y-102075000D01*
X154505000Y-101072500D01*
X154595000Y-101072500D01*
X154595000Y-102075000D01*
X156697500Y-102075000D01*
X156780000Y-101992500D01*
X156781597Y-101320000D01*
X158678403Y-101320000D01*
X158680000Y-101992500D01*
X158762500Y-102075000D01*
X160465000Y-102075000D01*
X160465000Y-101072500D01*
X160555000Y-101072500D01*
X160555000Y-102075000D01*
X162257500Y-102075000D01*
X162340000Y-101992500D01*
X162341597Y-101320000D01*
X162335225Y-101255309D01*
X162316356Y-101193103D01*
X162285713Y-101135775D01*
X162244474Y-101085526D01*
X162194225Y-101044287D01*
X162136897Y-101013644D01*
X162074691Y-100994775D01*
X162010000Y-100988403D01*
X160637500Y-100990000D01*
X160555000Y-101072500D01*
X160465000Y-101072500D01*
X160382500Y-100990000D01*
X159010000Y-100988403D01*
X158945309Y-100994775D01*
X158883103Y-101013644D01*
X158825775Y-101044287D01*
X158775526Y-101085526D01*
X158734287Y-101135775D01*
X158703644Y-101193103D01*
X158684775Y-101255309D01*
X158678403Y-101320000D01*
X156781597Y-101320000D01*
X156775225Y-101255309D01*
X156756356Y-101193103D01*
X156725713Y-101135775D01*
X156684474Y-101085526D01*
X156634225Y-101044287D01*
X156576897Y-101013644D01*
X156514691Y-100994775D01*
X156450000Y-100988403D01*
X154677500Y-100990000D01*
X154595000Y-101072500D01*
X154505000Y-101072500D01*
X154422500Y-100990000D01*
X152650000Y-100988403D01*
X152585309Y-100994775D01*
X152523103Y-101013644D01*
X152465775Y-101044287D01*
X152415526Y-101085526D01*
X152374287Y-101135775D01*
X152343644Y-101193103D01*
X152324775Y-101255309D01*
X152318403Y-101320000D01*
X152315000Y-101320000D01*
X152315000Y-101041187D01*
X152431188Y-100925000D01*
X157782071Y-100925000D01*
X157800000Y-100926766D01*
X157817929Y-100925000D01*
X157817931Y-100925000D01*
X157871552Y-100919719D01*
X157940355Y-100898848D01*
X158003764Y-100864955D01*
X158059343Y-100819343D01*
X158070779Y-100805408D01*
X160271188Y-98605000D01*
X160964298Y-98605000D01*
X160971717Y-98616103D01*
X161053897Y-98698283D01*
X161150530Y-98762851D01*
X161257903Y-98807327D01*
X161371890Y-98830000D01*
X161488110Y-98830000D01*
X161602097Y-98807327D01*
X161709470Y-98762851D01*
X161806103Y-98698283D01*
X161888283Y-98616103D01*
X161952851Y-98519470D01*
X161997327Y-98412097D01*
X162020000Y-98298110D01*
X162020000Y-98181890D01*
X161997327Y-98067903D01*
X161952851Y-97960530D01*
X161888283Y-97863897D01*
X161806103Y-97781717D01*
X161709470Y-97717149D01*
X161602097Y-97672673D01*
X161488110Y-97650000D01*
X161371890Y-97650000D01*
X161257903Y-97672673D01*
X161150530Y-97717149D01*
X161053897Y-97781717D01*
X160971717Y-97863897D01*
X160964298Y-97875000D01*
X160137928Y-97875000D01*
X160119999Y-97873234D01*
X160102070Y-97875000D01*
X160102069Y-97875000D01*
X160048448Y-97880281D01*
X159979645Y-97901152D01*
X159979643Y-97901153D01*
X159916234Y-97935046D01*
X159908307Y-97941552D01*
X159860657Y-97980657D01*
X159849225Y-97994587D01*
X157648813Y-100195000D01*
X152297928Y-100195000D01*
X152279999Y-100193234D01*
X152262070Y-100195000D01*
X152262069Y-100195000D01*
X152208448Y-100200281D01*
X152139645Y-100221152D01*
X152139643Y-100221153D01*
X152076234Y-100255046D01*
X152069396Y-100260658D01*
X152020657Y-100300657D01*
X152009226Y-100314586D01*
X151704588Y-100619225D01*
X151690657Y-100630658D01*
X151645045Y-100686237D01*
X151611152Y-100749646D01*
X151590281Y-100818449D01*
X151585701Y-100864954D01*
X151583234Y-100890000D01*
X151585000Y-100907929D01*
X151585001Y-104112061D01*
X151583234Y-104130000D01*
X151586756Y-104165752D01*
X151590282Y-104201552D01*
X151595000Y-104217105D01*
X151595001Y-107998811D01*
X149918813Y-109675000D01*
X138801188Y-109675000D01*
X138041963Y-108915776D01*
X138085802Y-108809939D01*
X138124000Y-108617900D01*
X138124000Y-108422100D01*
X138676000Y-108422100D01*
X138676000Y-108617900D01*
X138714198Y-108809939D01*
X138789128Y-108990836D01*
X138897909Y-109153638D01*
X139036362Y-109292091D01*
X139199164Y-109400872D01*
X139380061Y-109475802D01*
X139572100Y-109514000D01*
X139767900Y-109514000D01*
X139959939Y-109475802D01*
X140140836Y-109400872D01*
X140303638Y-109292091D01*
X140442091Y-109153638D01*
X140550872Y-108990836D01*
X140625802Y-108809939D01*
X140664000Y-108617900D01*
X140664000Y-108422100D01*
X141216000Y-108422100D01*
X141216000Y-108617900D01*
X141254198Y-108809939D01*
X141329128Y-108990836D01*
X141437909Y-109153638D01*
X141576362Y-109292091D01*
X141739164Y-109400872D01*
X141920061Y-109475802D01*
X142112100Y-109514000D01*
X142307900Y-109514000D01*
X142499939Y-109475802D01*
X142680836Y-109400872D01*
X142843638Y-109292091D01*
X142982091Y-109153638D01*
X143090872Y-108990836D01*
X143165802Y-108809939D01*
X143204000Y-108617900D01*
X143204000Y-108422100D01*
X143756000Y-108422100D01*
X143756000Y-108617900D01*
X143794198Y-108809939D01*
X143869128Y-108990836D01*
X143977909Y-109153638D01*
X144116362Y-109292091D01*
X144279164Y-109400872D01*
X144460061Y-109475802D01*
X144652100Y-109514000D01*
X144847900Y-109514000D01*
X145039939Y-109475802D01*
X145220836Y-109400872D01*
X145383638Y-109292091D01*
X145412744Y-109262985D01*
X146610655Y-109262985D01*
X146686711Y-109426915D01*
X146875233Y-109527185D01*
X147079695Y-109588749D01*
X147292239Y-109609243D01*
X147504697Y-109587876D01*
X147708904Y-109525472D01*
X147893289Y-109426915D01*
X147969345Y-109262985D01*
X147290000Y-108583640D01*
X146610655Y-109262985D01*
X145412744Y-109262985D01*
X145522091Y-109153638D01*
X145630872Y-108990836D01*
X145705802Y-108809939D01*
X145744000Y-108617900D01*
X145744000Y-108522239D01*
X146200757Y-108522239D01*
X146222124Y-108734697D01*
X146284528Y-108938904D01*
X146383085Y-109123289D01*
X146547015Y-109199345D01*
X147226360Y-108520000D01*
X147353640Y-108520000D01*
X148032985Y-109199345D01*
X148196915Y-109123289D01*
X148297185Y-108934767D01*
X148358749Y-108730305D01*
X148379243Y-108517761D01*
X148357876Y-108305303D01*
X148295472Y-108101096D01*
X148196915Y-107916711D01*
X148032985Y-107840655D01*
X147353640Y-108520000D01*
X147226360Y-108520000D01*
X146547015Y-107840655D01*
X146383085Y-107916711D01*
X146282815Y-108105233D01*
X146221251Y-108309695D01*
X146200757Y-108522239D01*
X145744000Y-108522239D01*
X145744000Y-108422100D01*
X145705802Y-108230061D01*
X145630872Y-108049164D01*
X145522091Y-107886362D01*
X145412744Y-107777015D01*
X146610655Y-107777015D01*
X147290000Y-108456360D01*
X147969345Y-107777015D01*
X147893289Y-107613085D01*
X147704767Y-107512815D01*
X147500305Y-107451251D01*
X147287761Y-107430757D01*
X147075303Y-107452124D01*
X146871096Y-107514528D01*
X146686711Y-107613085D01*
X146610655Y-107777015D01*
X145412744Y-107777015D01*
X145383638Y-107747909D01*
X145220836Y-107639128D01*
X145039939Y-107564198D01*
X144847900Y-107526000D01*
X144652100Y-107526000D01*
X144460061Y-107564198D01*
X144279164Y-107639128D01*
X144116362Y-107747909D01*
X143977909Y-107886362D01*
X143869128Y-108049164D01*
X143794198Y-108230061D01*
X143756000Y-108422100D01*
X143204000Y-108422100D01*
X143165802Y-108230061D01*
X143090872Y-108049164D01*
X142982091Y-107886362D01*
X142843638Y-107747909D01*
X142680836Y-107639128D01*
X142499939Y-107564198D01*
X142307900Y-107526000D01*
X142112100Y-107526000D01*
X141920061Y-107564198D01*
X141739164Y-107639128D01*
X141576362Y-107747909D01*
X141437909Y-107886362D01*
X141329128Y-108049164D01*
X141254198Y-108230061D01*
X141216000Y-108422100D01*
X140664000Y-108422100D01*
X140625802Y-108230061D01*
X140581963Y-108124224D01*
X141411188Y-107295000D01*
X144032071Y-107295000D01*
X144050000Y-107296766D01*
X144067929Y-107295000D01*
X144067931Y-107295000D01*
X144121552Y-107289719D01*
X144190355Y-107268848D01*
X144253764Y-107234955D01*
X144309343Y-107189343D01*
X144320779Y-107175408D01*
X146655413Y-104840775D01*
X146669343Y-104829343D01*
X146714955Y-104773764D01*
X146748848Y-104710355D01*
X146769719Y-104641552D01*
X146775000Y-104587931D01*
X146775000Y-104587930D01*
X146776766Y-104570001D01*
X146775000Y-104552072D01*
X146775000Y-102920000D01*
X146898403Y-102920000D01*
X146904775Y-102984691D01*
X146923644Y-103046897D01*
X146954287Y-103104225D01*
X146995526Y-103154474D01*
X147045775Y-103195713D01*
X147103103Y-103226356D01*
X147165309Y-103245225D01*
X147230000Y-103251597D01*
X149002500Y-103250000D01*
X149085000Y-103167500D01*
X149085000Y-102165000D01*
X149175000Y-102165000D01*
X149175000Y-103167500D01*
X149257500Y-103250000D01*
X151030000Y-103251597D01*
X151094691Y-103245225D01*
X151156897Y-103226356D01*
X151214225Y-103195713D01*
X151264474Y-103154474D01*
X151305713Y-103104225D01*
X151336356Y-103046897D01*
X151355225Y-102984691D01*
X151361597Y-102920000D01*
X151360000Y-102247500D01*
X151277500Y-102165000D01*
X149175000Y-102165000D01*
X149085000Y-102165000D01*
X146982500Y-102165000D01*
X146900000Y-102247500D01*
X146898403Y-102920000D01*
X146775000Y-102920000D01*
X146775000Y-101320000D01*
X146898403Y-101320000D01*
X146900000Y-101992500D01*
X146982500Y-102075000D01*
X149085000Y-102075000D01*
X149085000Y-101072500D01*
X149175000Y-101072500D01*
X149175000Y-102075000D01*
X151277500Y-102075000D01*
X151360000Y-101992500D01*
X151361597Y-101320000D01*
X151355225Y-101255309D01*
X151336356Y-101193103D01*
X151305713Y-101135775D01*
X151264474Y-101085526D01*
X151214225Y-101044287D01*
X151156897Y-101013644D01*
X151094691Y-100994775D01*
X151030000Y-100988403D01*
X149257500Y-100990000D01*
X149175000Y-101072500D01*
X149085000Y-101072500D01*
X149002500Y-100990000D01*
X147230000Y-100988403D01*
X147165309Y-100994775D01*
X147103103Y-101013644D01*
X147045775Y-101044287D01*
X146995526Y-101085526D01*
X146954287Y-101135775D01*
X146923644Y-101193103D01*
X146904775Y-101255309D01*
X146898403Y-101320000D01*
X146775000Y-101320000D01*
X146775000Y-100671187D01*
X147488793Y-99957395D01*
X147501890Y-99960000D01*
X147618110Y-99960000D01*
X147732097Y-99937327D01*
X147839470Y-99892851D01*
X147936103Y-99828283D01*
X148018283Y-99746103D01*
X148082851Y-99649470D01*
X148127327Y-99542097D01*
X148131722Y-99520000D01*
X152158403Y-99520000D01*
X152164775Y-99584691D01*
X152183644Y-99646897D01*
X152214287Y-99704225D01*
X152255526Y-99754474D01*
X152305775Y-99795713D01*
X152363103Y-99826356D01*
X152425309Y-99845225D01*
X152490000Y-99851597D01*
X153662500Y-99850000D01*
X153745000Y-99767500D01*
X153745000Y-99415000D01*
X152242500Y-99415000D01*
X152160000Y-99497500D01*
X152158403Y-99520000D01*
X148131722Y-99520000D01*
X148150000Y-99428110D01*
X148150000Y-99311890D01*
X148127327Y-99197903D01*
X148082851Y-99090530D01*
X148018283Y-98993897D01*
X147936103Y-98911717D01*
X147839470Y-98847149D01*
X147732097Y-98802673D01*
X147618110Y-98780000D01*
X147501890Y-98780000D01*
X147387903Y-98802673D01*
X147280530Y-98847149D01*
X147183897Y-98911717D01*
X147101717Y-98993897D01*
X147037149Y-99090530D01*
X146992673Y-99197903D01*
X146970000Y-99311890D01*
X146970000Y-99428110D01*
X146972605Y-99441207D01*
X146164588Y-100249225D01*
X146150657Y-100260658D01*
X146105045Y-100316237D01*
X146071152Y-100379646D01*
X146050281Y-100448449D01*
X146046342Y-100488448D01*
X146043234Y-100520000D01*
X146045000Y-100537929D01*
X146045001Y-104418811D01*
X143898813Y-106565000D01*
X141277929Y-106565000D01*
X141260000Y-106563234D01*
X141242071Y-106565000D01*
X141242069Y-106565000D01*
X141188448Y-106570281D01*
X141119645Y-106591152D01*
X141056236Y-106625045D01*
X141000657Y-106670657D01*
X140989226Y-106684586D01*
X140065776Y-107608037D01*
X139959939Y-107564198D01*
X139767900Y-107526000D01*
X139572100Y-107526000D01*
X139380061Y-107564198D01*
X139199164Y-107639128D01*
X139036362Y-107747909D01*
X138897909Y-107886362D01*
X138789128Y-108049164D01*
X138714198Y-108230061D01*
X138676000Y-108422100D01*
X138124000Y-108422100D01*
X138085802Y-108230061D01*
X138010872Y-108049164D01*
X137902091Y-107886362D01*
X137763638Y-107747909D01*
X137600836Y-107639128D01*
X137419939Y-107564198D01*
X137227900Y-107526000D01*
X137032100Y-107526000D01*
X136840061Y-107564198D01*
X136659164Y-107639128D01*
X136496362Y-107747909D01*
X136357909Y-107886362D01*
X136249128Y-108049164D01*
X136174198Y-108230061D01*
X136136000Y-108422100D01*
X135584000Y-108422100D01*
X135545802Y-108230061D01*
X135501963Y-108124224D01*
X137091188Y-106535000D01*
X143152071Y-106535000D01*
X143170000Y-106536766D01*
X143187929Y-106535000D01*
X143187931Y-106535000D01*
X143241552Y-106529719D01*
X143310355Y-106508848D01*
X143373764Y-106474955D01*
X143429343Y-106429343D01*
X143440779Y-106415408D01*
X145785418Y-104070770D01*
X145799342Y-104059343D01*
X145844955Y-104003764D01*
X145878848Y-103940355D01*
X145899719Y-103871552D01*
X145905000Y-103817931D01*
X145905000Y-103817930D01*
X145906766Y-103800001D01*
X145905000Y-103782072D01*
X145905000Y-99241187D01*
X146168793Y-98977395D01*
X146181890Y-98980000D01*
X146298110Y-98980000D01*
X146412097Y-98957327D01*
X146519470Y-98912851D01*
X146616103Y-98848283D01*
X146698283Y-98766103D01*
X146762851Y-98669470D01*
X146807327Y-98562097D01*
X146830000Y-98448110D01*
X146830000Y-98331890D01*
X146807327Y-98217903D01*
X146762851Y-98110530D01*
X146698283Y-98013897D01*
X146616103Y-97931717D01*
X146519470Y-97867149D01*
X146412097Y-97822673D01*
X146298110Y-97800000D01*
X146181890Y-97800000D01*
X146067903Y-97822673D01*
X145960530Y-97867149D01*
X145863897Y-97931717D01*
X145781717Y-98013897D01*
X145717149Y-98110530D01*
X145672673Y-98217903D01*
X145650000Y-98331890D01*
X145650000Y-98448110D01*
X145652605Y-98461207D01*
X145294587Y-98819226D01*
X145280658Y-98830657D01*
X145269227Y-98844586D01*
X145235046Y-98886236D01*
X145201153Y-98949645D01*
X145180282Y-99018448D01*
X145173234Y-99090000D01*
X145175001Y-99107939D01*
X145175000Y-103648812D01*
X143018813Y-105805000D01*
X136957929Y-105805000D01*
X136940000Y-105803234D01*
X136922071Y-105805000D01*
X136922069Y-105805000D01*
X136868448Y-105810281D01*
X136799645Y-105831152D01*
X136736236Y-105865045D01*
X136680657Y-105910657D01*
X136669226Y-105924586D01*
X134985776Y-107608037D01*
X134879939Y-107564198D01*
X134687900Y-107526000D01*
X134492100Y-107526000D01*
X134300061Y-107564198D01*
X134119164Y-107639128D01*
X133956362Y-107747909D01*
X133817909Y-107886362D01*
X133709128Y-108049164D01*
X133634198Y-108230061D01*
X133596000Y-108422100D01*
X133044000Y-108422100D01*
X133005802Y-108230061D01*
X132930872Y-108049164D01*
X132822091Y-107886362D01*
X132683638Y-107747909D01*
X132520836Y-107639128D01*
X132339939Y-107564198D01*
X132147900Y-107526000D01*
X131952100Y-107526000D01*
X131760061Y-107564198D01*
X131579164Y-107639128D01*
X131416362Y-107747909D01*
X131277909Y-107886362D01*
X131169128Y-108049164D01*
X131094198Y-108230061D01*
X131056000Y-108422100D01*
X130504000Y-108422100D01*
X130465802Y-108230061D01*
X130390872Y-108049164D01*
X130282091Y-107886362D01*
X130143638Y-107747909D01*
X129980836Y-107639128D01*
X129799939Y-107564198D01*
X129607900Y-107526000D01*
X129412100Y-107526000D01*
X129220061Y-107564198D01*
X129039164Y-107639128D01*
X128876362Y-107747909D01*
X128737909Y-107886362D01*
X128629128Y-108049164D01*
X128554198Y-108230061D01*
X128516000Y-108422100D01*
X127964000Y-108422100D01*
X127925802Y-108230061D01*
X127850872Y-108049164D01*
X127742091Y-107886362D01*
X127603638Y-107747909D01*
X127440836Y-107639128D01*
X127259939Y-107564198D01*
X127067900Y-107526000D01*
X126872100Y-107526000D01*
X126680061Y-107564198D01*
X126499164Y-107639128D01*
X126336362Y-107747909D01*
X126197909Y-107886362D01*
X126089128Y-108049164D01*
X126014198Y-108230061D01*
X125976000Y-108422100D01*
X125424000Y-108422100D01*
X125385802Y-108230061D01*
X125310872Y-108049164D01*
X125202091Y-107886362D01*
X125063638Y-107747909D01*
X124900836Y-107639128D01*
X124719939Y-107564198D01*
X124527900Y-107526000D01*
X124332100Y-107526000D01*
X124140061Y-107564198D01*
X123959164Y-107639128D01*
X123796362Y-107747909D01*
X123657909Y-107886362D01*
X123549128Y-108049164D01*
X123474198Y-108230061D01*
X123436000Y-108422100D01*
X122884000Y-108422100D01*
X122845802Y-108230061D01*
X122801963Y-108124224D01*
X125381188Y-105545000D01*
X138802071Y-105545000D01*
X138820000Y-105546766D01*
X138837929Y-105545000D01*
X138837931Y-105545000D01*
X138891552Y-105539719D01*
X138960355Y-105518848D01*
X139023764Y-105484955D01*
X139079343Y-105439343D01*
X139090779Y-105425408D01*
X139435413Y-105080775D01*
X139449343Y-105069343D01*
X139494955Y-105013764D01*
X139528848Y-104950355D01*
X139549719Y-104881552D01*
X139555000Y-104827931D01*
X139555000Y-104827930D01*
X139556766Y-104810001D01*
X139555000Y-104792072D01*
X139555000Y-102920000D01*
X141338403Y-102920000D01*
X141344775Y-102984691D01*
X141363644Y-103046897D01*
X141394287Y-103104225D01*
X141435526Y-103154474D01*
X141485775Y-103195713D01*
X141543103Y-103226356D01*
X141605309Y-103245225D01*
X141670000Y-103251597D01*
X143042500Y-103250000D01*
X143125000Y-103167500D01*
X143125000Y-102165000D01*
X143215000Y-102165000D01*
X143215000Y-103167500D01*
X143297500Y-103250000D01*
X144670000Y-103251597D01*
X144734691Y-103245225D01*
X144796897Y-103226356D01*
X144854225Y-103195713D01*
X144904474Y-103154474D01*
X144945713Y-103104225D01*
X144976356Y-103046897D01*
X144995225Y-102984691D01*
X145001597Y-102920000D01*
X145000000Y-102247500D01*
X144917500Y-102165000D01*
X143215000Y-102165000D01*
X143125000Y-102165000D01*
X141422500Y-102165000D01*
X141340000Y-102247500D01*
X141338403Y-102920000D01*
X139555000Y-102920000D01*
X139555000Y-101320000D01*
X141338403Y-101320000D01*
X141340000Y-101992500D01*
X141422500Y-102075000D01*
X143125000Y-102075000D01*
X143125000Y-101072500D01*
X143215000Y-101072500D01*
X143215000Y-102075000D01*
X144917500Y-102075000D01*
X145000000Y-101992500D01*
X145001597Y-101320000D01*
X144995225Y-101255309D01*
X144976356Y-101193103D01*
X144945713Y-101135775D01*
X144904474Y-101085526D01*
X144854225Y-101044287D01*
X144796897Y-101013644D01*
X144734691Y-100994775D01*
X144670000Y-100988403D01*
X143297500Y-100990000D01*
X143215000Y-101072500D01*
X143125000Y-101072500D01*
X143042500Y-100990000D01*
X141670000Y-100988403D01*
X141605309Y-100994775D01*
X141543103Y-101013644D01*
X141485775Y-101044287D01*
X141435526Y-101085526D01*
X141394287Y-101135775D01*
X141363644Y-101193103D01*
X141344775Y-101255309D01*
X141338403Y-101320000D01*
X139555000Y-101320000D01*
X139555000Y-99981890D01*
X140559998Y-99981890D01*
X140559998Y-100098110D01*
X140582671Y-100212097D01*
X140627147Y-100319470D01*
X140691715Y-100416103D01*
X140773895Y-100498283D01*
X140870528Y-100562851D01*
X140977901Y-100607327D01*
X141091888Y-100630000D01*
X141208108Y-100630000D01*
X141322095Y-100607327D01*
X141429468Y-100562851D01*
X141526101Y-100498283D01*
X141608281Y-100416103D01*
X141672849Y-100319470D01*
X141717325Y-100212097D01*
X141739998Y-100098110D01*
X141739998Y-99981890D01*
X141737393Y-99968792D01*
X143951186Y-97755000D01*
X147094298Y-97755000D01*
X147101717Y-97766103D01*
X147183897Y-97848283D01*
X147280530Y-97912851D01*
X147387903Y-97957327D01*
X147501890Y-97980000D01*
X147618110Y-97980000D01*
X147732097Y-97957327D01*
X147839470Y-97912851D01*
X147936103Y-97848283D01*
X148018283Y-97766103D01*
X148082851Y-97669470D01*
X148127327Y-97562097D01*
X148135700Y-97520000D01*
X152158403Y-97520000D01*
X152164775Y-97584691D01*
X152183644Y-97646897D01*
X152214287Y-97704225D01*
X152248839Y-97746326D01*
X152248839Y-98020000D01*
X152253473Y-98067048D01*
X152267196Y-98112288D01*
X152271318Y-98120000D01*
X152267196Y-98127712D01*
X152253473Y-98172952D01*
X152248839Y-98220000D01*
X152248839Y-98520000D01*
X152253473Y-98567048D01*
X152267196Y-98612288D01*
X152271318Y-98620000D01*
X152267196Y-98627712D01*
X152253473Y-98672952D01*
X152248839Y-98720000D01*
X152248839Y-98993674D01*
X152214287Y-99035775D01*
X152183644Y-99093103D01*
X152164775Y-99155309D01*
X152158403Y-99220000D01*
X152160000Y-99242500D01*
X152242500Y-99325000D01*
X153745000Y-99325000D01*
X153745000Y-99305000D01*
X153835000Y-99305000D01*
X153835000Y-99325000D01*
X153855000Y-99325000D01*
X153855000Y-99415000D01*
X153835000Y-99415000D01*
X153835000Y-99767500D01*
X153917500Y-99850000D01*
X155090000Y-99851597D01*
X155154691Y-99845225D01*
X155216897Y-99826356D01*
X155274225Y-99795713D01*
X155324474Y-99754474D01*
X155348729Y-99724920D01*
X155390530Y-99752851D01*
X155497903Y-99797327D01*
X155611890Y-99820000D01*
X155728110Y-99820000D01*
X155842097Y-99797327D01*
X155949470Y-99752851D01*
X156046103Y-99688283D01*
X156128283Y-99606103D01*
X156192851Y-99509470D01*
X156237327Y-99402097D01*
X156260000Y-99288110D01*
X156260000Y-99171890D01*
X156241202Y-99077386D01*
X156322609Y-99158793D01*
X156320004Y-99171890D01*
X156320004Y-99288110D01*
X156342677Y-99402097D01*
X156387153Y-99509470D01*
X156451721Y-99606103D01*
X156533901Y-99688283D01*
X156630534Y-99752851D01*
X156737907Y-99797327D01*
X156851894Y-99820000D01*
X156968114Y-99820000D01*
X157082101Y-99797327D01*
X157189474Y-99752851D01*
X157286107Y-99688283D01*
X157368287Y-99606103D01*
X157432855Y-99509470D01*
X157477331Y-99402097D01*
X157500004Y-99288110D01*
X157500004Y-99171890D01*
X157477331Y-99057903D01*
X157432855Y-98950530D01*
X157368287Y-98853897D01*
X157286107Y-98771717D01*
X157189474Y-98707149D01*
X157082101Y-98662673D01*
X156968114Y-98640000D01*
X156851894Y-98640000D01*
X156838797Y-98642605D01*
X156431191Y-98235000D01*
X157188813Y-98235000D01*
X157262605Y-98308793D01*
X157260000Y-98321890D01*
X157260000Y-98438110D01*
X157282673Y-98552097D01*
X157327149Y-98659470D01*
X157391717Y-98756103D01*
X157473897Y-98838283D01*
X157570530Y-98902851D01*
X157677903Y-98947327D01*
X157791890Y-98970000D01*
X157908110Y-98970000D01*
X158022097Y-98947327D01*
X158129470Y-98902851D01*
X158226103Y-98838283D01*
X158308283Y-98756103D01*
X158372851Y-98659470D01*
X158417327Y-98552097D01*
X158440000Y-98438110D01*
X158440000Y-98321890D01*
X158417327Y-98207903D01*
X158372851Y-98100530D01*
X158308283Y-98003897D01*
X158226103Y-97921717D01*
X158129470Y-97857149D01*
X158022097Y-97812673D01*
X157908110Y-97790000D01*
X157791890Y-97790000D01*
X157778793Y-97792605D01*
X157610779Y-97624592D01*
X157599343Y-97610657D01*
X157543764Y-97565045D01*
X157480355Y-97531152D01*
X157411552Y-97510281D01*
X157357931Y-97505000D01*
X157357929Y-97505000D01*
X157340000Y-97503234D01*
X157322071Y-97505000D01*
X155420532Y-97505000D01*
X155420000Y-97497500D01*
X155337500Y-97415000D01*
X153835000Y-97415000D01*
X153835000Y-97435000D01*
X153745000Y-97435000D01*
X153745000Y-97415000D01*
X152242500Y-97415000D01*
X152160000Y-97497500D01*
X152158403Y-97520000D01*
X148135700Y-97520000D01*
X148150000Y-97448110D01*
X148150000Y-97331890D01*
X148127327Y-97217903D01*
X148082851Y-97110530D01*
X148018283Y-97013897D01*
X147936103Y-96931717D01*
X147839470Y-96867149D01*
X147732097Y-96822673D01*
X147618110Y-96800000D01*
X147501890Y-96800000D01*
X147387903Y-96822673D01*
X147280530Y-96867149D01*
X147183897Y-96931717D01*
X147101717Y-97013897D01*
X147094298Y-97025000D01*
X143817927Y-97025000D01*
X143799998Y-97023234D01*
X143782069Y-97025000D01*
X143782067Y-97025000D01*
X143728446Y-97030281D01*
X143659643Y-97051152D01*
X143596234Y-97085045D01*
X143540655Y-97130657D01*
X143529223Y-97144587D01*
X141221206Y-99452605D01*
X141208108Y-99450000D01*
X141091888Y-99450000D01*
X140977901Y-99472673D01*
X140870528Y-99517149D01*
X140773895Y-99581717D01*
X140691715Y-99663897D01*
X140627147Y-99760530D01*
X140582671Y-99867903D01*
X140559998Y-99981890D01*
X139555000Y-99981890D01*
X139555000Y-99061890D01*
X139800000Y-99061890D01*
X139800000Y-99178110D01*
X139822673Y-99292097D01*
X139867149Y-99399470D01*
X139931717Y-99496103D01*
X140013897Y-99578283D01*
X140110530Y-99642851D01*
X140217903Y-99687327D01*
X140331890Y-99710000D01*
X140448110Y-99710000D01*
X140562097Y-99687327D01*
X140669470Y-99642851D01*
X140766103Y-99578283D01*
X140848283Y-99496103D01*
X140912851Y-99399470D01*
X140957327Y-99292097D01*
X140980000Y-99178110D01*
X140980000Y-99061890D01*
X140977395Y-99048792D01*
X143280802Y-96745386D01*
X145771325Y-96745386D01*
X145778744Y-96756489D01*
X145860924Y-96838669D01*
X145957557Y-96903237D01*
X146064930Y-96947713D01*
X146178917Y-96970386D01*
X146295137Y-96970386D01*
X146409124Y-96947713D01*
X146516497Y-96903237D01*
X146613130Y-96838669D01*
X146695310Y-96756489D01*
X146759878Y-96659856D01*
X146804354Y-96552483D01*
X146827027Y-96438496D01*
X146827027Y-96322276D01*
X146804354Y-96208289D01*
X146759878Y-96100916D01*
X146695310Y-96004283D01*
X146613130Y-95922103D01*
X146516497Y-95857535D01*
X146409124Y-95813059D01*
X146295137Y-95790386D01*
X146178917Y-95790386D01*
X146064930Y-95813059D01*
X145957557Y-95857535D01*
X145860924Y-95922103D01*
X145778744Y-96004283D01*
X145771325Y-96015386D01*
X143147542Y-96015386D01*
X143129613Y-96013620D01*
X143111684Y-96015386D01*
X143111683Y-96015386D01*
X143058062Y-96020667D01*
X142989259Y-96041538D01*
X142934037Y-96071055D01*
X142925848Y-96075432D01*
X142908564Y-96089617D01*
X142870271Y-96121043D01*
X142858839Y-96134973D01*
X140461208Y-98532605D01*
X140448110Y-98530000D01*
X140331890Y-98530000D01*
X140217903Y-98552673D01*
X140110530Y-98597149D01*
X140013897Y-98661717D01*
X139931717Y-98743897D01*
X139867149Y-98840530D01*
X139822673Y-98947903D01*
X139800000Y-99061890D01*
X139555000Y-99061890D01*
X139555000Y-98551187D01*
X142371188Y-95735000D01*
X147084296Y-95735000D01*
X147091715Y-95746103D01*
X147173895Y-95828283D01*
X147270528Y-95892851D01*
X147377901Y-95937327D01*
X147491888Y-95960000D01*
X147608108Y-95960000D01*
X147722095Y-95937327D01*
X147829468Y-95892851D01*
X147926101Y-95828283D01*
X148008281Y-95746103D01*
X148015700Y-95735000D01*
X152248839Y-95735000D01*
X152248839Y-96020000D01*
X152253473Y-96067048D01*
X152267196Y-96112288D01*
X152271318Y-96120000D01*
X152267196Y-96127712D01*
X152253473Y-96172952D01*
X152248839Y-96220000D01*
X152248839Y-96520000D01*
X152253473Y-96567048D01*
X152267196Y-96612288D01*
X152271318Y-96620000D01*
X152267196Y-96627712D01*
X152253473Y-96672952D01*
X152248839Y-96720000D01*
X152248839Y-96993674D01*
X152214287Y-97035775D01*
X152183644Y-97093103D01*
X152164775Y-97155309D01*
X152158403Y-97220000D01*
X152160000Y-97242500D01*
X152242500Y-97325000D01*
X153745000Y-97325000D01*
X153745000Y-97305000D01*
X153835000Y-97305000D01*
X153835000Y-97325000D01*
X155337500Y-97325000D01*
X155420000Y-97242500D01*
X155420532Y-97235000D01*
X158010000Y-97235000D01*
X158010000Y-97268110D01*
X158032673Y-97382097D01*
X158077149Y-97489470D01*
X158141717Y-97586103D01*
X158223897Y-97668283D01*
X158320530Y-97732851D01*
X158427903Y-97777327D01*
X158541890Y-97800000D01*
X158658110Y-97800000D01*
X158772097Y-97777327D01*
X158879470Y-97732851D01*
X158976103Y-97668283D01*
X159058283Y-97586103D01*
X159122851Y-97489470D01*
X159167327Y-97382097D01*
X159190000Y-97268110D01*
X159190000Y-97151890D01*
X159167327Y-97037903D01*
X159122851Y-96930530D01*
X159058283Y-96833897D01*
X158976103Y-96751717D01*
X158879470Y-96687149D01*
X158772097Y-96642673D01*
X158658110Y-96620000D01*
X158541890Y-96620000D01*
X158529099Y-96622544D01*
X158519343Y-96610657D01*
X158463764Y-96565045D01*
X158400355Y-96531152D01*
X158331552Y-96510281D01*
X158277931Y-96505000D01*
X158277929Y-96505000D01*
X158260000Y-96503234D01*
X158242071Y-96505000D01*
X157748311Y-96505000D01*
X157780065Y-96473247D01*
X157793162Y-96475852D01*
X157909382Y-96475852D01*
X158023369Y-96453179D01*
X158130742Y-96408703D01*
X158227375Y-96344135D01*
X158309555Y-96261955D01*
X158374123Y-96165322D01*
X158418599Y-96057949D01*
X158441272Y-95943962D01*
X158441272Y-95827742D01*
X158418599Y-95713755D01*
X158374123Y-95606382D01*
X158309555Y-95509749D01*
X158227375Y-95427569D01*
X158130742Y-95363001D01*
X158023369Y-95318525D01*
X157909382Y-95295852D01*
X157793162Y-95295852D01*
X157679175Y-95318525D01*
X157571802Y-95363001D01*
X157475169Y-95427569D01*
X157392989Y-95509749D01*
X157328421Y-95606382D01*
X157283945Y-95713755D01*
X157261272Y-95827742D01*
X157261272Y-95943962D01*
X157263877Y-95957059D01*
X157215937Y-96005000D01*
X156521187Y-96005000D01*
X157068793Y-95457395D01*
X157081890Y-95460000D01*
X157198110Y-95460000D01*
X157312097Y-95437327D01*
X157419470Y-95392851D01*
X157516103Y-95328283D01*
X157598283Y-95246103D01*
X157662851Y-95149470D01*
X157707327Y-95042097D01*
X157730000Y-94928110D01*
X157730000Y-94811890D01*
X157707327Y-94697903D01*
X157662851Y-94590530D01*
X157598283Y-94493897D01*
X157516103Y-94411717D01*
X157419470Y-94347149D01*
X157312097Y-94302673D01*
X157198110Y-94280000D01*
X157081890Y-94280000D01*
X156967903Y-94302673D01*
X156860530Y-94347149D01*
X156763897Y-94411717D01*
X156681717Y-94493897D01*
X156617149Y-94590530D01*
X156572673Y-94697903D01*
X156550000Y-94811890D01*
X156550000Y-94928110D01*
X156552605Y-94941207D01*
X155988813Y-95505000D01*
X155331161Y-95505000D01*
X155331161Y-95347313D01*
X155394954Y-95389938D01*
X155502327Y-95434414D01*
X155616314Y-95457087D01*
X155732534Y-95457087D01*
X155846521Y-95434414D01*
X155953894Y-95389938D01*
X156050527Y-95325370D01*
X156132707Y-95243190D01*
X156197275Y-95146557D01*
X156241751Y-95039184D01*
X156264424Y-94925197D01*
X156264424Y-94808977D01*
X156241751Y-94694990D01*
X156197275Y-94587617D01*
X156132707Y-94490984D01*
X156050527Y-94408804D01*
X155953894Y-94344236D01*
X155846521Y-94299760D01*
X155732534Y-94277087D01*
X155616314Y-94277087D01*
X155502327Y-94299760D01*
X155394954Y-94344236D01*
X155331161Y-94386861D01*
X155331161Y-94255000D01*
X158214298Y-94255000D01*
X158221717Y-94266103D01*
X158303897Y-94348283D01*
X158400530Y-94412851D01*
X158507903Y-94457327D01*
X158621890Y-94480000D01*
X158738110Y-94480000D01*
X158852097Y-94457327D01*
X158959470Y-94412851D01*
X159056103Y-94348283D01*
X159138283Y-94266103D01*
X159202851Y-94169470D01*
X159247327Y-94062097D01*
X159270000Y-93948110D01*
X159270000Y-93831890D01*
X159247327Y-93717903D01*
X159202851Y-93610530D01*
X159138283Y-93513897D01*
X159056103Y-93431717D01*
X158959470Y-93367149D01*
X158852097Y-93322673D01*
X158738110Y-93300000D01*
X158621890Y-93300000D01*
X158507903Y-93322673D01*
X158400530Y-93367149D01*
X158303897Y-93431717D01*
X158221717Y-93513897D01*
X158214298Y-93525000D01*
X155330669Y-93525000D01*
X155331161Y-93520000D01*
X155331161Y-93235000D01*
X155624298Y-93235000D01*
X155631717Y-93246103D01*
X155713897Y-93328283D01*
X155810530Y-93392851D01*
X155917903Y-93437327D01*
X156031890Y-93460000D01*
X156148110Y-93460000D01*
X156262097Y-93437327D01*
X156369470Y-93392851D01*
X156466103Y-93328283D01*
X156548283Y-93246103D01*
X156555702Y-93235000D01*
X159818813Y-93235000D01*
X160178042Y-93594230D01*
X160178043Y-94386247D01*
X160166939Y-94393666D01*
X160084759Y-94475846D01*
X160020191Y-94572479D01*
X159975715Y-94679852D01*
X159953042Y-94793839D01*
X159953042Y-94910059D01*
X159975715Y-95024046D01*
X160020191Y-95131419D01*
X160084759Y-95228052D01*
X160166939Y-95310232D01*
X160263572Y-95374800D01*
X160370945Y-95419276D01*
X160484932Y-95441949D01*
X160601152Y-95441949D01*
X160715139Y-95419276D01*
X160822512Y-95374800D01*
X160919145Y-95310232D01*
X161001325Y-95228052D01*
X161065893Y-95131419D01*
X161110369Y-95024046D01*
X161133042Y-94910059D01*
X161133042Y-94793839D01*
X161110369Y-94679852D01*
X161065893Y-94572479D01*
X161001325Y-94475846D01*
X160919145Y-94393666D01*
X160908042Y-94386247D01*
X160908042Y-93460971D01*
X160909808Y-93443042D01*
X160907425Y-93418847D01*
X160902761Y-93371490D01*
X160881890Y-93302687D01*
X160847997Y-93239278D01*
X160832176Y-93220000D01*
X160813815Y-93197627D01*
X160813812Y-93197624D01*
X160802384Y-93183699D01*
X160788460Y-93172272D01*
X160240779Y-92624592D01*
X160229343Y-92610657D01*
X160173764Y-92565045D01*
X160110355Y-92531152D01*
X160041552Y-92510281D01*
X159987931Y-92505000D01*
X159987929Y-92505000D01*
X159970000Y-92503234D01*
X159952071Y-92505000D01*
X156555702Y-92505000D01*
X156548283Y-92493897D01*
X156466103Y-92411717D01*
X156369470Y-92347149D01*
X156262097Y-92302673D01*
X156148110Y-92280000D01*
X156031890Y-92280000D01*
X155917903Y-92302673D01*
X155810530Y-92347149D01*
X155713897Y-92411717D01*
X155631717Y-92493897D01*
X155624298Y-92505000D01*
X155331161Y-92505000D01*
X155331161Y-92235000D01*
X156834298Y-92235000D01*
X156841717Y-92246103D01*
X156923897Y-92328283D01*
X157020530Y-92392851D01*
X157127903Y-92437327D01*
X157241890Y-92460000D01*
X157358110Y-92460000D01*
X157472097Y-92437327D01*
X157579470Y-92392851D01*
X157676103Y-92328283D01*
X157758283Y-92246103D01*
X157765702Y-92235000D01*
X160298813Y-92235000D01*
X161295000Y-93231188D01*
X161295001Y-95168811D01*
X160947575Y-95516238D01*
X159747507Y-95516238D01*
X159740088Y-95505135D01*
X159657908Y-95422955D01*
X159561275Y-95358387D01*
X159453902Y-95313911D01*
X159339915Y-95291238D01*
X159223695Y-95291238D01*
X159109708Y-95313911D01*
X159002335Y-95358387D01*
X158905702Y-95422955D01*
X158823522Y-95505135D01*
X158758954Y-95601768D01*
X158714478Y-95709141D01*
X158691805Y-95823128D01*
X158691805Y-95939348D01*
X158714478Y-96053335D01*
X158758954Y-96160708D01*
X158823522Y-96257341D01*
X158905702Y-96339521D01*
X159002335Y-96404089D01*
X159109708Y-96448565D01*
X159223695Y-96471238D01*
X159339915Y-96471238D01*
X159453902Y-96448565D01*
X159561275Y-96404089D01*
X159657908Y-96339521D01*
X159740088Y-96257341D01*
X159747507Y-96246238D01*
X161080833Y-96246238D01*
X161098762Y-96248004D01*
X161116691Y-96246238D01*
X161116693Y-96246238D01*
X161170314Y-96240957D01*
X161239117Y-96220086D01*
X161302526Y-96186193D01*
X161358105Y-96140581D01*
X161369541Y-96126646D01*
X161905413Y-95590775D01*
X161919343Y-95579343D01*
X161958892Y-95531152D01*
X161964954Y-95523766D01*
X161998847Y-95460357D01*
X161998848Y-95460355D01*
X162019719Y-95391552D01*
X162025000Y-95337931D01*
X162025000Y-95337930D01*
X162026766Y-95320001D01*
X162025000Y-95302072D01*
X162025000Y-93097928D01*
X162026766Y-93079999D01*
X162021955Y-93031152D01*
X162019719Y-93008448D01*
X161998848Y-92939645D01*
X161998847Y-92939643D01*
X161964954Y-92876234D01*
X161930772Y-92834584D01*
X161930770Y-92834582D01*
X161919342Y-92820657D01*
X161905418Y-92809230D01*
X160720779Y-91624592D01*
X160709343Y-91610657D01*
X160653764Y-91565045D01*
X160590355Y-91531152D01*
X160521552Y-91510281D01*
X160467931Y-91505000D01*
X160467929Y-91505000D01*
X160450000Y-91503234D01*
X160432071Y-91505000D01*
X157765702Y-91505000D01*
X157758283Y-91493897D01*
X157676103Y-91411717D01*
X157579470Y-91347149D01*
X157472097Y-91302673D01*
X157358110Y-91280000D01*
X157241890Y-91280000D01*
X157127903Y-91302673D01*
X157020530Y-91347149D01*
X156923897Y-91411717D01*
X156841717Y-91493897D01*
X156834298Y-91505000D01*
X155331161Y-91505000D01*
X155331161Y-91235000D01*
X155634298Y-91235000D01*
X155641717Y-91246103D01*
X155723897Y-91328283D01*
X155820530Y-91392851D01*
X155927903Y-91437327D01*
X156041890Y-91460000D01*
X156158110Y-91460000D01*
X156272097Y-91437327D01*
X156379470Y-91392851D01*
X156476103Y-91328283D01*
X156558283Y-91246103D01*
X156565702Y-91235000D01*
X160808813Y-91235000D01*
X162325000Y-92751188D01*
X162325001Y-96248811D01*
X161778813Y-96795000D01*
X161105704Y-96795000D01*
X161098285Y-96783897D01*
X161016105Y-96701717D01*
X160919472Y-96637149D01*
X160812099Y-96592673D01*
X160698112Y-96570000D01*
X160581892Y-96570000D01*
X160467905Y-96592673D01*
X160360532Y-96637149D01*
X160263899Y-96701717D01*
X160181719Y-96783897D01*
X160117151Y-96880530D01*
X160072675Y-96987903D01*
X160050002Y-97101890D01*
X160050002Y-97218110D01*
X160072675Y-97332097D01*
X160117151Y-97439470D01*
X160181719Y-97536103D01*
X160263899Y-97618283D01*
X160360532Y-97682851D01*
X160467905Y-97727327D01*
X160581892Y-97750000D01*
X160698112Y-97750000D01*
X160812099Y-97727327D01*
X160919472Y-97682851D01*
X161016105Y-97618283D01*
X161098285Y-97536103D01*
X161105704Y-97525000D01*
X161912071Y-97525000D01*
X161930000Y-97526766D01*
X161947929Y-97525000D01*
X161947931Y-97525000D01*
X162001552Y-97519719D01*
X162070355Y-97498848D01*
X162133764Y-97464955D01*
X162189343Y-97419343D01*
X162200779Y-97405408D01*
X162935413Y-96670775D01*
X162949343Y-96659343D01*
X162987960Y-96612288D01*
X162994954Y-96603766D01*
X163028847Y-96540356D01*
X163028848Y-96540355D01*
X163049719Y-96471552D01*
X163055000Y-96417931D01*
X163055000Y-96417930D01*
X163056766Y-96400001D01*
X163055000Y-96382072D01*
X163055000Y-92617928D01*
X163056766Y-92599999D01*
X163054182Y-92573764D01*
X163049719Y-92528448D01*
X163028848Y-92459645D01*
X162994955Y-92396236D01*
X162994954Y-92396234D01*
X162960772Y-92354584D01*
X162960770Y-92354582D01*
X162949342Y-92340657D01*
X162935418Y-92329230D01*
X161230779Y-90624592D01*
X161219343Y-90610657D01*
X161163764Y-90565045D01*
X161100355Y-90531152D01*
X161031552Y-90510281D01*
X160977931Y-90505000D01*
X160977929Y-90505000D01*
X160960000Y-90503234D01*
X160942071Y-90505000D01*
X156565702Y-90505000D01*
X156558283Y-90493897D01*
X156476103Y-90411717D01*
X156379470Y-90347149D01*
X156272097Y-90302673D01*
X156158110Y-90280000D01*
X156041890Y-90280000D01*
X155927903Y-90302673D01*
X155820530Y-90347149D01*
X155723897Y-90411717D01*
X155641717Y-90493897D01*
X155634298Y-90505000D01*
X155331161Y-90505000D01*
X155331161Y-90220000D01*
X155326527Y-90172952D01*
X155312804Y-90127712D01*
X155290518Y-90086018D01*
X155260527Y-90049473D01*
X155223982Y-90019482D01*
X155182288Y-89997196D01*
X155137048Y-89983473D01*
X155090000Y-89978839D01*
X152490000Y-89978839D01*
X152442952Y-89983473D01*
X152397712Y-89997196D01*
X152383112Y-90005000D01*
X146705702Y-90005000D01*
X146698283Y-89993897D01*
X146616103Y-89911717D01*
X146519470Y-89847149D01*
X146412097Y-89802673D01*
X146298110Y-89780000D01*
X146181890Y-89780000D01*
X146067903Y-89802673D01*
X145960530Y-89847149D01*
X145863897Y-89911717D01*
X145781717Y-89993897D01*
X145717149Y-90090530D01*
X145672673Y-90197903D01*
X145650000Y-90311890D01*
X145650000Y-90428110D01*
X145672673Y-90542097D01*
X145717149Y-90649470D01*
X145781717Y-90746103D01*
X145863897Y-90828283D01*
X145960530Y-90892851D01*
X146067903Y-90937327D01*
X146181890Y-90960000D01*
X146298110Y-90960000D01*
X146412097Y-90937327D01*
X146519470Y-90892851D01*
X146616103Y-90828283D01*
X146698283Y-90746103D01*
X146705702Y-90735000D01*
X152248839Y-90735000D01*
X152248839Y-91005000D01*
X148025702Y-91005000D01*
X148018283Y-90993897D01*
X147936103Y-90911717D01*
X147839470Y-90847149D01*
X147732097Y-90802673D01*
X147618110Y-90780000D01*
X147501890Y-90780000D01*
X147387903Y-90802673D01*
X147280530Y-90847149D01*
X147183897Y-90911717D01*
X147101717Y-90993897D01*
X147037149Y-91090530D01*
X146992673Y-91197903D01*
X146970000Y-91311890D01*
X146970000Y-91428110D01*
X146992673Y-91542097D01*
X147037149Y-91649470D01*
X147101717Y-91746103D01*
X147183897Y-91828283D01*
X147280530Y-91892851D01*
X147387903Y-91937327D01*
X147501890Y-91960000D01*
X147618110Y-91960000D01*
X147732097Y-91937327D01*
X147839470Y-91892851D01*
X147936103Y-91828283D01*
X148018283Y-91746103D01*
X148025702Y-91735000D01*
X152248839Y-91735000D01*
X152248839Y-92005000D01*
X146702382Y-92005000D01*
X146688283Y-91983899D01*
X146606103Y-91901719D01*
X146509470Y-91837151D01*
X146402097Y-91792675D01*
X146288110Y-91770002D01*
X146171890Y-91770002D01*
X146057903Y-91792675D01*
X145950530Y-91837151D01*
X145853897Y-91901719D01*
X145771717Y-91983899D01*
X145707149Y-92080532D01*
X145662673Y-92187905D01*
X145640000Y-92301892D01*
X145640000Y-92418112D01*
X145662673Y-92532099D01*
X145707149Y-92639472D01*
X145771717Y-92736105D01*
X145853897Y-92818285D01*
X145950530Y-92882853D01*
X146057903Y-92927329D01*
X146171890Y-92950002D01*
X146288110Y-92950002D01*
X146402097Y-92927329D01*
X146509470Y-92882853D01*
X146606103Y-92818285D01*
X146688283Y-92736105D01*
X146689021Y-92735000D01*
X152248839Y-92735000D01*
X152248839Y-93005000D01*
X148015702Y-93005000D01*
X148008283Y-92993897D01*
X147926103Y-92911717D01*
X147829470Y-92847149D01*
X147722097Y-92802673D01*
X147608110Y-92780000D01*
X147491890Y-92780000D01*
X147377903Y-92802673D01*
X147270530Y-92847149D01*
X147173897Y-92911717D01*
X147091717Y-92993897D01*
X147027149Y-93090530D01*
X146982673Y-93197903D01*
X146960000Y-93311890D01*
X146960000Y-93428110D01*
X146982673Y-93542097D01*
X147027149Y-93649470D01*
X147091717Y-93746103D01*
X147173897Y-93828283D01*
X147270530Y-93892851D01*
X147377903Y-93937327D01*
X147491890Y-93960000D01*
X147608110Y-93960000D01*
X147722097Y-93937327D01*
X147829470Y-93892851D01*
X147926103Y-93828283D01*
X148008283Y-93746103D01*
X148015702Y-93735000D01*
X152248839Y-93735000D01*
X152248839Y-94004999D01*
X146695702Y-94004999D01*
X146688283Y-93993896D01*
X146606103Y-93911716D01*
X146509470Y-93847148D01*
X146402097Y-93802672D01*
X146288110Y-93779999D01*
X146171890Y-93779999D01*
X146057903Y-93802672D01*
X145950530Y-93847148D01*
X145853897Y-93911716D01*
X145771717Y-93993896D01*
X145707149Y-94090529D01*
X145662673Y-94197902D01*
X145640000Y-94311889D01*
X145640000Y-94428109D01*
X145662673Y-94542096D01*
X145707149Y-94649469D01*
X145771717Y-94746102D01*
X145853897Y-94828282D01*
X145950530Y-94892850D01*
X146057903Y-94937326D01*
X146171890Y-94959999D01*
X146288110Y-94959999D01*
X146402097Y-94937326D01*
X146509470Y-94892850D01*
X146606103Y-94828282D01*
X146688283Y-94746102D01*
X146695702Y-94734999D01*
X152248839Y-94734999D01*
X152248839Y-95005000D01*
X148015700Y-95005000D01*
X148008281Y-94993897D01*
X147926101Y-94911717D01*
X147829468Y-94847149D01*
X147722095Y-94802673D01*
X147608108Y-94780000D01*
X147491888Y-94780000D01*
X147377901Y-94802673D01*
X147270528Y-94847149D01*
X147173895Y-94911717D01*
X147091715Y-94993897D01*
X147084296Y-95005000D01*
X142237928Y-95005000D01*
X142219999Y-95003234D01*
X142202070Y-95005000D01*
X142202069Y-95005000D01*
X142148448Y-95010281D01*
X142079645Y-95031152D01*
X142016236Y-95065045D01*
X141960657Y-95110657D01*
X141949225Y-95124587D01*
X138944588Y-98129225D01*
X138930657Y-98140658D01*
X138885045Y-98196237D01*
X138851152Y-98259646D01*
X138830281Y-98328449D01*
X138826189Y-98370000D01*
X138823234Y-98400000D01*
X138825000Y-98417929D01*
X138825001Y-104658811D01*
X138668813Y-104815000D01*
X125247928Y-104815000D01*
X125229999Y-104813234D01*
X125212070Y-104815000D01*
X125212069Y-104815000D01*
X125158448Y-104820281D01*
X125089645Y-104841152D01*
X125057983Y-104858076D01*
X125026234Y-104875046D01*
X125011767Y-104886919D01*
X124970657Y-104920657D01*
X124959226Y-104934586D01*
X122285776Y-107608037D01*
X122179939Y-107564198D01*
X121987900Y-107526000D01*
X121792100Y-107526000D01*
X121600061Y-107564198D01*
X121419164Y-107639128D01*
X121256362Y-107747909D01*
X121117909Y-107886362D01*
X121009128Y-108049164D01*
X120934198Y-108230061D01*
X120896000Y-108422100D01*
X115489976Y-108422100D01*
X115489976Y-106394208D01*
X115523907Y-106048150D01*
X115620290Y-105728915D01*
X115776845Y-105434479D01*
X115987602Y-105176064D01*
X116244546Y-104963502D01*
X116537874Y-104804900D01*
X116856431Y-104706289D01*
X117201698Y-104670000D01*
X138235762Y-104670000D01*
X138250000Y-104671402D01*
X138264235Y-104670000D01*
X138264245Y-104670000D01*
X138306850Y-104665804D01*
X138361515Y-104649221D01*
X138411895Y-104622293D01*
X138456053Y-104586053D01*
X138492293Y-104541895D01*
X138519221Y-104491515D01*
X138535804Y-104436850D01*
X138541403Y-104380000D01*
X138540000Y-104365754D01*
X138539975Y-88454218D01*
X138543330Y-88420000D01*
X141338403Y-88420000D01*
X141344775Y-88484691D01*
X141363644Y-88546897D01*
X141394287Y-88604225D01*
X141435526Y-88654474D01*
X141485775Y-88695713D01*
X141543103Y-88726356D01*
X141605309Y-88745225D01*
X141670000Y-88751597D01*
X143042500Y-88750000D01*
X143125000Y-88667500D01*
X143125000Y-87665000D01*
X143215000Y-87665000D01*
X143215000Y-88667500D01*
X143297500Y-88750000D01*
X144670000Y-88751597D01*
X144734691Y-88745225D01*
X144796897Y-88726356D01*
X144854225Y-88695713D01*
X144904474Y-88654474D01*
X144945713Y-88604225D01*
X144976356Y-88546897D01*
X144995225Y-88484691D01*
X145001597Y-88420000D01*
X146898403Y-88420000D01*
X146904775Y-88484691D01*
X146923644Y-88546897D01*
X146954287Y-88604225D01*
X146995526Y-88654474D01*
X147045775Y-88695713D01*
X147103103Y-88726356D01*
X147165309Y-88745225D01*
X147230000Y-88751597D01*
X149002500Y-88750000D01*
X149085000Y-88667500D01*
X149085000Y-87665000D01*
X149175000Y-87665000D01*
X149175000Y-88667500D01*
X149257500Y-88750000D01*
X151030000Y-88751597D01*
X151094691Y-88745225D01*
X151156897Y-88726356D01*
X151214225Y-88695713D01*
X151264474Y-88654474D01*
X151305713Y-88604225D01*
X151336356Y-88546897D01*
X151355225Y-88484691D01*
X151361597Y-88420000D01*
X152318403Y-88420000D01*
X152324775Y-88484691D01*
X152343644Y-88546897D01*
X152374287Y-88604225D01*
X152415526Y-88654474D01*
X152465775Y-88695713D01*
X152523103Y-88726356D01*
X152585309Y-88745225D01*
X152650000Y-88751597D01*
X154422500Y-88750000D01*
X154505000Y-88667500D01*
X154505000Y-87665000D01*
X154595000Y-87665000D01*
X154595000Y-88667500D01*
X154677500Y-88750000D01*
X156450000Y-88751597D01*
X156514691Y-88745225D01*
X156576897Y-88726356D01*
X156634225Y-88695713D01*
X156684474Y-88654474D01*
X156725713Y-88604225D01*
X156756356Y-88546897D01*
X156775225Y-88484691D01*
X156781597Y-88420000D01*
X158678403Y-88420000D01*
X158684775Y-88484691D01*
X158703644Y-88546897D01*
X158734287Y-88604225D01*
X158775526Y-88654474D01*
X158825775Y-88695713D01*
X158883103Y-88726356D01*
X158945309Y-88745225D01*
X159010000Y-88751597D01*
X160382500Y-88750000D01*
X160465000Y-88667500D01*
X160465000Y-87665000D01*
X160555000Y-87665000D01*
X160555000Y-88667500D01*
X160637500Y-88750000D01*
X162010000Y-88751597D01*
X162074691Y-88745225D01*
X162136897Y-88726356D01*
X162194225Y-88695713D01*
X162244474Y-88654474D01*
X162285713Y-88604225D01*
X162316356Y-88546897D01*
X162335225Y-88484691D01*
X162341597Y-88420000D01*
X162340000Y-87747500D01*
X162257500Y-87665000D01*
X160555000Y-87665000D01*
X160465000Y-87665000D01*
X158762500Y-87665000D01*
X158680000Y-87747500D01*
X158678403Y-88420000D01*
X156781597Y-88420000D01*
X156780000Y-87747500D01*
X156697500Y-87665000D01*
X154595000Y-87665000D01*
X154505000Y-87665000D01*
X152402500Y-87665000D01*
X152320000Y-87747500D01*
X152318403Y-88420000D01*
X151361597Y-88420000D01*
X151360000Y-87747500D01*
X151277500Y-87665000D01*
X149175000Y-87665000D01*
X149085000Y-87665000D01*
X146982500Y-87665000D01*
X146900000Y-87747500D01*
X146898403Y-88420000D01*
X145001597Y-88420000D01*
X145000000Y-87747500D01*
X144917500Y-87665000D01*
X143215000Y-87665000D01*
X143125000Y-87665000D01*
X141422500Y-87665000D01*
X141340000Y-87747500D01*
X141338403Y-88420000D01*
X138543330Y-88420000D01*
X138573907Y-88108150D01*
X138670290Y-87788915D01*
X138826845Y-87494479D01*
X139037602Y-87236064D01*
X139294546Y-87023502D01*
X139587874Y-86864900D01*
X139906431Y-86766289D01*
X140251698Y-86730000D01*
X141352452Y-86730000D01*
X141344775Y-86755309D01*
G04 #@! TA.AperFunction,Conductor*
D16*
G36*
X141344775Y-86755309D02*
G01*
X141338403Y-86820000D01*
X141340000Y-87492500D01*
X141422500Y-87575000D01*
X143125000Y-87575000D01*
X143125000Y-87555000D01*
X143215000Y-87555000D01*
X143215000Y-87575000D01*
X144917500Y-87575000D01*
X145000000Y-87492500D01*
X145001597Y-86820000D01*
X144995225Y-86755309D01*
X144987548Y-86730000D01*
X146912452Y-86730000D01*
X146904775Y-86755309D01*
X146898403Y-86820000D01*
X146900000Y-87492500D01*
X146982500Y-87575000D01*
X149085000Y-87575000D01*
X149085000Y-87555000D01*
X149175000Y-87555000D01*
X149175000Y-87575000D01*
X151277500Y-87575000D01*
X151360000Y-87492500D01*
X151361597Y-86820000D01*
X151355225Y-86755309D01*
X151347548Y-86730000D01*
X152332452Y-86730000D01*
X152324775Y-86755309D01*
X152318403Y-86820000D01*
X152320000Y-87492500D01*
X152402500Y-87575000D01*
X154505000Y-87575000D01*
X154505000Y-87555000D01*
X154595000Y-87555000D01*
X154595000Y-87575000D01*
X156697500Y-87575000D01*
X156780000Y-87492500D01*
X156781597Y-86820000D01*
X156775225Y-86755309D01*
X156767548Y-86730000D01*
X158692452Y-86730000D01*
X158684775Y-86755309D01*
X158678403Y-86820000D01*
X158680000Y-87492500D01*
X158762500Y-87575000D01*
X160465000Y-87575000D01*
X160465000Y-87555000D01*
X160555000Y-87555000D01*
X160555000Y-87575000D01*
X162257500Y-87575000D01*
X162340000Y-87492500D01*
X162341597Y-86820000D01*
X162335225Y-86755309D01*
X162327548Y-86730000D01*
X163525816Y-86730000D01*
X163871874Y-86763931D01*
X164191109Y-86860314D01*
X164485545Y-87016869D01*
X164743960Y-87227626D01*
X164956522Y-87484570D01*
X165115124Y-87777898D01*
X165213735Y-88096455D01*
X165250024Y-88441722D01*
X165250025Y-123365806D01*
X165216093Y-123711872D01*
X165119710Y-124031109D01*
X164963155Y-124325545D01*
X164752398Y-124583960D01*
X164495455Y-124796522D01*
X164202123Y-124955125D01*
X163883565Y-125053736D01*
X163538302Y-125090024D01*
X117214184Y-125090024D01*
X116868128Y-125056093D01*
X116548891Y-124959710D01*
X116254455Y-124803155D01*
X115996040Y-124592398D01*
X115783478Y-124335455D01*
X115624875Y-124042123D01*
X115526264Y-123723565D01*
X115519804Y-123662100D01*
X118356000Y-123662100D01*
X118356000Y-123857900D01*
X118394198Y-124049939D01*
X118469128Y-124230836D01*
X118577909Y-124393638D01*
X118716362Y-124532091D01*
X118879164Y-124640872D01*
X119060061Y-124715802D01*
X119252100Y-124754000D01*
X119447900Y-124754000D01*
X119639939Y-124715802D01*
X119820836Y-124640872D01*
X119983638Y-124532091D01*
X120122091Y-124393638D01*
X120230872Y-124230836D01*
X120305802Y-124049939D01*
X120344000Y-123857900D01*
X120344000Y-123662100D01*
X120896000Y-123662100D01*
X120896000Y-123857900D01*
X120934198Y-124049939D01*
X121009128Y-124230836D01*
X121117909Y-124393638D01*
X121256362Y-124532091D01*
X121419164Y-124640872D01*
X121600061Y-124715802D01*
X121792100Y-124754000D01*
X121987900Y-124754000D01*
X122179939Y-124715802D01*
X122360836Y-124640872D01*
X122523638Y-124532091D01*
X122662091Y-124393638D01*
X122770872Y-124230836D01*
X122845802Y-124049939D01*
X122884000Y-123857900D01*
X122884000Y-123662100D01*
X123436000Y-123662100D01*
X123436000Y-123857900D01*
X123474198Y-124049939D01*
X123549128Y-124230836D01*
X123657909Y-124393638D01*
X123796362Y-124532091D01*
X123959164Y-124640872D01*
X124140061Y-124715802D01*
X124332100Y-124754000D01*
X124527900Y-124754000D01*
X124719939Y-124715802D01*
X124900836Y-124640872D01*
X125063638Y-124532091D01*
X125202091Y-124393638D01*
X125310872Y-124230836D01*
X125385802Y-124049939D01*
X125424000Y-123857900D01*
X125424000Y-123662100D01*
X125976000Y-123662100D01*
X125976000Y-123857900D01*
X126014198Y-124049939D01*
X126089128Y-124230836D01*
X126197909Y-124393638D01*
X126336362Y-124532091D01*
X126499164Y-124640872D01*
X126680061Y-124715802D01*
X126872100Y-124754000D01*
X127067900Y-124754000D01*
X127259939Y-124715802D01*
X127440836Y-124640872D01*
X127603638Y-124532091D01*
X127742091Y-124393638D01*
X127850872Y-124230836D01*
X127925802Y-124049939D01*
X127964000Y-123857900D01*
X127964000Y-123662100D01*
X127925802Y-123470061D01*
X127881963Y-123364224D01*
X128461187Y-122785000D01*
X129316578Y-122785000D01*
X129220061Y-122804198D01*
X129039164Y-122879128D01*
X128876362Y-122987909D01*
X128737909Y-123126362D01*
X128629128Y-123289164D01*
X128554198Y-123470061D01*
X128516000Y-123662100D01*
X128516000Y-123857900D01*
X128554198Y-124049939D01*
X128629128Y-124230836D01*
X128737909Y-124393638D01*
X128876362Y-124532091D01*
X129039164Y-124640872D01*
X129220061Y-124715802D01*
X129412100Y-124754000D01*
X129607900Y-124754000D01*
X129799939Y-124715802D01*
X129980836Y-124640872D01*
X130143638Y-124532091D01*
X130282091Y-124393638D01*
X130390872Y-124230836D01*
X130465802Y-124049939D01*
X130504000Y-123857900D01*
X130504000Y-123662100D01*
X130465802Y-123470061D01*
X130390872Y-123289164D01*
X130282091Y-123126362D01*
X130143638Y-122987909D01*
X129980836Y-122879128D01*
X129799939Y-122804198D01*
X129703422Y-122785000D01*
X131856578Y-122785000D01*
X131760061Y-122804198D01*
X131579164Y-122879128D01*
X131416362Y-122987909D01*
X131277909Y-123126362D01*
X131169128Y-123289164D01*
X131094198Y-123470061D01*
X131056000Y-123662100D01*
X131056000Y-123857900D01*
X131094198Y-124049939D01*
X131169128Y-124230836D01*
X131277909Y-124393638D01*
X131416362Y-124532091D01*
X131579164Y-124640872D01*
X131760061Y-124715802D01*
X131952100Y-124754000D01*
X132147900Y-124754000D01*
X132339939Y-124715802D01*
X132520836Y-124640872D01*
X132683638Y-124532091D01*
X132822091Y-124393638D01*
X132930872Y-124230836D01*
X133005802Y-124049939D01*
X133044000Y-123857900D01*
X133044000Y-123662100D01*
X133005802Y-123470061D01*
X132930872Y-123289164D01*
X132822091Y-123126362D01*
X132683638Y-122987909D01*
X132520836Y-122879128D01*
X132339939Y-122804198D01*
X132243422Y-122785000D01*
X134396578Y-122785000D01*
X134300061Y-122804198D01*
X134119164Y-122879128D01*
X133956362Y-122987909D01*
X133817909Y-123126362D01*
X133709128Y-123289164D01*
X133634198Y-123470061D01*
X133596000Y-123662100D01*
X133596000Y-123857900D01*
X133634198Y-124049939D01*
X133709128Y-124230836D01*
X133817909Y-124393638D01*
X133956362Y-124532091D01*
X134119164Y-124640872D01*
X134300061Y-124715802D01*
X134492100Y-124754000D01*
X134687900Y-124754000D01*
X134879939Y-124715802D01*
X135060836Y-124640872D01*
X135223638Y-124532091D01*
X135362091Y-124393638D01*
X135470872Y-124230836D01*
X135545802Y-124049939D01*
X135584000Y-123857900D01*
X135584000Y-123662100D01*
X135545802Y-123470061D01*
X135470872Y-123289164D01*
X135362091Y-123126362D01*
X135223638Y-122987909D01*
X135060836Y-122879128D01*
X134879939Y-122804198D01*
X134783422Y-122785000D01*
X136936578Y-122785000D01*
X136840061Y-122804198D01*
X136659164Y-122879128D01*
X136496362Y-122987909D01*
X136357909Y-123126362D01*
X136249128Y-123289164D01*
X136174198Y-123470061D01*
X136136000Y-123662100D01*
X136136000Y-123857900D01*
X136174198Y-124049939D01*
X136249128Y-124230836D01*
X136357909Y-124393638D01*
X136496362Y-124532091D01*
X136659164Y-124640872D01*
X136840061Y-124715802D01*
X137032100Y-124754000D01*
X137227900Y-124754000D01*
X137419939Y-124715802D01*
X137600836Y-124640872D01*
X137763638Y-124532091D01*
X137902091Y-124393638D01*
X138010872Y-124230836D01*
X138085802Y-124049939D01*
X138124000Y-123857900D01*
X138124000Y-123662100D01*
X138085802Y-123470061D01*
X138010872Y-123289164D01*
X137902091Y-123126362D01*
X137763638Y-122987909D01*
X137600836Y-122879128D01*
X137419939Y-122804198D01*
X137323422Y-122785000D01*
X139476578Y-122785000D01*
X139380061Y-122804198D01*
X139199164Y-122879128D01*
X139036362Y-122987909D01*
X138897909Y-123126362D01*
X138789128Y-123289164D01*
X138714198Y-123470061D01*
X138676000Y-123662100D01*
X138676000Y-123857900D01*
X138714198Y-124049939D01*
X138789128Y-124230836D01*
X138897909Y-124393638D01*
X139036362Y-124532091D01*
X139199164Y-124640872D01*
X139380061Y-124715802D01*
X139572100Y-124754000D01*
X139767900Y-124754000D01*
X139959939Y-124715802D01*
X140140836Y-124640872D01*
X140303638Y-124532091D01*
X140442091Y-124393638D01*
X140550872Y-124230836D01*
X140625802Y-124049939D01*
X140664000Y-123857900D01*
X140664000Y-123662100D01*
X140625802Y-123470061D01*
X140550872Y-123289164D01*
X140442091Y-123126362D01*
X140303638Y-122987909D01*
X140140836Y-122879128D01*
X139959939Y-122804198D01*
X139863422Y-122785000D01*
X142016578Y-122785000D01*
X141920061Y-122804198D01*
X141739164Y-122879128D01*
X141576362Y-122987909D01*
X141437909Y-123126362D01*
X141329128Y-123289164D01*
X141254198Y-123470061D01*
X141216000Y-123662100D01*
X141216000Y-123857900D01*
X141254198Y-124049939D01*
X141329128Y-124230836D01*
X141437909Y-124393638D01*
X141576362Y-124532091D01*
X141739164Y-124640872D01*
X141920061Y-124715802D01*
X142112100Y-124754000D01*
X142307900Y-124754000D01*
X142499939Y-124715802D01*
X142680836Y-124640872D01*
X142843638Y-124532091D01*
X142982091Y-124393638D01*
X143090872Y-124230836D01*
X143165802Y-124049939D01*
X143204000Y-123857900D01*
X143204000Y-123662100D01*
X143165802Y-123470061D01*
X143090872Y-123289164D01*
X142982091Y-123126362D01*
X142843638Y-122987909D01*
X142680836Y-122879128D01*
X142499939Y-122804198D01*
X142403422Y-122785000D01*
X144556578Y-122785000D01*
X144460061Y-122804198D01*
X144279164Y-122879128D01*
X144116362Y-122987909D01*
X143977909Y-123126362D01*
X143869128Y-123289164D01*
X143794198Y-123470061D01*
X143756000Y-123662100D01*
X143756000Y-123857900D01*
X143794198Y-124049939D01*
X143869128Y-124230836D01*
X143977909Y-124393638D01*
X144116362Y-124532091D01*
X144279164Y-124640872D01*
X144460061Y-124715802D01*
X144652100Y-124754000D01*
X144847900Y-124754000D01*
X145039939Y-124715802D01*
X145220836Y-124640872D01*
X145383638Y-124532091D01*
X145522091Y-124393638D01*
X145630872Y-124230836D01*
X145705802Y-124049939D01*
X145744000Y-123857900D01*
X145744000Y-123662100D01*
X145705802Y-123470061D01*
X145630872Y-123289164D01*
X145522091Y-123126362D01*
X145383638Y-122987909D01*
X145220836Y-122879128D01*
X145039939Y-122804198D01*
X144943422Y-122785000D01*
X147096578Y-122785000D01*
X147000061Y-122804198D01*
X146819164Y-122879128D01*
X146656362Y-122987909D01*
X146517909Y-123126362D01*
X146409128Y-123289164D01*
X146334198Y-123470061D01*
X146296000Y-123662100D01*
X146296000Y-123857900D01*
X146334198Y-124049939D01*
X146409128Y-124230836D01*
X146517909Y-124393638D01*
X146656362Y-124532091D01*
X146819164Y-124640872D01*
X147000061Y-124715802D01*
X147192100Y-124754000D01*
X147387900Y-124754000D01*
X147579939Y-124715802D01*
X147760836Y-124640872D01*
X147923638Y-124532091D01*
X148062091Y-124393638D01*
X148170872Y-124230836D01*
X148245802Y-124049939D01*
X148284000Y-123857900D01*
X148284000Y-123662100D01*
X148245802Y-123470061D01*
X148170872Y-123289164D01*
X148062091Y-123126362D01*
X147923638Y-122987909D01*
X147760836Y-122879128D01*
X147579939Y-122804198D01*
X147483422Y-122785000D01*
X149636578Y-122785000D01*
X149540061Y-122804198D01*
X149359164Y-122879128D01*
X149196362Y-122987909D01*
X149057909Y-123126362D01*
X148949128Y-123289164D01*
X148874198Y-123470061D01*
X148836000Y-123662100D01*
X148836000Y-123857900D01*
X148874198Y-124049939D01*
X148949128Y-124230836D01*
X149057909Y-124393638D01*
X149196362Y-124532091D01*
X149359164Y-124640872D01*
X149540061Y-124715802D01*
X149732100Y-124754000D01*
X149927900Y-124754000D01*
X150119939Y-124715802D01*
X150300836Y-124640872D01*
X150463638Y-124532091D01*
X150492744Y-124502985D01*
X151690655Y-124502985D01*
X151766711Y-124666915D01*
X151955233Y-124767185D01*
X152159695Y-124828749D01*
X152372239Y-124849243D01*
X152584697Y-124827876D01*
X152788904Y-124765472D01*
X152973289Y-124666915D01*
X153049345Y-124502985D01*
X152370000Y-123823640D01*
X151690655Y-124502985D01*
X150492744Y-124502985D01*
X150602091Y-124393638D01*
X150710872Y-124230836D01*
X150785802Y-124049939D01*
X150824000Y-123857900D01*
X150824000Y-123762239D01*
X151280757Y-123762239D01*
X151302124Y-123974697D01*
X151364528Y-124178904D01*
X151463085Y-124363289D01*
X151627015Y-124439345D01*
X152306360Y-123760000D01*
X152433640Y-123760000D01*
X153112985Y-124439345D01*
X153276915Y-124363289D01*
X153377185Y-124174767D01*
X153438749Y-123970305D01*
X153459243Y-123757761D01*
X153437876Y-123545303D01*
X153375472Y-123341096D01*
X153276915Y-123156711D01*
X153112985Y-123080655D01*
X152433640Y-123760000D01*
X152306360Y-123760000D01*
X151627015Y-123080655D01*
X151463085Y-123156711D01*
X151362815Y-123345233D01*
X151301251Y-123549695D01*
X151280757Y-123762239D01*
X150824000Y-123762239D01*
X150824000Y-123662100D01*
X150785802Y-123470061D01*
X150710872Y-123289164D01*
X150602091Y-123126362D01*
X150463638Y-122987909D01*
X150300836Y-122879128D01*
X150119939Y-122804198D01*
X150023422Y-122785000D01*
X151894088Y-122785000D01*
X151766711Y-122853085D01*
X151690655Y-123017015D01*
X152370000Y-123696360D01*
X153049345Y-123017015D01*
X152973289Y-122853085D01*
X152845279Y-122785000D01*
X154716578Y-122785000D01*
X154620061Y-122804198D01*
X154439164Y-122879128D01*
X154276362Y-122987909D01*
X154137909Y-123126362D01*
X154029128Y-123289164D01*
X153954198Y-123470061D01*
X153916000Y-123662100D01*
X153916000Y-123857900D01*
X153954198Y-124049939D01*
X154029128Y-124230836D01*
X154137909Y-124393638D01*
X154276362Y-124532091D01*
X154439164Y-124640872D01*
X154620061Y-124715802D01*
X154812100Y-124754000D01*
X155007900Y-124754000D01*
X155199939Y-124715802D01*
X155380836Y-124640872D01*
X155543638Y-124532091D01*
X155682091Y-124393638D01*
X155790872Y-124230836D01*
X155865802Y-124049939D01*
X155904000Y-123857900D01*
X155904000Y-123662100D01*
X155865802Y-123470061D01*
X155790872Y-123289164D01*
X155682091Y-123126362D01*
X155543638Y-122987909D01*
X155380836Y-122879128D01*
X155199939Y-122804198D01*
X155103422Y-122785000D01*
X159825478Y-122785000D01*
X159798045Y-122851228D01*
X159760000Y-123042494D01*
X159760000Y-123237506D01*
X159798045Y-123428772D01*
X159872674Y-123608941D01*
X159981017Y-123771088D01*
X160118912Y-123908983D01*
X160281059Y-124017326D01*
X160461228Y-124091955D01*
X160652494Y-124130000D01*
X160847506Y-124130000D01*
X161038772Y-124091955D01*
X161218941Y-124017326D01*
X161381088Y-123908983D01*
X161409931Y-123880140D01*
X162613500Y-123880140D01*
X162689074Y-124043662D01*
X162876917Y-124143533D01*
X163080633Y-124204838D01*
X163292396Y-124225223D01*
X163504067Y-124203903D01*
X163707510Y-124141698D01*
X163890926Y-124043662D01*
X163966500Y-123880140D01*
X163290000Y-123203640D01*
X162613500Y-123880140D01*
X161409931Y-123880140D01*
X161518983Y-123771088D01*
X161627326Y-123608941D01*
X161701955Y-123428772D01*
X161740000Y-123237506D01*
X161740000Y-123142396D01*
X162204777Y-123142396D01*
X162226097Y-123354067D01*
X162288302Y-123557510D01*
X162386338Y-123740926D01*
X162549860Y-123816500D01*
X163226360Y-123140000D01*
X163353640Y-123140000D01*
X164030140Y-123816500D01*
X164193662Y-123740926D01*
X164293533Y-123553083D01*
X164354838Y-123349367D01*
X164375223Y-123137604D01*
X164353903Y-122925933D01*
X164291698Y-122722490D01*
X164193662Y-122539074D01*
X164030140Y-122463500D01*
X163353640Y-123140000D01*
X163226360Y-123140000D01*
X162549860Y-122463500D01*
X162386338Y-122539074D01*
X162286467Y-122726917D01*
X162225162Y-122930633D01*
X162204777Y-123142396D01*
X161740000Y-123142396D01*
X161740000Y-123042494D01*
X161701955Y-122851228D01*
X161627326Y-122671059D01*
X161518983Y-122508912D01*
X161409931Y-122399860D01*
X162613500Y-122399860D01*
X163290000Y-123076360D01*
X163966500Y-122399860D01*
X163890926Y-122236338D01*
X163703083Y-122136467D01*
X163499367Y-122075162D01*
X163287604Y-122054777D01*
X163075933Y-122076097D01*
X162872490Y-122138302D01*
X162689074Y-122236338D01*
X162613500Y-122399860D01*
X161409931Y-122399860D01*
X161381088Y-122371017D01*
X161218941Y-122262674D01*
X161038772Y-122188045D01*
X160847506Y-122150000D01*
X160652494Y-122150000D01*
X160461228Y-122188045D01*
X160357286Y-122231099D01*
X160300779Y-122174592D01*
X160289343Y-122160657D01*
X160233764Y-122115045D01*
X160170355Y-122081152D01*
X160101552Y-122060281D01*
X160047931Y-122055000D01*
X160047929Y-122055000D01*
X160030000Y-122053234D01*
X160012071Y-122055000D01*
X128327928Y-122055000D01*
X128309999Y-122053234D01*
X128292070Y-122055000D01*
X128292069Y-122055000D01*
X128238448Y-122060281D01*
X128169645Y-122081152D01*
X128106236Y-122115045D01*
X128050657Y-122160657D01*
X128039221Y-122174592D01*
X127365776Y-122848037D01*
X127259939Y-122804198D01*
X127067900Y-122766000D01*
X126872100Y-122766000D01*
X126680061Y-122804198D01*
X126499164Y-122879128D01*
X126336362Y-122987909D01*
X126197909Y-123126362D01*
X126089128Y-123289164D01*
X126014198Y-123470061D01*
X125976000Y-123662100D01*
X125424000Y-123662100D01*
X125385802Y-123470061D01*
X125310872Y-123289164D01*
X125202091Y-123126362D01*
X125063638Y-122987909D01*
X124900836Y-122879128D01*
X124719939Y-122804198D01*
X124527900Y-122766000D01*
X124332100Y-122766000D01*
X124140061Y-122804198D01*
X123959164Y-122879128D01*
X123796362Y-122987909D01*
X123657909Y-123126362D01*
X123549128Y-123289164D01*
X123474198Y-123470061D01*
X123436000Y-123662100D01*
X122884000Y-123662100D01*
X122845802Y-123470061D01*
X122770872Y-123289164D01*
X122662091Y-123126362D01*
X122523638Y-122987909D01*
X122360836Y-122879128D01*
X122179939Y-122804198D01*
X121987900Y-122766000D01*
X121792100Y-122766000D01*
X121600061Y-122804198D01*
X121419164Y-122879128D01*
X121256362Y-122987909D01*
X121117909Y-123126362D01*
X121009128Y-123289164D01*
X120934198Y-123470061D01*
X120896000Y-123662100D01*
X120344000Y-123662100D01*
X120305802Y-123470061D01*
X120230872Y-123289164D01*
X120122091Y-123126362D01*
X119983638Y-122987909D01*
X119820836Y-122879128D01*
X119639939Y-122804198D01*
X119447900Y-122766000D01*
X119252100Y-122766000D01*
X119060061Y-122804198D01*
X118879164Y-122879128D01*
X118716362Y-122987909D01*
X118577909Y-123126362D01*
X118469128Y-123289164D01*
X118394198Y-123470061D01*
X118356000Y-123662100D01*
X115519804Y-123662100D01*
X115489976Y-123378302D01*
X115489976Y-121271890D01*
X128920000Y-121271890D01*
X128920000Y-121388110D01*
X128942673Y-121502097D01*
X128987149Y-121609470D01*
X129051717Y-121706103D01*
X129133897Y-121788283D01*
X129230530Y-121852851D01*
X129337903Y-121897327D01*
X129451890Y-121920000D01*
X129568110Y-121920000D01*
X129583251Y-121916988D01*
X129611237Y-121939956D01*
X129640752Y-121955732D01*
X129674645Y-121973849D01*
X129695516Y-121980180D01*
X129743449Y-121994720D01*
X129797070Y-122000001D01*
X129797072Y-122000001D01*
X129815001Y-122001767D01*
X129832930Y-122000001D01*
X159697070Y-122000001D01*
X159714999Y-122001767D01*
X159732928Y-122000001D01*
X159732930Y-122000001D01*
X159786551Y-121994720D01*
X159855354Y-121973849D01*
X159918763Y-121939956D01*
X159974342Y-121894344D01*
X159985778Y-121880409D01*
X160357287Y-121508901D01*
X160461228Y-121551955D01*
X160652494Y-121590000D01*
X160847506Y-121590000D01*
X161038772Y-121551955D01*
X161218941Y-121477326D01*
X161381088Y-121368983D01*
X161409931Y-121340140D01*
X162613500Y-121340140D01*
X162689074Y-121503662D01*
X162876917Y-121603533D01*
X163080633Y-121664838D01*
X163292396Y-121685223D01*
X163504067Y-121663903D01*
X163707510Y-121601698D01*
X163890926Y-121503662D01*
X163966500Y-121340140D01*
X163290000Y-120663640D01*
X162613500Y-121340140D01*
X161409931Y-121340140D01*
X161518983Y-121231088D01*
X161627326Y-121068941D01*
X161701955Y-120888772D01*
X161740000Y-120697506D01*
X161740000Y-120602396D01*
X162204777Y-120602396D01*
X162226097Y-120814067D01*
X162288302Y-121017510D01*
X162386338Y-121200926D01*
X162549860Y-121276500D01*
X163226360Y-120600000D01*
X163353640Y-120600000D01*
X164030140Y-121276500D01*
X164193662Y-121200926D01*
X164293533Y-121013083D01*
X164354838Y-120809367D01*
X164375223Y-120597604D01*
X164353903Y-120385933D01*
X164291698Y-120182490D01*
X164193662Y-119999074D01*
X164030140Y-119923500D01*
X163353640Y-120600000D01*
X163226360Y-120600000D01*
X162549860Y-119923500D01*
X162386338Y-119999074D01*
X162286467Y-120186917D01*
X162225162Y-120390633D01*
X162204777Y-120602396D01*
X161740000Y-120602396D01*
X161740000Y-120502494D01*
X161701955Y-120311228D01*
X161627326Y-120131059D01*
X161518983Y-119968912D01*
X161409931Y-119859860D01*
X162613500Y-119859860D01*
X163290000Y-120536360D01*
X163966500Y-119859860D01*
X163890926Y-119696338D01*
X163703083Y-119596467D01*
X163499367Y-119535162D01*
X163287604Y-119514777D01*
X163075933Y-119536097D01*
X162872490Y-119598302D01*
X162689074Y-119696338D01*
X162613500Y-119859860D01*
X161409931Y-119859860D01*
X161381088Y-119831017D01*
X161218941Y-119722674D01*
X161038772Y-119648045D01*
X160847506Y-119610000D01*
X160652494Y-119610000D01*
X160461228Y-119648045D01*
X160281059Y-119722674D01*
X160118912Y-119831017D01*
X159981017Y-119968912D01*
X159872674Y-120131059D01*
X159798045Y-120311228D01*
X159760000Y-120502494D01*
X159760000Y-120697506D01*
X159798045Y-120888772D01*
X159841099Y-120992713D01*
X159563812Y-121270001D01*
X130099624Y-121270001D01*
X130077327Y-121157903D01*
X130032851Y-121050530D01*
X129968283Y-120953897D01*
X129886103Y-120871717D01*
X129789470Y-120807149D01*
X129682097Y-120762673D01*
X129568110Y-120740000D01*
X129451890Y-120740000D01*
X129337903Y-120762673D01*
X129230530Y-120807149D01*
X129133897Y-120871717D01*
X129051717Y-120953897D01*
X128987149Y-121050530D01*
X128942673Y-121157903D01*
X128920000Y-121271890D01*
X115489976Y-121271890D01*
X115489976Y-120021890D01*
X131460000Y-120021890D01*
X131460000Y-120138110D01*
X131482673Y-120252097D01*
X131527149Y-120359470D01*
X131591717Y-120456103D01*
X131673897Y-120538283D01*
X131770530Y-120602851D01*
X131877903Y-120647327D01*
X131991890Y-120670000D01*
X132108110Y-120670000D01*
X132222097Y-120647327D01*
X132329470Y-120602851D01*
X132426103Y-120538283D01*
X132508283Y-120456103D01*
X132515702Y-120445000D01*
X158712071Y-120445000D01*
X158730000Y-120446766D01*
X158747929Y-120445000D01*
X158747931Y-120445000D01*
X158801552Y-120439719D01*
X158870355Y-120418848D01*
X158933764Y-120384955D01*
X158989343Y-120339343D01*
X159000779Y-120325408D01*
X160357287Y-118968901D01*
X160461228Y-119011955D01*
X160652494Y-119050000D01*
X160847506Y-119050000D01*
X161038772Y-119011955D01*
X161218941Y-118937326D01*
X161381088Y-118828983D01*
X161409931Y-118800140D01*
X162613500Y-118800140D01*
X162689074Y-118963662D01*
X162876917Y-119063533D01*
X163080633Y-119124838D01*
X163292396Y-119145223D01*
X163504067Y-119123903D01*
X163707510Y-119061698D01*
X163890926Y-118963662D01*
X163966500Y-118800140D01*
X163290000Y-118123640D01*
X162613500Y-118800140D01*
X161409931Y-118800140D01*
X161518983Y-118691088D01*
X161627326Y-118528941D01*
X161701955Y-118348772D01*
X161740000Y-118157506D01*
X161740000Y-118062396D01*
X162204777Y-118062396D01*
X162226097Y-118274067D01*
X162288302Y-118477510D01*
X162386338Y-118660926D01*
X162549860Y-118736500D01*
X163226360Y-118060000D01*
X163353640Y-118060000D01*
X164030140Y-118736500D01*
X164193662Y-118660926D01*
X164293533Y-118473083D01*
X164354838Y-118269367D01*
X164375223Y-118057604D01*
X164353903Y-117845933D01*
X164291698Y-117642490D01*
X164193662Y-117459074D01*
X164030140Y-117383500D01*
X163353640Y-118060000D01*
X163226360Y-118060000D01*
X162549860Y-117383500D01*
X162386338Y-117459074D01*
X162286467Y-117646917D01*
X162225162Y-117850633D01*
X162204777Y-118062396D01*
X161740000Y-118062396D01*
X161740000Y-117962494D01*
X161701955Y-117771228D01*
X161627326Y-117591059D01*
X161518983Y-117428912D01*
X161409931Y-117319860D01*
X162613500Y-117319860D01*
X163290000Y-117996360D01*
X163966500Y-117319860D01*
X163890926Y-117156338D01*
X163703083Y-117056467D01*
X163499367Y-116995162D01*
X163287604Y-116974777D01*
X163075933Y-116996097D01*
X162872490Y-117058302D01*
X162689074Y-117156338D01*
X162613500Y-117319860D01*
X161409931Y-117319860D01*
X161381088Y-117291017D01*
X161218941Y-117182674D01*
X161038772Y-117108045D01*
X160847506Y-117070000D01*
X160652494Y-117070000D01*
X160461228Y-117108045D01*
X160281059Y-117182674D01*
X160118912Y-117291017D01*
X159981017Y-117428912D01*
X159872674Y-117591059D01*
X159798045Y-117771228D01*
X159760000Y-117962494D01*
X159760000Y-118157506D01*
X159798045Y-118348772D01*
X159841099Y-118452713D01*
X158578813Y-119715000D01*
X132515702Y-119715000D01*
X132508283Y-119703897D01*
X132426103Y-119621717D01*
X132329470Y-119557149D01*
X132222097Y-119512673D01*
X132108110Y-119490000D01*
X131991890Y-119490000D01*
X131877903Y-119512673D01*
X131770530Y-119557149D01*
X131673897Y-119621717D01*
X131591717Y-119703897D01*
X131527149Y-119800530D01*
X131482673Y-119907903D01*
X131460000Y-120021890D01*
X115489976Y-120021890D01*
X115489976Y-118815657D01*
X134003605Y-118815657D01*
X134003605Y-118931877D01*
X134026278Y-119045864D01*
X134070754Y-119153237D01*
X134135322Y-119249870D01*
X134217502Y-119332050D01*
X134314135Y-119396618D01*
X134421508Y-119441094D01*
X134535495Y-119463767D01*
X134651715Y-119463767D01*
X134765702Y-119441094D01*
X134873075Y-119396618D01*
X134969708Y-119332050D01*
X135051888Y-119249870D01*
X135059307Y-119238767D01*
X157378304Y-119238767D01*
X157396233Y-119240533D01*
X157414162Y-119238767D01*
X157414164Y-119238767D01*
X157467785Y-119233486D01*
X157536588Y-119212615D01*
X157599997Y-119178722D01*
X157655576Y-119133110D01*
X157667012Y-119119175D01*
X160357287Y-116428901D01*
X160461228Y-116471955D01*
X160652494Y-116510000D01*
X160847506Y-116510000D01*
X161038772Y-116471955D01*
X161218941Y-116397326D01*
X161381088Y-116288983D01*
X161409931Y-116260140D01*
X162613500Y-116260140D01*
X162689074Y-116423662D01*
X162876917Y-116523533D01*
X163080633Y-116584838D01*
X163292396Y-116605223D01*
X163504067Y-116583903D01*
X163707510Y-116521698D01*
X163890926Y-116423662D01*
X163966500Y-116260140D01*
X163290000Y-115583640D01*
X162613500Y-116260140D01*
X161409931Y-116260140D01*
X161518983Y-116151088D01*
X161627326Y-115988941D01*
X161701955Y-115808772D01*
X161740000Y-115617506D01*
X161740000Y-115522396D01*
X162204777Y-115522396D01*
X162226097Y-115734067D01*
X162288302Y-115937510D01*
X162386338Y-116120926D01*
X162549860Y-116196500D01*
X163226360Y-115520000D01*
X163353640Y-115520000D01*
X164030140Y-116196500D01*
X164193662Y-116120926D01*
X164293533Y-115933083D01*
X164354838Y-115729367D01*
X164375223Y-115517604D01*
X164353903Y-115305933D01*
X164291698Y-115102490D01*
X164193662Y-114919074D01*
X164030140Y-114843500D01*
X163353640Y-115520000D01*
X163226360Y-115520000D01*
X162549860Y-114843500D01*
X162386338Y-114919074D01*
X162286467Y-115106917D01*
X162225162Y-115310633D01*
X162204777Y-115522396D01*
X161740000Y-115522396D01*
X161740000Y-115422494D01*
X161701955Y-115231228D01*
X161627326Y-115051059D01*
X161518983Y-114888912D01*
X161409931Y-114779860D01*
X162613500Y-114779860D01*
X163290000Y-115456360D01*
X163966500Y-114779860D01*
X163890926Y-114616338D01*
X163703083Y-114516467D01*
X163499367Y-114455162D01*
X163287604Y-114434777D01*
X163075933Y-114456097D01*
X162872490Y-114518302D01*
X162689074Y-114616338D01*
X162613500Y-114779860D01*
X161409931Y-114779860D01*
X161381088Y-114751017D01*
X161218941Y-114642674D01*
X161038772Y-114568045D01*
X160847506Y-114530000D01*
X160652494Y-114530000D01*
X160461228Y-114568045D01*
X160281059Y-114642674D01*
X160118912Y-114751017D01*
X159981017Y-114888912D01*
X159872674Y-115051059D01*
X159798045Y-115231228D01*
X159760000Y-115422494D01*
X159760000Y-115617506D01*
X159798045Y-115808772D01*
X159841099Y-115912713D01*
X157245046Y-118508767D01*
X135059307Y-118508767D01*
X135051888Y-118497664D01*
X134969708Y-118415484D01*
X134873075Y-118350916D01*
X134765702Y-118306440D01*
X134651715Y-118283767D01*
X134535495Y-118283767D01*
X134421508Y-118306440D01*
X134314135Y-118350916D01*
X134217502Y-118415484D01*
X134135322Y-118497664D01*
X134070754Y-118594297D01*
X134026278Y-118701670D01*
X134003605Y-118815657D01*
X115489976Y-118815657D01*
X115489976Y-117599295D01*
X136537020Y-117599295D01*
X136537020Y-117715515D01*
X136559693Y-117829502D01*
X136604169Y-117936875D01*
X136668737Y-118033508D01*
X136750917Y-118115688D01*
X136847550Y-118180256D01*
X136954923Y-118224732D01*
X137068910Y-118247405D01*
X137185130Y-118247405D01*
X137299117Y-118224732D01*
X137406490Y-118180256D01*
X137503123Y-118115688D01*
X137585303Y-118033508D01*
X137592722Y-118022405D01*
X156054666Y-118022405D01*
X156072595Y-118024171D01*
X156090524Y-118022405D01*
X156090526Y-118022405D01*
X156144147Y-118017124D01*
X156212950Y-117996253D01*
X156276359Y-117962360D01*
X156331938Y-117916748D01*
X156343374Y-117902813D01*
X160357287Y-113888901D01*
X160461228Y-113931955D01*
X160652494Y-113970000D01*
X160847506Y-113970000D01*
X161038772Y-113931955D01*
X161218941Y-113857326D01*
X161381088Y-113748983D01*
X161409931Y-113720140D01*
X162613500Y-113720140D01*
X162689074Y-113883662D01*
X162876917Y-113983533D01*
X163080633Y-114044838D01*
X163292396Y-114065223D01*
X163504067Y-114043903D01*
X163707510Y-113981698D01*
X163890926Y-113883662D01*
X163966500Y-113720140D01*
X163290000Y-113043640D01*
X162613500Y-113720140D01*
X161409931Y-113720140D01*
X161518983Y-113611088D01*
X161627326Y-113448941D01*
X161701955Y-113268772D01*
X161740000Y-113077506D01*
X161740000Y-112982396D01*
X162204777Y-112982396D01*
X162226097Y-113194067D01*
X162288302Y-113397510D01*
X162386338Y-113580926D01*
X162549860Y-113656500D01*
X163226360Y-112980000D01*
X163353640Y-112980000D01*
X164030140Y-113656500D01*
X164193662Y-113580926D01*
X164293533Y-113393083D01*
X164354838Y-113189367D01*
X164375223Y-112977604D01*
X164353903Y-112765933D01*
X164291698Y-112562490D01*
X164193662Y-112379074D01*
X164030140Y-112303500D01*
X163353640Y-112980000D01*
X163226360Y-112980000D01*
X162549860Y-112303500D01*
X162386338Y-112379074D01*
X162286467Y-112566917D01*
X162225162Y-112770633D01*
X162204777Y-112982396D01*
X161740000Y-112982396D01*
X161740000Y-112882494D01*
X161701955Y-112691228D01*
X161627326Y-112511059D01*
X161518983Y-112348912D01*
X161409931Y-112239860D01*
X162613500Y-112239860D01*
X163290000Y-112916360D01*
X163966500Y-112239860D01*
X163890926Y-112076338D01*
X163703083Y-111976467D01*
X163499367Y-111915162D01*
X163287604Y-111894777D01*
X163075933Y-111916097D01*
X162872490Y-111978302D01*
X162689074Y-112076338D01*
X162613500Y-112239860D01*
X161409931Y-112239860D01*
X161381088Y-112211017D01*
X161218941Y-112102674D01*
X161038772Y-112028045D01*
X160847506Y-111990000D01*
X160652494Y-111990000D01*
X160461228Y-112028045D01*
X160281059Y-112102674D01*
X160118912Y-112211017D01*
X159981017Y-112348912D01*
X159872674Y-112511059D01*
X159798045Y-112691228D01*
X159760000Y-112882494D01*
X159760000Y-113077506D01*
X159798045Y-113268772D01*
X159841099Y-113372713D01*
X155921408Y-117292405D01*
X137592722Y-117292405D01*
X137585303Y-117281302D01*
X137503123Y-117199122D01*
X137406490Y-117134554D01*
X137299117Y-117090078D01*
X137185130Y-117067405D01*
X137068910Y-117067405D01*
X136954923Y-117090078D01*
X136847550Y-117134554D01*
X136750917Y-117199122D01*
X136668737Y-117281302D01*
X136604169Y-117377935D01*
X136559693Y-117485308D01*
X136537020Y-117599295D01*
X115489976Y-117599295D01*
X115489976Y-116361127D01*
X139082920Y-116361127D01*
X139082920Y-116477347D01*
X139105593Y-116591334D01*
X139150069Y-116698707D01*
X139214637Y-116795340D01*
X139296817Y-116877520D01*
X139393450Y-116942088D01*
X139500823Y-116986564D01*
X139614810Y-117009237D01*
X139731030Y-117009237D01*
X139845017Y-116986564D01*
X139952390Y-116942088D01*
X140049023Y-116877520D01*
X140131203Y-116795340D01*
X140138622Y-116784237D01*
X154752834Y-116784237D01*
X154770763Y-116786003D01*
X154788692Y-116784237D01*
X154788694Y-116784237D01*
X154842315Y-116778956D01*
X154911118Y-116758085D01*
X154974527Y-116724192D01*
X155030106Y-116678580D01*
X155041542Y-116664645D01*
X160357287Y-111348901D01*
X160461228Y-111391955D01*
X160652494Y-111430000D01*
X160847506Y-111430000D01*
X161038772Y-111391955D01*
X161218941Y-111317326D01*
X161381088Y-111208983D01*
X161409931Y-111180140D01*
X162613500Y-111180140D01*
X162689074Y-111343662D01*
X162876917Y-111443533D01*
X163080633Y-111504838D01*
X163292396Y-111525223D01*
X163504067Y-111503903D01*
X163707510Y-111441698D01*
X163890926Y-111343662D01*
X163966500Y-111180140D01*
X163290000Y-110503640D01*
X162613500Y-111180140D01*
X161409931Y-111180140D01*
X161518983Y-111071088D01*
X161627326Y-110908941D01*
X161701955Y-110728772D01*
X161740000Y-110537506D01*
X161740000Y-110442396D01*
X162204777Y-110442396D01*
X162226097Y-110654067D01*
X162288302Y-110857510D01*
X162386338Y-111040926D01*
X162549860Y-111116500D01*
X163226360Y-110440000D01*
X163353640Y-110440000D01*
X164030140Y-111116500D01*
X164193662Y-111040926D01*
X164293533Y-110853083D01*
X164354838Y-110649367D01*
X164375223Y-110437604D01*
X164353903Y-110225933D01*
X164291698Y-110022490D01*
X164193662Y-109839074D01*
X164030140Y-109763500D01*
X163353640Y-110440000D01*
X163226360Y-110440000D01*
X162549860Y-109763500D01*
X162386338Y-109839074D01*
X162286467Y-110026917D01*
X162225162Y-110230633D01*
X162204777Y-110442396D01*
X161740000Y-110442396D01*
X161740000Y-110342494D01*
X161701955Y-110151228D01*
X161627326Y-109971059D01*
X161518983Y-109808912D01*
X161409931Y-109699860D01*
X162613500Y-109699860D01*
X163290000Y-110376360D01*
X163966500Y-109699860D01*
X163890926Y-109536338D01*
X163703083Y-109436467D01*
X163499367Y-109375162D01*
X163287604Y-109354777D01*
X163075933Y-109376097D01*
X162872490Y-109438302D01*
X162689074Y-109536338D01*
X162613500Y-109699860D01*
X161409931Y-109699860D01*
X161381088Y-109671017D01*
X161218941Y-109562674D01*
X161038772Y-109488045D01*
X160847506Y-109450000D01*
X160652494Y-109450000D01*
X160461228Y-109488045D01*
X160281059Y-109562674D01*
X160118912Y-109671017D01*
X159981017Y-109808912D01*
X159872674Y-109971059D01*
X159798045Y-110151228D01*
X159760000Y-110342494D01*
X159760000Y-110537506D01*
X159798045Y-110728772D01*
X159841099Y-110832713D01*
X154619576Y-116054237D01*
X140138622Y-116054237D01*
X140131203Y-116043134D01*
X140049023Y-115960954D01*
X139952390Y-115896386D01*
X139845017Y-115851910D01*
X139731030Y-115829237D01*
X139614810Y-115829237D01*
X139500823Y-115851910D01*
X139393450Y-115896386D01*
X139296817Y-115960954D01*
X139214637Y-116043134D01*
X139150069Y-116139767D01*
X139105593Y-116247140D01*
X139082920Y-116361127D01*
X115489976Y-116361127D01*
X115489976Y-115164695D01*
X141621865Y-115164695D01*
X141621865Y-115280915D01*
X141644538Y-115394902D01*
X141689014Y-115502275D01*
X141753582Y-115598908D01*
X141835762Y-115681088D01*
X141932395Y-115745656D01*
X142039768Y-115790132D01*
X142153755Y-115812805D01*
X142269975Y-115812805D01*
X142383962Y-115790132D01*
X142491335Y-115745656D01*
X142587968Y-115681088D01*
X142670148Y-115598908D01*
X142677567Y-115587805D01*
X153409266Y-115587805D01*
X153427195Y-115589571D01*
X153445124Y-115587805D01*
X153445126Y-115587805D01*
X153498747Y-115582524D01*
X153567550Y-115561653D01*
X153630959Y-115527760D01*
X153686538Y-115482148D01*
X153697974Y-115468213D01*
X160357287Y-108808901D01*
X160461228Y-108851955D01*
X160652494Y-108890000D01*
X160847506Y-108890000D01*
X161038772Y-108851955D01*
X161218941Y-108777326D01*
X161381088Y-108668983D01*
X161409931Y-108640140D01*
X162613500Y-108640140D01*
X162689074Y-108803662D01*
X162876917Y-108903533D01*
X163080633Y-108964838D01*
X163292396Y-108985223D01*
X163504067Y-108963903D01*
X163707510Y-108901698D01*
X163890926Y-108803662D01*
X163966500Y-108640140D01*
X163290000Y-107963640D01*
X162613500Y-108640140D01*
X161409931Y-108640140D01*
X161518983Y-108531088D01*
X161627326Y-108368941D01*
X161701955Y-108188772D01*
X161740000Y-107997506D01*
X161740000Y-107902396D01*
X162204777Y-107902396D01*
X162226097Y-108114067D01*
X162288302Y-108317510D01*
X162386338Y-108500926D01*
X162549860Y-108576500D01*
X163226360Y-107900000D01*
X163353640Y-107900000D01*
X164030140Y-108576500D01*
X164193662Y-108500926D01*
X164293533Y-108313083D01*
X164354838Y-108109367D01*
X164375223Y-107897604D01*
X164353903Y-107685933D01*
X164291698Y-107482490D01*
X164193662Y-107299074D01*
X164030140Y-107223500D01*
X163353640Y-107900000D01*
X163226360Y-107900000D01*
X162549860Y-107223500D01*
X162386338Y-107299074D01*
X162286467Y-107486917D01*
X162225162Y-107690633D01*
X162204777Y-107902396D01*
X161740000Y-107902396D01*
X161740000Y-107802494D01*
X161701955Y-107611228D01*
X161627326Y-107431059D01*
X161518983Y-107268912D01*
X161409931Y-107159860D01*
X162613500Y-107159860D01*
X163290000Y-107836360D01*
X163966500Y-107159860D01*
X163890926Y-106996338D01*
X163703083Y-106896467D01*
X163499367Y-106835162D01*
X163287604Y-106814777D01*
X163075933Y-106836097D01*
X162872490Y-106898302D01*
X162689074Y-106996338D01*
X162613500Y-107159860D01*
X161409931Y-107159860D01*
X161381088Y-107131017D01*
X161218941Y-107022674D01*
X161038772Y-106948045D01*
X160847506Y-106910000D01*
X160652494Y-106910000D01*
X160461228Y-106948045D01*
X160281059Y-107022674D01*
X160118912Y-107131017D01*
X159981017Y-107268912D01*
X159872674Y-107431059D01*
X159798045Y-107611228D01*
X159760000Y-107802494D01*
X159760000Y-107997506D01*
X159798045Y-108188772D01*
X159841099Y-108292713D01*
X153276008Y-114857805D01*
X142677567Y-114857805D01*
X142670148Y-114846702D01*
X142587968Y-114764522D01*
X142491335Y-114699954D01*
X142383962Y-114655478D01*
X142269975Y-114632805D01*
X142153755Y-114632805D01*
X142039768Y-114655478D01*
X141932395Y-114699954D01*
X141835762Y-114764522D01*
X141753582Y-114846702D01*
X141689014Y-114943335D01*
X141644538Y-115050708D01*
X141621865Y-115164695D01*
X115489976Y-115164695D01*
X115489976Y-113971889D01*
X144160000Y-113971889D01*
X144160000Y-114088109D01*
X144182673Y-114202096D01*
X144227149Y-114309469D01*
X144291717Y-114406102D01*
X144373897Y-114488282D01*
X144470530Y-114552850D01*
X144577903Y-114597326D01*
X144691890Y-114619999D01*
X144808110Y-114619999D01*
X144922097Y-114597326D01*
X145029470Y-114552850D01*
X145126103Y-114488282D01*
X145208283Y-114406102D01*
X145215702Y-114394999D01*
X152062072Y-114394999D01*
X152080001Y-114396765D01*
X152097930Y-114394999D01*
X152097932Y-114394999D01*
X152151553Y-114389718D01*
X152220356Y-114368847D01*
X152283765Y-114334954D01*
X152339344Y-114289342D01*
X152350780Y-114275407D01*
X160357286Y-106268901D01*
X160461228Y-106311955D01*
X160652494Y-106350000D01*
X160847506Y-106350000D01*
X161038772Y-106311955D01*
X161218941Y-106237326D01*
X161381088Y-106128983D01*
X161409931Y-106100140D01*
X162613500Y-106100140D01*
X162689074Y-106263662D01*
X162876917Y-106363533D01*
X163080633Y-106424838D01*
X163292396Y-106445223D01*
X163504067Y-106423903D01*
X163707510Y-106361698D01*
X163890926Y-106263662D01*
X163966500Y-106100140D01*
X163290000Y-105423640D01*
X162613500Y-106100140D01*
X161409931Y-106100140D01*
X161518983Y-105991088D01*
X161627326Y-105828941D01*
X161701955Y-105648772D01*
X161740000Y-105457506D01*
X161740000Y-105362396D01*
X162204777Y-105362396D01*
X162226097Y-105574067D01*
X162288302Y-105777510D01*
X162386338Y-105960926D01*
X162549860Y-106036500D01*
X163226360Y-105360000D01*
X163353640Y-105360000D01*
X164030140Y-106036500D01*
X164193662Y-105960926D01*
X164293533Y-105773083D01*
X164354838Y-105569367D01*
X164375223Y-105357604D01*
X164353903Y-105145933D01*
X164291698Y-104942490D01*
X164193662Y-104759074D01*
X164030140Y-104683500D01*
X163353640Y-105360000D01*
X163226360Y-105360000D01*
X162549860Y-104683500D01*
X162386338Y-104759074D01*
X162286467Y-104946917D01*
X162225162Y-105150633D01*
X162204777Y-105362396D01*
X161740000Y-105362396D01*
X161740000Y-105262494D01*
X161701955Y-105071228D01*
X161627326Y-104891059D01*
X161518983Y-104728912D01*
X161409931Y-104619860D01*
X162613500Y-104619860D01*
X163290000Y-105296360D01*
X163966500Y-104619860D01*
X163890926Y-104456338D01*
X163703083Y-104356467D01*
X163499367Y-104295162D01*
X163287604Y-104274777D01*
X163075933Y-104296097D01*
X162872490Y-104358302D01*
X162689074Y-104456338D01*
X162613500Y-104619860D01*
X161409931Y-104619860D01*
X161381088Y-104591017D01*
X161218941Y-104482674D01*
X161038772Y-104408045D01*
X160847506Y-104370000D01*
X160652494Y-104370000D01*
X160461228Y-104408045D01*
X160281059Y-104482674D01*
X160118912Y-104591017D01*
X159981017Y-104728912D01*
X159872674Y-104891059D01*
X159798045Y-105071228D01*
X159760000Y-105262494D01*
X159760000Y-105457506D01*
X159798045Y-105648772D01*
X159841099Y-105752714D01*
X151928814Y-113664999D01*
X145215702Y-113664999D01*
X145208283Y-113653896D01*
X145126103Y-113571716D01*
X145029470Y-113507148D01*
X144922097Y-113462672D01*
X144808110Y-113439999D01*
X144691890Y-113439999D01*
X144577903Y-113462672D01*
X144470530Y-113507148D01*
X144373897Y-113571716D01*
X144291717Y-113653896D01*
X144227149Y-113750529D01*
X144182673Y-113857902D01*
X144160000Y-113971889D01*
X115489976Y-113971889D01*
X115489976Y-108422100D01*
X120896000Y-108422100D01*
X120896000Y-108617900D01*
X120934198Y-108809939D01*
X121009128Y-108990836D01*
X121117909Y-109153638D01*
X121256362Y-109292091D01*
X121419164Y-109400872D01*
X121600061Y-109475802D01*
X121792100Y-109514000D01*
X121987900Y-109514000D01*
X122179939Y-109475802D01*
X122360836Y-109400872D01*
X122523638Y-109292091D01*
X122662091Y-109153638D01*
X122770872Y-108990836D01*
X122845802Y-108809939D01*
X122884000Y-108617900D01*
X122884000Y-108422100D01*
X123436000Y-108422100D01*
X123436000Y-108617900D01*
X123474198Y-108809939D01*
X123549128Y-108990836D01*
X123657909Y-109153638D01*
X123796362Y-109292091D01*
X123959164Y-109400872D01*
X124140061Y-109475802D01*
X124332100Y-109514000D01*
X124527900Y-109514000D01*
X124719939Y-109475802D01*
X124900836Y-109400872D01*
X125063638Y-109292091D01*
X125202091Y-109153638D01*
X125310872Y-108990836D01*
X125385802Y-108809939D01*
X125424000Y-108617900D01*
X125424000Y-108422100D01*
X125976000Y-108422100D01*
X125976000Y-108617900D01*
X126014198Y-108809939D01*
X126089128Y-108990836D01*
X126197909Y-109153638D01*
X126336362Y-109292091D01*
X126499164Y-109400872D01*
X126680061Y-109475802D01*
X126872100Y-109514000D01*
X127067900Y-109514000D01*
X127259939Y-109475802D01*
X127440836Y-109400872D01*
X127603638Y-109292091D01*
X127742091Y-109153638D01*
X127850872Y-108990836D01*
X127925802Y-108809939D01*
X127964000Y-108617900D01*
X127964000Y-108422100D01*
X128516000Y-108422100D01*
X128516000Y-108617900D01*
X128554198Y-108809939D01*
X128629128Y-108990836D01*
X128737909Y-109153638D01*
X128876362Y-109292091D01*
X129039164Y-109400872D01*
X129220061Y-109475802D01*
X129412100Y-109514000D01*
X129607900Y-109514000D01*
X129799939Y-109475802D01*
X129980836Y-109400872D01*
X130143638Y-109292091D01*
X130282091Y-109153638D01*
X130390872Y-108990836D01*
X130465802Y-108809939D01*
X130504000Y-108617900D01*
X130504000Y-108422100D01*
X131056000Y-108422100D01*
X131056000Y-108617900D01*
X131094198Y-108809939D01*
X131169128Y-108990836D01*
X131277909Y-109153638D01*
X131416362Y-109292091D01*
X131579164Y-109400872D01*
X131760061Y-109475802D01*
X131952100Y-109514000D01*
X132147900Y-109514000D01*
X132339939Y-109475802D01*
X132520836Y-109400872D01*
X132683638Y-109292091D01*
X132822091Y-109153638D01*
X132930872Y-108990836D01*
X133005802Y-108809939D01*
X133044000Y-108617900D01*
X133044000Y-108422100D01*
X133596000Y-108422100D01*
X133596000Y-108617900D01*
X133634198Y-108809939D01*
X133709128Y-108990836D01*
X133817909Y-109153638D01*
X133956362Y-109292091D01*
X134119164Y-109400872D01*
X134300061Y-109475802D01*
X134492100Y-109514000D01*
X134687900Y-109514000D01*
X134879939Y-109475802D01*
X135060836Y-109400872D01*
X135223638Y-109292091D01*
X135362091Y-109153638D01*
X135470872Y-108990836D01*
X135545802Y-108809939D01*
X135584000Y-108617900D01*
X135584000Y-108422100D01*
X136136000Y-108422100D01*
X136136000Y-108617900D01*
X136174198Y-108809939D01*
X136249128Y-108990836D01*
X136357909Y-109153638D01*
X136496362Y-109292091D01*
X136659164Y-109400872D01*
X136840061Y-109475802D01*
X137032100Y-109514000D01*
X137227900Y-109514000D01*
X137419939Y-109475802D01*
X137525776Y-109431963D01*
X138379225Y-110285413D01*
X138390657Y-110299343D01*
X138446236Y-110344955D01*
X138509645Y-110378848D01*
X138578448Y-110399719D01*
X138632069Y-110405000D01*
X138632071Y-110405000D01*
X138650000Y-110406766D01*
X138667929Y-110405000D01*
X150052071Y-110405000D01*
X150070000Y-110406766D01*
X150087929Y-110405000D01*
X150087931Y-110405000D01*
X150141552Y-110399719D01*
X150210355Y-110378848D01*
X150273764Y-110344955D01*
X150329343Y-110299343D01*
X150340779Y-110285408D01*
X152205413Y-108420775D01*
X152219343Y-108409343D01*
X152264955Y-108353764D01*
X152298848Y-108290355D01*
X152319719Y-108221552D01*
X152325000Y-108167931D01*
X152325000Y-108167929D01*
X152326766Y-108150000D01*
X152325000Y-108132071D01*
X152325000Y-104157928D01*
X152326766Y-104139999D01*
X152323314Y-104104955D01*
X152319719Y-104068448D01*
X152315000Y-104052891D01*
X152315000Y-102920000D01*
X152318403Y-102920000D01*
X152324775Y-102984691D01*
X152343644Y-103046897D01*
X152374287Y-103104225D01*
X152415526Y-103154474D01*
X152465775Y-103195713D01*
X152523103Y-103226356D01*
X152585309Y-103245225D01*
X152650000Y-103251597D01*
X154422500Y-103250000D01*
X154505000Y-103167500D01*
X154505000Y-102165000D01*
X154595000Y-102165000D01*
X154595000Y-103167500D01*
X154677500Y-103250000D01*
X156450000Y-103251597D01*
X156514691Y-103245225D01*
X156576897Y-103226356D01*
X156634225Y-103195713D01*
X156684474Y-103154474D01*
X156725713Y-103104225D01*
X156756356Y-103046897D01*
X156775225Y-102984691D01*
X156781597Y-102920000D01*
X158678403Y-102920000D01*
X158684775Y-102984691D01*
X158703644Y-103046897D01*
X158734287Y-103104225D01*
X158775526Y-103154474D01*
X158825775Y-103195713D01*
X158883103Y-103226356D01*
X158945309Y-103245225D01*
X159010000Y-103251597D01*
X160382500Y-103250000D01*
X160465000Y-103167500D01*
X160465000Y-102165000D01*
X160555000Y-102165000D01*
X160555000Y-103167500D01*
X160637500Y-103250000D01*
X162010000Y-103251597D01*
X162074691Y-103245225D01*
X162136897Y-103226356D01*
X162194225Y-103195713D01*
X162244474Y-103154474D01*
X162285713Y-103104225D01*
X162316356Y-103046897D01*
X162335225Y-102984691D01*
X162341597Y-102920000D01*
X162340000Y-102247500D01*
X162257500Y-102165000D01*
X160555000Y-102165000D01*
X160465000Y-102165000D01*
X158762500Y-102165000D01*
X158680000Y-102247500D01*
X158678403Y-102920000D01*
X156781597Y-102920000D01*
X156780000Y-102247500D01*
X156697500Y-102165000D01*
X154595000Y-102165000D01*
X154505000Y-102165000D01*
X152402500Y-102165000D01*
X152320000Y-102247500D01*
X152318403Y-102920000D01*
X152315000Y-102920000D01*
X152315000Y-101320000D01*
X152318403Y-101320000D01*
X152320000Y-101992500D01*
X152402500Y-102075000D01*
X154505000Y-102075000D01*
X154505000Y-101072500D01*
X154595000Y-101072500D01*
X154595000Y-102075000D01*
X156697500Y-102075000D01*
X156780000Y-101992500D01*
X156781597Y-101320000D01*
X158678403Y-101320000D01*
X158680000Y-101992500D01*
X158762500Y-102075000D01*
X160465000Y-102075000D01*
X160465000Y-101072500D01*
X160555000Y-101072500D01*
X160555000Y-102075000D01*
X162257500Y-102075000D01*
X162340000Y-101992500D01*
X162341597Y-101320000D01*
X162335225Y-101255309D01*
X162316356Y-101193103D01*
X162285713Y-101135775D01*
X162244474Y-101085526D01*
X162194225Y-101044287D01*
X162136897Y-101013644D01*
X162074691Y-100994775D01*
X162010000Y-100988403D01*
X160637500Y-100990000D01*
X160555000Y-101072500D01*
X160465000Y-101072500D01*
X160382500Y-100990000D01*
X159010000Y-100988403D01*
X158945309Y-100994775D01*
X158883103Y-101013644D01*
X158825775Y-101044287D01*
X158775526Y-101085526D01*
X158734287Y-101135775D01*
X158703644Y-101193103D01*
X158684775Y-101255309D01*
X158678403Y-101320000D01*
X156781597Y-101320000D01*
X156775225Y-101255309D01*
X156756356Y-101193103D01*
X156725713Y-101135775D01*
X156684474Y-101085526D01*
X156634225Y-101044287D01*
X156576897Y-101013644D01*
X156514691Y-100994775D01*
X156450000Y-100988403D01*
X154677500Y-100990000D01*
X154595000Y-101072500D01*
X154505000Y-101072500D01*
X154422500Y-100990000D01*
X152650000Y-100988403D01*
X152585309Y-100994775D01*
X152523103Y-101013644D01*
X152465775Y-101044287D01*
X152415526Y-101085526D01*
X152374287Y-101135775D01*
X152343644Y-101193103D01*
X152324775Y-101255309D01*
X152318403Y-101320000D01*
X152315000Y-101320000D01*
X152315000Y-101041187D01*
X152431188Y-100925000D01*
X157782071Y-100925000D01*
X157800000Y-100926766D01*
X157817929Y-100925000D01*
X157817931Y-100925000D01*
X157871552Y-100919719D01*
X157940355Y-100898848D01*
X158003764Y-100864955D01*
X158059343Y-100819343D01*
X158070779Y-100805408D01*
X160271188Y-98605000D01*
X160964298Y-98605000D01*
X160971717Y-98616103D01*
X161053897Y-98698283D01*
X161150530Y-98762851D01*
X161257903Y-98807327D01*
X161371890Y-98830000D01*
X161488110Y-98830000D01*
X161602097Y-98807327D01*
X161709470Y-98762851D01*
X161806103Y-98698283D01*
X161888283Y-98616103D01*
X161952851Y-98519470D01*
X161997327Y-98412097D01*
X162020000Y-98298110D01*
X162020000Y-98181890D01*
X161997327Y-98067903D01*
X161952851Y-97960530D01*
X161888283Y-97863897D01*
X161806103Y-97781717D01*
X161709470Y-97717149D01*
X161602097Y-97672673D01*
X161488110Y-97650000D01*
X161371890Y-97650000D01*
X161257903Y-97672673D01*
X161150530Y-97717149D01*
X161053897Y-97781717D01*
X160971717Y-97863897D01*
X160964298Y-97875000D01*
X160137928Y-97875000D01*
X160119999Y-97873234D01*
X160102070Y-97875000D01*
X160102069Y-97875000D01*
X160048448Y-97880281D01*
X159979645Y-97901152D01*
X159979643Y-97901153D01*
X159916234Y-97935046D01*
X159908307Y-97941552D01*
X159860657Y-97980657D01*
X159849225Y-97994587D01*
X157648813Y-100195000D01*
X152297928Y-100195000D01*
X152279999Y-100193234D01*
X152262070Y-100195000D01*
X152262069Y-100195000D01*
X152208448Y-100200281D01*
X152139645Y-100221152D01*
X152139643Y-100221153D01*
X152076234Y-100255046D01*
X152069396Y-100260658D01*
X152020657Y-100300657D01*
X152009226Y-100314586D01*
X151704588Y-100619225D01*
X151690657Y-100630658D01*
X151645045Y-100686237D01*
X151611152Y-100749646D01*
X151590281Y-100818449D01*
X151585701Y-100864954D01*
X151583234Y-100890000D01*
X151585000Y-100907929D01*
X151585001Y-104112061D01*
X151583234Y-104130000D01*
X151586756Y-104165752D01*
X151590282Y-104201552D01*
X151595000Y-104217105D01*
X151595001Y-107998811D01*
X149918813Y-109675000D01*
X138801188Y-109675000D01*
X138041963Y-108915776D01*
X138085802Y-108809939D01*
X138124000Y-108617900D01*
X138124000Y-108422100D01*
X138676000Y-108422100D01*
X138676000Y-108617900D01*
X138714198Y-108809939D01*
X138789128Y-108990836D01*
X138897909Y-109153638D01*
X139036362Y-109292091D01*
X139199164Y-109400872D01*
X139380061Y-109475802D01*
X139572100Y-109514000D01*
X139767900Y-109514000D01*
X139959939Y-109475802D01*
X140140836Y-109400872D01*
X140303638Y-109292091D01*
X140442091Y-109153638D01*
X140550872Y-108990836D01*
X140625802Y-108809939D01*
X140664000Y-108617900D01*
X140664000Y-108422100D01*
X141216000Y-108422100D01*
X141216000Y-108617900D01*
X141254198Y-108809939D01*
X141329128Y-108990836D01*
X141437909Y-109153638D01*
X141576362Y-109292091D01*
X141739164Y-109400872D01*
X141920061Y-109475802D01*
X142112100Y-109514000D01*
X142307900Y-109514000D01*
X142499939Y-109475802D01*
X142680836Y-109400872D01*
X142843638Y-109292091D01*
X142982091Y-109153638D01*
X143090872Y-108990836D01*
X143165802Y-108809939D01*
X143204000Y-108617900D01*
X143204000Y-108422100D01*
X143756000Y-108422100D01*
X143756000Y-108617900D01*
X143794198Y-108809939D01*
X143869128Y-108990836D01*
X143977909Y-109153638D01*
X144116362Y-109292091D01*
X144279164Y-109400872D01*
X144460061Y-109475802D01*
X144652100Y-109514000D01*
X144847900Y-109514000D01*
X145039939Y-109475802D01*
X145220836Y-109400872D01*
X145383638Y-109292091D01*
X145412744Y-109262985D01*
X146610655Y-109262985D01*
X146686711Y-109426915D01*
X146875233Y-109527185D01*
X147079695Y-109588749D01*
X147292239Y-109609243D01*
X147504697Y-109587876D01*
X147708904Y-109525472D01*
X147893289Y-109426915D01*
X147969345Y-109262985D01*
X147290000Y-108583640D01*
X146610655Y-109262985D01*
X145412744Y-109262985D01*
X145522091Y-109153638D01*
X145630872Y-108990836D01*
X145705802Y-108809939D01*
X145744000Y-108617900D01*
X145744000Y-108522239D01*
X146200757Y-108522239D01*
X146222124Y-108734697D01*
X146284528Y-108938904D01*
X146383085Y-109123289D01*
X146547015Y-109199345D01*
X147226360Y-108520000D01*
X147353640Y-108520000D01*
X148032985Y-109199345D01*
X148196915Y-109123289D01*
X148297185Y-108934767D01*
X148358749Y-108730305D01*
X148379243Y-108517761D01*
X148357876Y-108305303D01*
X148295472Y-108101096D01*
X148196915Y-107916711D01*
X148032985Y-107840655D01*
X147353640Y-108520000D01*
X147226360Y-108520000D01*
X146547015Y-107840655D01*
X146383085Y-107916711D01*
X146282815Y-108105233D01*
X146221251Y-108309695D01*
X146200757Y-108522239D01*
X145744000Y-108522239D01*
X145744000Y-108422100D01*
X145705802Y-108230061D01*
X145630872Y-108049164D01*
X145522091Y-107886362D01*
X145412744Y-107777015D01*
X146610655Y-107777015D01*
X147290000Y-108456360D01*
X147969345Y-107777015D01*
X147893289Y-107613085D01*
X147704767Y-107512815D01*
X147500305Y-107451251D01*
X147287761Y-107430757D01*
X147075303Y-107452124D01*
X146871096Y-107514528D01*
X146686711Y-107613085D01*
X146610655Y-107777015D01*
X145412744Y-107777015D01*
X145383638Y-107747909D01*
X145220836Y-107639128D01*
X145039939Y-107564198D01*
X144847900Y-107526000D01*
X144652100Y-107526000D01*
X144460061Y-107564198D01*
X144279164Y-107639128D01*
X144116362Y-107747909D01*
X143977909Y-107886362D01*
X143869128Y-108049164D01*
X143794198Y-108230061D01*
X143756000Y-108422100D01*
X143204000Y-108422100D01*
X143165802Y-108230061D01*
X143090872Y-108049164D01*
X142982091Y-107886362D01*
X142843638Y-107747909D01*
X142680836Y-107639128D01*
X142499939Y-107564198D01*
X142307900Y-107526000D01*
X142112100Y-107526000D01*
X141920061Y-107564198D01*
X141739164Y-107639128D01*
X141576362Y-107747909D01*
X141437909Y-107886362D01*
X141329128Y-108049164D01*
X141254198Y-108230061D01*
X141216000Y-108422100D01*
X140664000Y-108422100D01*
X140625802Y-108230061D01*
X140581963Y-108124224D01*
X141411188Y-107295000D01*
X144032071Y-107295000D01*
X144050000Y-107296766D01*
X144067929Y-107295000D01*
X144067931Y-107295000D01*
X144121552Y-107289719D01*
X144190355Y-107268848D01*
X144253764Y-107234955D01*
X144309343Y-107189343D01*
X144320779Y-107175408D01*
X146655413Y-104840775D01*
X146669343Y-104829343D01*
X146714955Y-104773764D01*
X146748848Y-104710355D01*
X146769719Y-104641552D01*
X146775000Y-104587931D01*
X146775000Y-104587930D01*
X146776766Y-104570001D01*
X146775000Y-104552072D01*
X146775000Y-102920000D01*
X146898403Y-102920000D01*
X146904775Y-102984691D01*
X146923644Y-103046897D01*
X146954287Y-103104225D01*
X146995526Y-103154474D01*
X147045775Y-103195713D01*
X147103103Y-103226356D01*
X147165309Y-103245225D01*
X147230000Y-103251597D01*
X149002500Y-103250000D01*
X149085000Y-103167500D01*
X149085000Y-102165000D01*
X149175000Y-102165000D01*
X149175000Y-103167500D01*
X149257500Y-103250000D01*
X151030000Y-103251597D01*
X151094691Y-103245225D01*
X151156897Y-103226356D01*
X151214225Y-103195713D01*
X151264474Y-103154474D01*
X151305713Y-103104225D01*
X151336356Y-103046897D01*
X151355225Y-102984691D01*
X151361597Y-102920000D01*
X151360000Y-102247500D01*
X151277500Y-102165000D01*
X149175000Y-102165000D01*
X149085000Y-102165000D01*
X146982500Y-102165000D01*
X146900000Y-102247500D01*
X146898403Y-102920000D01*
X146775000Y-102920000D01*
X146775000Y-101320000D01*
X146898403Y-101320000D01*
X146900000Y-101992500D01*
X146982500Y-102075000D01*
X149085000Y-102075000D01*
X149085000Y-101072500D01*
X149175000Y-101072500D01*
X149175000Y-102075000D01*
X151277500Y-102075000D01*
X151360000Y-101992500D01*
X151361597Y-101320000D01*
X151355225Y-101255309D01*
X151336356Y-101193103D01*
X151305713Y-101135775D01*
X151264474Y-101085526D01*
X151214225Y-101044287D01*
X151156897Y-101013644D01*
X151094691Y-100994775D01*
X151030000Y-100988403D01*
X149257500Y-100990000D01*
X149175000Y-101072500D01*
X149085000Y-101072500D01*
X149002500Y-100990000D01*
X147230000Y-100988403D01*
X147165309Y-100994775D01*
X147103103Y-101013644D01*
X147045775Y-101044287D01*
X146995526Y-101085526D01*
X146954287Y-101135775D01*
X146923644Y-101193103D01*
X146904775Y-101255309D01*
X146898403Y-101320000D01*
X146775000Y-101320000D01*
X146775000Y-100671187D01*
X147488793Y-99957395D01*
X147501890Y-99960000D01*
X147618110Y-99960000D01*
X147732097Y-99937327D01*
X147839470Y-99892851D01*
X147936103Y-99828283D01*
X148018283Y-99746103D01*
X148082851Y-99649470D01*
X148127327Y-99542097D01*
X148131722Y-99520000D01*
X152158403Y-99520000D01*
X152164775Y-99584691D01*
X152183644Y-99646897D01*
X152214287Y-99704225D01*
X152255526Y-99754474D01*
X152305775Y-99795713D01*
X152363103Y-99826356D01*
X152425309Y-99845225D01*
X152490000Y-99851597D01*
X153662500Y-99850000D01*
X153745000Y-99767500D01*
X153745000Y-99415000D01*
X152242500Y-99415000D01*
X152160000Y-99497500D01*
X152158403Y-99520000D01*
X148131722Y-99520000D01*
X148150000Y-99428110D01*
X148150000Y-99311890D01*
X148127327Y-99197903D01*
X148082851Y-99090530D01*
X148018283Y-98993897D01*
X147936103Y-98911717D01*
X147839470Y-98847149D01*
X147732097Y-98802673D01*
X147618110Y-98780000D01*
X147501890Y-98780000D01*
X147387903Y-98802673D01*
X147280530Y-98847149D01*
X147183897Y-98911717D01*
X147101717Y-98993897D01*
X147037149Y-99090530D01*
X146992673Y-99197903D01*
X146970000Y-99311890D01*
X146970000Y-99428110D01*
X146972605Y-99441207D01*
X146164588Y-100249225D01*
X146150657Y-100260658D01*
X146105045Y-100316237D01*
X146071152Y-100379646D01*
X146050281Y-100448449D01*
X146046342Y-100488448D01*
X146043234Y-100520000D01*
X146045000Y-100537929D01*
X146045001Y-104418811D01*
X143898813Y-106565000D01*
X141277929Y-106565000D01*
X141260000Y-106563234D01*
X141242071Y-106565000D01*
X141242069Y-106565000D01*
X141188448Y-106570281D01*
X141119645Y-106591152D01*
X141056236Y-106625045D01*
X141000657Y-106670657D01*
X140989226Y-106684586D01*
X140065776Y-107608037D01*
X139959939Y-107564198D01*
X139767900Y-107526000D01*
X139572100Y-107526000D01*
X139380061Y-107564198D01*
X139199164Y-107639128D01*
X139036362Y-107747909D01*
X138897909Y-107886362D01*
X138789128Y-108049164D01*
X138714198Y-108230061D01*
X138676000Y-108422100D01*
X138124000Y-108422100D01*
X138085802Y-108230061D01*
X138010872Y-108049164D01*
X137902091Y-107886362D01*
X137763638Y-107747909D01*
X137600836Y-107639128D01*
X137419939Y-107564198D01*
X137227900Y-107526000D01*
X137032100Y-107526000D01*
X136840061Y-107564198D01*
X136659164Y-107639128D01*
X136496362Y-107747909D01*
X136357909Y-107886362D01*
X136249128Y-108049164D01*
X136174198Y-108230061D01*
X136136000Y-108422100D01*
X135584000Y-108422100D01*
X135545802Y-108230061D01*
X135501963Y-108124224D01*
X137091188Y-106535000D01*
X143152071Y-106535000D01*
X143170000Y-106536766D01*
X143187929Y-106535000D01*
X143187931Y-106535000D01*
X143241552Y-106529719D01*
X143310355Y-106508848D01*
X143373764Y-106474955D01*
X143429343Y-106429343D01*
X143440779Y-106415408D01*
X145785418Y-104070770D01*
X145799342Y-104059343D01*
X145844955Y-104003764D01*
X145878848Y-103940355D01*
X145899719Y-103871552D01*
X145905000Y-103817931D01*
X145905000Y-103817930D01*
X145906766Y-103800001D01*
X145905000Y-103782072D01*
X145905000Y-99241187D01*
X146168793Y-98977395D01*
X146181890Y-98980000D01*
X146298110Y-98980000D01*
X146412097Y-98957327D01*
X146519470Y-98912851D01*
X146616103Y-98848283D01*
X146698283Y-98766103D01*
X146762851Y-98669470D01*
X146807327Y-98562097D01*
X146830000Y-98448110D01*
X146830000Y-98331890D01*
X146807327Y-98217903D01*
X146762851Y-98110530D01*
X146698283Y-98013897D01*
X146616103Y-97931717D01*
X146519470Y-97867149D01*
X146412097Y-97822673D01*
X146298110Y-97800000D01*
X146181890Y-97800000D01*
X146067903Y-97822673D01*
X145960530Y-97867149D01*
X145863897Y-97931717D01*
X145781717Y-98013897D01*
X145717149Y-98110530D01*
X145672673Y-98217903D01*
X145650000Y-98331890D01*
X145650000Y-98448110D01*
X145652605Y-98461207D01*
X145294587Y-98819226D01*
X145280658Y-98830657D01*
X145269227Y-98844586D01*
X145235046Y-98886236D01*
X145201153Y-98949645D01*
X145180282Y-99018448D01*
X145173234Y-99090000D01*
X145175001Y-99107939D01*
X145175000Y-103648812D01*
X143018813Y-105805000D01*
X136957929Y-105805000D01*
X136940000Y-105803234D01*
X136922071Y-105805000D01*
X136922069Y-105805000D01*
X136868448Y-105810281D01*
X136799645Y-105831152D01*
X136736236Y-105865045D01*
X136680657Y-105910657D01*
X136669226Y-105924586D01*
X134985776Y-107608037D01*
X134879939Y-107564198D01*
X134687900Y-107526000D01*
X134492100Y-107526000D01*
X134300061Y-107564198D01*
X134119164Y-107639128D01*
X133956362Y-107747909D01*
X133817909Y-107886362D01*
X133709128Y-108049164D01*
X133634198Y-108230061D01*
X133596000Y-108422100D01*
X133044000Y-108422100D01*
X133005802Y-108230061D01*
X132930872Y-108049164D01*
X132822091Y-107886362D01*
X132683638Y-107747909D01*
X132520836Y-107639128D01*
X132339939Y-107564198D01*
X132147900Y-107526000D01*
X131952100Y-107526000D01*
X131760061Y-107564198D01*
X131579164Y-107639128D01*
X131416362Y-107747909D01*
X131277909Y-107886362D01*
X131169128Y-108049164D01*
X131094198Y-108230061D01*
X131056000Y-108422100D01*
X130504000Y-108422100D01*
X130465802Y-108230061D01*
X130390872Y-108049164D01*
X130282091Y-107886362D01*
X130143638Y-107747909D01*
X129980836Y-107639128D01*
X129799939Y-107564198D01*
X129607900Y-107526000D01*
X129412100Y-107526000D01*
X129220061Y-107564198D01*
X129039164Y-107639128D01*
X128876362Y-107747909D01*
X128737909Y-107886362D01*
X128629128Y-108049164D01*
X128554198Y-108230061D01*
X128516000Y-108422100D01*
X127964000Y-108422100D01*
X127925802Y-108230061D01*
X127850872Y-108049164D01*
X127742091Y-107886362D01*
X127603638Y-107747909D01*
X127440836Y-107639128D01*
X127259939Y-107564198D01*
X127067900Y-107526000D01*
X126872100Y-107526000D01*
X126680061Y-107564198D01*
X126499164Y-107639128D01*
X126336362Y-107747909D01*
X126197909Y-107886362D01*
X126089128Y-108049164D01*
X126014198Y-108230061D01*
X125976000Y-108422100D01*
X125424000Y-108422100D01*
X125385802Y-108230061D01*
X125310872Y-108049164D01*
X125202091Y-107886362D01*
X125063638Y-107747909D01*
X124900836Y-107639128D01*
X124719939Y-107564198D01*
X124527900Y-107526000D01*
X124332100Y-107526000D01*
X124140061Y-107564198D01*
X123959164Y-107639128D01*
X123796362Y-107747909D01*
X123657909Y-107886362D01*
X123549128Y-108049164D01*
X123474198Y-108230061D01*
X123436000Y-108422100D01*
X122884000Y-108422100D01*
X122845802Y-108230061D01*
X122801963Y-108124224D01*
X125381188Y-105545000D01*
X138802071Y-105545000D01*
X138820000Y-105546766D01*
X138837929Y-105545000D01*
X138837931Y-105545000D01*
X138891552Y-105539719D01*
X138960355Y-105518848D01*
X139023764Y-105484955D01*
X139079343Y-105439343D01*
X139090779Y-105425408D01*
X139435413Y-105080775D01*
X139449343Y-105069343D01*
X139494955Y-105013764D01*
X139528848Y-104950355D01*
X139549719Y-104881552D01*
X139555000Y-104827931D01*
X139555000Y-104827930D01*
X139556766Y-104810001D01*
X139555000Y-104792072D01*
X139555000Y-102920000D01*
X141338403Y-102920000D01*
X141344775Y-102984691D01*
X141363644Y-103046897D01*
X141394287Y-103104225D01*
X141435526Y-103154474D01*
X141485775Y-103195713D01*
X141543103Y-103226356D01*
X141605309Y-103245225D01*
X141670000Y-103251597D01*
X143042500Y-103250000D01*
X143125000Y-103167500D01*
X143125000Y-102165000D01*
X143215000Y-102165000D01*
X143215000Y-103167500D01*
X143297500Y-103250000D01*
X144670000Y-103251597D01*
X144734691Y-103245225D01*
X144796897Y-103226356D01*
X144854225Y-103195713D01*
X144904474Y-103154474D01*
X144945713Y-103104225D01*
X144976356Y-103046897D01*
X144995225Y-102984691D01*
X145001597Y-102920000D01*
X145000000Y-102247500D01*
X144917500Y-102165000D01*
X143215000Y-102165000D01*
X143125000Y-102165000D01*
X141422500Y-102165000D01*
X141340000Y-102247500D01*
X141338403Y-102920000D01*
X139555000Y-102920000D01*
X139555000Y-101320000D01*
X141338403Y-101320000D01*
X141340000Y-101992500D01*
X141422500Y-102075000D01*
X143125000Y-102075000D01*
X143125000Y-101072500D01*
X143215000Y-101072500D01*
X143215000Y-102075000D01*
X144917500Y-102075000D01*
X145000000Y-101992500D01*
X145001597Y-101320000D01*
X144995225Y-101255309D01*
X144976356Y-101193103D01*
X144945713Y-101135775D01*
X144904474Y-101085526D01*
X144854225Y-101044287D01*
X144796897Y-101013644D01*
X144734691Y-100994775D01*
X144670000Y-100988403D01*
X143297500Y-100990000D01*
X143215000Y-101072500D01*
X143125000Y-101072500D01*
X143042500Y-100990000D01*
X141670000Y-100988403D01*
X141605309Y-100994775D01*
X141543103Y-101013644D01*
X141485775Y-101044287D01*
X141435526Y-101085526D01*
X141394287Y-101135775D01*
X141363644Y-101193103D01*
X141344775Y-101255309D01*
X141338403Y-101320000D01*
X139555000Y-101320000D01*
X139555000Y-99981890D01*
X140559998Y-99981890D01*
X140559998Y-100098110D01*
X140582671Y-100212097D01*
X140627147Y-100319470D01*
X140691715Y-100416103D01*
X140773895Y-100498283D01*
X140870528Y-100562851D01*
X140977901Y-100607327D01*
X141091888Y-100630000D01*
X141208108Y-100630000D01*
X141322095Y-100607327D01*
X141429468Y-100562851D01*
X141526101Y-100498283D01*
X141608281Y-100416103D01*
X141672849Y-100319470D01*
X141717325Y-100212097D01*
X141739998Y-100098110D01*
X141739998Y-99981890D01*
X141737393Y-99968792D01*
X143951186Y-97755000D01*
X147094298Y-97755000D01*
X147101717Y-97766103D01*
X147183897Y-97848283D01*
X147280530Y-97912851D01*
X147387903Y-97957327D01*
X147501890Y-97980000D01*
X147618110Y-97980000D01*
X147732097Y-97957327D01*
X147839470Y-97912851D01*
X147936103Y-97848283D01*
X148018283Y-97766103D01*
X148082851Y-97669470D01*
X148127327Y-97562097D01*
X148135700Y-97520000D01*
X152158403Y-97520000D01*
X152164775Y-97584691D01*
X152183644Y-97646897D01*
X152214287Y-97704225D01*
X152248839Y-97746326D01*
X152248839Y-98020000D01*
X152253473Y-98067048D01*
X152267196Y-98112288D01*
X152271318Y-98120000D01*
X152267196Y-98127712D01*
X152253473Y-98172952D01*
X152248839Y-98220000D01*
X152248839Y-98520000D01*
X152253473Y-98567048D01*
X152267196Y-98612288D01*
X152271318Y-98620000D01*
X152267196Y-98627712D01*
X152253473Y-98672952D01*
X152248839Y-98720000D01*
X152248839Y-98993674D01*
X152214287Y-99035775D01*
X152183644Y-99093103D01*
X152164775Y-99155309D01*
X152158403Y-99220000D01*
X152160000Y-99242500D01*
X152242500Y-99325000D01*
X153745000Y-99325000D01*
X153745000Y-99305000D01*
X153835000Y-99305000D01*
X153835000Y-99325000D01*
X153855000Y-99325000D01*
X153855000Y-99415000D01*
X153835000Y-99415000D01*
X153835000Y-99767500D01*
X153917500Y-99850000D01*
X155090000Y-99851597D01*
X155154691Y-99845225D01*
X155216897Y-99826356D01*
X155274225Y-99795713D01*
X155324474Y-99754474D01*
X155348729Y-99724920D01*
X155390530Y-99752851D01*
X155497903Y-99797327D01*
X155611890Y-99820000D01*
X155728110Y-99820000D01*
X155842097Y-99797327D01*
X155949470Y-99752851D01*
X156046103Y-99688283D01*
X156128283Y-99606103D01*
X156192851Y-99509470D01*
X156237327Y-99402097D01*
X156260000Y-99288110D01*
X156260000Y-99171890D01*
X156241202Y-99077386D01*
X156322609Y-99158793D01*
X156320004Y-99171890D01*
X156320004Y-99288110D01*
X156342677Y-99402097D01*
X156387153Y-99509470D01*
X156451721Y-99606103D01*
X156533901Y-99688283D01*
X156630534Y-99752851D01*
X156737907Y-99797327D01*
X156851894Y-99820000D01*
X156968114Y-99820000D01*
X157082101Y-99797327D01*
X157189474Y-99752851D01*
X157286107Y-99688283D01*
X157368287Y-99606103D01*
X157432855Y-99509470D01*
X157477331Y-99402097D01*
X157500004Y-99288110D01*
X157500004Y-99171890D01*
X157477331Y-99057903D01*
X157432855Y-98950530D01*
X157368287Y-98853897D01*
X157286107Y-98771717D01*
X157189474Y-98707149D01*
X157082101Y-98662673D01*
X156968114Y-98640000D01*
X156851894Y-98640000D01*
X156838797Y-98642605D01*
X156431191Y-98235000D01*
X157188813Y-98235000D01*
X157262605Y-98308793D01*
X157260000Y-98321890D01*
X157260000Y-98438110D01*
X157282673Y-98552097D01*
X157327149Y-98659470D01*
X157391717Y-98756103D01*
X157473897Y-98838283D01*
X157570530Y-98902851D01*
X157677903Y-98947327D01*
X157791890Y-98970000D01*
X157908110Y-98970000D01*
X158022097Y-98947327D01*
X158129470Y-98902851D01*
X158226103Y-98838283D01*
X158308283Y-98756103D01*
X158372851Y-98659470D01*
X158417327Y-98552097D01*
X158440000Y-98438110D01*
X158440000Y-98321890D01*
X158417327Y-98207903D01*
X158372851Y-98100530D01*
X158308283Y-98003897D01*
X158226103Y-97921717D01*
X158129470Y-97857149D01*
X158022097Y-97812673D01*
X157908110Y-97790000D01*
X157791890Y-97790000D01*
X157778793Y-97792605D01*
X157610779Y-97624592D01*
X157599343Y-97610657D01*
X157543764Y-97565045D01*
X157480355Y-97531152D01*
X157411552Y-97510281D01*
X157357931Y-97505000D01*
X157357929Y-97505000D01*
X157340000Y-97503234D01*
X157322071Y-97505000D01*
X155420532Y-97505000D01*
X155420000Y-97497500D01*
X155337500Y-97415000D01*
X153835000Y-97415000D01*
X153835000Y-97435000D01*
X153745000Y-97435000D01*
X153745000Y-97415000D01*
X152242500Y-97415000D01*
X152160000Y-97497500D01*
X152158403Y-97520000D01*
X148135700Y-97520000D01*
X148150000Y-97448110D01*
X148150000Y-97331890D01*
X148127327Y-97217903D01*
X148082851Y-97110530D01*
X148018283Y-97013897D01*
X147936103Y-96931717D01*
X147839470Y-96867149D01*
X147732097Y-96822673D01*
X147618110Y-96800000D01*
X147501890Y-96800000D01*
X147387903Y-96822673D01*
X147280530Y-96867149D01*
X147183897Y-96931717D01*
X147101717Y-97013897D01*
X147094298Y-97025000D01*
X143817927Y-97025000D01*
X143799998Y-97023234D01*
X143782069Y-97025000D01*
X143782067Y-97025000D01*
X143728446Y-97030281D01*
X143659643Y-97051152D01*
X143596234Y-97085045D01*
X143540655Y-97130657D01*
X143529223Y-97144587D01*
X141221206Y-99452605D01*
X141208108Y-99450000D01*
X141091888Y-99450000D01*
X140977901Y-99472673D01*
X140870528Y-99517149D01*
X140773895Y-99581717D01*
X140691715Y-99663897D01*
X140627147Y-99760530D01*
X140582671Y-99867903D01*
X140559998Y-99981890D01*
X139555000Y-99981890D01*
X139555000Y-99061890D01*
X139800000Y-99061890D01*
X139800000Y-99178110D01*
X139822673Y-99292097D01*
X139867149Y-99399470D01*
X139931717Y-99496103D01*
X140013897Y-99578283D01*
X140110530Y-99642851D01*
X140217903Y-99687327D01*
X140331890Y-99710000D01*
X140448110Y-99710000D01*
X140562097Y-99687327D01*
X140669470Y-99642851D01*
X140766103Y-99578283D01*
X140848283Y-99496103D01*
X140912851Y-99399470D01*
X140957327Y-99292097D01*
X140980000Y-99178110D01*
X140980000Y-99061890D01*
X140977395Y-99048792D01*
X143280802Y-96745386D01*
X145771325Y-96745386D01*
X145778744Y-96756489D01*
X145860924Y-96838669D01*
X145957557Y-96903237D01*
X146064930Y-96947713D01*
X146178917Y-96970386D01*
X146295137Y-96970386D01*
X146409124Y-96947713D01*
X146516497Y-96903237D01*
X146613130Y-96838669D01*
X146695310Y-96756489D01*
X146759878Y-96659856D01*
X146804354Y-96552483D01*
X146827027Y-96438496D01*
X146827027Y-96322276D01*
X146804354Y-96208289D01*
X146759878Y-96100916D01*
X146695310Y-96004283D01*
X146613130Y-95922103D01*
X146516497Y-95857535D01*
X146409124Y-95813059D01*
X146295137Y-95790386D01*
X146178917Y-95790386D01*
X146064930Y-95813059D01*
X145957557Y-95857535D01*
X145860924Y-95922103D01*
X145778744Y-96004283D01*
X145771325Y-96015386D01*
X143147542Y-96015386D01*
X143129613Y-96013620D01*
X143111684Y-96015386D01*
X143111683Y-96015386D01*
X143058062Y-96020667D01*
X142989259Y-96041538D01*
X142934037Y-96071055D01*
X142925848Y-96075432D01*
X142908564Y-96089617D01*
X142870271Y-96121043D01*
X142858839Y-96134973D01*
X140461208Y-98532605D01*
X140448110Y-98530000D01*
X140331890Y-98530000D01*
X140217903Y-98552673D01*
X140110530Y-98597149D01*
X140013897Y-98661717D01*
X139931717Y-98743897D01*
X139867149Y-98840530D01*
X139822673Y-98947903D01*
X139800000Y-99061890D01*
X139555000Y-99061890D01*
X139555000Y-98551187D01*
X142371188Y-95735000D01*
X147084296Y-95735000D01*
X147091715Y-95746103D01*
X147173895Y-95828283D01*
X147270528Y-95892851D01*
X147377901Y-95937327D01*
X147491888Y-95960000D01*
X147608108Y-95960000D01*
X147722095Y-95937327D01*
X147829468Y-95892851D01*
X147926101Y-95828283D01*
X148008281Y-95746103D01*
X148015700Y-95735000D01*
X152248839Y-95735000D01*
X152248839Y-96020000D01*
X152253473Y-96067048D01*
X152267196Y-96112288D01*
X152271318Y-96120000D01*
X152267196Y-96127712D01*
X152253473Y-96172952D01*
X152248839Y-96220000D01*
X152248839Y-96520000D01*
X152253473Y-96567048D01*
X152267196Y-96612288D01*
X152271318Y-96620000D01*
X152267196Y-96627712D01*
X152253473Y-96672952D01*
X152248839Y-96720000D01*
X152248839Y-96993674D01*
X152214287Y-97035775D01*
X152183644Y-97093103D01*
X152164775Y-97155309D01*
X152158403Y-97220000D01*
X152160000Y-97242500D01*
X152242500Y-97325000D01*
X153745000Y-97325000D01*
X153745000Y-97305000D01*
X153835000Y-97305000D01*
X153835000Y-97325000D01*
X155337500Y-97325000D01*
X155420000Y-97242500D01*
X155420532Y-97235000D01*
X158010000Y-97235000D01*
X158010000Y-97268110D01*
X158032673Y-97382097D01*
X158077149Y-97489470D01*
X158141717Y-97586103D01*
X158223897Y-97668283D01*
X158320530Y-97732851D01*
X158427903Y-97777327D01*
X158541890Y-97800000D01*
X158658110Y-97800000D01*
X158772097Y-97777327D01*
X158879470Y-97732851D01*
X158976103Y-97668283D01*
X159058283Y-97586103D01*
X159122851Y-97489470D01*
X159167327Y-97382097D01*
X159190000Y-97268110D01*
X159190000Y-97151890D01*
X159167327Y-97037903D01*
X159122851Y-96930530D01*
X159058283Y-96833897D01*
X158976103Y-96751717D01*
X158879470Y-96687149D01*
X158772097Y-96642673D01*
X158658110Y-96620000D01*
X158541890Y-96620000D01*
X158529099Y-96622544D01*
X158519343Y-96610657D01*
X158463764Y-96565045D01*
X158400355Y-96531152D01*
X158331552Y-96510281D01*
X158277931Y-96505000D01*
X158277929Y-96505000D01*
X158260000Y-96503234D01*
X158242071Y-96505000D01*
X157748311Y-96505000D01*
X157780065Y-96473247D01*
X157793162Y-96475852D01*
X157909382Y-96475852D01*
X158023369Y-96453179D01*
X158130742Y-96408703D01*
X158227375Y-96344135D01*
X158309555Y-96261955D01*
X158374123Y-96165322D01*
X158418599Y-96057949D01*
X158441272Y-95943962D01*
X158441272Y-95827742D01*
X158418599Y-95713755D01*
X158374123Y-95606382D01*
X158309555Y-95509749D01*
X158227375Y-95427569D01*
X158130742Y-95363001D01*
X158023369Y-95318525D01*
X157909382Y-95295852D01*
X157793162Y-95295852D01*
X157679175Y-95318525D01*
X157571802Y-95363001D01*
X157475169Y-95427569D01*
X157392989Y-95509749D01*
X157328421Y-95606382D01*
X157283945Y-95713755D01*
X157261272Y-95827742D01*
X157261272Y-95943962D01*
X157263877Y-95957059D01*
X157215937Y-96005000D01*
X156521187Y-96005000D01*
X157068793Y-95457395D01*
X157081890Y-95460000D01*
X157198110Y-95460000D01*
X157312097Y-95437327D01*
X157419470Y-95392851D01*
X157516103Y-95328283D01*
X157598283Y-95246103D01*
X157662851Y-95149470D01*
X157707327Y-95042097D01*
X157730000Y-94928110D01*
X157730000Y-94811890D01*
X157707327Y-94697903D01*
X157662851Y-94590530D01*
X157598283Y-94493897D01*
X157516103Y-94411717D01*
X157419470Y-94347149D01*
X157312097Y-94302673D01*
X157198110Y-94280000D01*
X157081890Y-94280000D01*
X156967903Y-94302673D01*
X156860530Y-94347149D01*
X156763897Y-94411717D01*
X156681717Y-94493897D01*
X156617149Y-94590530D01*
X156572673Y-94697903D01*
X156550000Y-94811890D01*
X156550000Y-94928110D01*
X156552605Y-94941207D01*
X155988813Y-95505000D01*
X155331161Y-95505000D01*
X155331161Y-95347313D01*
X155394954Y-95389938D01*
X155502327Y-95434414D01*
X155616314Y-95457087D01*
X155732534Y-95457087D01*
X155846521Y-95434414D01*
X155953894Y-95389938D01*
X156050527Y-95325370D01*
X156132707Y-95243190D01*
X156197275Y-95146557D01*
X156241751Y-95039184D01*
X156264424Y-94925197D01*
X156264424Y-94808977D01*
X156241751Y-94694990D01*
X156197275Y-94587617D01*
X156132707Y-94490984D01*
X156050527Y-94408804D01*
X155953894Y-94344236D01*
X155846521Y-94299760D01*
X155732534Y-94277087D01*
X155616314Y-94277087D01*
X155502327Y-94299760D01*
X155394954Y-94344236D01*
X155331161Y-94386861D01*
X155331161Y-94255000D01*
X158214298Y-94255000D01*
X158221717Y-94266103D01*
X158303897Y-94348283D01*
X158400530Y-94412851D01*
X158507903Y-94457327D01*
X158621890Y-94480000D01*
X158738110Y-94480000D01*
X158852097Y-94457327D01*
X158959470Y-94412851D01*
X159056103Y-94348283D01*
X159138283Y-94266103D01*
X159202851Y-94169470D01*
X159247327Y-94062097D01*
X159270000Y-93948110D01*
X159270000Y-93831890D01*
X159247327Y-93717903D01*
X159202851Y-93610530D01*
X159138283Y-93513897D01*
X159056103Y-93431717D01*
X158959470Y-93367149D01*
X158852097Y-93322673D01*
X158738110Y-93300000D01*
X158621890Y-93300000D01*
X158507903Y-93322673D01*
X158400530Y-93367149D01*
X158303897Y-93431717D01*
X158221717Y-93513897D01*
X158214298Y-93525000D01*
X155330669Y-93525000D01*
X155331161Y-93520000D01*
X155331161Y-93235000D01*
X155624298Y-93235000D01*
X155631717Y-93246103D01*
X155713897Y-93328283D01*
X155810530Y-93392851D01*
X155917903Y-93437327D01*
X156031890Y-93460000D01*
X156148110Y-93460000D01*
X156262097Y-93437327D01*
X156369470Y-93392851D01*
X156466103Y-93328283D01*
X156548283Y-93246103D01*
X156555702Y-93235000D01*
X159818813Y-93235000D01*
X160178042Y-93594230D01*
X160178043Y-94386247D01*
X160166939Y-94393666D01*
X160084759Y-94475846D01*
X160020191Y-94572479D01*
X159975715Y-94679852D01*
X159953042Y-94793839D01*
X159953042Y-94910059D01*
X159975715Y-95024046D01*
X160020191Y-95131419D01*
X160084759Y-95228052D01*
X160166939Y-95310232D01*
X160263572Y-95374800D01*
X160370945Y-95419276D01*
X160484932Y-95441949D01*
X160601152Y-95441949D01*
X160715139Y-95419276D01*
X160822512Y-95374800D01*
X160919145Y-95310232D01*
X161001325Y-95228052D01*
X161065893Y-95131419D01*
X161110369Y-95024046D01*
X161133042Y-94910059D01*
X161133042Y-94793839D01*
X161110369Y-94679852D01*
X161065893Y-94572479D01*
X161001325Y-94475846D01*
X160919145Y-94393666D01*
X160908042Y-94386247D01*
X160908042Y-93460971D01*
X160909808Y-93443042D01*
X160907425Y-93418847D01*
X160902761Y-93371490D01*
X160881890Y-93302687D01*
X160847997Y-93239278D01*
X160832176Y-93220000D01*
X160813815Y-93197627D01*
X160813812Y-93197624D01*
X160802384Y-93183699D01*
X160788460Y-93172272D01*
X160240779Y-92624592D01*
X160229343Y-92610657D01*
X160173764Y-92565045D01*
X160110355Y-92531152D01*
X160041552Y-92510281D01*
X159987931Y-92505000D01*
X159987929Y-92505000D01*
X159970000Y-92503234D01*
X159952071Y-92505000D01*
X156555702Y-92505000D01*
X156548283Y-92493897D01*
X156466103Y-92411717D01*
X156369470Y-92347149D01*
X156262097Y-92302673D01*
X156148110Y-92280000D01*
X156031890Y-92280000D01*
X155917903Y-92302673D01*
X155810530Y-92347149D01*
X155713897Y-92411717D01*
X155631717Y-92493897D01*
X155624298Y-92505000D01*
X155331161Y-92505000D01*
X155331161Y-92235000D01*
X156834298Y-92235000D01*
X156841717Y-92246103D01*
X156923897Y-92328283D01*
X157020530Y-92392851D01*
X157127903Y-92437327D01*
X157241890Y-92460000D01*
X157358110Y-92460000D01*
X157472097Y-92437327D01*
X157579470Y-92392851D01*
X157676103Y-92328283D01*
X157758283Y-92246103D01*
X157765702Y-92235000D01*
X160298813Y-92235000D01*
X161295000Y-93231188D01*
X161295001Y-95168811D01*
X160947575Y-95516238D01*
X159747507Y-95516238D01*
X159740088Y-95505135D01*
X159657908Y-95422955D01*
X159561275Y-95358387D01*
X159453902Y-95313911D01*
X159339915Y-95291238D01*
X159223695Y-95291238D01*
X159109708Y-95313911D01*
X159002335Y-95358387D01*
X158905702Y-95422955D01*
X158823522Y-95505135D01*
X158758954Y-95601768D01*
X158714478Y-95709141D01*
X158691805Y-95823128D01*
X158691805Y-95939348D01*
X158714478Y-96053335D01*
X158758954Y-96160708D01*
X158823522Y-96257341D01*
X158905702Y-96339521D01*
X159002335Y-96404089D01*
X159109708Y-96448565D01*
X159223695Y-96471238D01*
X159339915Y-96471238D01*
X159453902Y-96448565D01*
X159561275Y-96404089D01*
X159657908Y-96339521D01*
X159740088Y-96257341D01*
X159747507Y-96246238D01*
X161080833Y-96246238D01*
X161098762Y-96248004D01*
X161116691Y-96246238D01*
X161116693Y-96246238D01*
X161170314Y-96240957D01*
X161239117Y-96220086D01*
X161302526Y-96186193D01*
X161358105Y-96140581D01*
X161369541Y-96126646D01*
X161905413Y-95590775D01*
X161919343Y-95579343D01*
X161958892Y-95531152D01*
X161964954Y-95523766D01*
X161998847Y-95460357D01*
X161998848Y-95460355D01*
X162019719Y-95391552D01*
X162025000Y-95337931D01*
X162025000Y-95337930D01*
X162026766Y-95320001D01*
X162025000Y-95302072D01*
X162025000Y-93097928D01*
X162026766Y-93079999D01*
X162021955Y-93031152D01*
X162019719Y-93008448D01*
X161998848Y-92939645D01*
X161998847Y-92939643D01*
X161964954Y-92876234D01*
X161930772Y-92834584D01*
X161930770Y-92834582D01*
X161919342Y-92820657D01*
X161905418Y-92809230D01*
X160720779Y-91624592D01*
X160709343Y-91610657D01*
X160653764Y-91565045D01*
X160590355Y-91531152D01*
X160521552Y-91510281D01*
X160467931Y-91505000D01*
X160467929Y-91505000D01*
X160450000Y-91503234D01*
X160432071Y-91505000D01*
X157765702Y-91505000D01*
X157758283Y-91493897D01*
X157676103Y-91411717D01*
X157579470Y-91347149D01*
X157472097Y-91302673D01*
X157358110Y-91280000D01*
X157241890Y-91280000D01*
X157127903Y-91302673D01*
X157020530Y-91347149D01*
X156923897Y-91411717D01*
X156841717Y-91493897D01*
X156834298Y-91505000D01*
X155331161Y-91505000D01*
X155331161Y-91235000D01*
X155634298Y-91235000D01*
X155641717Y-91246103D01*
X155723897Y-91328283D01*
X155820530Y-91392851D01*
X155927903Y-91437327D01*
X156041890Y-91460000D01*
X156158110Y-91460000D01*
X156272097Y-91437327D01*
X156379470Y-91392851D01*
X156476103Y-91328283D01*
X156558283Y-91246103D01*
X156565702Y-91235000D01*
X160808813Y-91235000D01*
X162325000Y-92751188D01*
X162325001Y-96248811D01*
X161778813Y-96795000D01*
X161105704Y-96795000D01*
X161098285Y-96783897D01*
X161016105Y-96701717D01*
X160919472Y-96637149D01*
X160812099Y-96592673D01*
X160698112Y-96570000D01*
X160581892Y-96570000D01*
X160467905Y-96592673D01*
X160360532Y-96637149D01*
X160263899Y-96701717D01*
X160181719Y-96783897D01*
X160117151Y-96880530D01*
X160072675Y-96987903D01*
X160050002Y-97101890D01*
X160050002Y-97218110D01*
X160072675Y-97332097D01*
X160117151Y-97439470D01*
X160181719Y-97536103D01*
X160263899Y-97618283D01*
X160360532Y-97682851D01*
X160467905Y-97727327D01*
X160581892Y-97750000D01*
X160698112Y-97750000D01*
X160812099Y-97727327D01*
X160919472Y-97682851D01*
X161016105Y-97618283D01*
X161098285Y-97536103D01*
X161105704Y-97525000D01*
X161912071Y-97525000D01*
X161930000Y-97526766D01*
X161947929Y-97525000D01*
X161947931Y-97525000D01*
X162001552Y-97519719D01*
X162070355Y-97498848D01*
X162133764Y-97464955D01*
X162189343Y-97419343D01*
X162200779Y-97405408D01*
X162935413Y-96670775D01*
X162949343Y-96659343D01*
X162987960Y-96612288D01*
X162994954Y-96603766D01*
X163028847Y-96540356D01*
X163028848Y-96540355D01*
X163049719Y-96471552D01*
X163055000Y-96417931D01*
X163055000Y-96417930D01*
X163056766Y-96400001D01*
X163055000Y-96382072D01*
X163055000Y-92617928D01*
X163056766Y-92599999D01*
X163054182Y-92573764D01*
X163049719Y-92528448D01*
X163028848Y-92459645D01*
X162994955Y-92396236D01*
X162994954Y-92396234D01*
X162960772Y-92354584D01*
X162960770Y-92354582D01*
X162949342Y-92340657D01*
X162935418Y-92329230D01*
X161230779Y-90624592D01*
X161219343Y-90610657D01*
X161163764Y-90565045D01*
X161100355Y-90531152D01*
X161031552Y-90510281D01*
X160977931Y-90505000D01*
X160977929Y-90505000D01*
X160960000Y-90503234D01*
X160942071Y-90505000D01*
X156565702Y-90505000D01*
X156558283Y-90493897D01*
X156476103Y-90411717D01*
X156379470Y-90347149D01*
X156272097Y-90302673D01*
X156158110Y-90280000D01*
X156041890Y-90280000D01*
X155927903Y-90302673D01*
X155820530Y-90347149D01*
X155723897Y-90411717D01*
X155641717Y-90493897D01*
X155634298Y-90505000D01*
X155331161Y-90505000D01*
X155331161Y-90220000D01*
X155326527Y-90172952D01*
X155312804Y-90127712D01*
X155290518Y-90086018D01*
X155260527Y-90049473D01*
X155223982Y-90019482D01*
X155182288Y-89997196D01*
X155137048Y-89983473D01*
X155090000Y-89978839D01*
X152490000Y-89978839D01*
X152442952Y-89983473D01*
X152397712Y-89997196D01*
X152383112Y-90005000D01*
X146705702Y-90005000D01*
X146698283Y-89993897D01*
X146616103Y-89911717D01*
X146519470Y-89847149D01*
X146412097Y-89802673D01*
X146298110Y-89780000D01*
X146181890Y-89780000D01*
X146067903Y-89802673D01*
X145960530Y-89847149D01*
X145863897Y-89911717D01*
X145781717Y-89993897D01*
X145717149Y-90090530D01*
X145672673Y-90197903D01*
X145650000Y-90311890D01*
X145650000Y-90428110D01*
X145672673Y-90542097D01*
X145717149Y-90649470D01*
X145781717Y-90746103D01*
X145863897Y-90828283D01*
X145960530Y-90892851D01*
X146067903Y-90937327D01*
X146181890Y-90960000D01*
X146298110Y-90960000D01*
X146412097Y-90937327D01*
X146519470Y-90892851D01*
X146616103Y-90828283D01*
X146698283Y-90746103D01*
X146705702Y-90735000D01*
X152248839Y-90735000D01*
X152248839Y-91005000D01*
X148025702Y-91005000D01*
X148018283Y-90993897D01*
X147936103Y-90911717D01*
X147839470Y-90847149D01*
X147732097Y-90802673D01*
X147618110Y-90780000D01*
X147501890Y-90780000D01*
X147387903Y-90802673D01*
X147280530Y-90847149D01*
X147183897Y-90911717D01*
X147101717Y-90993897D01*
X147037149Y-91090530D01*
X146992673Y-91197903D01*
X146970000Y-91311890D01*
X146970000Y-91428110D01*
X146992673Y-91542097D01*
X147037149Y-91649470D01*
X147101717Y-91746103D01*
X147183897Y-91828283D01*
X147280530Y-91892851D01*
X147387903Y-91937327D01*
X147501890Y-91960000D01*
X147618110Y-91960000D01*
X147732097Y-91937327D01*
X147839470Y-91892851D01*
X147936103Y-91828283D01*
X148018283Y-91746103D01*
X148025702Y-91735000D01*
X152248839Y-91735000D01*
X152248839Y-92005000D01*
X146702382Y-92005000D01*
X146688283Y-91983899D01*
X146606103Y-91901719D01*
X146509470Y-91837151D01*
X146402097Y-91792675D01*
X146288110Y-91770002D01*
X146171890Y-91770002D01*
X146057903Y-91792675D01*
X145950530Y-91837151D01*
X145853897Y-91901719D01*
X145771717Y-91983899D01*
X145707149Y-92080532D01*
X145662673Y-92187905D01*
X145640000Y-92301892D01*
X145640000Y-92418112D01*
X145662673Y-92532099D01*
X145707149Y-92639472D01*
X145771717Y-92736105D01*
X145853897Y-92818285D01*
X145950530Y-92882853D01*
X146057903Y-92927329D01*
X146171890Y-92950002D01*
X146288110Y-92950002D01*
X146402097Y-92927329D01*
X146509470Y-92882853D01*
X146606103Y-92818285D01*
X146688283Y-92736105D01*
X146689021Y-92735000D01*
X152248839Y-92735000D01*
X152248839Y-93005000D01*
X148015702Y-93005000D01*
X148008283Y-92993897D01*
X147926103Y-92911717D01*
X147829470Y-92847149D01*
X147722097Y-92802673D01*
X147608110Y-92780000D01*
X147491890Y-92780000D01*
X147377903Y-92802673D01*
X147270530Y-92847149D01*
X147173897Y-92911717D01*
X147091717Y-92993897D01*
X147027149Y-93090530D01*
X146982673Y-93197903D01*
X146960000Y-93311890D01*
X146960000Y-93428110D01*
X146982673Y-93542097D01*
X147027149Y-93649470D01*
X147091717Y-93746103D01*
X147173897Y-93828283D01*
X147270530Y-93892851D01*
X147377903Y-93937327D01*
X147491890Y-93960000D01*
X147608110Y-93960000D01*
X147722097Y-93937327D01*
X147829470Y-93892851D01*
X147926103Y-93828283D01*
X148008283Y-93746103D01*
X148015702Y-93735000D01*
X152248839Y-93735000D01*
X152248839Y-94004999D01*
X146695702Y-94004999D01*
X146688283Y-93993896D01*
X146606103Y-93911716D01*
X146509470Y-93847148D01*
X146402097Y-93802672D01*
X146288110Y-93779999D01*
X146171890Y-93779999D01*
X146057903Y-93802672D01*
X145950530Y-93847148D01*
X145853897Y-93911716D01*
X145771717Y-93993896D01*
X145707149Y-94090529D01*
X145662673Y-94197902D01*
X145640000Y-94311889D01*
X145640000Y-94428109D01*
X145662673Y-94542096D01*
X145707149Y-94649469D01*
X145771717Y-94746102D01*
X145853897Y-94828282D01*
X145950530Y-94892850D01*
X146057903Y-94937326D01*
X146171890Y-94959999D01*
X146288110Y-94959999D01*
X146402097Y-94937326D01*
X146509470Y-94892850D01*
X146606103Y-94828282D01*
X146688283Y-94746102D01*
X146695702Y-94734999D01*
X152248839Y-94734999D01*
X152248839Y-95005000D01*
X148015700Y-95005000D01*
X148008281Y-94993897D01*
X147926101Y-94911717D01*
X147829468Y-94847149D01*
X147722095Y-94802673D01*
X147608108Y-94780000D01*
X147491888Y-94780000D01*
X147377901Y-94802673D01*
X147270528Y-94847149D01*
X147173895Y-94911717D01*
X147091715Y-94993897D01*
X147084296Y-95005000D01*
X142237928Y-95005000D01*
X142219999Y-95003234D01*
X142202070Y-95005000D01*
X142202069Y-95005000D01*
X142148448Y-95010281D01*
X142079645Y-95031152D01*
X142016236Y-95065045D01*
X141960657Y-95110657D01*
X141949225Y-95124587D01*
X138944588Y-98129225D01*
X138930657Y-98140658D01*
X138885045Y-98196237D01*
X138851152Y-98259646D01*
X138830281Y-98328449D01*
X138826189Y-98370000D01*
X138823234Y-98400000D01*
X138825000Y-98417929D01*
X138825001Y-104658811D01*
X138668813Y-104815000D01*
X125247928Y-104815000D01*
X125229999Y-104813234D01*
X125212070Y-104815000D01*
X125212069Y-104815000D01*
X125158448Y-104820281D01*
X125089645Y-104841152D01*
X125057983Y-104858076D01*
X125026234Y-104875046D01*
X125011767Y-104886919D01*
X124970657Y-104920657D01*
X124959226Y-104934586D01*
X122285776Y-107608037D01*
X122179939Y-107564198D01*
X121987900Y-107526000D01*
X121792100Y-107526000D01*
X121600061Y-107564198D01*
X121419164Y-107639128D01*
X121256362Y-107747909D01*
X121117909Y-107886362D01*
X121009128Y-108049164D01*
X120934198Y-108230061D01*
X120896000Y-108422100D01*
X115489976Y-108422100D01*
X115489976Y-106394208D01*
X115523907Y-106048150D01*
X115620290Y-105728915D01*
X115776845Y-105434479D01*
X115987602Y-105176064D01*
X116244546Y-104963502D01*
X116537874Y-104804900D01*
X116856431Y-104706289D01*
X117201698Y-104670000D01*
X138235762Y-104670000D01*
X138250000Y-104671402D01*
X138264235Y-104670000D01*
X138264245Y-104670000D01*
X138306850Y-104665804D01*
X138361515Y-104649221D01*
X138411895Y-104622293D01*
X138456053Y-104586053D01*
X138492293Y-104541895D01*
X138519221Y-104491515D01*
X138535804Y-104436850D01*
X138541403Y-104380000D01*
X138540000Y-104365754D01*
X138539975Y-88454218D01*
X138543330Y-88420000D01*
X141338403Y-88420000D01*
X141344775Y-88484691D01*
X141363644Y-88546897D01*
X141394287Y-88604225D01*
X141435526Y-88654474D01*
X141485775Y-88695713D01*
X141543103Y-88726356D01*
X141605309Y-88745225D01*
X141670000Y-88751597D01*
X143042500Y-88750000D01*
X143125000Y-88667500D01*
X143125000Y-87665000D01*
X143215000Y-87665000D01*
X143215000Y-88667500D01*
X143297500Y-88750000D01*
X144670000Y-88751597D01*
X144734691Y-88745225D01*
X144796897Y-88726356D01*
X144854225Y-88695713D01*
X144904474Y-88654474D01*
X144945713Y-88604225D01*
X144976356Y-88546897D01*
X144995225Y-88484691D01*
X145001597Y-88420000D01*
X146898403Y-88420000D01*
X146904775Y-88484691D01*
X146923644Y-88546897D01*
X146954287Y-88604225D01*
X146995526Y-88654474D01*
X147045775Y-88695713D01*
X147103103Y-88726356D01*
X147165309Y-88745225D01*
X147230000Y-88751597D01*
X149002500Y-88750000D01*
X149085000Y-88667500D01*
X149085000Y-87665000D01*
X149175000Y-87665000D01*
X149175000Y-88667500D01*
X149257500Y-88750000D01*
X151030000Y-88751597D01*
X151094691Y-88745225D01*
X151156897Y-88726356D01*
X151214225Y-88695713D01*
X151264474Y-88654474D01*
X151305713Y-88604225D01*
X151336356Y-88546897D01*
X151355225Y-88484691D01*
X151361597Y-88420000D01*
X152318403Y-88420000D01*
X152324775Y-88484691D01*
X152343644Y-88546897D01*
X152374287Y-88604225D01*
X152415526Y-88654474D01*
X152465775Y-88695713D01*
X152523103Y-88726356D01*
X152585309Y-88745225D01*
X152650000Y-88751597D01*
X154422500Y-88750000D01*
X154505000Y-88667500D01*
X154505000Y-87665000D01*
X154595000Y-87665000D01*
X154595000Y-88667500D01*
X154677500Y-88750000D01*
X156450000Y-88751597D01*
X156514691Y-88745225D01*
X156576897Y-88726356D01*
X156634225Y-88695713D01*
X156684474Y-88654474D01*
X156725713Y-88604225D01*
X156756356Y-88546897D01*
X156775225Y-88484691D01*
X156781597Y-88420000D01*
X158678403Y-88420000D01*
X158684775Y-88484691D01*
X158703644Y-88546897D01*
X158734287Y-88604225D01*
X158775526Y-88654474D01*
X158825775Y-88695713D01*
X158883103Y-88726356D01*
X158945309Y-88745225D01*
X159010000Y-88751597D01*
X160382500Y-88750000D01*
X160465000Y-88667500D01*
X160465000Y-87665000D01*
X160555000Y-87665000D01*
X160555000Y-88667500D01*
X160637500Y-88750000D01*
X162010000Y-88751597D01*
X162074691Y-88745225D01*
X162136897Y-88726356D01*
X162194225Y-88695713D01*
X162244474Y-88654474D01*
X162285713Y-88604225D01*
X162316356Y-88546897D01*
X162335225Y-88484691D01*
X162341597Y-88420000D01*
X162340000Y-87747500D01*
X162257500Y-87665000D01*
X160555000Y-87665000D01*
X160465000Y-87665000D01*
X158762500Y-87665000D01*
X158680000Y-87747500D01*
X158678403Y-88420000D01*
X156781597Y-88420000D01*
X156780000Y-87747500D01*
X156697500Y-87665000D01*
X154595000Y-87665000D01*
X154505000Y-87665000D01*
X152402500Y-87665000D01*
X152320000Y-87747500D01*
X152318403Y-88420000D01*
X151361597Y-88420000D01*
X151360000Y-87747500D01*
X151277500Y-87665000D01*
X149175000Y-87665000D01*
X149085000Y-87665000D01*
X146982500Y-87665000D01*
X146900000Y-87747500D01*
X146898403Y-88420000D01*
X145001597Y-88420000D01*
X145000000Y-87747500D01*
X144917500Y-87665000D01*
X143215000Y-87665000D01*
X143125000Y-87665000D01*
X141422500Y-87665000D01*
X141340000Y-87747500D01*
X141338403Y-88420000D01*
X138543330Y-88420000D01*
X138573907Y-88108150D01*
X138670290Y-87788915D01*
X138826845Y-87494479D01*
X139037602Y-87236064D01*
X139294546Y-87023502D01*
X139587874Y-86864900D01*
X139906431Y-86766289D01*
X140251698Y-86730000D01*
X141352452Y-86730000D01*
X141344775Y-86755309D01*
G37*
G04 #@! TD.AperFunction*
M02*
