G04 #@! TF.GenerationSoftware,KiCad,Pcbnew,(5.1.10-1-10_14)*
G04 #@! TF.CreationDate,2021-11-29T00:01:07-05:00*
G04 #@! TF.ProjectId,SNAC Sniffer SQUARE,534e4143-2053-46e6-9966-666572205351,1*
G04 #@! TF.SameCoordinates,Original*
G04 #@! TF.FileFunction,Soldermask,Bot*
G04 #@! TF.FilePolarity,Negative*
%FSLAX46Y46*%
G04 Gerber Fmt 4.6, Leading zero omitted, Abs format (unit mm)*
G04 Created by KiCad (PCBNEW (5.1.10-1-10_14)) date 2021-11-29 00:01:07*
%MOMM*%
%LPD*%
G01*
G04 APERTURE LIST*
%ADD10C,1.601600*%
%ADD11C,1.609600*%
G04 APERTURE END LIST*
D10*
X130530000Y-131690000D03*
X130530000Y-129150000D03*
X133070000Y-131690000D03*
X133070000Y-129150000D03*
X135610000Y-131690000D03*
X135610000Y-129150000D03*
X138150000Y-131690000D03*
X138150000Y-129150000D03*
X140690000Y-131690000D03*
X140690000Y-129150000D03*
X143230000Y-131690000D03*
X143230000Y-129150000D03*
X145770000Y-131690000D03*
X145770000Y-129150000D03*
X148310000Y-131690000D03*
X148310000Y-129150000D03*
G36*
G01*
X120850800Y-94154600D02*
X120850800Y-96405400D01*
G75*
G02*
X120425400Y-96830800I-425400J0D01*
G01*
X119574600Y-96830800D01*
G75*
G02*
X119149200Y-96405400I0J425400D01*
G01*
X119149200Y-94154600D01*
G75*
G02*
X119574600Y-93729200I425400J0D01*
G01*
X120425400Y-93729200D01*
G75*
G02*
X120850800Y-94154600I0J-425400D01*
G01*
G37*
G36*
G01*
X135350800Y-94154600D02*
X135350800Y-96405400D01*
G75*
G02*
X134925400Y-96830800I-425400J0D01*
G01*
X134074600Y-96830800D01*
G75*
G02*
X133649200Y-96405400I0J425400D01*
G01*
X133649200Y-94154600D01*
G75*
G02*
X134074600Y-93729200I425400J0D01*
G01*
X134925400Y-93729200D01*
G75*
G02*
X135350800Y-94154600I0J-425400D01*
G01*
G37*
G36*
G01*
X135350800Y-99714600D02*
X135350800Y-102765400D01*
G75*
G02*
X134925400Y-103190800I-425400J0D01*
G01*
X134074600Y-103190800D01*
G75*
G02*
X133649200Y-102765400I0J425400D01*
G01*
X133649200Y-99714600D01*
G75*
G02*
X134074600Y-99289200I425400J0D01*
G01*
X134925400Y-99289200D01*
G75*
G02*
X135350800Y-99714600I0J-425400D01*
G01*
G37*
G36*
G01*
X120850800Y-99714600D02*
X120850800Y-102765400D01*
G75*
G02*
X120425400Y-103190800I-425400J0D01*
G01*
X119574600Y-103190800D01*
G75*
G02*
X119149200Y-102765400I0J425400D01*
G01*
X119149200Y-99714600D01*
G75*
G02*
X119574600Y-99289200I425400J0D01*
G01*
X120425400Y-99289200D01*
G75*
G02*
X120850800Y-99714600I0J-425400D01*
G01*
G37*
G36*
G01*
X147170800Y-94154600D02*
X147170800Y-96405400D01*
G75*
G02*
X146745400Y-96830800I-425400J0D01*
G01*
X145894600Y-96830800D01*
G75*
G02*
X145469200Y-96405400I0J425400D01*
G01*
X145469200Y-94154600D01*
G75*
G02*
X145894600Y-93729200I425400J0D01*
G01*
X146745400Y-93729200D01*
G75*
G02*
X147170800Y-94154600I0J-425400D01*
G01*
G37*
G36*
G01*
X161670800Y-94154600D02*
X161670800Y-96405400D01*
G75*
G02*
X161245400Y-96830800I-425400J0D01*
G01*
X160394600Y-96830800D01*
G75*
G02*
X159969200Y-96405400I0J425400D01*
G01*
X159969200Y-94154600D01*
G75*
G02*
X160394600Y-93729200I425400J0D01*
G01*
X161245400Y-93729200D01*
G75*
G02*
X161670800Y-94154600I0J-425400D01*
G01*
G37*
G36*
G01*
X161670800Y-99714600D02*
X161670800Y-102765400D01*
G75*
G02*
X161245400Y-103190800I-425400J0D01*
G01*
X160394600Y-103190800D01*
G75*
G02*
X159969200Y-102765400I0J425400D01*
G01*
X159969200Y-99714600D01*
G75*
G02*
X160394600Y-99289200I425400J0D01*
G01*
X161245400Y-99289200D01*
G75*
G02*
X161670800Y-99714600I0J-425400D01*
G01*
G37*
G36*
G01*
X147170800Y-99714600D02*
X147170800Y-102765400D01*
G75*
G02*
X146745400Y-103190800I-425400J0D01*
G01*
X145894600Y-103190800D01*
G75*
G02*
X145469200Y-102765400I0J425400D01*
G01*
X145469200Y-99714600D01*
G75*
G02*
X145894600Y-99289200I425400J0D01*
G01*
X146745400Y-99289200D01*
G75*
G02*
X147170800Y-99714600I0J-425400D01*
G01*
G37*
G36*
G01*
X157696000Y-108695200D02*
X159204000Y-108695200D01*
G75*
G02*
X159254800Y-108746000I0J-50800D01*
G01*
X159254800Y-110254000D01*
G75*
G02*
X159204000Y-110304800I-50800J0D01*
G01*
X157696000Y-110304800D01*
G75*
G02*
X157645200Y-110254000I0J50800D01*
G01*
X157645200Y-108746000D01*
G75*
G02*
X157696000Y-108695200I50800J0D01*
G01*
G37*
D11*
X155910000Y-109500000D03*
X153370000Y-109500000D03*
X150830000Y-109500000D03*
X148290000Y-109500000D03*
X145750000Y-109500000D03*
X143210000Y-109500000D03*
X140670000Y-109500000D03*
X138130000Y-109500000D03*
X135590000Y-109500000D03*
X133050000Y-109500000D03*
X130510000Y-109500000D03*
X127970000Y-109500000D03*
X125430000Y-109500000D03*
X122890000Y-109500000D03*
X122890000Y-124740000D03*
X125430000Y-124740000D03*
X127970000Y-124740000D03*
X130510000Y-124740000D03*
X133050000Y-124740000D03*
X135590000Y-124740000D03*
X138130000Y-124740000D03*
X140670000Y-124740000D03*
X143210000Y-124740000D03*
X145750000Y-124740000D03*
X148290000Y-124740000D03*
X150830000Y-124740000D03*
X153370000Y-124740000D03*
X155910000Y-124740000D03*
X158450000Y-124740000D03*
M02*
