G04 #@! TF.GenerationSoftware,KiCad,Pcbnew,(5.1.10-1-10_14)*
G04 #@! TF.CreationDate,2021-11-29T00:28:59-05:00*
G04 #@! TF.ProjectId,SNAC Sniffer LONG,534e4143-2053-46e6-9966-666572204c4f,1*
G04 #@! TF.SameCoordinates,Original*
G04 #@! TF.FileFunction,Soldermask,Top*
G04 #@! TF.FilePolarity,Negative*
%FSLAX46Y46*%
G04 Gerber Fmt 4.6, Leading zero omitted, Abs format (unit mm)*
G04 Created by KiCad (PCBNEW (5.1.10-1-10_14)) date 2021-11-29 00:28:59*
%MOMM*%
%LPD*%
G01*
G04 APERTURE LIST*
%ADD10C,1.601600*%
%ADD11C,1.609600*%
G04 APERTURE END LIST*
D10*
X122800000Y-112010000D03*
X122800000Y-114550000D03*
X125340000Y-112010000D03*
X125340000Y-114550000D03*
X127880000Y-112010000D03*
X127880000Y-114550000D03*
X130420000Y-112010000D03*
X130420000Y-114550000D03*
X132960000Y-112010000D03*
X132960000Y-114550000D03*
G36*
G01*
X105145400Y-102890800D02*
X102894600Y-102890800D01*
G75*
G02*
X102469200Y-102465400I0J425400D01*
G01*
X102469200Y-101614600D01*
G75*
G02*
X102894600Y-101189200I425400J0D01*
G01*
X105145400Y-101189200D01*
G75*
G02*
X105570800Y-101614600I0J-425400D01*
G01*
X105570800Y-102465400D01*
G75*
G02*
X105145400Y-102890800I-425400J0D01*
G01*
G37*
G36*
G01*
X105145400Y-117390800D02*
X102894600Y-117390800D01*
G75*
G02*
X102469200Y-116965400I0J425400D01*
G01*
X102469200Y-116114600D01*
G75*
G02*
X102894600Y-115689200I425400J0D01*
G01*
X105145400Y-115689200D01*
G75*
G02*
X105570800Y-116114600I0J-425400D01*
G01*
X105570800Y-116965400D01*
G75*
G02*
X105145400Y-117390800I-425400J0D01*
G01*
G37*
G36*
G01*
X111505400Y-117390800D02*
X108454600Y-117390800D01*
G75*
G02*
X108029200Y-116965400I0J425400D01*
G01*
X108029200Y-116114600D01*
G75*
G02*
X108454600Y-115689200I425400J0D01*
G01*
X111505400Y-115689200D01*
G75*
G02*
X111930800Y-116114600I0J-425400D01*
G01*
X111930800Y-116965400D01*
G75*
G02*
X111505400Y-117390800I-425400J0D01*
G01*
G37*
G36*
G01*
X111505400Y-102890800D02*
X108454600Y-102890800D01*
G75*
G02*
X108029200Y-102465400I0J425400D01*
G01*
X108029200Y-101614600D01*
G75*
G02*
X108454600Y-101189200I425400J0D01*
G01*
X111505400Y-101189200D01*
G75*
G02*
X111930800Y-101614600I0J-425400D01*
G01*
X111930800Y-102465400D01*
G75*
G02*
X111505400Y-102890800I-425400J0D01*
G01*
G37*
G36*
G01*
X164535400Y-102900800D02*
X162284600Y-102900800D01*
G75*
G02*
X161859200Y-102475400I0J425400D01*
G01*
X161859200Y-101624600D01*
G75*
G02*
X162284600Y-101199200I425400J0D01*
G01*
X164535400Y-101199200D01*
G75*
G02*
X164960800Y-101624600I0J-425400D01*
G01*
X164960800Y-102475400D01*
G75*
G02*
X164535400Y-102900800I-425400J0D01*
G01*
G37*
G36*
G01*
X164535400Y-117400800D02*
X162284600Y-117400800D01*
G75*
G02*
X161859200Y-116975400I0J425400D01*
G01*
X161859200Y-116124600D01*
G75*
G02*
X162284600Y-115699200I425400J0D01*
G01*
X164535400Y-115699200D01*
G75*
G02*
X164960800Y-116124600I0J-425400D01*
G01*
X164960800Y-116975400D01*
G75*
G02*
X164535400Y-117400800I-425400J0D01*
G01*
G37*
G36*
G01*
X158975400Y-117400800D02*
X155924600Y-117400800D01*
G75*
G02*
X155499200Y-116975400I0J425400D01*
G01*
X155499200Y-116124600D01*
G75*
G02*
X155924600Y-115699200I425400J0D01*
G01*
X158975400Y-115699200D01*
G75*
G02*
X159400800Y-116124600I0J-425400D01*
G01*
X159400800Y-116975400D01*
G75*
G02*
X158975400Y-117400800I-425400J0D01*
G01*
G37*
G36*
G01*
X158975400Y-102900800D02*
X155924600Y-102900800D01*
G75*
G02*
X155499200Y-102475400I0J425400D01*
G01*
X155499200Y-101624600D01*
G75*
G02*
X155924600Y-101199200I425400J0D01*
G01*
X158975400Y-101199200D01*
G75*
G02*
X159400800Y-101624600I0J-425400D01*
G01*
X159400800Y-102475400D01*
G75*
G02*
X158975400Y-102900800I-425400J0D01*
G01*
G37*
G36*
G01*
X157990000Y-114000800D02*
X155390000Y-114000800D01*
G75*
G02*
X155339200Y-113950000I0J50800D01*
G01*
X155339200Y-113650000D01*
G75*
G02*
X155390000Y-113599200I50800J0D01*
G01*
X157990000Y-113599200D01*
G75*
G02*
X158040800Y-113650000I0J-50800D01*
G01*
X158040800Y-113950000D01*
G75*
G02*
X157990000Y-114000800I-50800J0D01*
G01*
G37*
G36*
G01*
X157990000Y-113500800D02*
X155390000Y-113500800D01*
G75*
G02*
X155339200Y-113450000I0J50800D01*
G01*
X155339200Y-113150000D01*
G75*
G02*
X155390000Y-113099200I50800J0D01*
G01*
X157990000Y-113099200D01*
G75*
G02*
X158040800Y-113150000I0J-50800D01*
G01*
X158040800Y-113450000D01*
G75*
G02*
X157990000Y-113500800I-50800J0D01*
G01*
G37*
G36*
G01*
X157990000Y-113000800D02*
X155390000Y-113000800D01*
G75*
G02*
X155339200Y-112950000I0J50800D01*
G01*
X155339200Y-112650000D01*
G75*
G02*
X155390000Y-112599200I50800J0D01*
G01*
X157990000Y-112599200D01*
G75*
G02*
X158040800Y-112650000I0J-50800D01*
G01*
X158040800Y-112950000D01*
G75*
G02*
X157990000Y-113000800I-50800J0D01*
G01*
G37*
G36*
G01*
X157990000Y-112500800D02*
X155390000Y-112500800D01*
G75*
G02*
X155339200Y-112450000I0J50800D01*
G01*
X155339200Y-112150000D01*
G75*
G02*
X155390000Y-112099200I50800J0D01*
G01*
X157990000Y-112099200D01*
G75*
G02*
X158040800Y-112150000I0J-50800D01*
G01*
X158040800Y-112450000D01*
G75*
G02*
X157990000Y-112500800I-50800J0D01*
G01*
G37*
G36*
G01*
X157990000Y-112000800D02*
X155390000Y-112000800D01*
G75*
G02*
X155339200Y-111950000I0J50800D01*
G01*
X155339200Y-111650000D01*
G75*
G02*
X155390000Y-111599200I50800J0D01*
G01*
X157990000Y-111599200D01*
G75*
G02*
X158040800Y-111650000I0J-50800D01*
G01*
X158040800Y-111950000D01*
G75*
G02*
X157990000Y-112000800I-50800J0D01*
G01*
G37*
G36*
G01*
X157990000Y-111500800D02*
X155390000Y-111500800D01*
G75*
G02*
X155339200Y-111450000I0J50800D01*
G01*
X155339200Y-111150000D01*
G75*
G02*
X155390000Y-111099200I50800J0D01*
G01*
X157990000Y-111099200D01*
G75*
G02*
X158040800Y-111150000I0J-50800D01*
G01*
X158040800Y-111450000D01*
G75*
G02*
X157990000Y-111500800I-50800J0D01*
G01*
G37*
G36*
G01*
X157990000Y-111000800D02*
X155390000Y-111000800D01*
G75*
G02*
X155339200Y-110950000I0J50800D01*
G01*
X155339200Y-110650000D01*
G75*
G02*
X155390000Y-110599200I50800J0D01*
G01*
X157990000Y-110599200D01*
G75*
G02*
X158040800Y-110650000I0J-50800D01*
G01*
X158040800Y-110950000D01*
G75*
G02*
X157990000Y-111000800I-50800J0D01*
G01*
G37*
G36*
G01*
X157990000Y-110500800D02*
X155390000Y-110500800D01*
G75*
G02*
X155339200Y-110450000I0J50800D01*
G01*
X155339200Y-110150000D01*
G75*
G02*
X155390000Y-110099200I50800J0D01*
G01*
X157990000Y-110099200D01*
G75*
G02*
X158040800Y-110150000I0J-50800D01*
G01*
X158040800Y-110450000D01*
G75*
G02*
X157990000Y-110500800I-50800J0D01*
G01*
G37*
G36*
G01*
X157990000Y-110000800D02*
X155390000Y-110000800D01*
G75*
G02*
X155339200Y-109950000I0J50800D01*
G01*
X155339200Y-109650000D01*
G75*
G02*
X155390000Y-109599200I50800J0D01*
G01*
X157990000Y-109599200D01*
G75*
G02*
X158040800Y-109650000I0J-50800D01*
G01*
X158040800Y-109950000D01*
G75*
G02*
X157990000Y-110000800I-50800J0D01*
G01*
G37*
G36*
G01*
X157990000Y-109500800D02*
X155390000Y-109500800D01*
G75*
G02*
X155339200Y-109450000I0J50800D01*
G01*
X155339200Y-109150000D01*
G75*
G02*
X155390000Y-109099200I50800J0D01*
G01*
X157990000Y-109099200D01*
G75*
G02*
X158040800Y-109150000I0J-50800D01*
G01*
X158040800Y-109450000D01*
G75*
G02*
X157990000Y-109500800I-50800J0D01*
G01*
G37*
G36*
G01*
X157990000Y-109000800D02*
X155390000Y-109000800D01*
G75*
G02*
X155339200Y-108950000I0J50800D01*
G01*
X155339200Y-108650000D01*
G75*
G02*
X155390000Y-108599200I50800J0D01*
G01*
X157990000Y-108599200D01*
G75*
G02*
X158040800Y-108650000I0J-50800D01*
G01*
X158040800Y-108950000D01*
G75*
G02*
X157990000Y-109000800I-50800J0D01*
G01*
G37*
G36*
G01*
X157990000Y-108500800D02*
X155390000Y-108500800D01*
G75*
G02*
X155339200Y-108450000I0J50800D01*
G01*
X155339200Y-108150000D01*
G75*
G02*
X155390000Y-108099200I50800J0D01*
G01*
X157990000Y-108099200D01*
G75*
G02*
X158040800Y-108150000I0J-50800D01*
G01*
X158040800Y-108450000D01*
G75*
G02*
X157990000Y-108500800I-50800J0D01*
G01*
G37*
G36*
G01*
X157990000Y-108000800D02*
X155390000Y-108000800D01*
G75*
G02*
X155339200Y-107950000I0J50800D01*
G01*
X155339200Y-107650000D01*
G75*
G02*
X155390000Y-107599200I50800J0D01*
G01*
X157990000Y-107599200D01*
G75*
G02*
X158040800Y-107650000I0J-50800D01*
G01*
X158040800Y-107950000D01*
G75*
G02*
X157990000Y-108000800I-50800J0D01*
G01*
G37*
G36*
G01*
X157990000Y-107500800D02*
X155390000Y-107500800D01*
G75*
G02*
X155339200Y-107450000I0J50800D01*
G01*
X155339200Y-107150000D01*
G75*
G02*
X155390000Y-107099200I50800J0D01*
G01*
X157990000Y-107099200D01*
G75*
G02*
X158040800Y-107150000I0J-50800D01*
G01*
X158040800Y-107450000D01*
G75*
G02*
X157990000Y-107500800I-50800J0D01*
G01*
G37*
G36*
G01*
X157990000Y-107000800D02*
X155390000Y-107000800D01*
G75*
G02*
X155339200Y-106950000I0J50800D01*
G01*
X155339200Y-106650000D01*
G75*
G02*
X155390000Y-106599200I50800J0D01*
G01*
X157990000Y-106599200D01*
G75*
G02*
X158040800Y-106650000I0J-50800D01*
G01*
X158040800Y-106950000D01*
G75*
G02*
X157990000Y-107000800I-50800J0D01*
G01*
G37*
G36*
G01*
X157990000Y-106500800D02*
X155390000Y-106500800D01*
G75*
G02*
X155339200Y-106450000I0J50800D01*
G01*
X155339200Y-106150000D01*
G75*
G02*
X155390000Y-106099200I50800J0D01*
G01*
X157990000Y-106099200D01*
G75*
G02*
X158040800Y-106150000I0J-50800D01*
G01*
X158040800Y-106450000D01*
G75*
G02*
X157990000Y-106500800I-50800J0D01*
G01*
G37*
G36*
G01*
X157990000Y-106000800D02*
X155390000Y-106000800D01*
G75*
G02*
X155339200Y-105950000I0J50800D01*
G01*
X155339200Y-105650000D01*
G75*
G02*
X155390000Y-105599200I50800J0D01*
G01*
X157990000Y-105599200D01*
G75*
G02*
X158040800Y-105650000I0J-50800D01*
G01*
X158040800Y-105950000D01*
G75*
G02*
X157990000Y-106000800I-50800J0D01*
G01*
G37*
G36*
G01*
X157990000Y-105500800D02*
X155390000Y-105500800D01*
G75*
G02*
X155339200Y-105450000I0J50800D01*
G01*
X155339200Y-105150000D01*
G75*
G02*
X155390000Y-105099200I50800J0D01*
G01*
X157990000Y-105099200D01*
G75*
G02*
X158040800Y-105150000I0J-50800D01*
G01*
X158040800Y-105450000D01*
G75*
G02*
X157990000Y-105500800I-50800J0D01*
G01*
G37*
G36*
G01*
X157990000Y-105000800D02*
X155390000Y-105000800D01*
G75*
G02*
X155339200Y-104950000I0J50800D01*
G01*
X155339200Y-104650000D01*
G75*
G02*
X155390000Y-104599200I50800J0D01*
G01*
X157990000Y-104599200D01*
G75*
G02*
X158040800Y-104650000I0J-50800D01*
G01*
X158040800Y-104950000D01*
G75*
G02*
X157990000Y-105000800I-50800J0D01*
G01*
G37*
G36*
G01*
X149986000Y-100885200D02*
X151494000Y-100885200D01*
G75*
G02*
X151544800Y-100936000I0J-50800D01*
G01*
X151544800Y-102444000D01*
G75*
G02*
X151494000Y-102494800I-50800J0D01*
G01*
X149986000Y-102494800D01*
G75*
G02*
X149935200Y-102444000I0J50800D01*
G01*
X149935200Y-100936000D01*
G75*
G02*
X149986000Y-100885200I50800J0D01*
G01*
G37*
D11*
X148200000Y-101690000D03*
X145660000Y-101690000D03*
X143120000Y-101690000D03*
X140580000Y-101690000D03*
X138040000Y-101690000D03*
X135500000Y-101690000D03*
X132960000Y-101690000D03*
X130420000Y-101690000D03*
X127880000Y-101690000D03*
X125340000Y-101690000D03*
X122800000Y-101690000D03*
X120260000Y-101690000D03*
X117720000Y-101690000D03*
X115180000Y-101690000D03*
X115180000Y-116930000D03*
X117720000Y-116930000D03*
X120260000Y-116930000D03*
X122800000Y-116930000D03*
X125340000Y-116930000D03*
X127880000Y-116930000D03*
X130420000Y-116930000D03*
X132960000Y-116930000D03*
X135500000Y-116930000D03*
X138040000Y-116930000D03*
X140580000Y-116930000D03*
X143120000Y-116930000D03*
X145660000Y-116930000D03*
X148200000Y-116930000D03*
X150740000Y-116930000D03*
D10*
X135500000Y-112010000D03*
X135500000Y-114550000D03*
X138030000Y-112010000D03*
X138030000Y-114550000D03*
X140580000Y-112010000D03*
X140580000Y-114550000D03*
M02*
