G04 #@! TF.GenerationSoftware,KiCad,Pcbnew,(5.1.10-1-10_14)*
G04 #@! TF.CreationDate,2021-11-28T23:58:15-05:00*
G04 #@! TF.ProjectId,SNAC Sniffer LONG,534e4143-2053-46e6-9966-666572204c4f,1*
G04 #@! TF.SameCoordinates,Original*
G04 #@! TF.FileFunction,Legend,Bot*
G04 #@! TF.FilePolarity,Positive*
%FSLAX46Y46*%
G04 Gerber Fmt 4.6, Leading zero omitted, Abs format (unit mm)*
G04 Created by KiCad (PCBNEW (5.1.10-1-10_14)) date 2021-11-28 23:58:15*
%MOMM*%
%LPD*%
G01*
G04 APERTURE LIST*
%ADD10C,0.152400*%
%ADD11C,0.127000*%
%ADD12C,0.250000*%
%ADD13C,0.200000*%
%ADD14C,0.150000*%
%ADD15C,1.601600*%
%ADD16C,1.609600*%
G04 APERTURE END LIST*
D10*
X162910285Y-108329619D02*
X162910285Y-107313619D01*
X162523238Y-107313619D01*
X162426476Y-107362000D01*
X162378095Y-107410380D01*
X162329714Y-107507142D01*
X162329714Y-107652285D01*
X162378095Y-107749047D01*
X162426476Y-107797428D01*
X162523238Y-107845809D01*
X162910285Y-107845809D01*
X161749142Y-108329619D02*
X161845904Y-108281238D01*
X161894285Y-108232857D01*
X161942666Y-108136095D01*
X161942666Y-107845809D01*
X161894285Y-107749047D01*
X161845904Y-107700666D01*
X161749142Y-107652285D01*
X161604000Y-107652285D01*
X161507238Y-107700666D01*
X161458857Y-107749047D01*
X161410476Y-107845809D01*
X161410476Y-108136095D01*
X161458857Y-108232857D01*
X161507238Y-108281238D01*
X161604000Y-108329619D01*
X161749142Y-108329619D01*
X161071809Y-107652285D02*
X160878285Y-108329619D01*
X160684761Y-107845809D01*
X160491238Y-108329619D01*
X160297714Y-107652285D01*
X159523619Y-108281238D02*
X159620380Y-108329619D01*
X159813904Y-108329619D01*
X159910666Y-108281238D01*
X159959047Y-108184476D01*
X159959047Y-107797428D01*
X159910666Y-107700666D01*
X159813904Y-107652285D01*
X159620380Y-107652285D01*
X159523619Y-107700666D01*
X159475238Y-107797428D01*
X159475238Y-107894190D01*
X159959047Y-107990952D01*
X159039809Y-108329619D02*
X159039809Y-107652285D01*
X159039809Y-107845809D02*
X158991428Y-107749047D01*
X158943047Y-107700666D01*
X158846285Y-107652285D01*
X158749523Y-107652285D01*
X158023809Y-108281238D02*
X158120571Y-108329619D01*
X158314095Y-108329619D01*
X158410857Y-108281238D01*
X158459238Y-108184476D01*
X158459238Y-107797428D01*
X158410857Y-107700666D01*
X158314095Y-107652285D01*
X158120571Y-107652285D01*
X158023809Y-107700666D01*
X157975428Y-107797428D01*
X157975428Y-107894190D01*
X158459238Y-107990952D01*
X157104571Y-108329619D02*
X157104571Y-107313619D01*
X157104571Y-108281238D02*
X157201333Y-108329619D01*
X157394857Y-108329619D01*
X157491619Y-108281238D01*
X157540000Y-108232857D01*
X157588380Y-108136095D01*
X157588380Y-107845809D01*
X157540000Y-107749047D01*
X157491619Y-107700666D01*
X157394857Y-107652285D01*
X157201333Y-107652285D01*
X157104571Y-107700666D01*
X155508000Y-107797428D02*
X155362857Y-107845809D01*
X155314476Y-107894190D01*
X155266095Y-107990952D01*
X155266095Y-108136095D01*
X155314476Y-108232857D01*
X155362857Y-108281238D01*
X155459619Y-108329619D01*
X155846666Y-108329619D01*
X155846666Y-107313619D01*
X155508000Y-107313619D01*
X155411238Y-107362000D01*
X155362857Y-107410380D01*
X155314476Y-107507142D01*
X155314476Y-107603904D01*
X155362857Y-107700666D01*
X155411238Y-107749047D01*
X155508000Y-107797428D01*
X155846666Y-107797428D01*
X154927428Y-107652285D02*
X154685523Y-108329619D01*
X154443619Y-107652285D02*
X154685523Y-108329619D01*
X154782285Y-108571523D01*
X154830666Y-108619904D01*
X154927428Y-108668285D01*
X152701904Y-108329619D02*
X153040571Y-107845809D01*
X153282476Y-108329619D02*
X153282476Y-107313619D01*
X152895428Y-107313619D01*
X152798666Y-107362000D01*
X152750285Y-107410380D01*
X152701904Y-107507142D01*
X152701904Y-107652285D01*
X152750285Y-107749047D01*
X152798666Y-107797428D01*
X152895428Y-107845809D01*
X153282476Y-107845809D01*
X151879428Y-108281238D02*
X151976190Y-108329619D01*
X152169714Y-108329619D01*
X152266476Y-108281238D01*
X152314857Y-108184476D01*
X152314857Y-107797428D01*
X152266476Y-107700666D01*
X152169714Y-107652285D01*
X151976190Y-107652285D01*
X151879428Y-107700666D01*
X151831047Y-107797428D01*
X151831047Y-107894190D01*
X152314857Y-107990952D01*
X151540761Y-107652285D02*
X151153714Y-107652285D01*
X151395619Y-107313619D02*
X151395619Y-108184476D01*
X151347238Y-108281238D01*
X151250476Y-108329619D01*
X151153714Y-108329619D01*
X150815047Y-108329619D02*
X150815047Y-107652285D01*
X150815047Y-107845809D02*
X150766666Y-107749047D01*
X150718285Y-107700666D01*
X150621523Y-107652285D01*
X150524761Y-107652285D01*
X150040952Y-108329619D02*
X150137714Y-108281238D01*
X150186095Y-108232857D01*
X150234476Y-108136095D01*
X150234476Y-107845809D01*
X150186095Y-107749047D01*
X150137714Y-107700666D01*
X150040952Y-107652285D01*
X149895809Y-107652285D01*
X149799047Y-107700666D01*
X149750666Y-107749047D01*
X149702285Y-107845809D01*
X149702285Y-108136095D01*
X149750666Y-108232857D01*
X149799047Y-108281238D01*
X149895809Y-108329619D01*
X150040952Y-108329619D01*
X149315238Y-108281238D02*
X149170095Y-108329619D01*
X148928190Y-108329619D01*
X148831428Y-108281238D01*
X148783047Y-108232857D01*
X148734666Y-108136095D01*
X148734666Y-108039333D01*
X148783047Y-107942571D01*
X148831428Y-107894190D01*
X148928190Y-107845809D01*
X149121714Y-107797428D01*
X149218476Y-107749047D01*
X149266857Y-107700666D01*
X149315238Y-107603904D01*
X149315238Y-107507142D01*
X149266857Y-107410380D01*
X149218476Y-107362000D01*
X149121714Y-107313619D01*
X148879809Y-107313619D01*
X148734666Y-107362000D01*
X148299238Y-107652285D02*
X148299238Y-108668285D01*
X148299238Y-107700666D02*
X148202476Y-107652285D01*
X148008952Y-107652285D01*
X147912190Y-107700666D01*
X147863809Y-107749047D01*
X147815428Y-107845809D01*
X147815428Y-108136095D01*
X147863809Y-108232857D01*
X147912190Y-108281238D01*
X148008952Y-108329619D01*
X148202476Y-108329619D01*
X148299238Y-108281238D01*
X147476761Y-107652285D02*
X147234857Y-108329619D01*
X146992952Y-107652285D02*
X147234857Y-108329619D01*
X147331619Y-108571523D01*
X147380000Y-108619904D01*
X147476761Y-108668285D01*
D11*
X153311285Y-114508428D02*
X153202428Y-114544714D01*
X153021000Y-114544714D01*
X152948428Y-114508428D01*
X152912142Y-114472142D01*
X152875857Y-114399571D01*
X152875857Y-114327000D01*
X152912142Y-114254428D01*
X152948428Y-114218142D01*
X153021000Y-114181857D01*
X153166142Y-114145571D01*
X153238714Y-114109285D01*
X153275000Y-114073000D01*
X153311285Y-114000428D01*
X153311285Y-113927857D01*
X153275000Y-113855285D01*
X153238714Y-113819000D01*
X153166142Y-113782714D01*
X152984714Y-113782714D01*
X152875857Y-113819000D01*
X152549285Y-114036714D02*
X152549285Y-114798714D01*
X152549285Y-114073000D02*
X152476714Y-114036714D01*
X152331571Y-114036714D01*
X152259000Y-114073000D01*
X152222714Y-114109285D01*
X152186428Y-114181857D01*
X152186428Y-114399571D01*
X152222714Y-114472142D01*
X152259000Y-114508428D01*
X152331571Y-114544714D01*
X152476714Y-114544714D01*
X152549285Y-114508428D01*
X151569571Y-114508428D02*
X151642142Y-114544714D01*
X151787285Y-114544714D01*
X151859857Y-114508428D01*
X151896142Y-114435857D01*
X151896142Y-114145571D01*
X151859857Y-114073000D01*
X151787285Y-114036714D01*
X151642142Y-114036714D01*
X151569571Y-114073000D01*
X151533285Y-114145571D01*
X151533285Y-114218142D01*
X151896142Y-114290714D01*
X150880142Y-114508428D02*
X150952714Y-114544714D01*
X151097857Y-114544714D01*
X151170428Y-114508428D01*
X151206714Y-114472142D01*
X151243000Y-114399571D01*
X151243000Y-114181857D01*
X151206714Y-114109285D01*
X151170428Y-114073000D01*
X151097857Y-114036714D01*
X150952714Y-114036714D01*
X150880142Y-114073000D01*
X150553571Y-114544714D02*
X150553571Y-114036714D01*
X150553571Y-113782714D02*
X150589857Y-113819000D01*
X150553571Y-113855285D01*
X150517285Y-113819000D01*
X150553571Y-113782714D01*
X150553571Y-113855285D01*
X149864142Y-114544714D02*
X149864142Y-114145571D01*
X149900428Y-114073000D01*
X149973000Y-114036714D01*
X150118142Y-114036714D01*
X150190714Y-114073000D01*
X149864142Y-114508428D02*
X149936714Y-114544714D01*
X150118142Y-114544714D01*
X150190714Y-114508428D01*
X150227000Y-114435857D01*
X150227000Y-114363285D01*
X150190714Y-114290714D01*
X150118142Y-114254428D01*
X149936714Y-114254428D01*
X149864142Y-114218142D01*
X149392428Y-114544714D02*
X149465000Y-114508428D01*
X149501285Y-114435857D01*
X149501285Y-113782714D01*
X148630428Y-113782714D02*
X148195000Y-113782714D01*
X148412714Y-114544714D02*
X148412714Y-113782714D01*
X147941000Y-114544714D02*
X147941000Y-113782714D01*
X147614428Y-114544714D02*
X147614428Y-114145571D01*
X147650714Y-114073000D01*
X147723285Y-114036714D01*
X147832142Y-114036714D01*
X147904714Y-114073000D01*
X147941000Y-114109285D01*
X146925000Y-114544714D02*
X146925000Y-114145571D01*
X146961285Y-114073000D01*
X147033857Y-114036714D01*
X147179000Y-114036714D01*
X147251571Y-114073000D01*
X146925000Y-114508428D02*
X146997571Y-114544714D01*
X147179000Y-114544714D01*
X147251571Y-114508428D01*
X147287857Y-114435857D01*
X147287857Y-114363285D01*
X147251571Y-114290714D01*
X147179000Y-114254428D01*
X146997571Y-114254428D01*
X146925000Y-114218142D01*
X146562142Y-114036714D02*
X146562142Y-114544714D01*
X146562142Y-114109285D02*
X146525857Y-114073000D01*
X146453285Y-114036714D01*
X146344428Y-114036714D01*
X146271857Y-114073000D01*
X146235571Y-114145571D01*
X146235571Y-114544714D01*
X145872714Y-114544714D02*
X145872714Y-113782714D01*
X145800142Y-114254428D02*
X145582428Y-114544714D01*
X145582428Y-114036714D02*
X145872714Y-114327000D01*
X145292142Y-114508428D02*
X145219571Y-114544714D01*
X145074428Y-114544714D01*
X145001857Y-114508428D01*
X144965571Y-114435857D01*
X144965571Y-114399571D01*
X145001857Y-114327000D01*
X145074428Y-114290714D01*
X145183285Y-114290714D01*
X145255857Y-114254428D01*
X145292142Y-114181857D01*
X145292142Y-114145571D01*
X145255857Y-114073000D01*
X145183285Y-114036714D01*
X145074428Y-114036714D01*
X145001857Y-114073000D01*
X144639000Y-114472142D02*
X144602714Y-114508428D01*
X144639000Y-114544714D01*
X144675285Y-114508428D01*
X144639000Y-114472142D01*
X144639000Y-114544714D01*
X144639000Y-114073000D02*
X144602714Y-114109285D01*
X144639000Y-114145571D01*
X144675285Y-114109285D01*
X144639000Y-114073000D01*
X144639000Y-114145571D01*
X143369000Y-114036714D02*
X143369000Y-114544714D01*
X143550428Y-113746428D02*
X143731857Y-114290714D01*
X143260142Y-114290714D01*
X142824714Y-113782714D02*
X142752142Y-113782714D01*
X142679571Y-113819000D01*
X142643285Y-113855285D01*
X142607000Y-113927857D01*
X142570714Y-114073000D01*
X142570714Y-114254428D01*
X142607000Y-114399571D01*
X142643285Y-114472142D01*
X142679571Y-114508428D01*
X142752142Y-114544714D01*
X142824714Y-114544714D01*
X142897285Y-114508428D01*
X142933571Y-114472142D01*
X142969857Y-114399571D01*
X143006142Y-114254428D01*
X143006142Y-114073000D01*
X142969857Y-113927857D01*
X142933571Y-113855285D01*
X142897285Y-113819000D01*
X142824714Y-113782714D01*
X142316714Y-114036714D02*
X142171571Y-114544714D01*
X142026428Y-114181857D01*
X141881285Y-114544714D01*
X141736142Y-114036714D01*
X141119285Y-114544714D02*
X141119285Y-114145571D01*
X141155571Y-114073000D01*
X141228142Y-114036714D01*
X141373285Y-114036714D01*
X141445857Y-114073000D01*
X141119285Y-114508428D02*
X141191857Y-114544714D01*
X141373285Y-114544714D01*
X141445857Y-114508428D01*
X141482142Y-114435857D01*
X141482142Y-114363285D01*
X141445857Y-114290714D01*
X141373285Y-114254428D01*
X141191857Y-114254428D01*
X141119285Y-114218142D01*
X140865285Y-114036714D02*
X140575000Y-114036714D01*
X140756428Y-113782714D02*
X140756428Y-114435857D01*
X140720142Y-114508428D01*
X140647571Y-114544714D01*
X140575000Y-114544714D01*
X140429857Y-114036714D02*
X140139571Y-114036714D01*
X140321000Y-113782714D02*
X140321000Y-114435857D01*
X140284714Y-114508428D01*
X140212142Y-114544714D01*
X140139571Y-114544714D01*
X139450142Y-114544714D02*
X139704142Y-114181857D01*
X139885571Y-114544714D02*
X139885571Y-113782714D01*
X139595285Y-113782714D01*
X139522714Y-113819000D01*
X139486428Y-113855285D01*
X139450142Y-113927857D01*
X139450142Y-114036714D01*
X139486428Y-114109285D01*
X139522714Y-114145571D01*
X139595285Y-114181857D01*
X139885571Y-114181857D01*
X138797000Y-114544714D02*
X138797000Y-114145571D01*
X138833285Y-114073000D01*
X138905857Y-114036714D01*
X139051000Y-114036714D01*
X139123571Y-114073000D01*
X138797000Y-114508428D02*
X138869571Y-114544714D01*
X139051000Y-114544714D01*
X139123571Y-114508428D01*
X139159857Y-114435857D01*
X139159857Y-114363285D01*
X139123571Y-114290714D01*
X139051000Y-114254428D01*
X138869571Y-114254428D01*
X138797000Y-114218142D01*
X138434142Y-114036714D02*
X138434142Y-114544714D01*
X138434142Y-114109285D02*
X138397857Y-114073000D01*
X138325285Y-114036714D01*
X138216428Y-114036714D01*
X138143857Y-114073000D01*
X138107571Y-114145571D01*
X138107571Y-114544714D01*
X137418142Y-114036714D02*
X137418142Y-114653571D01*
X137454428Y-114726142D01*
X137490714Y-114762428D01*
X137563285Y-114798714D01*
X137672142Y-114798714D01*
X137744714Y-114762428D01*
X137418142Y-114508428D02*
X137490714Y-114544714D01*
X137635857Y-114544714D01*
X137708428Y-114508428D01*
X137744714Y-114472142D01*
X137781000Y-114399571D01*
X137781000Y-114181857D01*
X137744714Y-114109285D01*
X137708428Y-114073000D01*
X137635857Y-114036714D01*
X137490714Y-114036714D01*
X137418142Y-114073000D01*
X136765000Y-114508428D02*
X136837571Y-114544714D01*
X136982714Y-114544714D01*
X137055285Y-114508428D01*
X137091571Y-114435857D01*
X137091571Y-114145571D01*
X137055285Y-114073000D01*
X136982714Y-114036714D01*
X136837571Y-114036714D01*
X136765000Y-114073000D01*
X136728714Y-114145571D01*
X136728714Y-114218142D01*
X137091571Y-114290714D01*
X151495238Y-111882380D02*
X151495238Y-112596666D01*
X151542857Y-112739523D01*
X151638095Y-112834761D01*
X151780952Y-112882380D01*
X151876190Y-112882380D01*
X150638095Y-112834761D02*
X150733333Y-112882380D01*
X150923809Y-112882380D01*
X151019047Y-112834761D01*
X151066666Y-112739523D01*
X151066666Y-112358571D01*
X151019047Y-112263333D01*
X150923809Y-112215714D01*
X150733333Y-112215714D01*
X150638095Y-112263333D01*
X150590476Y-112358571D01*
X150590476Y-112453809D01*
X151066666Y-112549047D01*
X150304761Y-112215714D02*
X149923809Y-112215714D01*
X150161904Y-112882380D02*
X150161904Y-112025238D01*
X150114285Y-111930000D01*
X150019047Y-111882380D01*
X149923809Y-111882380D01*
X149733333Y-112215714D02*
X149352380Y-112215714D01*
X149590476Y-112882380D02*
X149590476Y-112025238D01*
X149542857Y-111930000D01*
X149447619Y-111882380D01*
X149352380Y-111882380D01*
X147685714Y-112787142D02*
X147733333Y-112834761D01*
X147876190Y-112882380D01*
X147971428Y-112882380D01*
X148114285Y-112834761D01*
X148209523Y-112739523D01*
X148257142Y-112644285D01*
X148304761Y-112453809D01*
X148304761Y-112310952D01*
X148257142Y-112120476D01*
X148209523Y-112025238D01*
X148114285Y-111930000D01*
X147971428Y-111882380D01*
X147876190Y-111882380D01*
X147733333Y-111930000D01*
X147685714Y-111977619D01*
X147257142Y-112882380D02*
X147257142Y-111882380D01*
X146828571Y-112882380D02*
X146828571Y-112358571D01*
X146876190Y-112263333D01*
X146971428Y-112215714D01*
X147114285Y-112215714D01*
X147209523Y-112263333D01*
X147257142Y-112310952D01*
X145971428Y-112834761D02*
X146066666Y-112882380D01*
X146257142Y-112882380D01*
X146352380Y-112834761D01*
X146400000Y-112739523D01*
X146400000Y-112358571D01*
X146352380Y-112263333D01*
X146257142Y-112215714D01*
X146066666Y-112215714D01*
X145971428Y-112263333D01*
X145923809Y-112358571D01*
X145923809Y-112453809D01*
X146400000Y-112549047D01*
X145495238Y-112215714D02*
X145495238Y-112882380D01*
X145495238Y-112310952D02*
X145447619Y-112263333D01*
X145352380Y-112215714D01*
X145209523Y-112215714D01*
X145114285Y-112263333D01*
X145066666Y-112358571D01*
X145066666Y-112882380D01*
X144542857Y-112834761D02*
X144542857Y-112882380D01*
X144590476Y-112977619D01*
X144638095Y-113025238D01*
X143400000Y-111977619D02*
X143352380Y-111930000D01*
X143257142Y-111882380D01*
X143019047Y-111882380D01*
X142923809Y-111930000D01*
X142876190Y-111977619D01*
X142828571Y-112072857D01*
X142828571Y-112168095D01*
X142876190Y-112310952D01*
X143447619Y-112882380D01*
X142828571Y-112882380D01*
X142209523Y-111882380D02*
X142114285Y-111882380D01*
X142019047Y-111930000D01*
X141971428Y-111977619D01*
X141923809Y-112072857D01*
X141876190Y-112263333D01*
X141876190Y-112501428D01*
X141923809Y-112691904D01*
X141971428Y-112787142D01*
X142019047Y-112834761D01*
X142114285Y-112882380D01*
X142209523Y-112882380D01*
X142304761Y-112834761D01*
X142352380Y-112787142D01*
X142400000Y-112691904D01*
X142447619Y-112501428D01*
X142447619Y-112263333D01*
X142400000Y-112072857D01*
X142352380Y-111977619D01*
X142304761Y-111930000D01*
X142209523Y-111882380D01*
X141495238Y-111977619D02*
X141447619Y-111930000D01*
X141352380Y-111882380D01*
X141114285Y-111882380D01*
X141019047Y-111930000D01*
X140971428Y-111977619D01*
X140923809Y-112072857D01*
X140923809Y-112168095D01*
X140971428Y-112310952D01*
X141542857Y-112882380D01*
X140923809Y-112882380D01*
X139971428Y-112882380D02*
X140542857Y-112882380D01*
X140257142Y-112882380D02*
X140257142Y-111882380D01*
X140352380Y-112025238D01*
X140447619Y-112120476D01*
X140542857Y-112168095D01*
D12*
X163990000Y-104903333D02*
X163990000Y-105170000D01*
X163456666Y-104903333D02*
X163456666Y-105170000D01*
X162856666Y-106303333D02*
X162856666Y-104903333D01*
X162390000Y-105903333D01*
X161923333Y-104903333D01*
X161923333Y-106303333D01*
X161256666Y-106303333D02*
X161256666Y-105370000D01*
X161256666Y-105636666D02*
X161190000Y-105503333D01*
X161123333Y-105436666D01*
X160990000Y-105370000D01*
X160856666Y-105370000D01*
X160390000Y-106170000D02*
X160323333Y-106236666D01*
X160390000Y-106303333D01*
X160456666Y-106236666D01*
X160390000Y-106170000D01*
X160390000Y-106303333D01*
X158656666Y-106303333D02*
X158656666Y-104903333D01*
X157856666Y-106303333D01*
X157856666Y-104903333D01*
X156990000Y-106303333D02*
X157123333Y-106236666D01*
X157190000Y-106170000D01*
X157256666Y-106036666D01*
X157256666Y-105636666D01*
X157190000Y-105503333D01*
X157123333Y-105436666D01*
X156990000Y-105370000D01*
X156790000Y-105370000D01*
X156656666Y-105436666D01*
X156590000Y-105503333D01*
X156523333Y-105636666D01*
X156523333Y-106036666D01*
X156590000Y-106170000D01*
X156656666Y-106236666D01*
X156790000Y-106303333D01*
X156990000Y-106303333D01*
X155990000Y-106236666D02*
X155856666Y-106303333D01*
X155590000Y-106303333D01*
X155456666Y-106236666D01*
X155390000Y-106103333D01*
X155390000Y-106036666D01*
X155456666Y-105903333D01*
X155590000Y-105836666D01*
X155790000Y-105836666D01*
X155923333Y-105770000D01*
X155990000Y-105636666D01*
X155990000Y-105570000D01*
X155923333Y-105436666D01*
X155790000Y-105370000D01*
X155590000Y-105370000D01*
X155456666Y-105436666D01*
X154923333Y-105370000D02*
X154590000Y-106303333D01*
X154256666Y-105370000D02*
X154590000Y-106303333D01*
X154723333Y-106636666D01*
X154790000Y-106703333D01*
X154923333Y-106770000D01*
X153790000Y-104903333D02*
X153790000Y-105170000D01*
X153256666Y-104903333D02*
X153256666Y-105170000D01*
X151656666Y-106236666D02*
X151456666Y-106303333D01*
X151123333Y-106303333D01*
X150990000Y-106236666D01*
X150923333Y-106170000D01*
X150856666Y-106036666D01*
X150856666Y-105903333D01*
X150923333Y-105770000D01*
X150990000Y-105703333D01*
X151123333Y-105636666D01*
X151390000Y-105570000D01*
X151523333Y-105503333D01*
X151590000Y-105436666D01*
X151656666Y-105303333D01*
X151656666Y-105170000D01*
X151590000Y-105036666D01*
X151523333Y-104970000D01*
X151390000Y-104903333D01*
X151056666Y-104903333D01*
X150856666Y-104970000D01*
X150256666Y-106303333D02*
X150256666Y-104903333D01*
X149456666Y-106303333D01*
X149456666Y-104903333D01*
X148856666Y-105903333D02*
X148190000Y-105903333D01*
X148990000Y-106303333D02*
X148523333Y-104903333D01*
X148056666Y-106303333D01*
X146790000Y-106170000D02*
X146856666Y-106236666D01*
X147056666Y-106303333D01*
X147190000Y-106303333D01*
X147390000Y-106236666D01*
X147523333Y-106103333D01*
X147590000Y-105970000D01*
X147656666Y-105703333D01*
X147656666Y-105503333D01*
X147590000Y-105236666D01*
X147523333Y-105103333D01*
X147390000Y-104970000D01*
X147190000Y-104903333D01*
X147056666Y-104903333D01*
X146856666Y-104970000D01*
X146790000Y-105036666D01*
X145190000Y-106236666D02*
X144990000Y-106303333D01*
X144656666Y-106303333D01*
X144523333Y-106236666D01*
X144456666Y-106170000D01*
X144390000Y-106036666D01*
X144390000Y-105903333D01*
X144456666Y-105770000D01*
X144523333Y-105703333D01*
X144656666Y-105636666D01*
X144923333Y-105570000D01*
X145056666Y-105503333D01*
X145123333Y-105436666D01*
X145190000Y-105303333D01*
X145190000Y-105170000D01*
X145123333Y-105036666D01*
X145056666Y-104970000D01*
X144923333Y-104903333D01*
X144590000Y-104903333D01*
X144390000Y-104970000D01*
X143790000Y-105370000D02*
X143790000Y-106303333D01*
X143790000Y-105503333D02*
X143723333Y-105436666D01*
X143590000Y-105370000D01*
X143390000Y-105370000D01*
X143256666Y-105436666D01*
X143190000Y-105570000D01*
X143190000Y-106303333D01*
X142523333Y-106303333D02*
X142523333Y-105370000D01*
X142523333Y-104903333D02*
X142590000Y-104970000D01*
X142523333Y-105036666D01*
X142456666Y-104970000D01*
X142523333Y-104903333D01*
X142523333Y-105036666D01*
X142056666Y-105370000D02*
X141523333Y-105370000D01*
X141856666Y-106303333D02*
X141856666Y-105103333D01*
X141790000Y-104970000D01*
X141656666Y-104903333D01*
X141523333Y-104903333D01*
X141256666Y-105370000D02*
X140723333Y-105370000D01*
X141056666Y-106303333D02*
X141056666Y-105103333D01*
X140990000Y-104970000D01*
X140856666Y-104903333D01*
X140723333Y-104903333D01*
X139723333Y-106236666D02*
X139856666Y-106303333D01*
X140123333Y-106303333D01*
X140256666Y-106236666D01*
X140323333Y-106103333D01*
X140323333Y-105570000D01*
X140256666Y-105436666D01*
X140123333Y-105370000D01*
X139856666Y-105370000D01*
X139723333Y-105436666D01*
X139656666Y-105570000D01*
X139656666Y-105703333D01*
X140323333Y-105836666D01*
X139056666Y-106303333D02*
X139056666Y-105370000D01*
X139056666Y-105636666D02*
X138990000Y-105503333D01*
X138923333Y-105436666D01*
X138790000Y-105370000D01*
X138656666Y-105370000D01*
D11*
X99430000Y-116790000D02*
X99430000Y-101790000D01*
X99430000Y-101790000D02*
X102190000Y-101790000D01*
X99430000Y-116790000D02*
X102190000Y-116790000D01*
X107990000Y-116790000D02*
X105790000Y-116790000D01*
X105790000Y-101790000D02*
X107990000Y-101790000D01*
X110240000Y-115390000D02*
X110240000Y-114490000D01*
X110240000Y-104090000D02*
X110240000Y-103190000D01*
D13*
X111598112Y-104090000D02*
G75*
G03*
X111598112Y-104090000I-158112J0D01*
G01*
D14*
X123053333Y-109962380D02*
X123053333Y-110676666D01*
X123100952Y-110819523D01*
X123196190Y-110914761D01*
X123339047Y-110962380D01*
X123434285Y-110962380D01*
X122053333Y-110962380D02*
X122624761Y-110962380D01*
X122339047Y-110962380D02*
X122339047Y-109962380D01*
X122434285Y-110105238D01*
X122529523Y-110200476D01*
X122624761Y-110248095D01*
X125693333Y-109962380D02*
X125693333Y-110676666D01*
X125740952Y-110819523D01*
X125836190Y-110914761D01*
X125979047Y-110962380D01*
X126074285Y-110962380D01*
X125264761Y-110057619D02*
X125217142Y-110010000D01*
X125121904Y-109962380D01*
X124883809Y-109962380D01*
X124788571Y-110010000D01*
X124740952Y-110057619D01*
X124693333Y-110152857D01*
X124693333Y-110248095D01*
X124740952Y-110390952D01*
X125312380Y-110962380D01*
X124693333Y-110962380D01*
X128153333Y-109962380D02*
X128153333Y-110676666D01*
X128200952Y-110819523D01*
X128296190Y-110914761D01*
X128439047Y-110962380D01*
X128534285Y-110962380D01*
X127772380Y-109962380D02*
X127153333Y-109962380D01*
X127486666Y-110343333D01*
X127343809Y-110343333D01*
X127248571Y-110390952D01*
X127200952Y-110438571D01*
X127153333Y-110533809D01*
X127153333Y-110771904D01*
X127200952Y-110867142D01*
X127248571Y-110914761D01*
X127343809Y-110962380D01*
X127629523Y-110962380D01*
X127724761Y-110914761D01*
X127772380Y-110867142D01*
X130763333Y-109992380D02*
X130763333Y-110706666D01*
X130810952Y-110849523D01*
X130906190Y-110944761D01*
X131049047Y-110992380D01*
X131144285Y-110992380D01*
X129858571Y-110325714D02*
X129858571Y-110992380D01*
X130096666Y-109944761D02*
X130334761Y-110659047D01*
X129715714Y-110659047D01*
X133273333Y-109952380D02*
X133273333Y-110666666D01*
X133320952Y-110809523D01*
X133416190Y-110904761D01*
X133559047Y-110952380D01*
X133654285Y-110952380D01*
X132320952Y-109952380D02*
X132797142Y-109952380D01*
X132844761Y-110428571D01*
X132797142Y-110380952D01*
X132701904Y-110333333D01*
X132463809Y-110333333D01*
X132368571Y-110380952D01*
X132320952Y-110428571D01*
X132273333Y-110523809D01*
X132273333Y-110761904D01*
X132320952Y-110857142D01*
X132368571Y-110904761D01*
X132463809Y-110952380D01*
X132701904Y-110952380D01*
X132797142Y-110904761D01*
X132844761Y-110857142D01*
X104748246Y-109752473D02*
X104748246Y-108752268D01*
X104367216Y-108752268D01*
X104271958Y-108799897D01*
X104224329Y-108847526D01*
X104176700Y-108942783D01*
X104176700Y-109085670D01*
X104224329Y-109180927D01*
X104271958Y-109228556D01*
X104367216Y-109276185D01*
X104748246Y-109276185D01*
X103224124Y-109752473D02*
X103795670Y-109752473D01*
X103509897Y-109752473D02*
X103509897Y-108752268D01*
X103605155Y-108895155D01*
X103700412Y-108990412D01*
X103795670Y-109038041D01*
%LPC*%
D15*
X122800000Y-112010000D03*
X122800000Y-114550000D03*
X125340000Y-112010000D03*
X125340000Y-114550000D03*
X127880000Y-112010000D03*
X127880000Y-114550000D03*
X130420000Y-112010000D03*
X130420000Y-114550000D03*
X132960000Y-112010000D03*
X132960000Y-114550000D03*
G36*
G01*
X105145400Y-102890800D02*
X102894600Y-102890800D01*
G75*
G02*
X102469200Y-102465400I0J425400D01*
G01*
X102469200Y-101614600D01*
G75*
G02*
X102894600Y-101189200I425400J0D01*
G01*
X105145400Y-101189200D01*
G75*
G02*
X105570800Y-101614600I0J-425400D01*
G01*
X105570800Y-102465400D01*
G75*
G02*
X105145400Y-102890800I-425400J0D01*
G01*
G37*
G36*
G01*
X105145400Y-117390800D02*
X102894600Y-117390800D01*
G75*
G02*
X102469200Y-116965400I0J425400D01*
G01*
X102469200Y-116114600D01*
G75*
G02*
X102894600Y-115689200I425400J0D01*
G01*
X105145400Y-115689200D01*
G75*
G02*
X105570800Y-116114600I0J-425400D01*
G01*
X105570800Y-116965400D01*
G75*
G02*
X105145400Y-117390800I-425400J0D01*
G01*
G37*
G36*
G01*
X111505400Y-117390800D02*
X108454600Y-117390800D01*
G75*
G02*
X108029200Y-116965400I0J425400D01*
G01*
X108029200Y-116114600D01*
G75*
G02*
X108454600Y-115689200I425400J0D01*
G01*
X111505400Y-115689200D01*
G75*
G02*
X111930800Y-116114600I0J-425400D01*
G01*
X111930800Y-116965400D01*
G75*
G02*
X111505400Y-117390800I-425400J0D01*
G01*
G37*
G36*
G01*
X111505400Y-102890800D02*
X108454600Y-102890800D01*
G75*
G02*
X108029200Y-102465400I0J425400D01*
G01*
X108029200Y-101614600D01*
G75*
G02*
X108454600Y-101189200I425400J0D01*
G01*
X111505400Y-101189200D01*
G75*
G02*
X111930800Y-101614600I0J-425400D01*
G01*
X111930800Y-102465400D01*
G75*
G02*
X111505400Y-102890800I-425400J0D01*
G01*
G37*
G36*
G01*
X112040000Y-113990800D02*
X109440000Y-113990800D01*
G75*
G02*
X109389200Y-113940000I0J50800D01*
G01*
X109389200Y-113640000D01*
G75*
G02*
X109440000Y-113589200I50800J0D01*
G01*
X112040000Y-113589200D01*
G75*
G02*
X112090800Y-113640000I0J-50800D01*
G01*
X112090800Y-113940000D01*
G75*
G02*
X112040000Y-113990800I-50800J0D01*
G01*
G37*
G36*
G01*
X112040000Y-113490800D02*
X109440000Y-113490800D01*
G75*
G02*
X109389200Y-113440000I0J50800D01*
G01*
X109389200Y-113140000D01*
G75*
G02*
X109440000Y-113089200I50800J0D01*
G01*
X112040000Y-113089200D01*
G75*
G02*
X112090800Y-113140000I0J-50800D01*
G01*
X112090800Y-113440000D01*
G75*
G02*
X112040000Y-113490800I-50800J0D01*
G01*
G37*
G36*
G01*
X112040000Y-112990800D02*
X109440000Y-112990800D01*
G75*
G02*
X109389200Y-112940000I0J50800D01*
G01*
X109389200Y-112640000D01*
G75*
G02*
X109440000Y-112589200I50800J0D01*
G01*
X112040000Y-112589200D01*
G75*
G02*
X112090800Y-112640000I0J-50800D01*
G01*
X112090800Y-112940000D01*
G75*
G02*
X112040000Y-112990800I-50800J0D01*
G01*
G37*
G36*
G01*
X112040000Y-112490800D02*
X109440000Y-112490800D01*
G75*
G02*
X109389200Y-112440000I0J50800D01*
G01*
X109389200Y-112140000D01*
G75*
G02*
X109440000Y-112089200I50800J0D01*
G01*
X112040000Y-112089200D01*
G75*
G02*
X112090800Y-112140000I0J-50800D01*
G01*
X112090800Y-112440000D01*
G75*
G02*
X112040000Y-112490800I-50800J0D01*
G01*
G37*
G36*
G01*
X112040000Y-111990800D02*
X109440000Y-111990800D01*
G75*
G02*
X109389200Y-111940000I0J50800D01*
G01*
X109389200Y-111640000D01*
G75*
G02*
X109440000Y-111589200I50800J0D01*
G01*
X112040000Y-111589200D01*
G75*
G02*
X112090800Y-111640000I0J-50800D01*
G01*
X112090800Y-111940000D01*
G75*
G02*
X112040000Y-111990800I-50800J0D01*
G01*
G37*
G36*
G01*
X112040000Y-111490800D02*
X109440000Y-111490800D01*
G75*
G02*
X109389200Y-111440000I0J50800D01*
G01*
X109389200Y-111140000D01*
G75*
G02*
X109440000Y-111089200I50800J0D01*
G01*
X112040000Y-111089200D01*
G75*
G02*
X112090800Y-111140000I0J-50800D01*
G01*
X112090800Y-111440000D01*
G75*
G02*
X112040000Y-111490800I-50800J0D01*
G01*
G37*
G36*
G01*
X112040000Y-110990800D02*
X109440000Y-110990800D01*
G75*
G02*
X109389200Y-110940000I0J50800D01*
G01*
X109389200Y-110640000D01*
G75*
G02*
X109440000Y-110589200I50800J0D01*
G01*
X112040000Y-110589200D01*
G75*
G02*
X112090800Y-110640000I0J-50800D01*
G01*
X112090800Y-110940000D01*
G75*
G02*
X112040000Y-110990800I-50800J0D01*
G01*
G37*
G36*
G01*
X112040000Y-110490800D02*
X109440000Y-110490800D01*
G75*
G02*
X109389200Y-110440000I0J50800D01*
G01*
X109389200Y-110140000D01*
G75*
G02*
X109440000Y-110089200I50800J0D01*
G01*
X112040000Y-110089200D01*
G75*
G02*
X112090800Y-110140000I0J-50800D01*
G01*
X112090800Y-110440000D01*
G75*
G02*
X112040000Y-110490800I-50800J0D01*
G01*
G37*
G36*
G01*
X112040000Y-109990800D02*
X109440000Y-109990800D01*
G75*
G02*
X109389200Y-109940000I0J50800D01*
G01*
X109389200Y-109640000D01*
G75*
G02*
X109440000Y-109589200I50800J0D01*
G01*
X112040000Y-109589200D01*
G75*
G02*
X112090800Y-109640000I0J-50800D01*
G01*
X112090800Y-109940000D01*
G75*
G02*
X112040000Y-109990800I-50800J0D01*
G01*
G37*
G36*
G01*
X112040000Y-109490800D02*
X109440000Y-109490800D01*
G75*
G02*
X109389200Y-109440000I0J50800D01*
G01*
X109389200Y-109140000D01*
G75*
G02*
X109440000Y-109089200I50800J0D01*
G01*
X112040000Y-109089200D01*
G75*
G02*
X112090800Y-109140000I0J-50800D01*
G01*
X112090800Y-109440000D01*
G75*
G02*
X112040000Y-109490800I-50800J0D01*
G01*
G37*
G36*
G01*
X112040000Y-108990800D02*
X109440000Y-108990800D01*
G75*
G02*
X109389200Y-108940000I0J50800D01*
G01*
X109389200Y-108640000D01*
G75*
G02*
X109440000Y-108589200I50800J0D01*
G01*
X112040000Y-108589200D01*
G75*
G02*
X112090800Y-108640000I0J-50800D01*
G01*
X112090800Y-108940000D01*
G75*
G02*
X112040000Y-108990800I-50800J0D01*
G01*
G37*
G36*
G01*
X112040000Y-108490800D02*
X109440000Y-108490800D01*
G75*
G02*
X109389200Y-108440000I0J50800D01*
G01*
X109389200Y-108140000D01*
G75*
G02*
X109440000Y-108089200I50800J0D01*
G01*
X112040000Y-108089200D01*
G75*
G02*
X112090800Y-108140000I0J-50800D01*
G01*
X112090800Y-108440000D01*
G75*
G02*
X112040000Y-108490800I-50800J0D01*
G01*
G37*
G36*
G01*
X112040000Y-107990800D02*
X109440000Y-107990800D01*
G75*
G02*
X109389200Y-107940000I0J50800D01*
G01*
X109389200Y-107640000D01*
G75*
G02*
X109440000Y-107589200I50800J0D01*
G01*
X112040000Y-107589200D01*
G75*
G02*
X112090800Y-107640000I0J-50800D01*
G01*
X112090800Y-107940000D01*
G75*
G02*
X112040000Y-107990800I-50800J0D01*
G01*
G37*
G36*
G01*
X112040000Y-107490800D02*
X109440000Y-107490800D01*
G75*
G02*
X109389200Y-107440000I0J50800D01*
G01*
X109389200Y-107140000D01*
G75*
G02*
X109440000Y-107089200I50800J0D01*
G01*
X112040000Y-107089200D01*
G75*
G02*
X112090800Y-107140000I0J-50800D01*
G01*
X112090800Y-107440000D01*
G75*
G02*
X112040000Y-107490800I-50800J0D01*
G01*
G37*
G36*
G01*
X112040000Y-106990800D02*
X109440000Y-106990800D01*
G75*
G02*
X109389200Y-106940000I0J50800D01*
G01*
X109389200Y-106640000D01*
G75*
G02*
X109440000Y-106589200I50800J0D01*
G01*
X112040000Y-106589200D01*
G75*
G02*
X112090800Y-106640000I0J-50800D01*
G01*
X112090800Y-106940000D01*
G75*
G02*
X112040000Y-106990800I-50800J0D01*
G01*
G37*
G36*
G01*
X112040000Y-106490800D02*
X109440000Y-106490800D01*
G75*
G02*
X109389200Y-106440000I0J50800D01*
G01*
X109389200Y-106140000D01*
G75*
G02*
X109440000Y-106089200I50800J0D01*
G01*
X112040000Y-106089200D01*
G75*
G02*
X112090800Y-106140000I0J-50800D01*
G01*
X112090800Y-106440000D01*
G75*
G02*
X112040000Y-106490800I-50800J0D01*
G01*
G37*
G36*
G01*
X112040000Y-105990800D02*
X109440000Y-105990800D01*
G75*
G02*
X109389200Y-105940000I0J50800D01*
G01*
X109389200Y-105640000D01*
G75*
G02*
X109440000Y-105589200I50800J0D01*
G01*
X112040000Y-105589200D01*
G75*
G02*
X112090800Y-105640000I0J-50800D01*
G01*
X112090800Y-105940000D01*
G75*
G02*
X112040000Y-105990800I-50800J0D01*
G01*
G37*
G36*
G01*
X112040000Y-105490800D02*
X109440000Y-105490800D01*
G75*
G02*
X109389200Y-105440000I0J50800D01*
G01*
X109389200Y-105140000D01*
G75*
G02*
X109440000Y-105089200I50800J0D01*
G01*
X112040000Y-105089200D01*
G75*
G02*
X112090800Y-105140000I0J-50800D01*
G01*
X112090800Y-105440000D01*
G75*
G02*
X112040000Y-105490800I-50800J0D01*
G01*
G37*
G36*
G01*
X112040000Y-104990800D02*
X109440000Y-104990800D01*
G75*
G02*
X109389200Y-104940000I0J50800D01*
G01*
X109389200Y-104640000D01*
G75*
G02*
X109440000Y-104589200I50800J0D01*
G01*
X112040000Y-104589200D01*
G75*
G02*
X112090800Y-104640000I0J-50800D01*
G01*
X112090800Y-104940000D01*
G75*
G02*
X112040000Y-104990800I-50800J0D01*
G01*
G37*
G36*
G01*
X164535400Y-102900800D02*
X162284600Y-102900800D01*
G75*
G02*
X161859200Y-102475400I0J425400D01*
G01*
X161859200Y-101624600D01*
G75*
G02*
X162284600Y-101199200I425400J0D01*
G01*
X164535400Y-101199200D01*
G75*
G02*
X164960800Y-101624600I0J-425400D01*
G01*
X164960800Y-102475400D01*
G75*
G02*
X164535400Y-102900800I-425400J0D01*
G01*
G37*
G36*
G01*
X164535400Y-117400800D02*
X162284600Y-117400800D01*
G75*
G02*
X161859200Y-116975400I0J425400D01*
G01*
X161859200Y-116124600D01*
G75*
G02*
X162284600Y-115699200I425400J0D01*
G01*
X164535400Y-115699200D01*
G75*
G02*
X164960800Y-116124600I0J-425400D01*
G01*
X164960800Y-116975400D01*
G75*
G02*
X164535400Y-117400800I-425400J0D01*
G01*
G37*
G36*
G01*
X158975400Y-117400800D02*
X155924600Y-117400800D01*
G75*
G02*
X155499200Y-116975400I0J425400D01*
G01*
X155499200Y-116124600D01*
G75*
G02*
X155924600Y-115699200I425400J0D01*
G01*
X158975400Y-115699200D01*
G75*
G02*
X159400800Y-116124600I0J-425400D01*
G01*
X159400800Y-116975400D01*
G75*
G02*
X158975400Y-117400800I-425400J0D01*
G01*
G37*
G36*
G01*
X158975400Y-102900800D02*
X155924600Y-102900800D01*
G75*
G02*
X155499200Y-102475400I0J425400D01*
G01*
X155499200Y-101624600D01*
G75*
G02*
X155924600Y-101199200I425400J0D01*
G01*
X158975400Y-101199200D01*
G75*
G02*
X159400800Y-101624600I0J-425400D01*
G01*
X159400800Y-102475400D01*
G75*
G02*
X158975400Y-102900800I-425400J0D01*
G01*
G37*
G36*
G01*
X149986000Y-100885200D02*
X151494000Y-100885200D01*
G75*
G02*
X151544800Y-100936000I0J-50800D01*
G01*
X151544800Y-102444000D01*
G75*
G02*
X151494000Y-102494800I-50800J0D01*
G01*
X149986000Y-102494800D01*
G75*
G02*
X149935200Y-102444000I0J50800D01*
G01*
X149935200Y-100936000D01*
G75*
G02*
X149986000Y-100885200I50800J0D01*
G01*
G37*
D16*
X148200000Y-101690000D03*
X145660000Y-101690000D03*
X143120000Y-101690000D03*
X140580000Y-101690000D03*
X138040000Y-101690000D03*
X135500000Y-101690000D03*
X132960000Y-101690000D03*
X130420000Y-101690000D03*
X127880000Y-101690000D03*
X125340000Y-101690000D03*
X122800000Y-101690000D03*
X120260000Y-101690000D03*
X117720000Y-101690000D03*
X115180000Y-101690000D03*
X115180000Y-116930000D03*
X117720000Y-116930000D03*
X120260000Y-116930000D03*
X122800000Y-116930000D03*
X125340000Y-116930000D03*
X127880000Y-116930000D03*
X130420000Y-116930000D03*
X132960000Y-116930000D03*
X135500000Y-116930000D03*
X138040000Y-116930000D03*
X140580000Y-116930000D03*
X143120000Y-116930000D03*
X145660000Y-116930000D03*
X148200000Y-116930000D03*
X150740000Y-116930000D03*
D15*
X135500000Y-112010000D03*
X135500000Y-114550000D03*
X138030000Y-112010000D03*
X138030000Y-114550000D03*
X140580000Y-112010000D03*
X140580000Y-114550000D03*
M02*
