M48
; DRILL file {KiCad (5.1.10-1-10_14)} date Monday, November 29, 2021 at 09:51:51 PM
; FORMAT={-:-/ absolute / inch / decimal}
; #@! TF.CreationDate,2021-11-29T21:51:51-05:00
; #@! TF.GenerationSoftware,Kicad,Pcbnew,(5.1.10-1-10_14)
FMAT,2
INCH
T1C0.0118
T2C0.0315
T3C0.0394
%
G90
G05
T1
X5.0988Y-4.7768
X5.1988Y-4.7276
X5.299Y-4.6801
X5.3987Y-4.6322
X5.4989Y-4.5834
X5.5272Y-3.9024
X5.5571Y-3.9386
X5.5989Y-4.5363
X5.6988Y-4.4894
X5.7571Y-3.6362
X5.7571Y-3.7154
X5.7574Y-3.7945
X5.7575Y-3.5579
X5.7575Y-3.8736
X5.8091Y-3.7547
X5.8091Y-3.676
X5.8094Y-3.5972
X5.8094Y-3.8343
X5.8094Y-3.9122
X6.1287Y-3.9067
X6.1289Y-3.7349
X6.1453Y-3.6563
X6.1457Y-3.5776
X6.1776Y-3.9067
X6.1866Y-3.735
X6.1929Y-3.6169
X6.2146Y-3.8732
X6.2146Y-3.775
X6.2441Y-3.8272
X6.2472Y-3.6965
X6.2709Y-3.7749
X6.3206Y-3.7343
X6.3244Y-3.8252
X6.3555Y-3.8677
T3
X4.6988Y-4.8724
X4.7988Y-4.2724
X4.7988Y-4.8724
X4.8988Y-4.2724
X4.8988Y-4.8724
X4.9988Y-4.2724
X4.9988Y-4.8724
X5.0988Y-4.2724
X5.0988Y-4.8724
X5.1988Y-4.2724
X5.1988Y-4.8724
X5.2988Y-4.2724
X5.2988Y-4.8724
X5.3988Y-4.2724
X5.3988Y-4.8724
X5.4988Y-4.2724
X5.4988Y-4.8724
X5.5988Y-4.2724
X5.5988Y-4.8724
X5.6988Y-4.2724
X5.6988Y-4.8724
X5.7988Y-4.2724
X5.7988Y-4.8724
X5.8988Y-4.8724
X5.9988Y-4.8724
X6.0988Y-4.8724
X6.3287Y-4.148
X6.3287Y-4.248
X6.3287Y-4.348
X6.3287Y-4.448
X6.3287Y-4.548
X6.3287Y-4.648
X6.3287Y-4.748
X6.3287Y-4.848
X6.4287Y-4.148
X6.4287Y-4.248
X6.4287Y-4.348
X6.4287Y-4.448
X6.4287Y-4.548
X6.4287Y-4.648
X6.4287Y-4.748
X6.4287Y-4.848
T2
G00X5.6248Y-3.4496
M15
G01X5.6484Y-3.4496
M16
G05
G00X5.6248Y-4.0205
M15
G01X5.6484Y-4.0205
M16
G05
G00X5.8358Y-3.4496
M15
G01X5.9067Y-3.4496
M16
G05
G00X5.8358Y-4.0205
M15
G01X5.9067Y-4.0205
M16
G05
G00X6.0492Y-3.4496
M15
G01X6.1201Y-3.4496
M16
G05
G00X6.0492Y-4.0205
M15
G01X6.1201Y-4.0205
M16
G05
G00X6.3075Y-3.4496
M15
G01X6.3311Y-3.4496
M16
G05
G00X6.3075Y-4.0205
M15
G01X6.3311Y-4.0205
M16
G05
T0
M30
