G04 #@! TF.GenerationSoftware,KiCad,Pcbnew,(5.1.10-1-10_14)*
G04 #@! TF.CreationDate,2021-11-28T23:58:15-05:00*
G04 #@! TF.ProjectId,SNAC Sniffer LONG,534e4143-2053-46e6-9966-666572204c4f,1*
G04 #@! TF.SameCoordinates,Original*
G04 #@! TF.FileFunction,Copper,L2,Bot*
G04 #@! TF.FilePolarity,Positive*
%FSLAX46Y46*%
G04 Gerber Fmt 4.6, Leading zero omitted, Abs format (unit mm)*
G04 Created by KiCad (PCBNEW (5.1.10-1-10_14)) date 2021-11-28 23:58:15*
%MOMM*%
%LPD*%
G01*
G04 APERTURE LIST*
G04 #@! TA.AperFunction,ComponentPad*
%ADD10C,1.500000*%
G04 #@! TD*
G04 #@! TA.AperFunction,SMDPad,CuDef*
%ADD11R,2.600000X0.300000*%
G04 #@! TD*
G04 #@! TA.AperFunction,ComponentPad*
%ADD12R,1.508000X1.508000*%
G04 #@! TD*
G04 #@! TA.AperFunction,ComponentPad*
%ADD13C,1.508000*%
G04 #@! TD*
G04 #@! TA.AperFunction,ViaPad*
%ADD14C,0.700000*%
G04 #@! TD*
G04 #@! TA.AperFunction,Conductor*
%ADD15C,0.250000*%
G04 #@! TD*
G04 #@! TA.AperFunction,Conductor*
%ADD16C,0.160000*%
G04 #@! TD*
G04 #@! TA.AperFunction,Conductor*
%ADD17C,0.152400*%
G04 #@! TD*
G04 APERTURE END LIST*
D10*
X122800000Y-112010000D03*
X122800000Y-114550000D03*
X125340000Y-112010000D03*
X125340000Y-114550000D03*
X127880000Y-112010000D03*
X127880000Y-114550000D03*
X130420000Y-112010000D03*
X130420000Y-114550000D03*
X132960000Y-112010000D03*
X132960000Y-114550000D03*
G04 #@! TA.AperFunction,ComponentPad*
G36*
G01*
X105120000Y-102840000D02*
X102920000Y-102840000D01*
G75*
G02*
X102520000Y-102440000I0J400000D01*
G01*
X102520000Y-101640000D01*
G75*
G02*
X102920000Y-101240000I400000J0D01*
G01*
X105120000Y-101240000D01*
G75*
G02*
X105520000Y-101640000I0J-400000D01*
G01*
X105520000Y-102440000D01*
G75*
G02*
X105120000Y-102840000I-400000J0D01*
G01*
G37*
G04 #@! TD.AperFunction*
G04 #@! TA.AperFunction,ComponentPad*
G36*
G01*
X105120000Y-117340000D02*
X102920000Y-117340000D01*
G75*
G02*
X102520000Y-116940000I0J400000D01*
G01*
X102520000Y-116140000D01*
G75*
G02*
X102920000Y-115740000I400000J0D01*
G01*
X105120000Y-115740000D01*
G75*
G02*
X105520000Y-116140000I0J-400000D01*
G01*
X105520000Y-116940000D01*
G75*
G02*
X105120000Y-117340000I-400000J0D01*
G01*
G37*
G04 #@! TD.AperFunction*
G04 #@! TA.AperFunction,ComponentPad*
G36*
G01*
X111480000Y-117340000D02*
X108480000Y-117340000D01*
G75*
G02*
X108080000Y-116940000I0J400000D01*
G01*
X108080000Y-116140000D01*
G75*
G02*
X108480000Y-115740000I400000J0D01*
G01*
X111480000Y-115740000D01*
G75*
G02*
X111880000Y-116140000I0J-400000D01*
G01*
X111880000Y-116940000D01*
G75*
G02*
X111480000Y-117340000I-400000J0D01*
G01*
G37*
G04 #@! TD.AperFunction*
G04 #@! TA.AperFunction,ComponentPad*
G36*
G01*
X111480000Y-102840000D02*
X108480000Y-102840000D01*
G75*
G02*
X108080000Y-102440000I0J400000D01*
G01*
X108080000Y-101640000D01*
G75*
G02*
X108480000Y-101240000I400000J0D01*
G01*
X111480000Y-101240000D01*
G75*
G02*
X111880000Y-101640000I0J-400000D01*
G01*
X111880000Y-102440000D01*
G75*
G02*
X111480000Y-102840000I-400000J0D01*
G01*
G37*
G04 #@! TD.AperFunction*
D11*
X110740000Y-113790000D03*
X110740000Y-113290000D03*
X110740000Y-112790000D03*
X110740000Y-112290000D03*
X110740000Y-111790000D03*
X110740000Y-111290000D03*
X110740000Y-110790000D03*
X110740000Y-110290000D03*
X110740000Y-109790000D03*
X110740000Y-109290000D03*
X110740000Y-108790000D03*
X110740000Y-108290000D03*
X110740000Y-107790000D03*
X110740000Y-107290000D03*
X110740000Y-106790000D03*
X110740000Y-106290000D03*
X110740000Y-105790000D03*
X110740000Y-105290000D03*
X110740000Y-104790000D03*
G04 #@! TA.AperFunction,ComponentPad*
G36*
G01*
X164510000Y-102850000D02*
X162310000Y-102850000D01*
G75*
G02*
X161910000Y-102450000I0J400000D01*
G01*
X161910000Y-101650000D01*
G75*
G02*
X162310000Y-101250000I400000J0D01*
G01*
X164510000Y-101250000D01*
G75*
G02*
X164910000Y-101650000I0J-400000D01*
G01*
X164910000Y-102450000D01*
G75*
G02*
X164510000Y-102850000I-400000J0D01*
G01*
G37*
G04 #@! TD.AperFunction*
G04 #@! TA.AperFunction,ComponentPad*
G36*
G01*
X164510000Y-117350000D02*
X162310000Y-117350000D01*
G75*
G02*
X161910000Y-116950000I0J400000D01*
G01*
X161910000Y-116150000D01*
G75*
G02*
X162310000Y-115750000I400000J0D01*
G01*
X164510000Y-115750000D01*
G75*
G02*
X164910000Y-116150000I0J-400000D01*
G01*
X164910000Y-116950000D01*
G75*
G02*
X164510000Y-117350000I-400000J0D01*
G01*
G37*
G04 #@! TD.AperFunction*
G04 #@! TA.AperFunction,ComponentPad*
G36*
G01*
X158950000Y-117350000D02*
X155950000Y-117350000D01*
G75*
G02*
X155550000Y-116950000I0J400000D01*
G01*
X155550000Y-116150000D01*
G75*
G02*
X155950000Y-115750000I400000J0D01*
G01*
X158950000Y-115750000D01*
G75*
G02*
X159350000Y-116150000I0J-400000D01*
G01*
X159350000Y-116950000D01*
G75*
G02*
X158950000Y-117350000I-400000J0D01*
G01*
G37*
G04 #@! TD.AperFunction*
G04 #@! TA.AperFunction,ComponentPad*
G36*
G01*
X158950000Y-102850000D02*
X155950000Y-102850000D01*
G75*
G02*
X155550000Y-102450000I0J400000D01*
G01*
X155550000Y-101650000D01*
G75*
G02*
X155950000Y-101250000I400000J0D01*
G01*
X158950000Y-101250000D01*
G75*
G02*
X159350000Y-101650000I0J-400000D01*
G01*
X159350000Y-102450000D01*
G75*
G02*
X158950000Y-102850000I-400000J0D01*
G01*
G37*
G04 #@! TD.AperFunction*
D12*
X150740000Y-101690000D03*
D13*
X148200000Y-101690000D03*
X145660000Y-101690000D03*
X143120000Y-101690000D03*
X140580000Y-101690000D03*
X138040000Y-101690000D03*
X135500000Y-101690000D03*
X132960000Y-101690000D03*
X130420000Y-101690000D03*
X127880000Y-101690000D03*
X125340000Y-101690000D03*
X122800000Y-101690000D03*
X120260000Y-101690000D03*
X117720000Y-101690000D03*
X115180000Y-101690000D03*
X115180000Y-116930000D03*
X117720000Y-116930000D03*
X120260000Y-116930000D03*
X122800000Y-116930000D03*
X125340000Y-116930000D03*
X127880000Y-116930000D03*
X130420000Y-116930000D03*
X132960000Y-116930000D03*
X135500000Y-116930000D03*
X138040000Y-116930000D03*
X140580000Y-116930000D03*
X143120000Y-116930000D03*
X145660000Y-116930000D03*
X148200000Y-116930000D03*
X150740000Y-116930000D03*
D10*
X135500000Y-112010000D03*
X135500000Y-114550000D03*
X138030000Y-112010000D03*
X138030000Y-114550000D03*
X140580000Y-112010000D03*
X140580000Y-114550000D03*
D14*
X144810000Y-113350000D03*
X144390000Y-107540000D03*
X146010000Y-107020000D03*
X147600000Y-106460000D03*
X149150000Y-105890000D03*
X150680000Y-105360000D03*
X152110000Y-104840000D03*
X153470000Y-104270000D03*
X141210000Y-108870000D03*
X142710000Y-108080000D03*
X160710000Y-103810000D03*
X142290000Y-111760000D03*
X140030000Y-103680000D03*
X138165000Y-104355000D03*
X136230000Y-104960000D03*
X134270000Y-105540000D03*
X132345000Y-106155000D03*
X130385000Y-106735000D03*
X128489998Y-107379998D03*
X126640000Y-108110000D03*
X107150000Y-109290000D03*
X164180000Y-111000000D03*
X138910000Y-109490000D03*
X124790000Y-108780000D03*
X106110000Y-110290000D03*
X162820007Y-112310007D03*
X107150000Y-111290000D03*
X161660002Y-113520000D03*
X106120000Y-112350000D03*
X160329999Y-114850001D03*
D15*
X122800000Y-116930000D02*
X122800000Y-114550000D01*
X104030000Y-103000000D02*
X104030000Y-102825010D01*
X106805199Y-111925001D02*
X105474999Y-110594801D01*
X107454801Y-111925001D02*
X106805199Y-111925001D01*
X105474999Y-104444999D02*
X104030000Y-103000000D01*
X105474999Y-110594801D02*
X105474999Y-104444999D01*
X107589802Y-111790000D02*
X107454801Y-111925001D01*
X110740000Y-111790000D02*
X107589802Y-111790000D01*
X105474999Y-104444999D02*
X107155001Y-104444999D01*
X107155001Y-104444999D02*
X107880000Y-103720000D01*
X109130000Y-103720000D02*
X109980000Y-102870000D01*
X107880000Y-103720000D02*
X109130000Y-103720000D01*
X109980000Y-102870000D02*
X109980000Y-102825010D01*
X110740000Y-113790000D02*
X107680000Y-113790000D01*
X107680000Y-113790000D02*
X106460000Y-115010000D01*
X104750000Y-115010000D02*
X104020000Y-115740000D01*
X106460000Y-115010000D02*
X104750000Y-115010000D01*
X104020000Y-115740000D02*
X104020000Y-115754990D01*
X106460000Y-115010000D02*
X109180000Y-115010000D01*
X109180000Y-115010000D02*
X109570000Y-115010000D01*
X109570000Y-115010000D02*
X109980000Y-115420000D01*
X109980000Y-115420000D02*
X109980000Y-115754990D01*
X160710000Y-103810000D02*
X162940000Y-103810000D01*
X162940000Y-103810000D02*
X163410000Y-103340000D01*
X163410000Y-103340000D02*
X163410000Y-102835010D01*
X160710000Y-103810000D02*
X157700000Y-103810000D01*
X157700000Y-103810000D02*
X157450000Y-103560000D01*
X157450000Y-103560000D02*
X157450000Y-102835010D01*
X125340000Y-116930000D02*
X125340000Y-114540000D01*
X127880000Y-116930000D02*
X127880000Y-114550000D01*
X130420000Y-116930000D02*
X130420000Y-114550000D01*
X132960000Y-116930000D02*
X132960000Y-114550000D01*
X112620000Y-102930000D02*
X110750000Y-104800000D01*
X139340000Y-102930000D02*
X112620000Y-102930000D01*
X140580000Y-101690000D02*
X139340000Y-102930000D01*
X112279000Y-105290000D02*
X110740000Y-105290000D01*
X113889000Y-103680000D02*
X112279000Y-105290000D01*
X140030000Y-103680000D02*
X113889000Y-103680000D01*
X113080000Y-105790000D02*
X110740000Y-105790000D01*
X114550000Y-104320000D02*
X113080000Y-105790000D01*
X138130000Y-104320000D02*
X114550000Y-104320000D01*
X138165000Y-104355000D02*
X138130000Y-104320000D01*
X136170000Y-104900000D02*
X115450000Y-104900000D01*
X114060000Y-106290000D02*
X110740000Y-106290000D01*
X115450000Y-104900000D02*
X114060000Y-106290000D01*
X136230000Y-104960000D02*
X136170000Y-104900000D01*
X114910000Y-106790000D02*
X113080000Y-106790000D01*
X116190000Y-105510000D02*
X114910000Y-106790000D01*
X113080000Y-106790000D02*
X110740000Y-106790000D01*
X134240000Y-105510000D02*
X116190000Y-105510000D01*
X134270000Y-105540000D02*
X134240000Y-105510000D01*
X115940000Y-107290000D02*
X110740000Y-107290000D01*
X117140000Y-106090000D02*
X115940000Y-107290000D01*
X132280000Y-106090000D02*
X117140000Y-106090000D01*
X132345000Y-106155000D02*
X132280000Y-106090000D01*
X118070000Y-106690000D02*
X116970000Y-107790000D01*
X130340000Y-106690000D02*
X118070000Y-106690000D01*
X116970000Y-107790000D02*
X110740000Y-107790000D01*
X130385000Y-106735000D02*
X130340000Y-106690000D01*
X118020000Y-108290000D02*
X118930002Y-107379998D01*
X118930002Y-107379998D02*
X128489998Y-107379998D01*
X110740000Y-108290000D02*
X118020000Y-108290000D01*
X119750000Y-108110000D02*
X126640000Y-108110000D01*
X110740000Y-108790000D02*
X119070000Y-108790000D01*
X119070000Y-108790000D02*
X119750000Y-108110000D01*
X107150000Y-109290000D02*
X110740000Y-109290000D01*
X138930000Y-109510000D02*
X138910000Y-109490000D01*
X164180000Y-110210000D02*
X164180000Y-111000000D01*
X164170000Y-110200000D02*
X164180000Y-110210000D01*
X138910000Y-107430000D02*
X143400000Y-102940000D01*
X152140000Y-102940000D02*
X152410000Y-102670000D01*
X161450000Y-105130000D02*
X164170000Y-107850000D01*
X152410000Y-102670000D02*
X154500000Y-102670000D01*
X154500000Y-102670000D02*
X156960000Y-105130000D01*
X143400000Y-102940000D02*
X152140000Y-102940000D01*
X164170000Y-107850000D02*
X164170000Y-110200000D01*
X156960000Y-105130000D02*
X161450000Y-105130000D01*
X138910000Y-109490000D02*
X138910000Y-107430000D01*
X120490000Y-108780000D02*
X124790000Y-108780000D01*
X110740000Y-109790000D02*
X119480000Y-109790000D01*
X119480000Y-109790000D02*
X120490000Y-108780000D01*
X110740000Y-110290000D02*
X106110000Y-110290000D01*
X162820000Y-112310000D02*
X162820007Y-112310007D01*
X156860000Y-106350000D02*
X160650000Y-106350000D01*
X153970000Y-103460000D02*
X156860000Y-106350000D01*
X144200000Y-104130000D02*
X152130000Y-104130000D01*
X140110000Y-108220000D02*
X144200000Y-104130000D01*
X152800000Y-103460000D02*
X153970000Y-103460000D01*
X152130000Y-104130000D02*
X152800000Y-103460000D01*
X140110000Y-109970000D02*
X140110000Y-108220000D01*
X139790000Y-110290000D02*
X140110000Y-109970000D01*
X160650000Y-106350000D02*
X162820000Y-108520000D01*
X137920000Y-110290000D02*
X139790000Y-110290000D01*
X120100000Y-110790000D02*
X121100000Y-109790000D01*
X121100000Y-109790000D02*
X137420000Y-109790000D01*
X137420000Y-109790000D02*
X137920000Y-110290000D01*
X162820000Y-108520000D02*
X162820000Y-112310000D01*
X110740000Y-110790000D02*
X120100000Y-110790000D01*
X110740000Y-111290000D02*
X107150000Y-111290000D01*
X143940000Y-110710000D02*
X146750000Y-113520000D01*
X121870000Y-110710000D02*
X143940000Y-110710000D01*
X146750000Y-113520000D02*
X161660002Y-113520000D01*
X120290000Y-112290000D02*
X121870000Y-110710000D01*
X110740000Y-112290000D02*
X120290000Y-112290000D01*
X110740000Y-112790000D02*
X106560000Y-112790000D01*
X106560000Y-112790000D02*
X106120000Y-112350000D01*
X110740000Y-113290000D02*
X143190000Y-113290000D01*
X160329998Y-114850000D02*
X160329999Y-114850001D01*
X144750000Y-114850000D02*
X160329998Y-114850000D01*
X143190000Y-113290000D02*
X144750000Y-114850000D01*
X135500000Y-116930000D02*
X135500000Y-114540000D01*
X138040000Y-116930000D02*
X138040000Y-114560000D01*
X140580000Y-116930000D02*
X140580000Y-114550000D01*
D16*
X142783786Y-100653944D02*
X142625136Y-100719658D01*
X142538555Y-100868138D01*
X143120000Y-101449584D01*
X143701445Y-100868138D01*
X143614864Y-100719658D01*
X143416051Y-100641760D01*
X143405663Y-100639901D01*
X163665717Y-100639901D01*
X164011790Y-100673834D01*
X164331039Y-100770220D01*
X164610452Y-100918786D01*
X163662500Y-100920000D01*
X163580000Y-101002500D01*
X163580000Y-101880000D01*
X165157500Y-101880000D01*
X165240000Y-101797500D01*
X165240399Y-101660667D01*
X165255097Y-101687850D01*
X165353710Y-102006419D01*
X165390000Y-102351698D01*
X165390001Y-116285806D01*
X165356067Y-116631889D01*
X165259681Y-116951138D01*
X165240539Y-116987138D01*
X165240000Y-116802500D01*
X165157500Y-116720000D01*
X163580000Y-116720000D01*
X163580000Y-117597500D01*
X163662500Y-117680000D01*
X164678048Y-117681300D01*
X164635397Y-117716584D01*
X164342052Y-117875196D01*
X164023483Y-117973808D01*
X163678194Y-118010100D01*
X103714185Y-118010000D01*
X103368111Y-117976067D01*
X103048862Y-117879681D01*
X102754416Y-117723121D01*
X102690973Y-117671378D01*
X103767500Y-117670000D01*
X103850000Y-117587500D01*
X103850000Y-116710000D01*
X104190000Y-116710000D01*
X104190000Y-117587500D01*
X104272500Y-117670000D01*
X105520000Y-117671597D01*
X105584691Y-117665225D01*
X105646897Y-117646356D01*
X105704225Y-117615713D01*
X105754474Y-117574474D01*
X105795713Y-117524225D01*
X105826356Y-117466897D01*
X105845225Y-117404691D01*
X105851597Y-117340000D01*
X107748403Y-117340000D01*
X107754775Y-117404691D01*
X107773644Y-117466897D01*
X107804287Y-117524225D01*
X107845526Y-117574474D01*
X107895775Y-117615713D01*
X107953103Y-117646356D01*
X108015309Y-117665225D01*
X108080000Y-117671597D01*
X109727500Y-117670000D01*
X109810000Y-117587500D01*
X109810000Y-116710000D01*
X110150000Y-116710000D01*
X110150000Y-117587500D01*
X110232500Y-117670000D01*
X111880000Y-117671597D01*
X111944691Y-117665225D01*
X112006897Y-117646356D01*
X112064225Y-117615713D01*
X112114474Y-117574474D01*
X112155713Y-117524225D01*
X112186356Y-117466897D01*
X112205225Y-117404691D01*
X112211597Y-117340000D01*
X112210116Y-116832100D01*
X114186000Y-116832100D01*
X114186000Y-117027900D01*
X114224198Y-117219939D01*
X114299128Y-117400836D01*
X114407909Y-117563638D01*
X114546362Y-117702091D01*
X114709164Y-117810872D01*
X114890061Y-117885802D01*
X115082100Y-117924000D01*
X115277900Y-117924000D01*
X115469939Y-117885802D01*
X115650836Y-117810872D01*
X115813638Y-117702091D01*
X115952091Y-117563638D01*
X116060872Y-117400836D01*
X116135802Y-117219939D01*
X116174000Y-117027900D01*
X116174000Y-116832100D01*
X116726000Y-116832100D01*
X116726000Y-117027900D01*
X116764198Y-117219939D01*
X116839128Y-117400836D01*
X116947909Y-117563638D01*
X117086362Y-117702091D01*
X117249164Y-117810872D01*
X117430061Y-117885802D01*
X117622100Y-117924000D01*
X117817900Y-117924000D01*
X118009939Y-117885802D01*
X118190836Y-117810872D01*
X118353638Y-117702091D01*
X118492091Y-117563638D01*
X118600872Y-117400836D01*
X118675802Y-117219939D01*
X118714000Y-117027900D01*
X118714000Y-116832100D01*
X119266000Y-116832100D01*
X119266000Y-117027900D01*
X119304198Y-117219939D01*
X119379128Y-117400836D01*
X119487909Y-117563638D01*
X119626362Y-117702091D01*
X119789164Y-117810872D01*
X119970061Y-117885802D01*
X120162100Y-117924000D01*
X120357900Y-117924000D01*
X120549939Y-117885802D01*
X120730836Y-117810872D01*
X120893638Y-117702091D01*
X121032091Y-117563638D01*
X121140872Y-117400836D01*
X121215802Y-117219939D01*
X121254000Y-117027900D01*
X121254000Y-116832100D01*
X121215802Y-116640061D01*
X121140872Y-116459164D01*
X121032091Y-116296362D01*
X120893638Y-116157909D01*
X120730836Y-116049128D01*
X120549939Y-115974198D01*
X120357900Y-115936000D01*
X120162100Y-115936000D01*
X119970061Y-115974198D01*
X119789164Y-116049128D01*
X119626362Y-116157909D01*
X119487909Y-116296362D01*
X119379128Y-116459164D01*
X119304198Y-116640061D01*
X119266000Y-116832100D01*
X118714000Y-116832100D01*
X118675802Y-116640061D01*
X118600872Y-116459164D01*
X118492091Y-116296362D01*
X118353638Y-116157909D01*
X118190836Y-116049128D01*
X118009939Y-115974198D01*
X117817900Y-115936000D01*
X117622100Y-115936000D01*
X117430061Y-115974198D01*
X117249164Y-116049128D01*
X117086362Y-116157909D01*
X116947909Y-116296362D01*
X116839128Y-116459164D01*
X116764198Y-116640061D01*
X116726000Y-116832100D01*
X116174000Y-116832100D01*
X116135802Y-116640061D01*
X116060872Y-116459164D01*
X115952091Y-116296362D01*
X115813638Y-116157909D01*
X115650836Y-116049128D01*
X115469939Y-115974198D01*
X115277900Y-115936000D01*
X115082100Y-115936000D01*
X114890061Y-115974198D01*
X114709164Y-116049128D01*
X114546362Y-116157909D01*
X114407909Y-116296362D01*
X114299128Y-116459164D01*
X114224198Y-116640061D01*
X114186000Y-116832100D01*
X112210116Y-116832100D01*
X112210000Y-116792500D01*
X112127500Y-116710000D01*
X110150000Y-116710000D01*
X109810000Y-116710000D01*
X107832500Y-116710000D01*
X107750000Y-116792500D01*
X107748403Y-117340000D01*
X105851597Y-117340000D01*
X105850000Y-116792500D01*
X105767500Y-116710000D01*
X104190000Y-116710000D01*
X103850000Y-116710000D01*
X102272500Y-116710000D01*
X102190000Y-116792500D01*
X102189158Y-117081071D01*
X102124804Y-116962052D01*
X102026192Y-116643483D01*
X101989900Y-116298195D01*
X101989904Y-115740000D01*
X102188403Y-115740000D01*
X102190000Y-116287500D01*
X102272500Y-116370000D01*
X103850000Y-116370000D01*
X103850000Y-115492500D01*
X104190000Y-115492500D01*
X104190000Y-116370000D01*
X105767500Y-116370000D01*
X105850000Y-116287500D01*
X105851597Y-115740000D01*
X107748403Y-115740000D01*
X107750000Y-116287500D01*
X107832500Y-116370000D01*
X109810000Y-116370000D01*
X109810000Y-115492500D01*
X110150000Y-115492500D01*
X110150000Y-116370000D01*
X112127500Y-116370000D01*
X112210000Y-116287500D01*
X112211597Y-115740000D01*
X112205225Y-115675309D01*
X112186356Y-115613103D01*
X112155713Y-115555775D01*
X112114474Y-115505526D01*
X112064225Y-115464287D01*
X112006897Y-115433644D01*
X111944691Y-115414775D01*
X111880000Y-115408403D01*
X110232500Y-115410000D01*
X110150000Y-115492500D01*
X109810000Y-115492500D01*
X109727500Y-115410000D01*
X108080000Y-115408403D01*
X108015309Y-115414775D01*
X107953103Y-115433644D01*
X107895775Y-115464287D01*
X107845526Y-115505526D01*
X107804287Y-115555775D01*
X107773644Y-115613103D01*
X107754775Y-115675309D01*
X107748403Y-115740000D01*
X105851597Y-115740000D01*
X105845225Y-115675309D01*
X105826356Y-115613103D01*
X105795713Y-115555775D01*
X105754474Y-115505526D01*
X105704225Y-115464287D01*
X105646897Y-115433644D01*
X105584691Y-115414775D01*
X105520000Y-115408403D01*
X104272500Y-115410000D01*
X104190000Y-115492500D01*
X103850000Y-115492500D01*
X103767500Y-115410000D01*
X102520000Y-115408403D01*
X102455309Y-115414775D01*
X102393103Y-115433644D01*
X102335775Y-115464287D01*
X102285526Y-115505526D01*
X102244287Y-115555775D01*
X102213644Y-115613103D01*
X102194775Y-115675309D01*
X102188403Y-115740000D01*
X101989904Y-115740000D01*
X101989916Y-113942500D01*
X109110000Y-113942500D01*
X109114830Y-114004969D01*
X109133753Y-114067158D01*
X109164444Y-114124461D01*
X109205726Y-114174674D01*
X109256010Y-114215870D01*
X109313365Y-114246464D01*
X109375586Y-114265281D01*
X109440283Y-114271597D01*
X110487500Y-114270000D01*
X110570000Y-114187500D01*
X110570000Y-113860000D01*
X110910000Y-113860000D01*
X110910000Y-114187500D01*
X110992500Y-114270000D01*
X112039717Y-114271597D01*
X112104414Y-114265281D01*
X112166635Y-114246464D01*
X112223990Y-114215870D01*
X112274274Y-114174674D01*
X112315556Y-114124461D01*
X112346247Y-114067158D01*
X112365170Y-114004969D01*
X112370000Y-113942500D01*
X112287500Y-113860000D01*
X110910000Y-113860000D01*
X110570000Y-113860000D01*
X109192500Y-113860000D01*
X109110000Y-113942500D01*
X101989916Y-113942500D01*
X101989943Y-110231890D01*
X105520000Y-110231890D01*
X105520000Y-110348110D01*
X105542673Y-110462097D01*
X105587149Y-110569470D01*
X105651717Y-110666103D01*
X105733897Y-110748283D01*
X105830530Y-110812851D01*
X105937903Y-110857327D01*
X106051890Y-110880000D01*
X106168110Y-110880000D01*
X106282097Y-110857327D01*
X106389470Y-110812851D01*
X106486103Y-110748283D01*
X106568283Y-110666103D01*
X106575702Y-110655000D01*
X109198839Y-110655000D01*
X109198839Y-110925000D01*
X107615702Y-110925000D01*
X107608283Y-110913897D01*
X107526103Y-110831717D01*
X107429470Y-110767149D01*
X107322097Y-110722673D01*
X107208110Y-110700000D01*
X107091890Y-110700000D01*
X106977903Y-110722673D01*
X106870530Y-110767149D01*
X106773897Y-110831717D01*
X106691717Y-110913897D01*
X106627149Y-111010530D01*
X106582673Y-111117903D01*
X106560000Y-111231890D01*
X106560000Y-111348110D01*
X106582673Y-111462097D01*
X106627149Y-111569470D01*
X106691717Y-111666103D01*
X106773897Y-111748283D01*
X106870530Y-111812851D01*
X106977903Y-111857327D01*
X107091890Y-111880000D01*
X107208110Y-111880000D01*
X107322097Y-111857327D01*
X107429470Y-111812851D01*
X107526103Y-111748283D01*
X107608283Y-111666103D01*
X107615702Y-111655000D01*
X109127500Y-111655000D01*
X109192500Y-111720000D01*
X110570000Y-111720000D01*
X110570000Y-111681161D01*
X110910000Y-111681161D01*
X110910000Y-111720000D01*
X112287500Y-111720000D01*
X112370000Y-111637500D01*
X112365170Y-111575031D01*
X112346247Y-111512842D01*
X112315556Y-111455539D01*
X112281161Y-111413703D01*
X112281161Y-111155000D01*
X120082071Y-111155000D01*
X120100000Y-111156766D01*
X120117929Y-111155000D01*
X120117931Y-111155000D01*
X120171552Y-111149719D01*
X120240355Y-111128848D01*
X120303764Y-111094955D01*
X120359343Y-111049343D01*
X120370779Y-111035408D01*
X121251188Y-110155000D01*
X137268813Y-110155000D01*
X137458812Y-110345000D01*
X121887928Y-110345000D01*
X121869999Y-110343234D01*
X121852070Y-110345000D01*
X121852069Y-110345000D01*
X121798448Y-110350281D01*
X121729645Y-110371152D01*
X121729643Y-110371153D01*
X121666234Y-110405046D01*
X121642125Y-110424833D01*
X121610657Y-110450657D01*
X121599225Y-110464587D01*
X120138813Y-111925000D01*
X112352500Y-111925000D01*
X112287500Y-111860000D01*
X110910000Y-111860000D01*
X110910000Y-111898839D01*
X110570000Y-111898839D01*
X110570000Y-111860000D01*
X109192500Y-111860000D01*
X109110000Y-111942500D01*
X109114830Y-112004969D01*
X109133753Y-112067158D01*
X109164444Y-112124461D01*
X109198839Y-112166297D01*
X109198839Y-112425000D01*
X106711188Y-112425000D01*
X106707395Y-112421207D01*
X106710000Y-112408110D01*
X106710000Y-112291890D01*
X106687327Y-112177903D01*
X106642851Y-112070530D01*
X106578283Y-111973897D01*
X106496103Y-111891717D01*
X106399470Y-111827149D01*
X106292097Y-111782673D01*
X106178110Y-111760000D01*
X106061890Y-111760000D01*
X105947903Y-111782673D01*
X105840530Y-111827149D01*
X105743897Y-111891717D01*
X105661717Y-111973897D01*
X105597149Y-112070530D01*
X105552673Y-112177903D01*
X105530000Y-112291890D01*
X105530000Y-112408110D01*
X105552673Y-112522097D01*
X105597149Y-112629470D01*
X105661717Y-112726103D01*
X105743897Y-112808283D01*
X105840530Y-112872851D01*
X105947903Y-112917327D01*
X106061890Y-112940000D01*
X106178110Y-112940000D01*
X106191207Y-112937395D01*
X106289225Y-113035413D01*
X106300657Y-113049343D01*
X106356236Y-113094955D01*
X106419645Y-113128848D01*
X106488448Y-113149719D01*
X106542069Y-113155000D01*
X106542071Y-113155000D01*
X106560000Y-113156766D01*
X106577929Y-113155000D01*
X109198839Y-113155000D01*
X109198839Y-113413703D01*
X109164444Y-113455539D01*
X109133753Y-113512842D01*
X109114830Y-113575031D01*
X109110000Y-113637500D01*
X109192500Y-113720000D01*
X110570000Y-113720000D01*
X110570000Y-113681161D01*
X110910000Y-113681161D01*
X110910000Y-113720000D01*
X112287500Y-113720000D01*
X112352500Y-113655000D01*
X122373727Y-113655000D01*
X122331059Y-113672674D01*
X122168912Y-113781017D01*
X122031017Y-113918912D01*
X121922674Y-114081059D01*
X121848045Y-114261228D01*
X121810000Y-114452494D01*
X121810000Y-114647506D01*
X121848045Y-114838772D01*
X121922674Y-115018941D01*
X122031017Y-115181088D01*
X122168912Y-115318983D01*
X122331059Y-115427326D01*
X122435001Y-115470380D01*
X122435000Y-116005289D01*
X122329164Y-116049128D01*
X122166362Y-116157909D01*
X122027909Y-116296362D01*
X121919128Y-116459164D01*
X121844198Y-116640061D01*
X121806000Y-116832100D01*
X121806000Y-117027900D01*
X121844198Y-117219939D01*
X121919128Y-117400836D01*
X122027909Y-117563638D01*
X122166362Y-117702091D01*
X122329164Y-117810872D01*
X122510061Y-117885802D01*
X122702100Y-117924000D01*
X122897900Y-117924000D01*
X123089939Y-117885802D01*
X123270836Y-117810872D01*
X123433638Y-117702091D01*
X123572091Y-117563638D01*
X123680872Y-117400836D01*
X123755802Y-117219939D01*
X123794000Y-117027900D01*
X123794000Y-116832100D01*
X123755802Y-116640061D01*
X123680872Y-116459164D01*
X123572091Y-116296362D01*
X123433638Y-116157909D01*
X123270836Y-116049128D01*
X123165000Y-116005289D01*
X123165000Y-115470380D01*
X123268941Y-115427326D01*
X123431088Y-115318983D01*
X123568983Y-115181088D01*
X123677326Y-115018941D01*
X123751955Y-114838772D01*
X123790000Y-114647506D01*
X123790000Y-114452494D01*
X123751955Y-114261228D01*
X123677326Y-114081059D01*
X123568983Y-113918912D01*
X123431088Y-113781017D01*
X123268941Y-113672674D01*
X123226273Y-113655000D01*
X124913727Y-113655000D01*
X124871059Y-113672674D01*
X124708912Y-113781017D01*
X124571017Y-113918912D01*
X124462674Y-114081059D01*
X124388045Y-114261228D01*
X124350000Y-114452494D01*
X124350000Y-114647506D01*
X124388045Y-114838772D01*
X124462674Y-115018941D01*
X124571017Y-115181088D01*
X124708912Y-115318983D01*
X124871059Y-115427326D01*
X124975001Y-115470380D01*
X124975000Y-116005289D01*
X124869164Y-116049128D01*
X124706362Y-116157909D01*
X124567909Y-116296362D01*
X124459128Y-116459164D01*
X124384198Y-116640061D01*
X124346000Y-116832100D01*
X124346000Y-117027900D01*
X124384198Y-117219939D01*
X124459128Y-117400836D01*
X124567909Y-117563638D01*
X124706362Y-117702091D01*
X124869164Y-117810872D01*
X125050061Y-117885802D01*
X125242100Y-117924000D01*
X125437900Y-117924000D01*
X125629939Y-117885802D01*
X125810836Y-117810872D01*
X125973638Y-117702091D01*
X126112091Y-117563638D01*
X126220872Y-117400836D01*
X126295802Y-117219939D01*
X126334000Y-117027900D01*
X126334000Y-116832100D01*
X126295802Y-116640061D01*
X126220872Y-116459164D01*
X126112091Y-116296362D01*
X125973638Y-116157909D01*
X125810836Y-116049128D01*
X125705000Y-116005289D01*
X125705000Y-115470380D01*
X125808941Y-115427326D01*
X125971088Y-115318983D01*
X126108983Y-115181088D01*
X126217326Y-115018941D01*
X126291955Y-114838772D01*
X126330000Y-114647506D01*
X126330000Y-114452494D01*
X126291955Y-114261228D01*
X126217326Y-114081059D01*
X126108983Y-113918912D01*
X125971088Y-113781017D01*
X125808941Y-113672674D01*
X125766273Y-113655000D01*
X127453727Y-113655000D01*
X127411059Y-113672674D01*
X127248912Y-113781017D01*
X127111017Y-113918912D01*
X127002674Y-114081059D01*
X126928045Y-114261228D01*
X126890000Y-114452494D01*
X126890000Y-114647506D01*
X126928045Y-114838772D01*
X127002674Y-115018941D01*
X127111017Y-115181088D01*
X127248912Y-115318983D01*
X127411059Y-115427326D01*
X127515001Y-115470380D01*
X127515000Y-116005289D01*
X127409164Y-116049128D01*
X127246362Y-116157909D01*
X127107909Y-116296362D01*
X126999128Y-116459164D01*
X126924198Y-116640061D01*
X126886000Y-116832100D01*
X126886000Y-117027900D01*
X126924198Y-117219939D01*
X126999128Y-117400836D01*
X127107909Y-117563638D01*
X127246362Y-117702091D01*
X127409164Y-117810872D01*
X127590061Y-117885802D01*
X127782100Y-117924000D01*
X127977900Y-117924000D01*
X128169939Y-117885802D01*
X128350836Y-117810872D01*
X128513638Y-117702091D01*
X128652091Y-117563638D01*
X128760872Y-117400836D01*
X128835802Y-117219939D01*
X128874000Y-117027900D01*
X128874000Y-116832100D01*
X128835802Y-116640061D01*
X128760872Y-116459164D01*
X128652091Y-116296362D01*
X128513638Y-116157909D01*
X128350836Y-116049128D01*
X128245000Y-116005289D01*
X128245000Y-115470380D01*
X128348941Y-115427326D01*
X128511088Y-115318983D01*
X128648983Y-115181088D01*
X128757326Y-115018941D01*
X128831955Y-114838772D01*
X128870000Y-114647506D01*
X128870000Y-114452494D01*
X128831955Y-114261228D01*
X128757326Y-114081059D01*
X128648983Y-113918912D01*
X128511088Y-113781017D01*
X128348941Y-113672674D01*
X128306273Y-113655000D01*
X129993727Y-113655000D01*
X129951059Y-113672674D01*
X129788912Y-113781017D01*
X129651017Y-113918912D01*
X129542674Y-114081059D01*
X129468045Y-114261228D01*
X129430000Y-114452494D01*
X129430000Y-114647506D01*
X129468045Y-114838772D01*
X129542674Y-115018941D01*
X129651017Y-115181088D01*
X129788912Y-115318983D01*
X129951059Y-115427326D01*
X130055001Y-115470380D01*
X130055000Y-116005289D01*
X129949164Y-116049128D01*
X129786362Y-116157909D01*
X129647909Y-116296362D01*
X129539128Y-116459164D01*
X129464198Y-116640061D01*
X129426000Y-116832100D01*
X129426000Y-117027900D01*
X129464198Y-117219939D01*
X129539128Y-117400836D01*
X129647909Y-117563638D01*
X129786362Y-117702091D01*
X129949164Y-117810872D01*
X130130061Y-117885802D01*
X130322100Y-117924000D01*
X130517900Y-117924000D01*
X130709939Y-117885802D01*
X130890836Y-117810872D01*
X131053638Y-117702091D01*
X131192091Y-117563638D01*
X131300872Y-117400836D01*
X131375802Y-117219939D01*
X131414000Y-117027900D01*
X131414000Y-116832100D01*
X131375802Y-116640061D01*
X131300872Y-116459164D01*
X131192091Y-116296362D01*
X131053638Y-116157909D01*
X130890836Y-116049128D01*
X130785000Y-116005289D01*
X130785000Y-115470380D01*
X130888941Y-115427326D01*
X131051088Y-115318983D01*
X131188983Y-115181088D01*
X131297326Y-115018941D01*
X131371955Y-114838772D01*
X131410000Y-114647506D01*
X131410000Y-114452494D01*
X131371955Y-114261228D01*
X131297326Y-114081059D01*
X131188983Y-113918912D01*
X131051088Y-113781017D01*
X130888941Y-113672674D01*
X130846273Y-113655000D01*
X132533727Y-113655000D01*
X132491059Y-113672674D01*
X132328912Y-113781017D01*
X132191017Y-113918912D01*
X132082674Y-114081059D01*
X132008045Y-114261228D01*
X131970000Y-114452494D01*
X131970000Y-114647506D01*
X132008045Y-114838772D01*
X132082674Y-115018941D01*
X132191017Y-115181088D01*
X132328912Y-115318983D01*
X132491059Y-115427326D01*
X132595001Y-115470380D01*
X132595000Y-116005289D01*
X132489164Y-116049128D01*
X132326362Y-116157909D01*
X132187909Y-116296362D01*
X132079128Y-116459164D01*
X132004198Y-116640061D01*
X131966000Y-116832100D01*
X131966000Y-117027900D01*
X132004198Y-117219939D01*
X132079128Y-117400836D01*
X132187909Y-117563638D01*
X132326362Y-117702091D01*
X132489164Y-117810872D01*
X132670061Y-117885802D01*
X132862100Y-117924000D01*
X133057900Y-117924000D01*
X133249939Y-117885802D01*
X133430836Y-117810872D01*
X133593638Y-117702091D01*
X133732091Y-117563638D01*
X133840872Y-117400836D01*
X133915802Y-117219939D01*
X133954000Y-117027900D01*
X133954000Y-116832100D01*
X133915802Y-116640061D01*
X133840872Y-116459164D01*
X133732091Y-116296362D01*
X133593638Y-116157909D01*
X133430836Y-116049128D01*
X133325000Y-116005289D01*
X133325000Y-115470380D01*
X133428941Y-115427326D01*
X133591088Y-115318983D01*
X133728983Y-115181088D01*
X133837326Y-115018941D01*
X133911955Y-114838772D01*
X133950000Y-114647506D01*
X133950000Y-114452494D01*
X133911955Y-114261228D01*
X133837326Y-114081059D01*
X133728983Y-113918912D01*
X133591088Y-113781017D01*
X133428941Y-113672674D01*
X133386273Y-113655000D01*
X135073727Y-113655000D01*
X135031059Y-113672674D01*
X134868912Y-113781017D01*
X134731017Y-113918912D01*
X134622674Y-114081059D01*
X134548045Y-114261228D01*
X134510000Y-114452494D01*
X134510000Y-114647506D01*
X134548045Y-114838772D01*
X134622674Y-115018941D01*
X134731017Y-115181088D01*
X134868912Y-115318983D01*
X135031059Y-115427326D01*
X135135001Y-115470380D01*
X135135000Y-116005289D01*
X135029164Y-116049128D01*
X134866362Y-116157909D01*
X134727909Y-116296362D01*
X134619128Y-116459164D01*
X134544198Y-116640061D01*
X134506000Y-116832100D01*
X134506000Y-117027900D01*
X134544198Y-117219939D01*
X134619128Y-117400836D01*
X134727909Y-117563638D01*
X134866362Y-117702091D01*
X135029164Y-117810872D01*
X135210061Y-117885802D01*
X135402100Y-117924000D01*
X135597900Y-117924000D01*
X135789939Y-117885802D01*
X135970836Y-117810872D01*
X136133638Y-117702091D01*
X136272091Y-117563638D01*
X136380872Y-117400836D01*
X136455802Y-117219939D01*
X136494000Y-117027900D01*
X136494000Y-116832100D01*
X136455802Y-116640061D01*
X136380872Y-116459164D01*
X136272091Y-116296362D01*
X136133638Y-116157909D01*
X135970836Y-116049128D01*
X135865000Y-116005289D01*
X135865000Y-115470380D01*
X135968941Y-115427326D01*
X136131088Y-115318983D01*
X136268983Y-115181088D01*
X136377326Y-115018941D01*
X136451955Y-114838772D01*
X136490000Y-114647506D01*
X136490000Y-114452494D01*
X136451955Y-114261228D01*
X136377326Y-114081059D01*
X136268983Y-113918912D01*
X136131088Y-113781017D01*
X135968941Y-113672674D01*
X135926273Y-113655000D01*
X137603727Y-113655000D01*
X137561059Y-113672674D01*
X137398912Y-113781017D01*
X137261017Y-113918912D01*
X137152674Y-114081059D01*
X137078045Y-114261228D01*
X137040000Y-114452494D01*
X137040000Y-114647506D01*
X137078045Y-114838772D01*
X137152674Y-115018941D01*
X137261017Y-115181088D01*
X137398912Y-115318983D01*
X137561059Y-115427326D01*
X137675001Y-115474523D01*
X137675000Y-116005289D01*
X137569164Y-116049128D01*
X137406362Y-116157909D01*
X137267909Y-116296362D01*
X137159128Y-116459164D01*
X137084198Y-116640061D01*
X137046000Y-116832100D01*
X137046000Y-117027900D01*
X137084198Y-117219939D01*
X137159128Y-117400836D01*
X137267909Y-117563638D01*
X137406362Y-117702091D01*
X137569164Y-117810872D01*
X137750061Y-117885802D01*
X137942100Y-117924000D01*
X138137900Y-117924000D01*
X138329939Y-117885802D01*
X138510836Y-117810872D01*
X138673638Y-117702091D01*
X138812091Y-117563638D01*
X138920872Y-117400836D01*
X138995802Y-117219939D01*
X139034000Y-117027900D01*
X139034000Y-116832100D01*
X138995802Y-116640061D01*
X138920872Y-116459164D01*
X138812091Y-116296362D01*
X138673638Y-116157909D01*
X138510836Y-116049128D01*
X138405000Y-116005289D01*
X138405000Y-115466238D01*
X138498941Y-115427326D01*
X138661088Y-115318983D01*
X138798983Y-115181088D01*
X138907326Y-115018941D01*
X138981955Y-114838772D01*
X139020000Y-114647506D01*
X139020000Y-114452494D01*
X138981955Y-114261228D01*
X138907326Y-114081059D01*
X138798983Y-113918912D01*
X138661088Y-113781017D01*
X138498941Y-113672674D01*
X138456273Y-113655000D01*
X140153727Y-113655000D01*
X140111059Y-113672674D01*
X139948912Y-113781017D01*
X139811017Y-113918912D01*
X139702674Y-114081059D01*
X139628045Y-114261228D01*
X139590000Y-114452494D01*
X139590000Y-114647506D01*
X139628045Y-114838772D01*
X139702674Y-115018941D01*
X139811017Y-115181088D01*
X139948912Y-115318983D01*
X140111059Y-115427326D01*
X140215001Y-115470380D01*
X140215000Y-116005289D01*
X140109164Y-116049128D01*
X139946362Y-116157909D01*
X139807909Y-116296362D01*
X139699128Y-116459164D01*
X139624198Y-116640061D01*
X139586000Y-116832100D01*
X139586000Y-117027900D01*
X139624198Y-117219939D01*
X139699128Y-117400836D01*
X139807909Y-117563638D01*
X139946362Y-117702091D01*
X140109164Y-117810872D01*
X140290061Y-117885802D01*
X140482100Y-117924000D01*
X140677900Y-117924000D01*
X140869939Y-117885802D01*
X141050836Y-117810872D01*
X141213638Y-117702091D01*
X141352091Y-117563638D01*
X141460872Y-117400836D01*
X141535802Y-117219939D01*
X141574000Y-117027900D01*
X141574000Y-116832100D01*
X142126000Y-116832100D01*
X142126000Y-117027900D01*
X142164198Y-117219939D01*
X142239128Y-117400836D01*
X142347909Y-117563638D01*
X142486362Y-117702091D01*
X142649164Y-117810872D01*
X142830061Y-117885802D01*
X143022100Y-117924000D01*
X143217900Y-117924000D01*
X143409939Y-117885802D01*
X143590836Y-117810872D01*
X143753638Y-117702091D01*
X143892091Y-117563638D01*
X144000872Y-117400836D01*
X144075802Y-117219939D01*
X144114000Y-117027900D01*
X144114000Y-116832100D01*
X144666000Y-116832100D01*
X144666000Y-117027900D01*
X144704198Y-117219939D01*
X144779128Y-117400836D01*
X144887909Y-117563638D01*
X145026362Y-117702091D01*
X145189164Y-117810872D01*
X145370061Y-117885802D01*
X145562100Y-117924000D01*
X145757900Y-117924000D01*
X145949939Y-117885802D01*
X146130836Y-117810872D01*
X146293638Y-117702091D01*
X146432091Y-117563638D01*
X146540872Y-117400836D01*
X146615802Y-117219939D01*
X146654000Y-117027900D01*
X146654000Y-116832100D01*
X147206000Y-116832100D01*
X147206000Y-117027900D01*
X147244198Y-117219939D01*
X147319128Y-117400836D01*
X147427909Y-117563638D01*
X147566362Y-117702091D01*
X147729164Y-117810872D01*
X147910061Y-117885802D01*
X148102100Y-117924000D01*
X148297900Y-117924000D01*
X148489939Y-117885802D01*
X148670836Y-117810872D01*
X148833638Y-117702091D01*
X148972091Y-117563638D01*
X149080872Y-117400836D01*
X149155802Y-117219939D01*
X149194000Y-117027900D01*
X149194000Y-116832100D01*
X149746000Y-116832100D01*
X149746000Y-117027900D01*
X149784198Y-117219939D01*
X149859128Y-117400836D01*
X149967909Y-117563638D01*
X150106362Y-117702091D01*
X150269164Y-117810872D01*
X150450061Y-117885802D01*
X150642100Y-117924000D01*
X150837900Y-117924000D01*
X151029939Y-117885802D01*
X151210836Y-117810872D01*
X151373638Y-117702091D01*
X151512091Y-117563638D01*
X151620872Y-117400836D01*
X151641928Y-117350000D01*
X155218403Y-117350000D01*
X155224775Y-117414691D01*
X155243644Y-117476897D01*
X155274287Y-117534225D01*
X155315526Y-117584474D01*
X155365775Y-117625713D01*
X155423103Y-117656356D01*
X155485309Y-117675225D01*
X155550000Y-117681597D01*
X157197500Y-117680000D01*
X157280000Y-117597500D01*
X157280000Y-116720000D01*
X157620000Y-116720000D01*
X157620000Y-117597500D01*
X157702500Y-117680000D01*
X159350000Y-117681597D01*
X159414691Y-117675225D01*
X159476897Y-117656356D01*
X159534225Y-117625713D01*
X159584474Y-117584474D01*
X159625713Y-117534225D01*
X159656356Y-117476897D01*
X159675225Y-117414691D01*
X159681597Y-117350000D01*
X161578403Y-117350000D01*
X161584775Y-117414691D01*
X161603644Y-117476897D01*
X161634287Y-117534225D01*
X161675526Y-117584474D01*
X161725775Y-117625713D01*
X161783103Y-117656356D01*
X161845309Y-117675225D01*
X161910000Y-117681597D01*
X163157500Y-117680000D01*
X163240000Y-117597500D01*
X163240000Y-116720000D01*
X161662500Y-116720000D01*
X161580000Y-116802500D01*
X161578403Y-117350000D01*
X159681597Y-117350000D01*
X159680000Y-116802500D01*
X159597500Y-116720000D01*
X157620000Y-116720000D01*
X157280000Y-116720000D01*
X155302500Y-116720000D01*
X155220000Y-116802500D01*
X155218403Y-117350000D01*
X151641928Y-117350000D01*
X151695802Y-117219939D01*
X151734000Y-117027900D01*
X151734000Y-116832100D01*
X151695802Y-116640061D01*
X151620872Y-116459164D01*
X151512091Y-116296362D01*
X151373638Y-116157909D01*
X151210836Y-116049128D01*
X151029939Y-115974198D01*
X150837900Y-115936000D01*
X150642100Y-115936000D01*
X150450061Y-115974198D01*
X150269164Y-116049128D01*
X150106362Y-116157909D01*
X149967909Y-116296362D01*
X149859128Y-116459164D01*
X149784198Y-116640061D01*
X149746000Y-116832100D01*
X149194000Y-116832100D01*
X149155802Y-116640061D01*
X149080872Y-116459164D01*
X148972091Y-116296362D01*
X148833638Y-116157909D01*
X148670836Y-116049128D01*
X148489939Y-115974198D01*
X148297900Y-115936000D01*
X148102100Y-115936000D01*
X147910061Y-115974198D01*
X147729164Y-116049128D01*
X147566362Y-116157909D01*
X147427909Y-116296362D01*
X147319128Y-116459164D01*
X147244198Y-116640061D01*
X147206000Y-116832100D01*
X146654000Y-116832100D01*
X146615802Y-116640061D01*
X146540872Y-116459164D01*
X146432091Y-116296362D01*
X146293638Y-116157909D01*
X146130836Y-116049128D01*
X145949939Y-115974198D01*
X145757900Y-115936000D01*
X145562100Y-115936000D01*
X145370061Y-115974198D01*
X145189164Y-116049128D01*
X145026362Y-116157909D01*
X144887909Y-116296362D01*
X144779128Y-116459164D01*
X144704198Y-116640061D01*
X144666000Y-116832100D01*
X144114000Y-116832100D01*
X144075802Y-116640061D01*
X144000872Y-116459164D01*
X143892091Y-116296362D01*
X143753638Y-116157909D01*
X143590836Y-116049128D01*
X143409939Y-115974198D01*
X143217900Y-115936000D01*
X143022100Y-115936000D01*
X142830061Y-115974198D01*
X142649164Y-116049128D01*
X142486362Y-116157909D01*
X142347909Y-116296362D01*
X142239128Y-116459164D01*
X142164198Y-116640061D01*
X142126000Y-116832100D01*
X141574000Y-116832100D01*
X141535802Y-116640061D01*
X141460872Y-116459164D01*
X141352091Y-116296362D01*
X141213638Y-116157909D01*
X141050836Y-116049128D01*
X140945000Y-116005289D01*
X140945000Y-115750000D01*
X155218403Y-115750000D01*
X155220000Y-116297500D01*
X155302500Y-116380000D01*
X157280000Y-116380000D01*
X157280000Y-115502500D01*
X157620000Y-115502500D01*
X157620000Y-116380000D01*
X159597500Y-116380000D01*
X159680000Y-116297500D01*
X159681597Y-115750000D01*
X161578403Y-115750000D01*
X161580000Y-116297500D01*
X161662500Y-116380000D01*
X163240000Y-116380000D01*
X163240000Y-115502500D01*
X163580000Y-115502500D01*
X163580000Y-116380000D01*
X165157500Y-116380000D01*
X165240000Y-116297500D01*
X165241597Y-115750000D01*
X165235225Y-115685309D01*
X165216356Y-115623103D01*
X165185713Y-115565775D01*
X165144474Y-115515526D01*
X165094225Y-115474287D01*
X165036897Y-115443644D01*
X164974691Y-115424775D01*
X164910000Y-115418403D01*
X163662500Y-115420000D01*
X163580000Y-115502500D01*
X163240000Y-115502500D01*
X163157500Y-115420000D01*
X161910000Y-115418403D01*
X161845309Y-115424775D01*
X161783103Y-115443644D01*
X161725775Y-115474287D01*
X161675526Y-115515526D01*
X161634287Y-115565775D01*
X161603644Y-115623103D01*
X161584775Y-115685309D01*
X161578403Y-115750000D01*
X159681597Y-115750000D01*
X159675225Y-115685309D01*
X159656356Y-115623103D01*
X159625713Y-115565775D01*
X159584474Y-115515526D01*
X159534225Y-115474287D01*
X159476897Y-115443644D01*
X159414691Y-115424775D01*
X159350000Y-115418403D01*
X157702500Y-115420000D01*
X157620000Y-115502500D01*
X157280000Y-115502500D01*
X157197500Y-115420000D01*
X155550000Y-115418403D01*
X155485309Y-115424775D01*
X155423103Y-115443644D01*
X155365775Y-115474287D01*
X155315526Y-115515526D01*
X155274287Y-115565775D01*
X155243644Y-115623103D01*
X155224775Y-115685309D01*
X155218403Y-115750000D01*
X140945000Y-115750000D01*
X140945000Y-115470380D01*
X141048941Y-115427326D01*
X141211088Y-115318983D01*
X141348983Y-115181088D01*
X141457326Y-115018941D01*
X141531955Y-114838772D01*
X141570000Y-114647506D01*
X141570000Y-114452494D01*
X141531955Y-114261228D01*
X141457326Y-114081059D01*
X141348983Y-113918912D01*
X141211088Y-113781017D01*
X141048941Y-113672674D01*
X141006273Y-113655000D01*
X143038813Y-113655000D01*
X144479221Y-115095408D01*
X144490657Y-115109343D01*
X144546236Y-115154955D01*
X144609645Y-115188848D01*
X144678448Y-115209719D01*
X144732069Y-115215000D01*
X144732070Y-115215000D01*
X144749999Y-115216766D01*
X144767928Y-115215000D01*
X159864297Y-115215000D01*
X159871716Y-115226104D01*
X159953896Y-115308284D01*
X160050529Y-115372852D01*
X160157902Y-115417328D01*
X160271889Y-115440001D01*
X160388109Y-115440001D01*
X160502096Y-115417328D01*
X160609469Y-115372852D01*
X160706102Y-115308284D01*
X160788282Y-115226104D01*
X160852850Y-115129471D01*
X160897326Y-115022098D01*
X160919999Y-114908111D01*
X160919999Y-114791891D01*
X160897326Y-114677904D01*
X160852850Y-114570531D01*
X160788282Y-114473898D01*
X160706102Y-114391718D01*
X160609469Y-114327150D01*
X160502096Y-114282674D01*
X160388109Y-114260001D01*
X160271889Y-114260001D01*
X160157902Y-114282674D01*
X160050529Y-114327150D01*
X159953896Y-114391718D01*
X159871716Y-114473898D01*
X159864298Y-114485000D01*
X144901187Y-114485000D01*
X143460779Y-113044592D01*
X143449343Y-113030657D01*
X143393764Y-112985045D01*
X143330355Y-112951152D01*
X143261552Y-112930281D01*
X143207931Y-112925000D01*
X143207929Y-112925000D01*
X143190000Y-112923234D01*
X143172071Y-112925000D01*
X141102735Y-112925000D01*
X141158562Y-112828978D01*
X140580000Y-112250416D01*
X140001438Y-112828978D01*
X140057265Y-112925000D01*
X138552735Y-112925000D01*
X138608562Y-112828978D01*
X138030000Y-112250416D01*
X137451438Y-112828978D01*
X137507265Y-112925000D01*
X136022735Y-112925000D01*
X136078562Y-112828978D01*
X135500000Y-112250416D01*
X134921438Y-112828978D01*
X134977265Y-112925000D01*
X133482735Y-112925000D01*
X133538562Y-112828978D01*
X132960000Y-112250416D01*
X132381438Y-112828978D01*
X132437265Y-112925000D01*
X130942735Y-112925000D01*
X130998562Y-112828978D01*
X130420000Y-112250416D01*
X129841438Y-112828978D01*
X129897265Y-112925000D01*
X128402735Y-112925000D01*
X128458562Y-112828978D01*
X127880000Y-112250416D01*
X127301438Y-112828978D01*
X127357265Y-112925000D01*
X125862735Y-112925000D01*
X125918562Y-112828978D01*
X125340000Y-112250416D01*
X124761438Y-112828978D01*
X124817265Y-112925000D01*
X123322735Y-112925000D01*
X123378562Y-112828978D01*
X122800000Y-112250416D01*
X122221438Y-112828978D01*
X122277265Y-112925000D01*
X112281161Y-112925000D01*
X112281161Y-112655000D01*
X120272071Y-112655000D01*
X120290000Y-112656766D01*
X120307929Y-112655000D01*
X120307931Y-112655000D01*
X120361552Y-112649719D01*
X120430355Y-112628848D01*
X120493764Y-112594955D01*
X120549343Y-112549343D01*
X120560779Y-112535408D01*
X121171097Y-111925090D01*
X121718100Y-111925090D01*
X121722324Y-112137790D01*
X121767962Y-112345579D01*
X121832949Y-112502472D01*
X121981022Y-112588562D01*
X122559584Y-112010000D01*
X123040416Y-112010000D01*
X123618978Y-112588562D01*
X123767051Y-112502472D01*
X123844546Y-112304347D01*
X123881900Y-112094910D01*
X123878528Y-111925090D01*
X124258100Y-111925090D01*
X124262324Y-112137790D01*
X124307962Y-112345579D01*
X124372949Y-112502472D01*
X124521022Y-112588562D01*
X125099584Y-112010000D01*
X125580416Y-112010000D01*
X126158978Y-112588562D01*
X126307051Y-112502472D01*
X126384546Y-112304347D01*
X126421900Y-112094910D01*
X126418528Y-111925090D01*
X126798100Y-111925090D01*
X126802324Y-112137790D01*
X126847962Y-112345579D01*
X126912949Y-112502472D01*
X127061022Y-112588562D01*
X127639584Y-112010000D01*
X128120416Y-112010000D01*
X128698978Y-112588562D01*
X128847051Y-112502472D01*
X128924546Y-112304347D01*
X128961900Y-112094910D01*
X128958528Y-111925090D01*
X129338100Y-111925090D01*
X129342324Y-112137790D01*
X129387962Y-112345579D01*
X129452949Y-112502472D01*
X129601022Y-112588562D01*
X130179584Y-112010000D01*
X130660416Y-112010000D01*
X131238978Y-112588562D01*
X131387051Y-112502472D01*
X131464546Y-112304347D01*
X131501900Y-112094910D01*
X131498528Y-111925090D01*
X131878100Y-111925090D01*
X131882324Y-112137790D01*
X131927962Y-112345579D01*
X131992949Y-112502472D01*
X132141022Y-112588562D01*
X132719584Y-112010000D01*
X133200416Y-112010000D01*
X133778978Y-112588562D01*
X133927051Y-112502472D01*
X134004546Y-112304347D01*
X134041900Y-112094910D01*
X134038528Y-111925090D01*
X134418100Y-111925090D01*
X134422324Y-112137790D01*
X134467962Y-112345579D01*
X134532949Y-112502472D01*
X134681022Y-112588562D01*
X135259584Y-112010000D01*
X135740416Y-112010000D01*
X136318978Y-112588562D01*
X136467051Y-112502472D01*
X136544546Y-112304347D01*
X136581900Y-112094910D01*
X136578528Y-111925090D01*
X136948100Y-111925090D01*
X136952324Y-112137790D01*
X136997962Y-112345579D01*
X137062949Y-112502472D01*
X137211022Y-112588562D01*
X137789584Y-112010000D01*
X138270416Y-112010000D01*
X138848978Y-112588562D01*
X138997051Y-112502472D01*
X139074546Y-112304347D01*
X139111900Y-112094910D01*
X139108528Y-111925090D01*
X139498100Y-111925090D01*
X139502324Y-112137790D01*
X139547962Y-112345579D01*
X139612949Y-112502472D01*
X139761022Y-112588562D01*
X140339584Y-112010000D01*
X140820416Y-112010000D01*
X141398978Y-112588562D01*
X141547051Y-112502472D01*
X141624546Y-112304347D01*
X141661900Y-112094910D01*
X141657676Y-111882210D01*
X141612038Y-111674421D01*
X141547051Y-111517528D01*
X141398978Y-111431438D01*
X140820416Y-112010000D01*
X140339584Y-112010000D01*
X139761022Y-111431438D01*
X139612949Y-111517528D01*
X139535454Y-111715653D01*
X139498100Y-111925090D01*
X139108528Y-111925090D01*
X139107676Y-111882210D01*
X139062038Y-111674421D01*
X138997051Y-111517528D01*
X138848978Y-111431438D01*
X138270416Y-112010000D01*
X137789584Y-112010000D01*
X137211022Y-111431438D01*
X137062949Y-111517528D01*
X136985454Y-111715653D01*
X136948100Y-111925090D01*
X136578528Y-111925090D01*
X136577676Y-111882210D01*
X136532038Y-111674421D01*
X136467051Y-111517528D01*
X136318978Y-111431438D01*
X135740416Y-112010000D01*
X135259584Y-112010000D01*
X134681022Y-111431438D01*
X134532949Y-111517528D01*
X134455454Y-111715653D01*
X134418100Y-111925090D01*
X134038528Y-111925090D01*
X134037676Y-111882210D01*
X133992038Y-111674421D01*
X133927051Y-111517528D01*
X133778978Y-111431438D01*
X133200416Y-112010000D01*
X132719584Y-112010000D01*
X132141022Y-111431438D01*
X131992949Y-111517528D01*
X131915454Y-111715653D01*
X131878100Y-111925090D01*
X131498528Y-111925090D01*
X131497676Y-111882210D01*
X131452038Y-111674421D01*
X131387051Y-111517528D01*
X131238978Y-111431438D01*
X130660416Y-112010000D01*
X130179584Y-112010000D01*
X129601022Y-111431438D01*
X129452949Y-111517528D01*
X129375454Y-111715653D01*
X129338100Y-111925090D01*
X128958528Y-111925090D01*
X128957676Y-111882210D01*
X128912038Y-111674421D01*
X128847051Y-111517528D01*
X128698978Y-111431438D01*
X128120416Y-112010000D01*
X127639584Y-112010000D01*
X127061022Y-111431438D01*
X126912949Y-111517528D01*
X126835454Y-111715653D01*
X126798100Y-111925090D01*
X126418528Y-111925090D01*
X126417676Y-111882210D01*
X126372038Y-111674421D01*
X126307051Y-111517528D01*
X126158978Y-111431438D01*
X125580416Y-112010000D01*
X125099584Y-112010000D01*
X124521022Y-111431438D01*
X124372949Y-111517528D01*
X124295454Y-111715653D01*
X124258100Y-111925090D01*
X123878528Y-111925090D01*
X123877676Y-111882210D01*
X123832038Y-111674421D01*
X123767051Y-111517528D01*
X123618978Y-111431438D01*
X123040416Y-112010000D01*
X122559584Y-112010000D01*
X121981022Y-111431438D01*
X121832949Y-111517528D01*
X121755454Y-111715653D01*
X121718100Y-111925090D01*
X121171097Y-111925090D01*
X122021188Y-111075000D01*
X122288893Y-111075000D01*
X122221438Y-111191022D01*
X122800000Y-111769584D01*
X123378562Y-111191022D01*
X123311107Y-111075000D01*
X124828893Y-111075000D01*
X124761438Y-111191022D01*
X125340000Y-111769584D01*
X125918562Y-111191022D01*
X125851107Y-111075000D01*
X127368893Y-111075000D01*
X127301438Y-111191022D01*
X127880000Y-111769584D01*
X128458562Y-111191022D01*
X128391107Y-111075000D01*
X129908893Y-111075000D01*
X129841438Y-111191022D01*
X130420000Y-111769584D01*
X130998562Y-111191022D01*
X130931107Y-111075000D01*
X132448893Y-111075000D01*
X132381438Y-111191022D01*
X132960000Y-111769584D01*
X133538562Y-111191022D01*
X133471107Y-111075000D01*
X134988893Y-111075000D01*
X134921438Y-111191022D01*
X135500000Y-111769584D01*
X136078562Y-111191022D01*
X136011107Y-111075000D01*
X137518893Y-111075000D01*
X137451438Y-111191022D01*
X138030000Y-111769584D01*
X138608562Y-111191022D01*
X138541107Y-111075000D01*
X140068893Y-111075000D01*
X140001438Y-111191022D01*
X140580000Y-111769584D01*
X141158562Y-111191022D01*
X141091107Y-111075000D01*
X143788813Y-111075000D01*
X146479225Y-113765413D01*
X146490657Y-113779343D01*
X146546236Y-113824955D01*
X146609645Y-113858848D01*
X146678448Y-113879719D01*
X146732069Y-113885000D01*
X146732070Y-113885000D01*
X146749999Y-113886766D01*
X146767928Y-113885000D01*
X161194300Y-113885000D01*
X161201719Y-113896103D01*
X161283899Y-113978283D01*
X161380532Y-114042851D01*
X161487905Y-114087327D01*
X161601892Y-114110000D01*
X161718112Y-114110000D01*
X161832099Y-114087327D01*
X161939472Y-114042851D01*
X162036105Y-113978283D01*
X162118285Y-113896103D01*
X162182853Y-113799470D01*
X162227329Y-113692097D01*
X162250002Y-113578110D01*
X162250002Y-113461890D01*
X162227329Y-113347903D01*
X162182853Y-113240530D01*
X162118285Y-113143897D01*
X162036105Y-113061717D01*
X161939472Y-112997149D01*
X161832099Y-112952673D01*
X161718112Y-112930000D01*
X161601892Y-112930000D01*
X161487905Y-112952673D01*
X161380532Y-112997149D01*
X161283899Y-113061717D01*
X161201719Y-113143897D01*
X161194300Y-113155000D01*
X146901188Y-113155000D01*
X144210779Y-110464592D01*
X144199343Y-110450657D01*
X144143764Y-110405045D01*
X144080355Y-110371152D01*
X144011552Y-110350281D01*
X143957931Y-110345000D01*
X143957929Y-110345000D01*
X143940000Y-110343234D01*
X143922071Y-110345000D01*
X140251188Y-110345000D01*
X140355418Y-110240770D01*
X140369342Y-110229343D01*
X140380772Y-110215416D01*
X140414954Y-110173766D01*
X140438963Y-110128848D01*
X140448848Y-110110355D01*
X140469719Y-110041552D01*
X140475000Y-109987931D01*
X140475000Y-109987930D01*
X140476766Y-109970001D01*
X140475000Y-109952072D01*
X140475000Y-108371187D01*
X144351188Y-104495000D01*
X152112071Y-104495000D01*
X152130000Y-104496766D01*
X152147929Y-104495000D01*
X152147931Y-104495000D01*
X152201552Y-104489719D01*
X152270355Y-104468848D01*
X152333764Y-104434955D01*
X152389343Y-104389343D01*
X152400779Y-104375408D01*
X152951188Y-103825000D01*
X153818813Y-103825000D01*
X156589221Y-106595408D01*
X156600657Y-106609343D01*
X156656236Y-106654955D01*
X156719645Y-106688848D01*
X156788448Y-106709719D01*
X156842069Y-106715000D01*
X156842070Y-106715000D01*
X156859999Y-106716766D01*
X156877928Y-106715000D01*
X160498813Y-106715000D01*
X162455000Y-108671188D01*
X162455001Y-111844309D01*
X162443904Y-111851724D01*
X162361724Y-111933904D01*
X162297156Y-112030537D01*
X162252680Y-112137910D01*
X162230007Y-112251897D01*
X162230007Y-112368117D01*
X162252680Y-112482104D01*
X162297156Y-112589477D01*
X162361724Y-112686110D01*
X162443904Y-112768290D01*
X162540537Y-112832858D01*
X162647910Y-112877334D01*
X162761897Y-112900007D01*
X162878117Y-112900007D01*
X162992104Y-112877334D01*
X163099477Y-112832858D01*
X163196110Y-112768290D01*
X163278290Y-112686110D01*
X163342858Y-112589477D01*
X163387334Y-112482104D01*
X163410007Y-112368117D01*
X163410007Y-112251897D01*
X163387334Y-112137910D01*
X163342858Y-112030537D01*
X163278290Y-111933904D01*
X163196110Y-111851724D01*
X163185000Y-111844301D01*
X163185000Y-108537928D01*
X163186766Y-108519999D01*
X163183887Y-108490773D01*
X163179719Y-108448448D01*
X163158848Y-108379645D01*
X163158847Y-108379643D01*
X163124954Y-108316234D01*
X163090772Y-108274584D01*
X163090770Y-108274582D01*
X163079342Y-108260657D01*
X163065418Y-108249230D01*
X160920779Y-106104592D01*
X160909343Y-106090657D01*
X160853764Y-106045045D01*
X160790355Y-106011152D01*
X160721552Y-105990281D01*
X160667931Y-105985000D01*
X160667929Y-105985000D01*
X160650000Y-105983234D01*
X160632071Y-105985000D01*
X157011187Y-105985000D01*
X154240779Y-103214592D01*
X154229343Y-103200657D01*
X154173764Y-103155045D01*
X154110355Y-103121152D01*
X154041552Y-103100281D01*
X153987931Y-103095000D01*
X153987929Y-103095000D01*
X153970000Y-103093234D01*
X153952071Y-103095000D01*
X152817928Y-103095000D01*
X152799999Y-103093234D01*
X152782070Y-103095000D01*
X152782069Y-103095000D01*
X152728448Y-103100281D01*
X152659645Y-103121152D01*
X152596236Y-103155045D01*
X152540657Y-103200657D01*
X152529225Y-103214587D01*
X151978813Y-103765000D01*
X144217928Y-103765000D01*
X144199999Y-103763234D01*
X144182070Y-103765000D01*
X144182069Y-103765000D01*
X144128448Y-103770281D01*
X144059645Y-103791152D01*
X144059643Y-103791153D01*
X143996234Y-103825046D01*
X143972125Y-103844833D01*
X143940657Y-103870657D01*
X143929226Y-103884586D01*
X139864588Y-107949225D01*
X139850658Y-107960657D01*
X139839227Y-107974586D01*
X139805046Y-108016236D01*
X139771153Y-108079645D01*
X139750282Y-108148448D01*
X139743234Y-108220000D01*
X139745001Y-108237939D01*
X139745000Y-109818812D01*
X139638813Y-109925000D01*
X139309386Y-109925000D01*
X139368283Y-109866103D01*
X139432851Y-109769470D01*
X139477327Y-109662097D01*
X139500000Y-109548110D01*
X139500000Y-109431890D01*
X139477327Y-109317903D01*
X139432851Y-109210530D01*
X139368283Y-109113897D01*
X139286103Y-109031717D01*
X139275000Y-109024298D01*
X139275000Y-107581187D01*
X143551188Y-103305000D01*
X152122071Y-103305000D01*
X152140000Y-103306766D01*
X152157929Y-103305000D01*
X152157931Y-103305000D01*
X152211552Y-103299719D01*
X152280355Y-103278848D01*
X152343764Y-103244955D01*
X152399343Y-103199343D01*
X152410779Y-103185408D01*
X152561188Y-103035000D01*
X154348813Y-103035000D01*
X156689225Y-105375413D01*
X156700657Y-105389343D01*
X156717875Y-105403473D01*
X156756234Y-105434954D01*
X156756236Y-105434955D01*
X156819645Y-105468848D01*
X156888448Y-105489719D01*
X156942069Y-105495000D01*
X156942070Y-105495000D01*
X156959999Y-105496766D01*
X156977928Y-105495000D01*
X161298813Y-105495000D01*
X163805000Y-108001188D01*
X163805001Y-110182061D01*
X163803234Y-110200000D01*
X163810282Y-110271552D01*
X163815000Y-110287106D01*
X163815000Y-110534298D01*
X163803897Y-110541717D01*
X163721717Y-110623897D01*
X163657149Y-110720530D01*
X163612673Y-110827903D01*
X163590000Y-110941890D01*
X163590000Y-111058110D01*
X163612673Y-111172097D01*
X163657149Y-111279470D01*
X163721717Y-111376103D01*
X163803897Y-111458283D01*
X163900530Y-111522851D01*
X164007903Y-111567327D01*
X164121890Y-111590000D01*
X164238110Y-111590000D01*
X164352097Y-111567327D01*
X164459470Y-111522851D01*
X164556103Y-111458283D01*
X164638283Y-111376103D01*
X164702851Y-111279470D01*
X164747327Y-111172097D01*
X164770000Y-111058110D01*
X164770000Y-110941890D01*
X164747327Y-110827903D01*
X164702851Y-110720530D01*
X164638283Y-110623897D01*
X164556103Y-110541717D01*
X164545000Y-110534298D01*
X164545000Y-110227928D01*
X164546766Y-110209999D01*
X164545000Y-110192069D01*
X164539719Y-110138448D01*
X164535000Y-110122891D01*
X164535000Y-107867929D01*
X164536766Y-107850000D01*
X164534848Y-107830530D01*
X164529719Y-107778448D01*
X164508848Y-107709645D01*
X164474955Y-107646236D01*
X164429342Y-107590657D01*
X164415418Y-107579230D01*
X161720779Y-104884592D01*
X161709343Y-104870657D01*
X161653764Y-104825045D01*
X161590355Y-104791152D01*
X161521552Y-104770281D01*
X161467931Y-104765000D01*
X161467929Y-104765000D01*
X161450000Y-104763234D01*
X161432071Y-104765000D01*
X157111188Y-104765000D01*
X155525357Y-103179170D01*
X155550000Y-103181597D01*
X157197500Y-103180000D01*
X157280000Y-103097500D01*
X157280000Y-102220000D01*
X157620000Y-102220000D01*
X157620000Y-103097500D01*
X157702500Y-103180000D01*
X159350000Y-103181597D01*
X159414691Y-103175225D01*
X159476897Y-103156356D01*
X159534225Y-103125713D01*
X159584474Y-103084474D01*
X159625713Y-103034225D01*
X159656356Y-102976897D01*
X159675225Y-102914691D01*
X159681597Y-102850000D01*
X161578403Y-102850000D01*
X161584775Y-102914691D01*
X161603644Y-102976897D01*
X161634287Y-103034225D01*
X161675526Y-103084474D01*
X161725775Y-103125713D01*
X161783103Y-103156356D01*
X161845309Y-103175225D01*
X161910000Y-103181597D01*
X163157500Y-103180000D01*
X163240000Y-103097500D01*
X163240000Y-102220000D01*
X163580000Y-102220000D01*
X163580000Y-103097500D01*
X163662500Y-103180000D01*
X164910000Y-103181597D01*
X164974691Y-103175225D01*
X165036897Y-103156356D01*
X165094225Y-103125713D01*
X165144474Y-103084474D01*
X165185713Y-103034225D01*
X165216356Y-102976897D01*
X165235225Y-102914691D01*
X165241597Y-102850000D01*
X165240000Y-102302500D01*
X165157500Y-102220000D01*
X163580000Y-102220000D01*
X163240000Y-102220000D01*
X161662500Y-102220000D01*
X161580000Y-102302500D01*
X161578403Y-102850000D01*
X159681597Y-102850000D01*
X159680000Y-102302500D01*
X159597500Y-102220000D01*
X157620000Y-102220000D01*
X157280000Y-102220000D01*
X155302500Y-102220000D01*
X155220000Y-102302500D01*
X155218403Y-102850000D01*
X155220830Y-102874643D01*
X154770779Y-102424592D01*
X154759343Y-102410657D01*
X154703764Y-102365045D01*
X154640355Y-102331152D01*
X154571552Y-102310281D01*
X154517931Y-102305000D01*
X154517929Y-102305000D01*
X154500000Y-102303234D01*
X154482071Y-102305000D01*
X152427929Y-102305000D01*
X152410000Y-102303234D01*
X152392071Y-102305000D01*
X152392069Y-102305000D01*
X152338448Y-102310281D01*
X152269645Y-102331152D01*
X152206236Y-102365045D01*
X152150657Y-102410657D01*
X152139225Y-102424587D01*
X151988813Y-102575000D01*
X151696112Y-102575000D01*
X151716804Y-102536288D01*
X151730527Y-102491048D01*
X151735161Y-102444000D01*
X151735161Y-101250000D01*
X155218403Y-101250000D01*
X155220000Y-101797500D01*
X155302500Y-101880000D01*
X157280000Y-101880000D01*
X157280000Y-101002500D01*
X157620000Y-101002500D01*
X157620000Y-101880000D01*
X159597500Y-101880000D01*
X159680000Y-101797500D01*
X159681597Y-101250000D01*
X161578403Y-101250000D01*
X161580000Y-101797500D01*
X161662500Y-101880000D01*
X163240000Y-101880000D01*
X163240000Y-101002500D01*
X163157500Y-100920000D01*
X161910000Y-100918403D01*
X161845309Y-100924775D01*
X161783103Y-100943644D01*
X161725775Y-100974287D01*
X161675526Y-101015526D01*
X161634287Y-101065775D01*
X161603644Y-101123103D01*
X161584775Y-101185309D01*
X161578403Y-101250000D01*
X159681597Y-101250000D01*
X159675225Y-101185309D01*
X159656356Y-101123103D01*
X159625713Y-101065775D01*
X159584474Y-101015526D01*
X159534225Y-100974287D01*
X159476897Y-100943644D01*
X159414691Y-100924775D01*
X159350000Y-100918403D01*
X157702500Y-100920000D01*
X157620000Y-101002500D01*
X157280000Y-101002500D01*
X157197500Y-100920000D01*
X155550000Y-100918403D01*
X155485309Y-100924775D01*
X155423103Y-100943644D01*
X155365775Y-100974287D01*
X155315526Y-101015526D01*
X155274287Y-101065775D01*
X155243644Y-101123103D01*
X155224775Y-101185309D01*
X155218403Y-101250000D01*
X151735161Y-101250000D01*
X151735161Y-100936000D01*
X151730527Y-100888952D01*
X151716804Y-100843712D01*
X151694518Y-100802018D01*
X151664527Y-100765473D01*
X151627982Y-100735482D01*
X151586288Y-100713196D01*
X151541048Y-100699473D01*
X151494000Y-100694839D01*
X149986000Y-100694839D01*
X149938952Y-100699473D01*
X149893712Y-100713196D01*
X149852018Y-100735482D01*
X149815473Y-100765473D01*
X149785482Y-100802018D01*
X149763196Y-100843712D01*
X149749473Y-100888952D01*
X149744839Y-100936000D01*
X149744839Y-102444000D01*
X149749473Y-102491048D01*
X149763196Y-102536288D01*
X149783888Y-102575000D01*
X148660870Y-102575000D01*
X148670836Y-102570872D01*
X148833638Y-102462091D01*
X148972091Y-102323638D01*
X149080872Y-102160836D01*
X149155802Y-101979939D01*
X149194000Y-101787900D01*
X149194000Y-101592100D01*
X149155802Y-101400061D01*
X149080872Y-101219164D01*
X148972091Y-101056362D01*
X148833638Y-100917909D01*
X148670836Y-100809128D01*
X148489939Y-100734198D01*
X148297900Y-100696000D01*
X148102100Y-100696000D01*
X147910061Y-100734198D01*
X147729164Y-100809128D01*
X147566362Y-100917909D01*
X147427909Y-101056362D01*
X147319128Y-101219164D01*
X147244198Y-101400061D01*
X147206000Y-101592100D01*
X147206000Y-101787900D01*
X147244198Y-101979939D01*
X147319128Y-102160836D01*
X147427909Y-102323638D01*
X147566362Y-102462091D01*
X147729164Y-102570872D01*
X147739130Y-102575000D01*
X146120870Y-102575000D01*
X146130836Y-102570872D01*
X146293638Y-102462091D01*
X146432091Y-102323638D01*
X146540872Y-102160836D01*
X146615802Y-101979939D01*
X146654000Y-101787900D01*
X146654000Y-101592100D01*
X146615802Y-101400061D01*
X146540872Y-101219164D01*
X146432091Y-101056362D01*
X146293638Y-100917909D01*
X146130836Y-100809128D01*
X145949939Y-100734198D01*
X145757900Y-100696000D01*
X145562100Y-100696000D01*
X145370061Y-100734198D01*
X145189164Y-100809128D01*
X145026362Y-100917909D01*
X144887909Y-101056362D01*
X144779128Y-101219164D01*
X144704198Y-101400061D01*
X144666000Y-101592100D01*
X144666000Y-101787900D01*
X144704198Y-101979939D01*
X144779128Y-102160836D01*
X144887909Y-102323638D01*
X145026362Y-102462091D01*
X145189164Y-102570872D01*
X145199130Y-102575000D01*
X143664628Y-102575000D01*
X143701445Y-102511862D01*
X143120000Y-101930416D01*
X142538555Y-102511862D01*
X142625136Y-102660342D01*
X142823949Y-102738240D01*
X143034140Y-102775855D01*
X143048229Y-102775584D01*
X138664588Y-107159225D01*
X138650658Y-107170657D01*
X138639227Y-107184586D01*
X138605046Y-107226236D01*
X138571153Y-107289645D01*
X138550282Y-107358448D01*
X138543234Y-107430000D01*
X138545001Y-107447939D01*
X138545000Y-109024298D01*
X138533897Y-109031717D01*
X138451717Y-109113897D01*
X138387149Y-109210530D01*
X138342673Y-109317903D01*
X138320000Y-109431890D01*
X138320000Y-109548110D01*
X138342673Y-109662097D01*
X138387149Y-109769470D01*
X138451717Y-109866103D01*
X138510614Y-109925000D01*
X138071188Y-109925000D01*
X137690779Y-109544592D01*
X137679343Y-109530657D01*
X137623764Y-109485045D01*
X137560355Y-109451152D01*
X137491552Y-109430281D01*
X137437931Y-109425000D01*
X137437929Y-109425000D01*
X137420000Y-109423234D01*
X137402071Y-109425000D01*
X121117929Y-109425000D01*
X121100000Y-109423234D01*
X121082071Y-109425000D01*
X121082069Y-109425000D01*
X121028448Y-109430281D01*
X120996409Y-109440000D01*
X120959644Y-109451152D01*
X120939168Y-109462097D01*
X120896236Y-109485045D01*
X120840657Y-109530657D01*
X120829226Y-109544586D01*
X119948813Y-110425000D01*
X112281161Y-110425000D01*
X112281161Y-110155000D01*
X119462071Y-110155000D01*
X119480000Y-110156766D01*
X119497929Y-110155000D01*
X119497931Y-110155000D01*
X119551552Y-110149719D01*
X119620355Y-110128848D01*
X119683764Y-110094955D01*
X119739343Y-110049343D01*
X119750779Y-110035408D01*
X120641188Y-109145000D01*
X124324298Y-109145000D01*
X124331717Y-109156103D01*
X124413897Y-109238283D01*
X124510530Y-109302851D01*
X124617903Y-109347327D01*
X124731890Y-109370000D01*
X124848110Y-109370000D01*
X124962097Y-109347327D01*
X125069470Y-109302851D01*
X125166103Y-109238283D01*
X125248283Y-109156103D01*
X125312851Y-109059470D01*
X125357327Y-108952097D01*
X125380000Y-108838110D01*
X125380000Y-108721890D01*
X125357327Y-108607903D01*
X125312851Y-108500530D01*
X125295792Y-108475000D01*
X126174298Y-108475000D01*
X126181717Y-108486103D01*
X126263897Y-108568283D01*
X126360530Y-108632851D01*
X126467903Y-108677327D01*
X126581890Y-108700000D01*
X126698110Y-108700000D01*
X126812097Y-108677327D01*
X126919470Y-108632851D01*
X127016103Y-108568283D01*
X127098283Y-108486103D01*
X127162851Y-108389470D01*
X127207327Y-108282097D01*
X127230000Y-108168110D01*
X127230000Y-108051890D01*
X127207327Y-107937903D01*
X127162851Y-107830530D01*
X127105700Y-107744998D01*
X128024296Y-107744998D01*
X128031715Y-107756101D01*
X128113895Y-107838281D01*
X128210528Y-107902849D01*
X128317901Y-107947325D01*
X128431888Y-107969998D01*
X128548108Y-107969998D01*
X128662095Y-107947325D01*
X128769468Y-107902849D01*
X128866101Y-107838281D01*
X128948281Y-107756101D01*
X129012849Y-107659468D01*
X129057325Y-107552095D01*
X129079998Y-107438108D01*
X129079998Y-107321888D01*
X129057325Y-107207901D01*
X129012849Y-107100528D01*
X128982428Y-107055000D01*
X129889230Y-107055000D01*
X129926717Y-107111103D01*
X130008897Y-107193283D01*
X130105530Y-107257851D01*
X130212903Y-107302327D01*
X130326890Y-107325000D01*
X130443110Y-107325000D01*
X130557097Y-107302327D01*
X130664470Y-107257851D01*
X130761103Y-107193283D01*
X130843283Y-107111103D01*
X130907851Y-107014470D01*
X130952327Y-106907097D01*
X130975000Y-106793110D01*
X130975000Y-106676890D01*
X130952327Y-106562903D01*
X130907851Y-106455530D01*
X130907497Y-106455000D01*
X131835867Y-106455000D01*
X131886717Y-106531103D01*
X131968897Y-106613283D01*
X132065530Y-106677851D01*
X132172903Y-106722327D01*
X132286890Y-106745000D01*
X132403110Y-106745000D01*
X132517097Y-106722327D01*
X132624470Y-106677851D01*
X132721103Y-106613283D01*
X132803283Y-106531103D01*
X132867851Y-106434470D01*
X132912327Y-106327097D01*
X132935000Y-106213110D01*
X132935000Y-106096890D01*
X132912327Y-105982903D01*
X132867851Y-105875530D01*
X132867497Y-105875000D01*
X133784253Y-105875000D01*
X133811717Y-105916103D01*
X133893897Y-105998283D01*
X133990530Y-106062851D01*
X134097903Y-106107327D01*
X134211890Y-106130000D01*
X134328110Y-106130000D01*
X134442097Y-106107327D01*
X134549470Y-106062851D01*
X134646103Y-105998283D01*
X134728283Y-105916103D01*
X134792851Y-105819470D01*
X134837327Y-105712097D01*
X134860000Y-105598110D01*
X134860000Y-105481890D01*
X134837327Y-105367903D01*
X134794703Y-105265000D01*
X135724208Y-105265000D01*
X135771717Y-105336103D01*
X135853897Y-105418283D01*
X135950530Y-105482851D01*
X136057903Y-105527327D01*
X136171890Y-105550000D01*
X136288110Y-105550000D01*
X136402097Y-105527327D01*
X136509470Y-105482851D01*
X136606103Y-105418283D01*
X136688283Y-105336103D01*
X136752851Y-105239470D01*
X136797327Y-105132097D01*
X136820000Y-105018110D01*
X136820000Y-104901890D01*
X136797327Y-104787903D01*
X136754703Y-104685000D01*
X137675912Y-104685000D01*
X137706717Y-104731103D01*
X137788897Y-104813283D01*
X137885530Y-104877851D01*
X137992903Y-104922327D01*
X138106890Y-104945000D01*
X138223110Y-104945000D01*
X138337097Y-104922327D01*
X138444470Y-104877851D01*
X138541103Y-104813283D01*
X138623283Y-104731103D01*
X138687851Y-104634470D01*
X138732327Y-104527097D01*
X138755000Y-104413110D01*
X138755000Y-104296890D01*
X138732327Y-104182903D01*
X138687851Y-104075530D01*
X138667452Y-104045000D01*
X139564298Y-104045000D01*
X139571717Y-104056103D01*
X139653897Y-104138283D01*
X139750530Y-104202851D01*
X139857903Y-104247327D01*
X139971890Y-104270000D01*
X140088110Y-104270000D01*
X140202097Y-104247327D01*
X140309470Y-104202851D01*
X140406103Y-104138283D01*
X140488283Y-104056103D01*
X140552851Y-103959470D01*
X140597327Y-103852097D01*
X140620000Y-103738110D01*
X140620000Y-103621890D01*
X140597327Y-103507903D01*
X140552851Y-103400530D01*
X140488283Y-103303897D01*
X140406103Y-103221717D01*
X140309470Y-103157149D01*
X140202097Y-103112673D01*
X140088110Y-103090000D01*
X139971890Y-103090000D01*
X139857903Y-103112673D01*
X139750530Y-103157149D01*
X139653897Y-103221717D01*
X139571717Y-103303897D01*
X139564298Y-103315000D01*
X113906929Y-103315000D01*
X113889000Y-103313234D01*
X113871071Y-103315000D01*
X113871069Y-103315000D01*
X113817448Y-103320281D01*
X113748645Y-103341152D01*
X113685236Y-103375045D01*
X113629657Y-103420657D01*
X113618225Y-103434587D01*
X112281161Y-104771652D01*
X112281161Y-104640000D01*
X112276527Y-104592952D01*
X112262804Y-104547712D01*
X112240518Y-104506018D01*
X112210527Y-104469473D01*
X112173982Y-104439482D01*
X112132288Y-104417196D01*
X112087048Y-104403473D01*
X112040000Y-104398839D01*
X111667348Y-104398839D01*
X112771188Y-103295000D01*
X139322071Y-103295000D01*
X139340000Y-103296766D01*
X139357929Y-103295000D01*
X139357931Y-103295000D01*
X139411552Y-103289719D01*
X139480355Y-103268848D01*
X139543764Y-103234955D01*
X139599343Y-103189343D01*
X139610779Y-103175408D01*
X140184224Y-102601963D01*
X140290061Y-102645802D01*
X140482100Y-102684000D01*
X140677900Y-102684000D01*
X140869939Y-102645802D01*
X141050836Y-102570872D01*
X141213638Y-102462091D01*
X141352091Y-102323638D01*
X141460872Y-102160836D01*
X141535802Y-101979939D01*
X141574000Y-101787900D01*
X141574000Y-101604140D01*
X142034145Y-101604140D01*
X142038259Y-101817629D01*
X142083944Y-102026214D01*
X142149658Y-102184864D01*
X142298138Y-102271445D01*
X142879584Y-101690000D01*
X143360416Y-101690000D01*
X143941862Y-102271445D01*
X144090342Y-102184864D01*
X144168240Y-101986051D01*
X144205855Y-101775860D01*
X144201741Y-101562371D01*
X144156056Y-101353786D01*
X144090342Y-101195136D01*
X143941862Y-101108555D01*
X143360416Y-101690000D01*
X142879584Y-101690000D01*
X142298138Y-101108555D01*
X142149658Y-101195136D01*
X142071760Y-101393949D01*
X142034145Y-101604140D01*
X141574000Y-101604140D01*
X141574000Y-101592100D01*
X141535802Y-101400061D01*
X141460872Y-101219164D01*
X141352091Y-101056362D01*
X141213638Y-100917909D01*
X141050836Y-100809128D01*
X140869939Y-100734198D01*
X140677900Y-100696000D01*
X140482100Y-100696000D01*
X140290061Y-100734198D01*
X140109164Y-100809128D01*
X139946362Y-100917909D01*
X139807909Y-101056362D01*
X139699128Y-101219164D01*
X139624198Y-101400061D01*
X139586000Y-101592100D01*
X139586000Y-101787900D01*
X139624198Y-101979939D01*
X139668037Y-102085776D01*
X139188813Y-102565000D01*
X138519624Y-102565000D01*
X138673638Y-102462091D01*
X138812091Y-102323638D01*
X138920872Y-102160836D01*
X138995802Y-101979939D01*
X139034000Y-101787900D01*
X139034000Y-101592100D01*
X138995802Y-101400061D01*
X138920872Y-101219164D01*
X138812091Y-101056362D01*
X138673638Y-100917909D01*
X138510836Y-100809128D01*
X138329939Y-100734198D01*
X138137900Y-100696000D01*
X137942100Y-100696000D01*
X137750061Y-100734198D01*
X137569164Y-100809128D01*
X137406362Y-100917909D01*
X137267909Y-101056362D01*
X137159128Y-101219164D01*
X137084198Y-101400061D01*
X137046000Y-101592100D01*
X137046000Y-101787900D01*
X137084198Y-101979939D01*
X137159128Y-102160836D01*
X137267909Y-102323638D01*
X137406362Y-102462091D01*
X137560376Y-102565000D01*
X135979624Y-102565000D01*
X136133638Y-102462091D01*
X136272091Y-102323638D01*
X136380872Y-102160836D01*
X136455802Y-101979939D01*
X136494000Y-101787900D01*
X136494000Y-101592100D01*
X136455802Y-101400061D01*
X136380872Y-101219164D01*
X136272091Y-101056362D01*
X136133638Y-100917909D01*
X135970836Y-100809128D01*
X135789939Y-100734198D01*
X135597900Y-100696000D01*
X135402100Y-100696000D01*
X135210061Y-100734198D01*
X135029164Y-100809128D01*
X134866362Y-100917909D01*
X134727909Y-101056362D01*
X134619128Y-101219164D01*
X134544198Y-101400061D01*
X134506000Y-101592100D01*
X134506000Y-101787900D01*
X134544198Y-101979939D01*
X134619128Y-102160836D01*
X134727909Y-102323638D01*
X134866362Y-102462091D01*
X135020376Y-102565000D01*
X133439624Y-102565000D01*
X133593638Y-102462091D01*
X133732091Y-102323638D01*
X133840872Y-102160836D01*
X133915802Y-101979939D01*
X133954000Y-101787900D01*
X133954000Y-101592100D01*
X133915802Y-101400061D01*
X133840872Y-101219164D01*
X133732091Y-101056362D01*
X133593638Y-100917909D01*
X133430836Y-100809128D01*
X133249939Y-100734198D01*
X133057900Y-100696000D01*
X132862100Y-100696000D01*
X132670061Y-100734198D01*
X132489164Y-100809128D01*
X132326362Y-100917909D01*
X132187909Y-101056362D01*
X132079128Y-101219164D01*
X132004198Y-101400061D01*
X131966000Y-101592100D01*
X131966000Y-101787900D01*
X132004198Y-101979939D01*
X132079128Y-102160836D01*
X132187909Y-102323638D01*
X132326362Y-102462091D01*
X132480376Y-102565000D01*
X130899624Y-102565000D01*
X131053638Y-102462091D01*
X131192091Y-102323638D01*
X131300872Y-102160836D01*
X131375802Y-101979939D01*
X131414000Y-101787900D01*
X131414000Y-101592100D01*
X131375802Y-101400061D01*
X131300872Y-101219164D01*
X131192091Y-101056362D01*
X131053638Y-100917909D01*
X130890836Y-100809128D01*
X130709939Y-100734198D01*
X130517900Y-100696000D01*
X130322100Y-100696000D01*
X130130061Y-100734198D01*
X129949164Y-100809128D01*
X129786362Y-100917909D01*
X129647909Y-101056362D01*
X129539128Y-101219164D01*
X129464198Y-101400061D01*
X129426000Y-101592100D01*
X129426000Y-101787900D01*
X129464198Y-101979939D01*
X129539128Y-102160836D01*
X129647909Y-102323638D01*
X129786362Y-102462091D01*
X129940376Y-102565000D01*
X128359624Y-102565000D01*
X128513638Y-102462091D01*
X128652091Y-102323638D01*
X128760872Y-102160836D01*
X128835802Y-101979939D01*
X128874000Y-101787900D01*
X128874000Y-101592100D01*
X128835802Y-101400061D01*
X128760872Y-101219164D01*
X128652091Y-101056362D01*
X128513638Y-100917909D01*
X128350836Y-100809128D01*
X128169939Y-100734198D01*
X127977900Y-100696000D01*
X127782100Y-100696000D01*
X127590061Y-100734198D01*
X127409164Y-100809128D01*
X127246362Y-100917909D01*
X127107909Y-101056362D01*
X126999128Y-101219164D01*
X126924198Y-101400061D01*
X126886000Y-101592100D01*
X126886000Y-101787900D01*
X126924198Y-101979939D01*
X126999128Y-102160836D01*
X127107909Y-102323638D01*
X127246362Y-102462091D01*
X127400376Y-102565000D01*
X125819624Y-102565000D01*
X125973638Y-102462091D01*
X126112091Y-102323638D01*
X126220872Y-102160836D01*
X126295802Y-101979939D01*
X126334000Y-101787900D01*
X126334000Y-101592100D01*
X126295802Y-101400061D01*
X126220872Y-101219164D01*
X126112091Y-101056362D01*
X125973638Y-100917909D01*
X125810836Y-100809128D01*
X125629939Y-100734198D01*
X125437900Y-100696000D01*
X125242100Y-100696000D01*
X125050061Y-100734198D01*
X124869164Y-100809128D01*
X124706362Y-100917909D01*
X124567909Y-101056362D01*
X124459128Y-101219164D01*
X124384198Y-101400061D01*
X124346000Y-101592100D01*
X124346000Y-101787900D01*
X124384198Y-101979939D01*
X124459128Y-102160836D01*
X124567909Y-102323638D01*
X124706362Y-102462091D01*
X124860376Y-102565000D01*
X123279624Y-102565000D01*
X123433638Y-102462091D01*
X123572091Y-102323638D01*
X123680872Y-102160836D01*
X123755802Y-101979939D01*
X123794000Y-101787900D01*
X123794000Y-101592100D01*
X123755802Y-101400061D01*
X123680872Y-101219164D01*
X123572091Y-101056362D01*
X123433638Y-100917909D01*
X123270836Y-100809128D01*
X123089939Y-100734198D01*
X122897900Y-100696000D01*
X122702100Y-100696000D01*
X122510061Y-100734198D01*
X122329164Y-100809128D01*
X122166362Y-100917909D01*
X122027909Y-101056362D01*
X121919128Y-101219164D01*
X121844198Y-101400061D01*
X121806000Y-101592100D01*
X121806000Y-101787900D01*
X121844198Y-101979939D01*
X121919128Y-102160836D01*
X122027909Y-102323638D01*
X122166362Y-102462091D01*
X122320376Y-102565000D01*
X120739624Y-102565000D01*
X120893638Y-102462091D01*
X121032091Y-102323638D01*
X121140872Y-102160836D01*
X121215802Y-101979939D01*
X121254000Y-101787900D01*
X121254000Y-101592100D01*
X121215802Y-101400061D01*
X121140872Y-101219164D01*
X121032091Y-101056362D01*
X120893638Y-100917909D01*
X120730836Y-100809128D01*
X120549939Y-100734198D01*
X120357900Y-100696000D01*
X120162100Y-100696000D01*
X119970061Y-100734198D01*
X119789164Y-100809128D01*
X119626362Y-100917909D01*
X119487909Y-101056362D01*
X119379128Y-101219164D01*
X119304198Y-101400061D01*
X119266000Y-101592100D01*
X119266000Y-101787900D01*
X119304198Y-101979939D01*
X119379128Y-102160836D01*
X119487909Y-102323638D01*
X119626362Y-102462091D01*
X119780376Y-102565000D01*
X118199624Y-102565000D01*
X118353638Y-102462091D01*
X118492091Y-102323638D01*
X118600872Y-102160836D01*
X118675802Y-101979939D01*
X118714000Y-101787900D01*
X118714000Y-101592100D01*
X118675802Y-101400061D01*
X118600872Y-101219164D01*
X118492091Y-101056362D01*
X118353638Y-100917909D01*
X118190836Y-100809128D01*
X118009939Y-100734198D01*
X117817900Y-100696000D01*
X117622100Y-100696000D01*
X117430061Y-100734198D01*
X117249164Y-100809128D01*
X117086362Y-100917909D01*
X116947909Y-101056362D01*
X116839128Y-101219164D01*
X116764198Y-101400061D01*
X116726000Y-101592100D01*
X116726000Y-101787900D01*
X116764198Y-101979939D01*
X116839128Y-102160836D01*
X116947909Y-102323638D01*
X117086362Y-102462091D01*
X117240376Y-102565000D01*
X115659624Y-102565000D01*
X115813638Y-102462091D01*
X115952091Y-102323638D01*
X116060872Y-102160836D01*
X116135802Y-101979939D01*
X116174000Y-101787900D01*
X116174000Y-101592100D01*
X116135802Y-101400061D01*
X116060872Y-101219164D01*
X115952091Y-101056362D01*
X115813638Y-100917909D01*
X115650836Y-100809128D01*
X115469939Y-100734198D01*
X115277900Y-100696000D01*
X115082100Y-100696000D01*
X114890061Y-100734198D01*
X114709164Y-100809128D01*
X114546362Y-100917909D01*
X114407909Y-101056362D01*
X114299128Y-101219164D01*
X114224198Y-101400061D01*
X114186000Y-101592100D01*
X114186000Y-101787900D01*
X114224198Y-101979939D01*
X114299128Y-102160836D01*
X114407909Y-102323638D01*
X114546362Y-102462091D01*
X114700376Y-102565000D01*
X112637928Y-102565000D01*
X112619999Y-102563234D01*
X112602070Y-102565000D01*
X112602069Y-102565000D01*
X112548448Y-102570281D01*
X112479645Y-102591152D01*
X112479643Y-102591153D01*
X112416234Y-102625046D01*
X112392508Y-102644518D01*
X112360657Y-102670657D01*
X112349226Y-102684586D01*
X112211545Y-102822267D01*
X112210000Y-102292500D01*
X112127500Y-102210000D01*
X110150000Y-102210000D01*
X110150000Y-103087500D01*
X110232500Y-103170000D01*
X111862232Y-103171580D01*
X110634974Y-104398839D01*
X109440000Y-104398839D01*
X109392952Y-104403473D01*
X109347712Y-104417196D01*
X109306018Y-104439482D01*
X109269473Y-104469473D01*
X109239482Y-104506018D01*
X109217196Y-104547712D01*
X109203473Y-104592952D01*
X109198839Y-104640000D01*
X109198839Y-104940000D01*
X109203473Y-104987048D01*
X109217196Y-105032288D01*
X109221318Y-105040000D01*
X109217196Y-105047712D01*
X109203473Y-105092952D01*
X109198839Y-105140000D01*
X109198839Y-105440000D01*
X109203473Y-105487048D01*
X109217196Y-105532288D01*
X109221318Y-105540000D01*
X109217196Y-105547712D01*
X109203473Y-105592952D01*
X109198839Y-105640000D01*
X109198839Y-105940000D01*
X109203473Y-105987048D01*
X109217196Y-106032288D01*
X109221318Y-106040000D01*
X109217196Y-106047712D01*
X109203473Y-106092952D01*
X109198839Y-106140000D01*
X109198839Y-106440000D01*
X109203473Y-106487048D01*
X109217196Y-106532288D01*
X109221318Y-106540000D01*
X109217196Y-106547712D01*
X109203473Y-106592952D01*
X109198839Y-106640000D01*
X109198839Y-106940000D01*
X109203473Y-106987048D01*
X109217196Y-107032288D01*
X109221318Y-107040000D01*
X109217196Y-107047712D01*
X109203473Y-107092952D01*
X109198839Y-107140000D01*
X109198839Y-107440000D01*
X109203473Y-107487048D01*
X109217196Y-107532288D01*
X109221318Y-107540000D01*
X109217196Y-107547712D01*
X109203473Y-107592952D01*
X109198839Y-107640000D01*
X109198839Y-107940000D01*
X109203473Y-107987048D01*
X109217196Y-108032288D01*
X109221318Y-108040000D01*
X109217196Y-108047712D01*
X109203473Y-108092952D01*
X109198839Y-108140000D01*
X109198839Y-108440000D01*
X109203473Y-108487048D01*
X109217196Y-108532288D01*
X109221318Y-108540000D01*
X109217196Y-108547712D01*
X109203473Y-108592952D01*
X109198839Y-108640000D01*
X109198839Y-108925000D01*
X107615702Y-108925000D01*
X107608283Y-108913897D01*
X107526103Y-108831717D01*
X107429470Y-108767149D01*
X107322097Y-108722673D01*
X107208110Y-108700000D01*
X107091890Y-108700000D01*
X106977903Y-108722673D01*
X106870530Y-108767149D01*
X106773897Y-108831717D01*
X106691717Y-108913897D01*
X106627149Y-109010530D01*
X106582673Y-109117903D01*
X106560000Y-109231890D01*
X106560000Y-109348110D01*
X106582673Y-109462097D01*
X106627149Y-109569470D01*
X106691717Y-109666103D01*
X106773897Y-109748283D01*
X106870530Y-109812851D01*
X106977903Y-109857327D01*
X107091890Y-109880000D01*
X107208110Y-109880000D01*
X107322097Y-109857327D01*
X107429470Y-109812851D01*
X107526103Y-109748283D01*
X107608283Y-109666103D01*
X107615702Y-109655000D01*
X109198839Y-109655000D01*
X109198839Y-109925000D01*
X106575702Y-109925000D01*
X106568283Y-109913897D01*
X106486103Y-109831717D01*
X106389470Y-109767149D01*
X106282097Y-109722673D01*
X106168110Y-109700000D01*
X106051890Y-109700000D01*
X105937903Y-109722673D01*
X105830530Y-109767149D01*
X105733897Y-109831717D01*
X105651717Y-109913897D01*
X105587149Y-110010530D01*
X105542673Y-110117903D01*
X105520000Y-110231890D01*
X101989943Y-110231890D01*
X101989996Y-102840000D01*
X102188403Y-102840000D01*
X102194775Y-102904691D01*
X102213644Y-102966897D01*
X102244287Y-103024225D01*
X102285526Y-103074474D01*
X102335775Y-103115713D01*
X102393103Y-103146356D01*
X102455309Y-103165225D01*
X102520000Y-103171597D01*
X103767500Y-103170000D01*
X103850000Y-103087500D01*
X103850000Y-102210000D01*
X104190000Y-102210000D01*
X104190000Y-103087500D01*
X104272500Y-103170000D01*
X105520000Y-103171597D01*
X105584691Y-103165225D01*
X105646897Y-103146356D01*
X105704225Y-103115713D01*
X105754474Y-103074474D01*
X105795713Y-103024225D01*
X105826356Y-102966897D01*
X105845225Y-102904691D01*
X105851597Y-102840000D01*
X107748403Y-102840000D01*
X107754775Y-102904691D01*
X107773644Y-102966897D01*
X107804287Y-103024225D01*
X107845526Y-103074474D01*
X107895775Y-103115713D01*
X107953103Y-103146356D01*
X108015309Y-103165225D01*
X108080000Y-103171597D01*
X109727500Y-103170000D01*
X109810000Y-103087500D01*
X109810000Y-102210000D01*
X107832500Y-102210000D01*
X107750000Y-102292500D01*
X107748403Y-102840000D01*
X105851597Y-102840000D01*
X105850000Y-102292500D01*
X105767500Y-102210000D01*
X104190000Y-102210000D01*
X103850000Y-102210000D01*
X102272500Y-102210000D01*
X102190000Y-102292500D01*
X102188403Y-102840000D01*
X101989996Y-102840000D01*
X101990000Y-102364186D01*
X102023933Y-102018111D01*
X102120319Y-101698862D01*
X102189363Y-101569010D01*
X102190000Y-101787500D01*
X102272500Y-101870000D01*
X103850000Y-101870000D01*
X103850000Y-100992500D01*
X104190000Y-100992500D01*
X104190000Y-101870000D01*
X105767500Y-101870000D01*
X105850000Y-101787500D01*
X105851597Y-101240000D01*
X107748403Y-101240000D01*
X107750000Y-101787500D01*
X107832500Y-101870000D01*
X109810000Y-101870000D01*
X109810000Y-100992500D01*
X110150000Y-100992500D01*
X110150000Y-101870000D01*
X112127500Y-101870000D01*
X112210000Y-101787500D01*
X112211597Y-101240000D01*
X112205225Y-101175309D01*
X112186356Y-101113103D01*
X112155713Y-101055775D01*
X112114474Y-101005526D01*
X112064225Y-100964287D01*
X112006897Y-100933644D01*
X111944691Y-100914775D01*
X111880000Y-100908403D01*
X110232500Y-100910000D01*
X110150000Y-100992500D01*
X109810000Y-100992500D01*
X109727500Y-100910000D01*
X108080000Y-100908403D01*
X108015309Y-100914775D01*
X107953103Y-100933644D01*
X107895775Y-100964287D01*
X107845526Y-101005526D01*
X107804287Y-101055775D01*
X107773644Y-101113103D01*
X107754775Y-101175309D01*
X107748403Y-101240000D01*
X105851597Y-101240000D01*
X105845225Y-101175309D01*
X105826356Y-101113103D01*
X105795713Y-101055775D01*
X105754474Y-101005526D01*
X105704225Y-100964287D01*
X105646897Y-100933644D01*
X105584691Y-100914775D01*
X105520000Y-100908403D01*
X104272500Y-100910000D01*
X104190000Y-100992500D01*
X103850000Y-100992500D01*
X103767500Y-100910000D01*
X102790224Y-100908749D01*
X103037949Y-100774804D01*
X103356518Y-100676191D01*
X103701797Y-100639901D01*
X142847902Y-100639901D01*
X142783786Y-100653944D01*
G04 #@! TA.AperFunction,Conductor*
D17*
G36*
X142783786Y-100653944D02*
G01*
X142625136Y-100719658D01*
X142538555Y-100868138D01*
X143120000Y-101449584D01*
X143701445Y-100868138D01*
X143614864Y-100719658D01*
X143416051Y-100641760D01*
X143405663Y-100639901D01*
X163665717Y-100639901D01*
X164011790Y-100673834D01*
X164331039Y-100770220D01*
X164610452Y-100918786D01*
X163662500Y-100920000D01*
X163580000Y-101002500D01*
X163580000Y-101880000D01*
X165157500Y-101880000D01*
X165240000Y-101797500D01*
X165240399Y-101660667D01*
X165255097Y-101687850D01*
X165353710Y-102006419D01*
X165390000Y-102351698D01*
X165390001Y-116285806D01*
X165356067Y-116631889D01*
X165259681Y-116951138D01*
X165240539Y-116987138D01*
X165240000Y-116802500D01*
X165157500Y-116720000D01*
X163580000Y-116720000D01*
X163580000Y-117597500D01*
X163662500Y-117680000D01*
X164678048Y-117681300D01*
X164635397Y-117716584D01*
X164342052Y-117875196D01*
X164023483Y-117973808D01*
X163678194Y-118010100D01*
X103714185Y-118010000D01*
X103368111Y-117976067D01*
X103048862Y-117879681D01*
X102754416Y-117723121D01*
X102690973Y-117671378D01*
X103767500Y-117670000D01*
X103850000Y-117587500D01*
X103850000Y-116710000D01*
X104190000Y-116710000D01*
X104190000Y-117587500D01*
X104272500Y-117670000D01*
X105520000Y-117671597D01*
X105584691Y-117665225D01*
X105646897Y-117646356D01*
X105704225Y-117615713D01*
X105754474Y-117574474D01*
X105795713Y-117524225D01*
X105826356Y-117466897D01*
X105845225Y-117404691D01*
X105851597Y-117340000D01*
X107748403Y-117340000D01*
X107754775Y-117404691D01*
X107773644Y-117466897D01*
X107804287Y-117524225D01*
X107845526Y-117574474D01*
X107895775Y-117615713D01*
X107953103Y-117646356D01*
X108015309Y-117665225D01*
X108080000Y-117671597D01*
X109727500Y-117670000D01*
X109810000Y-117587500D01*
X109810000Y-116710000D01*
X110150000Y-116710000D01*
X110150000Y-117587500D01*
X110232500Y-117670000D01*
X111880000Y-117671597D01*
X111944691Y-117665225D01*
X112006897Y-117646356D01*
X112064225Y-117615713D01*
X112114474Y-117574474D01*
X112155713Y-117524225D01*
X112186356Y-117466897D01*
X112205225Y-117404691D01*
X112211597Y-117340000D01*
X112210116Y-116832100D01*
X114186000Y-116832100D01*
X114186000Y-117027900D01*
X114224198Y-117219939D01*
X114299128Y-117400836D01*
X114407909Y-117563638D01*
X114546362Y-117702091D01*
X114709164Y-117810872D01*
X114890061Y-117885802D01*
X115082100Y-117924000D01*
X115277900Y-117924000D01*
X115469939Y-117885802D01*
X115650836Y-117810872D01*
X115813638Y-117702091D01*
X115952091Y-117563638D01*
X116060872Y-117400836D01*
X116135802Y-117219939D01*
X116174000Y-117027900D01*
X116174000Y-116832100D01*
X116726000Y-116832100D01*
X116726000Y-117027900D01*
X116764198Y-117219939D01*
X116839128Y-117400836D01*
X116947909Y-117563638D01*
X117086362Y-117702091D01*
X117249164Y-117810872D01*
X117430061Y-117885802D01*
X117622100Y-117924000D01*
X117817900Y-117924000D01*
X118009939Y-117885802D01*
X118190836Y-117810872D01*
X118353638Y-117702091D01*
X118492091Y-117563638D01*
X118600872Y-117400836D01*
X118675802Y-117219939D01*
X118714000Y-117027900D01*
X118714000Y-116832100D01*
X119266000Y-116832100D01*
X119266000Y-117027900D01*
X119304198Y-117219939D01*
X119379128Y-117400836D01*
X119487909Y-117563638D01*
X119626362Y-117702091D01*
X119789164Y-117810872D01*
X119970061Y-117885802D01*
X120162100Y-117924000D01*
X120357900Y-117924000D01*
X120549939Y-117885802D01*
X120730836Y-117810872D01*
X120893638Y-117702091D01*
X121032091Y-117563638D01*
X121140872Y-117400836D01*
X121215802Y-117219939D01*
X121254000Y-117027900D01*
X121254000Y-116832100D01*
X121215802Y-116640061D01*
X121140872Y-116459164D01*
X121032091Y-116296362D01*
X120893638Y-116157909D01*
X120730836Y-116049128D01*
X120549939Y-115974198D01*
X120357900Y-115936000D01*
X120162100Y-115936000D01*
X119970061Y-115974198D01*
X119789164Y-116049128D01*
X119626362Y-116157909D01*
X119487909Y-116296362D01*
X119379128Y-116459164D01*
X119304198Y-116640061D01*
X119266000Y-116832100D01*
X118714000Y-116832100D01*
X118675802Y-116640061D01*
X118600872Y-116459164D01*
X118492091Y-116296362D01*
X118353638Y-116157909D01*
X118190836Y-116049128D01*
X118009939Y-115974198D01*
X117817900Y-115936000D01*
X117622100Y-115936000D01*
X117430061Y-115974198D01*
X117249164Y-116049128D01*
X117086362Y-116157909D01*
X116947909Y-116296362D01*
X116839128Y-116459164D01*
X116764198Y-116640061D01*
X116726000Y-116832100D01*
X116174000Y-116832100D01*
X116135802Y-116640061D01*
X116060872Y-116459164D01*
X115952091Y-116296362D01*
X115813638Y-116157909D01*
X115650836Y-116049128D01*
X115469939Y-115974198D01*
X115277900Y-115936000D01*
X115082100Y-115936000D01*
X114890061Y-115974198D01*
X114709164Y-116049128D01*
X114546362Y-116157909D01*
X114407909Y-116296362D01*
X114299128Y-116459164D01*
X114224198Y-116640061D01*
X114186000Y-116832100D01*
X112210116Y-116832100D01*
X112210000Y-116792500D01*
X112127500Y-116710000D01*
X110150000Y-116710000D01*
X109810000Y-116710000D01*
X107832500Y-116710000D01*
X107750000Y-116792500D01*
X107748403Y-117340000D01*
X105851597Y-117340000D01*
X105850000Y-116792500D01*
X105767500Y-116710000D01*
X104190000Y-116710000D01*
X103850000Y-116710000D01*
X102272500Y-116710000D01*
X102190000Y-116792500D01*
X102189158Y-117081071D01*
X102124804Y-116962052D01*
X102026192Y-116643483D01*
X101989900Y-116298195D01*
X101989904Y-115740000D01*
X102188403Y-115740000D01*
X102190000Y-116287500D01*
X102272500Y-116370000D01*
X103850000Y-116370000D01*
X103850000Y-115492500D01*
X104190000Y-115492500D01*
X104190000Y-116370000D01*
X105767500Y-116370000D01*
X105850000Y-116287500D01*
X105851597Y-115740000D01*
X107748403Y-115740000D01*
X107750000Y-116287500D01*
X107832500Y-116370000D01*
X109810000Y-116370000D01*
X109810000Y-115492500D01*
X110150000Y-115492500D01*
X110150000Y-116370000D01*
X112127500Y-116370000D01*
X112210000Y-116287500D01*
X112211597Y-115740000D01*
X112205225Y-115675309D01*
X112186356Y-115613103D01*
X112155713Y-115555775D01*
X112114474Y-115505526D01*
X112064225Y-115464287D01*
X112006897Y-115433644D01*
X111944691Y-115414775D01*
X111880000Y-115408403D01*
X110232500Y-115410000D01*
X110150000Y-115492500D01*
X109810000Y-115492500D01*
X109727500Y-115410000D01*
X108080000Y-115408403D01*
X108015309Y-115414775D01*
X107953103Y-115433644D01*
X107895775Y-115464287D01*
X107845526Y-115505526D01*
X107804287Y-115555775D01*
X107773644Y-115613103D01*
X107754775Y-115675309D01*
X107748403Y-115740000D01*
X105851597Y-115740000D01*
X105845225Y-115675309D01*
X105826356Y-115613103D01*
X105795713Y-115555775D01*
X105754474Y-115505526D01*
X105704225Y-115464287D01*
X105646897Y-115433644D01*
X105584691Y-115414775D01*
X105520000Y-115408403D01*
X104272500Y-115410000D01*
X104190000Y-115492500D01*
X103850000Y-115492500D01*
X103767500Y-115410000D01*
X102520000Y-115408403D01*
X102455309Y-115414775D01*
X102393103Y-115433644D01*
X102335775Y-115464287D01*
X102285526Y-115505526D01*
X102244287Y-115555775D01*
X102213644Y-115613103D01*
X102194775Y-115675309D01*
X102188403Y-115740000D01*
X101989904Y-115740000D01*
X101989916Y-113942500D01*
X109110000Y-113942500D01*
X109114830Y-114004969D01*
X109133753Y-114067158D01*
X109164444Y-114124461D01*
X109205726Y-114174674D01*
X109256010Y-114215870D01*
X109313365Y-114246464D01*
X109375586Y-114265281D01*
X109440283Y-114271597D01*
X110487500Y-114270000D01*
X110570000Y-114187500D01*
X110570000Y-113860000D01*
X110910000Y-113860000D01*
X110910000Y-114187500D01*
X110992500Y-114270000D01*
X112039717Y-114271597D01*
X112104414Y-114265281D01*
X112166635Y-114246464D01*
X112223990Y-114215870D01*
X112274274Y-114174674D01*
X112315556Y-114124461D01*
X112346247Y-114067158D01*
X112365170Y-114004969D01*
X112370000Y-113942500D01*
X112287500Y-113860000D01*
X110910000Y-113860000D01*
X110570000Y-113860000D01*
X109192500Y-113860000D01*
X109110000Y-113942500D01*
X101989916Y-113942500D01*
X101989943Y-110231890D01*
X105520000Y-110231890D01*
X105520000Y-110348110D01*
X105542673Y-110462097D01*
X105587149Y-110569470D01*
X105651717Y-110666103D01*
X105733897Y-110748283D01*
X105830530Y-110812851D01*
X105937903Y-110857327D01*
X106051890Y-110880000D01*
X106168110Y-110880000D01*
X106282097Y-110857327D01*
X106389470Y-110812851D01*
X106486103Y-110748283D01*
X106568283Y-110666103D01*
X106575702Y-110655000D01*
X109198839Y-110655000D01*
X109198839Y-110925000D01*
X107615702Y-110925000D01*
X107608283Y-110913897D01*
X107526103Y-110831717D01*
X107429470Y-110767149D01*
X107322097Y-110722673D01*
X107208110Y-110700000D01*
X107091890Y-110700000D01*
X106977903Y-110722673D01*
X106870530Y-110767149D01*
X106773897Y-110831717D01*
X106691717Y-110913897D01*
X106627149Y-111010530D01*
X106582673Y-111117903D01*
X106560000Y-111231890D01*
X106560000Y-111348110D01*
X106582673Y-111462097D01*
X106627149Y-111569470D01*
X106691717Y-111666103D01*
X106773897Y-111748283D01*
X106870530Y-111812851D01*
X106977903Y-111857327D01*
X107091890Y-111880000D01*
X107208110Y-111880000D01*
X107322097Y-111857327D01*
X107429470Y-111812851D01*
X107526103Y-111748283D01*
X107608283Y-111666103D01*
X107615702Y-111655000D01*
X109127500Y-111655000D01*
X109192500Y-111720000D01*
X110570000Y-111720000D01*
X110570000Y-111681161D01*
X110910000Y-111681161D01*
X110910000Y-111720000D01*
X112287500Y-111720000D01*
X112370000Y-111637500D01*
X112365170Y-111575031D01*
X112346247Y-111512842D01*
X112315556Y-111455539D01*
X112281161Y-111413703D01*
X112281161Y-111155000D01*
X120082071Y-111155000D01*
X120100000Y-111156766D01*
X120117929Y-111155000D01*
X120117931Y-111155000D01*
X120171552Y-111149719D01*
X120240355Y-111128848D01*
X120303764Y-111094955D01*
X120359343Y-111049343D01*
X120370779Y-111035408D01*
X121251188Y-110155000D01*
X137268813Y-110155000D01*
X137458812Y-110345000D01*
X121887928Y-110345000D01*
X121869999Y-110343234D01*
X121852070Y-110345000D01*
X121852069Y-110345000D01*
X121798448Y-110350281D01*
X121729645Y-110371152D01*
X121729643Y-110371153D01*
X121666234Y-110405046D01*
X121642125Y-110424833D01*
X121610657Y-110450657D01*
X121599225Y-110464587D01*
X120138813Y-111925000D01*
X112352500Y-111925000D01*
X112287500Y-111860000D01*
X110910000Y-111860000D01*
X110910000Y-111898839D01*
X110570000Y-111898839D01*
X110570000Y-111860000D01*
X109192500Y-111860000D01*
X109110000Y-111942500D01*
X109114830Y-112004969D01*
X109133753Y-112067158D01*
X109164444Y-112124461D01*
X109198839Y-112166297D01*
X109198839Y-112425000D01*
X106711188Y-112425000D01*
X106707395Y-112421207D01*
X106710000Y-112408110D01*
X106710000Y-112291890D01*
X106687327Y-112177903D01*
X106642851Y-112070530D01*
X106578283Y-111973897D01*
X106496103Y-111891717D01*
X106399470Y-111827149D01*
X106292097Y-111782673D01*
X106178110Y-111760000D01*
X106061890Y-111760000D01*
X105947903Y-111782673D01*
X105840530Y-111827149D01*
X105743897Y-111891717D01*
X105661717Y-111973897D01*
X105597149Y-112070530D01*
X105552673Y-112177903D01*
X105530000Y-112291890D01*
X105530000Y-112408110D01*
X105552673Y-112522097D01*
X105597149Y-112629470D01*
X105661717Y-112726103D01*
X105743897Y-112808283D01*
X105840530Y-112872851D01*
X105947903Y-112917327D01*
X106061890Y-112940000D01*
X106178110Y-112940000D01*
X106191207Y-112937395D01*
X106289225Y-113035413D01*
X106300657Y-113049343D01*
X106356236Y-113094955D01*
X106419645Y-113128848D01*
X106488448Y-113149719D01*
X106542069Y-113155000D01*
X106542071Y-113155000D01*
X106560000Y-113156766D01*
X106577929Y-113155000D01*
X109198839Y-113155000D01*
X109198839Y-113413703D01*
X109164444Y-113455539D01*
X109133753Y-113512842D01*
X109114830Y-113575031D01*
X109110000Y-113637500D01*
X109192500Y-113720000D01*
X110570000Y-113720000D01*
X110570000Y-113681161D01*
X110910000Y-113681161D01*
X110910000Y-113720000D01*
X112287500Y-113720000D01*
X112352500Y-113655000D01*
X122373727Y-113655000D01*
X122331059Y-113672674D01*
X122168912Y-113781017D01*
X122031017Y-113918912D01*
X121922674Y-114081059D01*
X121848045Y-114261228D01*
X121810000Y-114452494D01*
X121810000Y-114647506D01*
X121848045Y-114838772D01*
X121922674Y-115018941D01*
X122031017Y-115181088D01*
X122168912Y-115318983D01*
X122331059Y-115427326D01*
X122435001Y-115470380D01*
X122435000Y-116005289D01*
X122329164Y-116049128D01*
X122166362Y-116157909D01*
X122027909Y-116296362D01*
X121919128Y-116459164D01*
X121844198Y-116640061D01*
X121806000Y-116832100D01*
X121806000Y-117027900D01*
X121844198Y-117219939D01*
X121919128Y-117400836D01*
X122027909Y-117563638D01*
X122166362Y-117702091D01*
X122329164Y-117810872D01*
X122510061Y-117885802D01*
X122702100Y-117924000D01*
X122897900Y-117924000D01*
X123089939Y-117885802D01*
X123270836Y-117810872D01*
X123433638Y-117702091D01*
X123572091Y-117563638D01*
X123680872Y-117400836D01*
X123755802Y-117219939D01*
X123794000Y-117027900D01*
X123794000Y-116832100D01*
X123755802Y-116640061D01*
X123680872Y-116459164D01*
X123572091Y-116296362D01*
X123433638Y-116157909D01*
X123270836Y-116049128D01*
X123165000Y-116005289D01*
X123165000Y-115470380D01*
X123268941Y-115427326D01*
X123431088Y-115318983D01*
X123568983Y-115181088D01*
X123677326Y-115018941D01*
X123751955Y-114838772D01*
X123790000Y-114647506D01*
X123790000Y-114452494D01*
X123751955Y-114261228D01*
X123677326Y-114081059D01*
X123568983Y-113918912D01*
X123431088Y-113781017D01*
X123268941Y-113672674D01*
X123226273Y-113655000D01*
X124913727Y-113655000D01*
X124871059Y-113672674D01*
X124708912Y-113781017D01*
X124571017Y-113918912D01*
X124462674Y-114081059D01*
X124388045Y-114261228D01*
X124350000Y-114452494D01*
X124350000Y-114647506D01*
X124388045Y-114838772D01*
X124462674Y-115018941D01*
X124571017Y-115181088D01*
X124708912Y-115318983D01*
X124871059Y-115427326D01*
X124975001Y-115470380D01*
X124975000Y-116005289D01*
X124869164Y-116049128D01*
X124706362Y-116157909D01*
X124567909Y-116296362D01*
X124459128Y-116459164D01*
X124384198Y-116640061D01*
X124346000Y-116832100D01*
X124346000Y-117027900D01*
X124384198Y-117219939D01*
X124459128Y-117400836D01*
X124567909Y-117563638D01*
X124706362Y-117702091D01*
X124869164Y-117810872D01*
X125050061Y-117885802D01*
X125242100Y-117924000D01*
X125437900Y-117924000D01*
X125629939Y-117885802D01*
X125810836Y-117810872D01*
X125973638Y-117702091D01*
X126112091Y-117563638D01*
X126220872Y-117400836D01*
X126295802Y-117219939D01*
X126334000Y-117027900D01*
X126334000Y-116832100D01*
X126295802Y-116640061D01*
X126220872Y-116459164D01*
X126112091Y-116296362D01*
X125973638Y-116157909D01*
X125810836Y-116049128D01*
X125705000Y-116005289D01*
X125705000Y-115470380D01*
X125808941Y-115427326D01*
X125971088Y-115318983D01*
X126108983Y-115181088D01*
X126217326Y-115018941D01*
X126291955Y-114838772D01*
X126330000Y-114647506D01*
X126330000Y-114452494D01*
X126291955Y-114261228D01*
X126217326Y-114081059D01*
X126108983Y-113918912D01*
X125971088Y-113781017D01*
X125808941Y-113672674D01*
X125766273Y-113655000D01*
X127453727Y-113655000D01*
X127411059Y-113672674D01*
X127248912Y-113781017D01*
X127111017Y-113918912D01*
X127002674Y-114081059D01*
X126928045Y-114261228D01*
X126890000Y-114452494D01*
X126890000Y-114647506D01*
X126928045Y-114838772D01*
X127002674Y-115018941D01*
X127111017Y-115181088D01*
X127248912Y-115318983D01*
X127411059Y-115427326D01*
X127515001Y-115470380D01*
X127515000Y-116005289D01*
X127409164Y-116049128D01*
X127246362Y-116157909D01*
X127107909Y-116296362D01*
X126999128Y-116459164D01*
X126924198Y-116640061D01*
X126886000Y-116832100D01*
X126886000Y-117027900D01*
X126924198Y-117219939D01*
X126999128Y-117400836D01*
X127107909Y-117563638D01*
X127246362Y-117702091D01*
X127409164Y-117810872D01*
X127590061Y-117885802D01*
X127782100Y-117924000D01*
X127977900Y-117924000D01*
X128169939Y-117885802D01*
X128350836Y-117810872D01*
X128513638Y-117702091D01*
X128652091Y-117563638D01*
X128760872Y-117400836D01*
X128835802Y-117219939D01*
X128874000Y-117027900D01*
X128874000Y-116832100D01*
X128835802Y-116640061D01*
X128760872Y-116459164D01*
X128652091Y-116296362D01*
X128513638Y-116157909D01*
X128350836Y-116049128D01*
X128245000Y-116005289D01*
X128245000Y-115470380D01*
X128348941Y-115427326D01*
X128511088Y-115318983D01*
X128648983Y-115181088D01*
X128757326Y-115018941D01*
X128831955Y-114838772D01*
X128870000Y-114647506D01*
X128870000Y-114452494D01*
X128831955Y-114261228D01*
X128757326Y-114081059D01*
X128648983Y-113918912D01*
X128511088Y-113781017D01*
X128348941Y-113672674D01*
X128306273Y-113655000D01*
X129993727Y-113655000D01*
X129951059Y-113672674D01*
X129788912Y-113781017D01*
X129651017Y-113918912D01*
X129542674Y-114081059D01*
X129468045Y-114261228D01*
X129430000Y-114452494D01*
X129430000Y-114647506D01*
X129468045Y-114838772D01*
X129542674Y-115018941D01*
X129651017Y-115181088D01*
X129788912Y-115318983D01*
X129951059Y-115427326D01*
X130055001Y-115470380D01*
X130055000Y-116005289D01*
X129949164Y-116049128D01*
X129786362Y-116157909D01*
X129647909Y-116296362D01*
X129539128Y-116459164D01*
X129464198Y-116640061D01*
X129426000Y-116832100D01*
X129426000Y-117027900D01*
X129464198Y-117219939D01*
X129539128Y-117400836D01*
X129647909Y-117563638D01*
X129786362Y-117702091D01*
X129949164Y-117810872D01*
X130130061Y-117885802D01*
X130322100Y-117924000D01*
X130517900Y-117924000D01*
X130709939Y-117885802D01*
X130890836Y-117810872D01*
X131053638Y-117702091D01*
X131192091Y-117563638D01*
X131300872Y-117400836D01*
X131375802Y-117219939D01*
X131414000Y-117027900D01*
X131414000Y-116832100D01*
X131375802Y-116640061D01*
X131300872Y-116459164D01*
X131192091Y-116296362D01*
X131053638Y-116157909D01*
X130890836Y-116049128D01*
X130785000Y-116005289D01*
X130785000Y-115470380D01*
X130888941Y-115427326D01*
X131051088Y-115318983D01*
X131188983Y-115181088D01*
X131297326Y-115018941D01*
X131371955Y-114838772D01*
X131410000Y-114647506D01*
X131410000Y-114452494D01*
X131371955Y-114261228D01*
X131297326Y-114081059D01*
X131188983Y-113918912D01*
X131051088Y-113781017D01*
X130888941Y-113672674D01*
X130846273Y-113655000D01*
X132533727Y-113655000D01*
X132491059Y-113672674D01*
X132328912Y-113781017D01*
X132191017Y-113918912D01*
X132082674Y-114081059D01*
X132008045Y-114261228D01*
X131970000Y-114452494D01*
X131970000Y-114647506D01*
X132008045Y-114838772D01*
X132082674Y-115018941D01*
X132191017Y-115181088D01*
X132328912Y-115318983D01*
X132491059Y-115427326D01*
X132595001Y-115470380D01*
X132595000Y-116005289D01*
X132489164Y-116049128D01*
X132326362Y-116157909D01*
X132187909Y-116296362D01*
X132079128Y-116459164D01*
X132004198Y-116640061D01*
X131966000Y-116832100D01*
X131966000Y-117027900D01*
X132004198Y-117219939D01*
X132079128Y-117400836D01*
X132187909Y-117563638D01*
X132326362Y-117702091D01*
X132489164Y-117810872D01*
X132670061Y-117885802D01*
X132862100Y-117924000D01*
X133057900Y-117924000D01*
X133249939Y-117885802D01*
X133430836Y-117810872D01*
X133593638Y-117702091D01*
X133732091Y-117563638D01*
X133840872Y-117400836D01*
X133915802Y-117219939D01*
X133954000Y-117027900D01*
X133954000Y-116832100D01*
X133915802Y-116640061D01*
X133840872Y-116459164D01*
X133732091Y-116296362D01*
X133593638Y-116157909D01*
X133430836Y-116049128D01*
X133325000Y-116005289D01*
X133325000Y-115470380D01*
X133428941Y-115427326D01*
X133591088Y-115318983D01*
X133728983Y-115181088D01*
X133837326Y-115018941D01*
X133911955Y-114838772D01*
X133950000Y-114647506D01*
X133950000Y-114452494D01*
X133911955Y-114261228D01*
X133837326Y-114081059D01*
X133728983Y-113918912D01*
X133591088Y-113781017D01*
X133428941Y-113672674D01*
X133386273Y-113655000D01*
X135073727Y-113655000D01*
X135031059Y-113672674D01*
X134868912Y-113781017D01*
X134731017Y-113918912D01*
X134622674Y-114081059D01*
X134548045Y-114261228D01*
X134510000Y-114452494D01*
X134510000Y-114647506D01*
X134548045Y-114838772D01*
X134622674Y-115018941D01*
X134731017Y-115181088D01*
X134868912Y-115318983D01*
X135031059Y-115427326D01*
X135135001Y-115470380D01*
X135135000Y-116005289D01*
X135029164Y-116049128D01*
X134866362Y-116157909D01*
X134727909Y-116296362D01*
X134619128Y-116459164D01*
X134544198Y-116640061D01*
X134506000Y-116832100D01*
X134506000Y-117027900D01*
X134544198Y-117219939D01*
X134619128Y-117400836D01*
X134727909Y-117563638D01*
X134866362Y-117702091D01*
X135029164Y-117810872D01*
X135210061Y-117885802D01*
X135402100Y-117924000D01*
X135597900Y-117924000D01*
X135789939Y-117885802D01*
X135970836Y-117810872D01*
X136133638Y-117702091D01*
X136272091Y-117563638D01*
X136380872Y-117400836D01*
X136455802Y-117219939D01*
X136494000Y-117027900D01*
X136494000Y-116832100D01*
X136455802Y-116640061D01*
X136380872Y-116459164D01*
X136272091Y-116296362D01*
X136133638Y-116157909D01*
X135970836Y-116049128D01*
X135865000Y-116005289D01*
X135865000Y-115470380D01*
X135968941Y-115427326D01*
X136131088Y-115318983D01*
X136268983Y-115181088D01*
X136377326Y-115018941D01*
X136451955Y-114838772D01*
X136490000Y-114647506D01*
X136490000Y-114452494D01*
X136451955Y-114261228D01*
X136377326Y-114081059D01*
X136268983Y-113918912D01*
X136131088Y-113781017D01*
X135968941Y-113672674D01*
X135926273Y-113655000D01*
X137603727Y-113655000D01*
X137561059Y-113672674D01*
X137398912Y-113781017D01*
X137261017Y-113918912D01*
X137152674Y-114081059D01*
X137078045Y-114261228D01*
X137040000Y-114452494D01*
X137040000Y-114647506D01*
X137078045Y-114838772D01*
X137152674Y-115018941D01*
X137261017Y-115181088D01*
X137398912Y-115318983D01*
X137561059Y-115427326D01*
X137675001Y-115474523D01*
X137675000Y-116005289D01*
X137569164Y-116049128D01*
X137406362Y-116157909D01*
X137267909Y-116296362D01*
X137159128Y-116459164D01*
X137084198Y-116640061D01*
X137046000Y-116832100D01*
X137046000Y-117027900D01*
X137084198Y-117219939D01*
X137159128Y-117400836D01*
X137267909Y-117563638D01*
X137406362Y-117702091D01*
X137569164Y-117810872D01*
X137750061Y-117885802D01*
X137942100Y-117924000D01*
X138137900Y-117924000D01*
X138329939Y-117885802D01*
X138510836Y-117810872D01*
X138673638Y-117702091D01*
X138812091Y-117563638D01*
X138920872Y-117400836D01*
X138995802Y-117219939D01*
X139034000Y-117027900D01*
X139034000Y-116832100D01*
X138995802Y-116640061D01*
X138920872Y-116459164D01*
X138812091Y-116296362D01*
X138673638Y-116157909D01*
X138510836Y-116049128D01*
X138405000Y-116005289D01*
X138405000Y-115466238D01*
X138498941Y-115427326D01*
X138661088Y-115318983D01*
X138798983Y-115181088D01*
X138907326Y-115018941D01*
X138981955Y-114838772D01*
X139020000Y-114647506D01*
X139020000Y-114452494D01*
X138981955Y-114261228D01*
X138907326Y-114081059D01*
X138798983Y-113918912D01*
X138661088Y-113781017D01*
X138498941Y-113672674D01*
X138456273Y-113655000D01*
X140153727Y-113655000D01*
X140111059Y-113672674D01*
X139948912Y-113781017D01*
X139811017Y-113918912D01*
X139702674Y-114081059D01*
X139628045Y-114261228D01*
X139590000Y-114452494D01*
X139590000Y-114647506D01*
X139628045Y-114838772D01*
X139702674Y-115018941D01*
X139811017Y-115181088D01*
X139948912Y-115318983D01*
X140111059Y-115427326D01*
X140215001Y-115470380D01*
X140215000Y-116005289D01*
X140109164Y-116049128D01*
X139946362Y-116157909D01*
X139807909Y-116296362D01*
X139699128Y-116459164D01*
X139624198Y-116640061D01*
X139586000Y-116832100D01*
X139586000Y-117027900D01*
X139624198Y-117219939D01*
X139699128Y-117400836D01*
X139807909Y-117563638D01*
X139946362Y-117702091D01*
X140109164Y-117810872D01*
X140290061Y-117885802D01*
X140482100Y-117924000D01*
X140677900Y-117924000D01*
X140869939Y-117885802D01*
X141050836Y-117810872D01*
X141213638Y-117702091D01*
X141352091Y-117563638D01*
X141460872Y-117400836D01*
X141535802Y-117219939D01*
X141574000Y-117027900D01*
X141574000Y-116832100D01*
X142126000Y-116832100D01*
X142126000Y-117027900D01*
X142164198Y-117219939D01*
X142239128Y-117400836D01*
X142347909Y-117563638D01*
X142486362Y-117702091D01*
X142649164Y-117810872D01*
X142830061Y-117885802D01*
X143022100Y-117924000D01*
X143217900Y-117924000D01*
X143409939Y-117885802D01*
X143590836Y-117810872D01*
X143753638Y-117702091D01*
X143892091Y-117563638D01*
X144000872Y-117400836D01*
X144075802Y-117219939D01*
X144114000Y-117027900D01*
X144114000Y-116832100D01*
X144666000Y-116832100D01*
X144666000Y-117027900D01*
X144704198Y-117219939D01*
X144779128Y-117400836D01*
X144887909Y-117563638D01*
X145026362Y-117702091D01*
X145189164Y-117810872D01*
X145370061Y-117885802D01*
X145562100Y-117924000D01*
X145757900Y-117924000D01*
X145949939Y-117885802D01*
X146130836Y-117810872D01*
X146293638Y-117702091D01*
X146432091Y-117563638D01*
X146540872Y-117400836D01*
X146615802Y-117219939D01*
X146654000Y-117027900D01*
X146654000Y-116832100D01*
X147206000Y-116832100D01*
X147206000Y-117027900D01*
X147244198Y-117219939D01*
X147319128Y-117400836D01*
X147427909Y-117563638D01*
X147566362Y-117702091D01*
X147729164Y-117810872D01*
X147910061Y-117885802D01*
X148102100Y-117924000D01*
X148297900Y-117924000D01*
X148489939Y-117885802D01*
X148670836Y-117810872D01*
X148833638Y-117702091D01*
X148972091Y-117563638D01*
X149080872Y-117400836D01*
X149155802Y-117219939D01*
X149194000Y-117027900D01*
X149194000Y-116832100D01*
X149746000Y-116832100D01*
X149746000Y-117027900D01*
X149784198Y-117219939D01*
X149859128Y-117400836D01*
X149967909Y-117563638D01*
X150106362Y-117702091D01*
X150269164Y-117810872D01*
X150450061Y-117885802D01*
X150642100Y-117924000D01*
X150837900Y-117924000D01*
X151029939Y-117885802D01*
X151210836Y-117810872D01*
X151373638Y-117702091D01*
X151512091Y-117563638D01*
X151620872Y-117400836D01*
X151641928Y-117350000D01*
X155218403Y-117350000D01*
X155224775Y-117414691D01*
X155243644Y-117476897D01*
X155274287Y-117534225D01*
X155315526Y-117584474D01*
X155365775Y-117625713D01*
X155423103Y-117656356D01*
X155485309Y-117675225D01*
X155550000Y-117681597D01*
X157197500Y-117680000D01*
X157280000Y-117597500D01*
X157280000Y-116720000D01*
X157620000Y-116720000D01*
X157620000Y-117597500D01*
X157702500Y-117680000D01*
X159350000Y-117681597D01*
X159414691Y-117675225D01*
X159476897Y-117656356D01*
X159534225Y-117625713D01*
X159584474Y-117584474D01*
X159625713Y-117534225D01*
X159656356Y-117476897D01*
X159675225Y-117414691D01*
X159681597Y-117350000D01*
X161578403Y-117350000D01*
X161584775Y-117414691D01*
X161603644Y-117476897D01*
X161634287Y-117534225D01*
X161675526Y-117584474D01*
X161725775Y-117625713D01*
X161783103Y-117656356D01*
X161845309Y-117675225D01*
X161910000Y-117681597D01*
X163157500Y-117680000D01*
X163240000Y-117597500D01*
X163240000Y-116720000D01*
X161662500Y-116720000D01*
X161580000Y-116802500D01*
X161578403Y-117350000D01*
X159681597Y-117350000D01*
X159680000Y-116802500D01*
X159597500Y-116720000D01*
X157620000Y-116720000D01*
X157280000Y-116720000D01*
X155302500Y-116720000D01*
X155220000Y-116802500D01*
X155218403Y-117350000D01*
X151641928Y-117350000D01*
X151695802Y-117219939D01*
X151734000Y-117027900D01*
X151734000Y-116832100D01*
X151695802Y-116640061D01*
X151620872Y-116459164D01*
X151512091Y-116296362D01*
X151373638Y-116157909D01*
X151210836Y-116049128D01*
X151029939Y-115974198D01*
X150837900Y-115936000D01*
X150642100Y-115936000D01*
X150450061Y-115974198D01*
X150269164Y-116049128D01*
X150106362Y-116157909D01*
X149967909Y-116296362D01*
X149859128Y-116459164D01*
X149784198Y-116640061D01*
X149746000Y-116832100D01*
X149194000Y-116832100D01*
X149155802Y-116640061D01*
X149080872Y-116459164D01*
X148972091Y-116296362D01*
X148833638Y-116157909D01*
X148670836Y-116049128D01*
X148489939Y-115974198D01*
X148297900Y-115936000D01*
X148102100Y-115936000D01*
X147910061Y-115974198D01*
X147729164Y-116049128D01*
X147566362Y-116157909D01*
X147427909Y-116296362D01*
X147319128Y-116459164D01*
X147244198Y-116640061D01*
X147206000Y-116832100D01*
X146654000Y-116832100D01*
X146615802Y-116640061D01*
X146540872Y-116459164D01*
X146432091Y-116296362D01*
X146293638Y-116157909D01*
X146130836Y-116049128D01*
X145949939Y-115974198D01*
X145757900Y-115936000D01*
X145562100Y-115936000D01*
X145370061Y-115974198D01*
X145189164Y-116049128D01*
X145026362Y-116157909D01*
X144887909Y-116296362D01*
X144779128Y-116459164D01*
X144704198Y-116640061D01*
X144666000Y-116832100D01*
X144114000Y-116832100D01*
X144075802Y-116640061D01*
X144000872Y-116459164D01*
X143892091Y-116296362D01*
X143753638Y-116157909D01*
X143590836Y-116049128D01*
X143409939Y-115974198D01*
X143217900Y-115936000D01*
X143022100Y-115936000D01*
X142830061Y-115974198D01*
X142649164Y-116049128D01*
X142486362Y-116157909D01*
X142347909Y-116296362D01*
X142239128Y-116459164D01*
X142164198Y-116640061D01*
X142126000Y-116832100D01*
X141574000Y-116832100D01*
X141535802Y-116640061D01*
X141460872Y-116459164D01*
X141352091Y-116296362D01*
X141213638Y-116157909D01*
X141050836Y-116049128D01*
X140945000Y-116005289D01*
X140945000Y-115750000D01*
X155218403Y-115750000D01*
X155220000Y-116297500D01*
X155302500Y-116380000D01*
X157280000Y-116380000D01*
X157280000Y-115502500D01*
X157620000Y-115502500D01*
X157620000Y-116380000D01*
X159597500Y-116380000D01*
X159680000Y-116297500D01*
X159681597Y-115750000D01*
X161578403Y-115750000D01*
X161580000Y-116297500D01*
X161662500Y-116380000D01*
X163240000Y-116380000D01*
X163240000Y-115502500D01*
X163580000Y-115502500D01*
X163580000Y-116380000D01*
X165157500Y-116380000D01*
X165240000Y-116297500D01*
X165241597Y-115750000D01*
X165235225Y-115685309D01*
X165216356Y-115623103D01*
X165185713Y-115565775D01*
X165144474Y-115515526D01*
X165094225Y-115474287D01*
X165036897Y-115443644D01*
X164974691Y-115424775D01*
X164910000Y-115418403D01*
X163662500Y-115420000D01*
X163580000Y-115502500D01*
X163240000Y-115502500D01*
X163157500Y-115420000D01*
X161910000Y-115418403D01*
X161845309Y-115424775D01*
X161783103Y-115443644D01*
X161725775Y-115474287D01*
X161675526Y-115515526D01*
X161634287Y-115565775D01*
X161603644Y-115623103D01*
X161584775Y-115685309D01*
X161578403Y-115750000D01*
X159681597Y-115750000D01*
X159675225Y-115685309D01*
X159656356Y-115623103D01*
X159625713Y-115565775D01*
X159584474Y-115515526D01*
X159534225Y-115474287D01*
X159476897Y-115443644D01*
X159414691Y-115424775D01*
X159350000Y-115418403D01*
X157702500Y-115420000D01*
X157620000Y-115502500D01*
X157280000Y-115502500D01*
X157197500Y-115420000D01*
X155550000Y-115418403D01*
X155485309Y-115424775D01*
X155423103Y-115443644D01*
X155365775Y-115474287D01*
X155315526Y-115515526D01*
X155274287Y-115565775D01*
X155243644Y-115623103D01*
X155224775Y-115685309D01*
X155218403Y-115750000D01*
X140945000Y-115750000D01*
X140945000Y-115470380D01*
X141048941Y-115427326D01*
X141211088Y-115318983D01*
X141348983Y-115181088D01*
X141457326Y-115018941D01*
X141531955Y-114838772D01*
X141570000Y-114647506D01*
X141570000Y-114452494D01*
X141531955Y-114261228D01*
X141457326Y-114081059D01*
X141348983Y-113918912D01*
X141211088Y-113781017D01*
X141048941Y-113672674D01*
X141006273Y-113655000D01*
X143038813Y-113655000D01*
X144479221Y-115095408D01*
X144490657Y-115109343D01*
X144546236Y-115154955D01*
X144609645Y-115188848D01*
X144678448Y-115209719D01*
X144732069Y-115215000D01*
X144732070Y-115215000D01*
X144749999Y-115216766D01*
X144767928Y-115215000D01*
X159864297Y-115215000D01*
X159871716Y-115226104D01*
X159953896Y-115308284D01*
X160050529Y-115372852D01*
X160157902Y-115417328D01*
X160271889Y-115440001D01*
X160388109Y-115440001D01*
X160502096Y-115417328D01*
X160609469Y-115372852D01*
X160706102Y-115308284D01*
X160788282Y-115226104D01*
X160852850Y-115129471D01*
X160897326Y-115022098D01*
X160919999Y-114908111D01*
X160919999Y-114791891D01*
X160897326Y-114677904D01*
X160852850Y-114570531D01*
X160788282Y-114473898D01*
X160706102Y-114391718D01*
X160609469Y-114327150D01*
X160502096Y-114282674D01*
X160388109Y-114260001D01*
X160271889Y-114260001D01*
X160157902Y-114282674D01*
X160050529Y-114327150D01*
X159953896Y-114391718D01*
X159871716Y-114473898D01*
X159864298Y-114485000D01*
X144901187Y-114485000D01*
X143460779Y-113044592D01*
X143449343Y-113030657D01*
X143393764Y-112985045D01*
X143330355Y-112951152D01*
X143261552Y-112930281D01*
X143207931Y-112925000D01*
X143207929Y-112925000D01*
X143190000Y-112923234D01*
X143172071Y-112925000D01*
X141102735Y-112925000D01*
X141158562Y-112828978D01*
X140580000Y-112250416D01*
X140001438Y-112828978D01*
X140057265Y-112925000D01*
X138552735Y-112925000D01*
X138608562Y-112828978D01*
X138030000Y-112250416D01*
X137451438Y-112828978D01*
X137507265Y-112925000D01*
X136022735Y-112925000D01*
X136078562Y-112828978D01*
X135500000Y-112250416D01*
X134921438Y-112828978D01*
X134977265Y-112925000D01*
X133482735Y-112925000D01*
X133538562Y-112828978D01*
X132960000Y-112250416D01*
X132381438Y-112828978D01*
X132437265Y-112925000D01*
X130942735Y-112925000D01*
X130998562Y-112828978D01*
X130420000Y-112250416D01*
X129841438Y-112828978D01*
X129897265Y-112925000D01*
X128402735Y-112925000D01*
X128458562Y-112828978D01*
X127880000Y-112250416D01*
X127301438Y-112828978D01*
X127357265Y-112925000D01*
X125862735Y-112925000D01*
X125918562Y-112828978D01*
X125340000Y-112250416D01*
X124761438Y-112828978D01*
X124817265Y-112925000D01*
X123322735Y-112925000D01*
X123378562Y-112828978D01*
X122800000Y-112250416D01*
X122221438Y-112828978D01*
X122277265Y-112925000D01*
X112281161Y-112925000D01*
X112281161Y-112655000D01*
X120272071Y-112655000D01*
X120290000Y-112656766D01*
X120307929Y-112655000D01*
X120307931Y-112655000D01*
X120361552Y-112649719D01*
X120430355Y-112628848D01*
X120493764Y-112594955D01*
X120549343Y-112549343D01*
X120560779Y-112535408D01*
X121171097Y-111925090D01*
X121718100Y-111925090D01*
X121722324Y-112137790D01*
X121767962Y-112345579D01*
X121832949Y-112502472D01*
X121981022Y-112588562D01*
X122559584Y-112010000D01*
X123040416Y-112010000D01*
X123618978Y-112588562D01*
X123767051Y-112502472D01*
X123844546Y-112304347D01*
X123881900Y-112094910D01*
X123878528Y-111925090D01*
X124258100Y-111925090D01*
X124262324Y-112137790D01*
X124307962Y-112345579D01*
X124372949Y-112502472D01*
X124521022Y-112588562D01*
X125099584Y-112010000D01*
X125580416Y-112010000D01*
X126158978Y-112588562D01*
X126307051Y-112502472D01*
X126384546Y-112304347D01*
X126421900Y-112094910D01*
X126418528Y-111925090D01*
X126798100Y-111925090D01*
X126802324Y-112137790D01*
X126847962Y-112345579D01*
X126912949Y-112502472D01*
X127061022Y-112588562D01*
X127639584Y-112010000D01*
X128120416Y-112010000D01*
X128698978Y-112588562D01*
X128847051Y-112502472D01*
X128924546Y-112304347D01*
X128961900Y-112094910D01*
X128958528Y-111925090D01*
X129338100Y-111925090D01*
X129342324Y-112137790D01*
X129387962Y-112345579D01*
X129452949Y-112502472D01*
X129601022Y-112588562D01*
X130179584Y-112010000D01*
X130660416Y-112010000D01*
X131238978Y-112588562D01*
X131387051Y-112502472D01*
X131464546Y-112304347D01*
X131501900Y-112094910D01*
X131498528Y-111925090D01*
X131878100Y-111925090D01*
X131882324Y-112137790D01*
X131927962Y-112345579D01*
X131992949Y-112502472D01*
X132141022Y-112588562D01*
X132719584Y-112010000D01*
X133200416Y-112010000D01*
X133778978Y-112588562D01*
X133927051Y-112502472D01*
X134004546Y-112304347D01*
X134041900Y-112094910D01*
X134038528Y-111925090D01*
X134418100Y-111925090D01*
X134422324Y-112137790D01*
X134467962Y-112345579D01*
X134532949Y-112502472D01*
X134681022Y-112588562D01*
X135259584Y-112010000D01*
X135740416Y-112010000D01*
X136318978Y-112588562D01*
X136467051Y-112502472D01*
X136544546Y-112304347D01*
X136581900Y-112094910D01*
X136578528Y-111925090D01*
X136948100Y-111925090D01*
X136952324Y-112137790D01*
X136997962Y-112345579D01*
X137062949Y-112502472D01*
X137211022Y-112588562D01*
X137789584Y-112010000D01*
X138270416Y-112010000D01*
X138848978Y-112588562D01*
X138997051Y-112502472D01*
X139074546Y-112304347D01*
X139111900Y-112094910D01*
X139108528Y-111925090D01*
X139498100Y-111925090D01*
X139502324Y-112137790D01*
X139547962Y-112345579D01*
X139612949Y-112502472D01*
X139761022Y-112588562D01*
X140339584Y-112010000D01*
X140820416Y-112010000D01*
X141398978Y-112588562D01*
X141547051Y-112502472D01*
X141624546Y-112304347D01*
X141661900Y-112094910D01*
X141657676Y-111882210D01*
X141612038Y-111674421D01*
X141547051Y-111517528D01*
X141398978Y-111431438D01*
X140820416Y-112010000D01*
X140339584Y-112010000D01*
X139761022Y-111431438D01*
X139612949Y-111517528D01*
X139535454Y-111715653D01*
X139498100Y-111925090D01*
X139108528Y-111925090D01*
X139107676Y-111882210D01*
X139062038Y-111674421D01*
X138997051Y-111517528D01*
X138848978Y-111431438D01*
X138270416Y-112010000D01*
X137789584Y-112010000D01*
X137211022Y-111431438D01*
X137062949Y-111517528D01*
X136985454Y-111715653D01*
X136948100Y-111925090D01*
X136578528Y-111925090D01*
X136577676Y-111882210D01*
X136532038Y-111674421D01*
X136467051Y-111517528D01*
X136318978Y-111431438D01*
X135740416Y-112010000D01*
X135259584Y-112010000D01*
X134681022Y-111431438D01*
X134532949Y-111517528D01*
X134455454Y-111715653D01*
X134418100Y-111925090D01*
X134038528Y-111925090D01*
X134037676Y-111882210D01*
X133992038Y-111674421D01*
X133927051Y-111517528D01*
X133778978Y-111431438D01*
X133200416Y-112010000D01*
X132719584Y-112010000D01*
X132141022Y-111431438D01*
X131992949Y-111517528D01*
X131915454Y-111715653D01*
X131878100Y-111925090D01*
X131498528Y-111925090D01*
X131497676Y-111882210D01*
X131452038Y-111674421D01*
X131387051Y-111517528D01*
X131238978Y-111431438D01*
X130660416Y-112010000D01*
X130179584Y-112010000D01*
X129601022Y-111431438D01*
X129452949Y-111517528D01*
X129375454Y-111715653D01*
X129338100Y-111925090D01*
X128958528Y-111925090D01*
X128957676Y-111882210D01*
X128912038Y-111674421D01*
X128847051Y-111517528D01*
X128698978Y-111431438D01*
X128120416Y-112010000D01*
X127639584Y-112010000D01*
X127061022Y-111431438D01*
X126912949Y-111517528D01*
X126835454Y-111715653D01*
X126798100Y-111925090D01*
X126418528Y-111925090D01*
X126417676Y-111882210D01*
X126372038Y-111674421D01*
X126307051Y-111517528D01*
X126158978Y-111431438D01*
X125580416Y-112010000D01*
X125099584Y-112010000D01*
X124521022Y-111431438D01*
X124372949Y-111517528D01*
X124295454Y-111715653D01*
X124258100Y-111925090D01*
X123878528Y-111925090D01*
X123877676Y-111882210D01*
X123832038Y-111674421D01*
X123767051Y-111517528D01*
X123618978Y-111431438D01*
X123040416Y-112010000D01*
X122559584Y-112010000D01*
X121981022Y-111431438D01*
X121832949Y-111517528D01*
X121755454Y-111715653D01*
X121718100Y-111925090D01*
X121171097Y-111925090D01*
X122021188Y-111075000D01*
X122288893Y-111075000D01*
X122221438Y-111191022D01*
X122800000Y-111769584D01*
X123378562Y-111191022D01*
X123311107Y-111075000D01*
X124828893Y-111075000D01*
X124761438Y-111191022D01*
X125340000Y-111769584D01*
X125918562Y-111191022D01*
X125851107Y-111075000D01*
X127368893Y-111075000D01*
X127301438Y-111191022D01*
X127880000Y-111769584D01*
X128458562Y-111191022D01*
X128391107Y-111075000D01*
X129908893Y-111075000D01*
X129841438Y-111191022D01*
X130420000Y-111769584D01*
X130998562Y-111191022D01*
X130931107Y-111075000D01*
X132448893Y-111075000D01*
X132381438Y-111191022D01*
X132960000Y-111769584D01*
X133538562Y-111191022D01*
X133471107Y-111075000D01*
X134988893Y-111075000D01*
X134921438Y-111191022D01*
X135500000Y-111769584D01*
X136078562Y-111191022D01*
X136011107Y-111075000D01*
X137518893Y-111075000D01*
X137451438Y-111191022D01*
X138030000Y-111769584D01*
X138608562Y-111191022D01*
X138541107Y-111075000D01*
X140068893Y-111075000D01*
X140001438Y-111191022D01*
X140580000Y-111769584D01*
X141158562Y-111191022D01*
X141091107Y-111075000D01*
X143788813Y-111075000D01*
X146479225Y-113765413D01*
X146490657Y-113779343D01*
X146546236Y-113824955D01*
X146609645Y-113858848D01*
X146678448Y-113879719D01*
X146732069Y-113885000D01*
X146732070Y-113885000D01*
X146749999Y-113886766D01*
X146767928Y-113885000D01*
X161194300Y-113885000D01*
X161201719Y-113896103D01*
X161283899Y-113978283D01*
X161380532Y-114042851D01*
X161487905Y-114087327D01*
X161601892Y-114110000D01*
X161718112Y-114110000D01*
X161832099Y-114087327D01*
X161939472Y-114042851D01*
X162036105Y-113978283D01*
X162118285Y-113896103D01*
X162182853Y-113799470D01*
X162227329Y-113692097D01*
X162250002Y-113578110D01*
X162250002Y-113461890D01*
X162227329Y-113347903D01*
X162182853Y-113240530D01*
X162118285Y-113143897D01*
X162036105Y-113061717D01*
X161939472Y-112997149D01*
X161832099Y-112952673D01*
X161718112Y-112930000D01*
X161601892Y-112930000D01*
X161487905Y-112952673D01*
X161380532Y-112997149D01*
X161283899Y-113061717D01*
X161201719Y-113143897D01*
X161194300Y-113155000D01*
X146901188Y-113155000D01*
X144210779Y-110464592D01*
X144199343Y-110450657D01*
X144143764Y-110405045D01*
X144080355Y-110371152D01*
X144011552Y-110350281D01*
X143957931Y-110345000D01*
X143957929Y-110345000D01*
X143940000Y-110343234D01*
X143922071Y-110345000D01*
X140251188Y-110345000D01*
X140355418Y-110240770D01*
X140369342Y-110229343D01*
X140380772Y-110215416D01*
X140414954Y-110173766D01*
X140438963Y-110128848D01*
X140448848Y-110110355D01*
X140469719Y-110041552D01*
X140475000Y-109987931D01*
X140475000Y-109987930D01*
X140476766Y-109970001D01*
X140475000Y-109952072D01*
X140475000Y-108371187D01*
X144351188Y-104495000D01*
X152112071Y-104495000D01*
X152130000Y-104496766D01*
X152147929Y-104495000D01*
X152147931Y-104495000D01*
X152201552Y-104489719D01*
X152270355Y-104468848D01*
X152333764Y-104434955D01*
X152389343Y-104389343D01*
X152400779Y-104375408D01*
X152951188Y-103825000D01*
X153818813Y-103825000D01*
X156589221Y-106595408D01*
X156600657Y-106609343D01*
X156656236Y-106654955D01*
X156719645Y-106688848D01*
X156788448Y-106709719D01*
X156842069Y-106715000D01*
X156842070Y-106715000D01*
X156859999Y-106716766D01*
X156877928Y-106715000D01*
X160498813Y-106715000D01*
X162455000Y-108671188D01*
X162455001Y-111844309D01*
X162443904Y-111851724D01*
X162361724Y-111933904D01*
X162297156Y-112030537D01*
X162252680Y-112137910D01*
X162230007Y-112251897D01*
X162230007Y-112368117D01*
X162252680Y-112482104D01*
X162297156Y-112589477D01*
X162361724Y-112686110D01*
X162443904Y-112768290D01*
X162540537Y-112832858D01*
X162647910Y-112877334D01*
X162761897Y-112900007D01*
X162878117Y-112900007D01*
X162992104Y-112877334D01*
X163099477Y-112832858D01*
X163196110Y-112768290D01*
X163278290Y-112686110D01*
X163342858Y-112589477D01*
X163387334Y-112482104D01*
X163410007Y-112368117D01*
X163410007Y-112251897D01*
X163387334Y-112137910D01*
X163342858Y-112030537D01*
X163278290Y-111933904D01*
X163196110Y-111851724D01*
X163185000Y-111844301D01*
X163185000Y-108537928D01*
X163186766Y-108519999D01*
X163183887Y-108490773D01*
X163179719Y-108448448D01*
X163158848Y-108379645D01*
X163158847Y-108379643D01*
X163124954Y-108316234D01*
X163090772Y-108274584D01*
X163090770Y-108274582D01*
X163079342Y-108260657D01*
X163065418Y-108249230D01*
X160920779Y-106104592D01*
X160909343Y-106090657D01*
X160853764Y-106045045D01*
X160790355Y-106011152D01*
X160721552Y-105990281D01*
X160667931Y-105985000D01*
X160667929Y-105985000D01*
X160650000Y-105983234D01*
X160632071Y-105985000D01*
X157011187Y-105985000D01*
X154240779Y-103214592D01*
X154229343Y-103200657D01*
X154173764Y-103155045D01*
X154110355Y-103121152D01*
X154041552Y-103100281D01*
X153987931Y-103095000D01*
X153987929Y-103095000D01*
X153970000Y-103093234D01*
X153952071Y-103095000D01*
X152817928Y-103095000D01*
X152799999Y-103093234D01*
X152782070Y-103095000D01*
X152782069Y-103095000D01*
X152728448Y-103100281D01*
X152659645Y-103121152D01*
X152596236Y-103155045D01*
X152540657Y-103200657D01*
X152529225Y-103214587D01*
X151978813Y-103765000D01*
X144217928Y-103765000D01*
X144199999Y-103763234D01*
X144182070Y-103765000D01*
X144182069Y-103765000D01*
X144128448Y-103770281D01*
X144059645Y-103791152D01*
X144059643Y-103791153D01*
X143996234Y-103825046D01*
X143972125Y-103844833D01*
X143940657Y-103870657D01*
X143929226Y-103884586D01*
X139864588Y-107949225D01*
X139850658Y-107960657D01*
X139839227Y-107974586D01*
X139805046Y-108016236D01*
X139771153Y-108079645D01*
X139750282Y-108148448D01*
X139743234Y-108220000D01*
X139745001Y-108237939D01*
X139745000Y-109818812D01*
X139638813Y-109925000D01*
X139309386Y-109925000D01*
X139368283Y-109866103D01*
X139432851Y-109769470D01*
X139477327Y-109662097D01*
X139500000Y-109548110D01*
X139500000Y-109431890D01*
X139477327Y-109317903D01*
X139432851Y-109210530D01*
X139368283Y-109113897D01*
X139286103Y-109031717D01*
X139275000Y-109024298D01*
X139275000Y-107581187D01*
X143551188Y-103305000D01*
X152122071Y-103305000D01*
X152140000Y-103306766D01*
X152157929Y-103305000D01*
X152157931Y-103305000D01*
X152211552Y-103299719D01*
X152280355Y-103278848D01*
X152343764Y-103244955D01*
X152399343Y-103199343D01*
X152410779Y-103185408D01*
X152561188Y-103035000D01*
X154348813Y-103035000D01*
X156689225Y-105375413D01*
X156700657Y-105389343D01*
X156717875Y-105403473D01*
X156756234Y-105434954D01*
X156756236Y-105434955D01*
X156819645Y-105468848D01*
X156888448Y-105489719D01*
X156942069Y-105495000D01*
X156942070Y-105495000D01*
X156959999Y-105496766D01*
X156977928Y-105495000D01*
X161298813Y-105495000D01*
X163805000Y-108001188D01*
X163805001Y-110182061D01*
X163803234Y-110200000D01*
X163810282Y-110271552D01*
X163815000Y-110287106D01*
X163815000Y-110534298D01*
X163803897Y-110541717D01*
X163721717Y-110623897D01*
X163657149Y-110720530D01*
X163612673Y-110827903D01*
X163590000Y-110941890D01*
X163590000Y-111058110D01*
X163612673Y-111172097D01*
X163657149Y-111279470D01*
X163721717Y-111376103D01*
X163803897Y-111458283D01*
X163900530Y-111522851D01*
X164007903Y-111567327D01*
X164121890Y-111590000D01*
X164238110Y-111590000D01*
X164352097Y-111567327D01*
X164459470Y-111522851D01*
X164556103Y-111458283D01*
X164638283Y-111376103D01*
X164702851Y-111279470D01*
X164747327Y-111172097D01*
X164770000Y-111058110D01*
X164770000Y-110941890D01*
X164747327Y-110827903D01*
X164702851Y-110720530D01*
X164638283Y-110623897D01*
X164556103Y-110541717D01*
X164545000Y-110534298D01*
X164545000Y-110227928D01*
X164546766Y-110209999D01*
X164545000Y-110192069D01*
X164539719Y-110138448D01*
X164535000Y-110122891D01*
X164535000Y-107867929D01*
X164536766Y-107850000D01*
X164534848Y-107830530D01*
X164529719Y-107778448D01*
X164508848Y-107709645D01*
X164474955Y-107646236D01*
X164429342Y-107590657D01*
X164415418Y-107579230D01*
X161720779Y-104884592D01*
X161709343Y-104870657D01*
X161653764Y-104825045D01*
X161590355Y-104791152D01*
X161521552Y-104770281D01*
X161467931Y-104765000D01*
X161467929Y-104765000D01*
X161450000Y-104763234D01*
X161432071Y-104765000D01*
X157111188Y-104765000D01*
X155525357Y-103179170D01*
X155550000Y-103181597D01*
X157197500Y-103180000D01*
X157280000Y-103097500D01*
X157280000Y-102220000D01*
X157620000Y-102220000D01*
X157620000Y-103097500D01*
X157702500Y-103180000D01*
X159350000Y-103181597D01*
X159414691Y-103175225D01*
X159476897Y-103156356D01*
X159534225Y-103125713D01*
X159584474Y-103084474D01*
X159625713Y-103034225D01*
X159656356Y-102976897D01*
X159675225Y-102914691D01*
X159681597Y-102850000D01*
X161578403Y-102850000D01*
X161584775Y-102914691D01*
X161603644Y-102976897D01*
X161634287Y-103034225D01*
X161675526Y-103084474D01*
X161725775Y-103125713D01*
X161783103Y-103156356D01*
X161845309Y-103175225D01*
X161910000Y-103181597D01*
X163157500Y-103180000D01*
X163240000Y-103097500D01*
X163240000Y-102220000D01*
X163580000Y-102220000D01*
X163580000Y-103097500D01*
X163662500Y-103180000D01*
X164910000Y-103181597D01*
X164974691Y-103175225D01*
X165036897Y-103156356D01*
X165094225Y-103125713D01*
X165144474Y-103084474D01*
X165185713Y-103034225D01*
X165216356Y-102976897D01*
X165235225Y-102914691D01*
X165241597Y-102850000D01*
X165240000Y-102302500D01*
X165157500Y-102220000D01*
X163580000Y-102220000D01*
X163240000Y-102220000D01*
X161662500Y-102220000D01*
X161580000Y-102302500D01*
X161578403Y-102850000D01*
X159681597Y-102850000D01*
X159680000Y-102302500D01*
X159597500Y-102220000D01*
X157620000Y-102220000D01*
X157280000Y-102220000D01*
X155302500Y-102220000D01*
X155220000Y-102302500D01*
X155218403Y-102850000D01*
X155220830Y-102874643D01*
X154770779Y-102424592D01*
X154759343Y-102410657D01*
X154703764Y-102365045D01*
X154640355Y-102331152D01*
X154571552Y-102310281D01*
X154517931Y-102305000D01*
X154517929Y-102305000D01*
X154500000Y-102303234D01*
X154482071Y-102305000D01*
X152427929Y-102305000D01*
X152410000Y-102303234D01*
X152392071Y-102305000D01*
X152392069Y-102305000D01*
X152338448Y-102310281D01*
X152269645Y-102331152D01*
X152206236Y-102365045D01*
X152150657Y-102410657D01*
X152139225Y-102424587D01*
X151988813Y-102575000D01*
X151696112Y-102575000D01*
X151716804Y-102536288D01*
X151730527Y-102491048D01*
X151735161Y-102444000D01*
X151735161Y-101250000D01*
X155218403Y-101250000D01*
X155220000Y-101797500D01*
X155302500Y-101880000D01*
X157280000Y-101880000D01*
X157280000Y-101002500D01*
X157620000Y-101002500D01*
X157620000Y-101880000D01*
X159597500Y-101880000D01*
X159680000Y-101797500D01*
X159681597Y-101250000D01*
X161578403Y-101250000D01*
X161580000Y-101797500D01*
X161662500Y-101880000D01*
X163240000Y-101880000D01*
X163240000Y-101002500D01*
X163157500Y-100920000D01*
X161910000Y-100918403D01*
X161845309Y-100924775D01*
X161783103Y-100943644D01*
X161725775Y-100974287D01*
X161675526Y-101015526D01*
X161634287Y-101065775D01*
X161603644Y-101123103D01*
X161584775Y-101185309D01*
X161578403Y-101250000D01*
X159681597Y-101250000D01*
X159675225Y-101185309D01*
X159656356Y-101123103D01*
X159625713Y-101065775D01*
X159584474Y-101015526D01*
X159534225Y-100974287D01*
X159476897Y-100943644D01*
X159414691Y-100924775D01*
X159350000Y-100918403D01*
X157702500Y-100920000D01*
X157620000Y-101002500D01*
X157280000Y-101002500D01*
X157197500Y-100920000D01*
X155550000Y-100918403D01*
X155485309Y-100924775D01*
X155423103Y-100943644D01*
X155365775Y-100974287D01*
X155315526Y-101015526D01*
X155274287Y-101065775D01*
X155243644Y-101123103D01*
X155224775Y-101185309D01*
X155218403Y-101250000D01*
X151735161Y-101250000D01*
X151735161Y-100936000D01*
X151730527Y-100888952D01*
X151716804Y-100843712D01*
X151694518Y-100802018D01*
X151664527Y-100765473D01*
X151627982Y-100735482D01*
X151586288Y-100713196D01*
X151541048Y-100699473D01*
X151494000Y-100694839D01*
X149986000Y-100694839D01*
X149938952Y-100699473D01*
X149893712Y-100713196D01*
X149852018Y-100735482D01*
X149815473Y-100765473D01*
X149785482Y-100802018D01*
X149763196Y-100843712D01*
X149749473Y-100888952D01*
X149744839Y-100936000D01*
X149744839Y-102444000D01*
X149749473Y-102491048D01*
X149763196Y-102536288D01*
X149783888Y-102575000D01*
X148660870Y-102575000D01*
X148670836Y-102570872D01*
X148833638Y-102462091D01*
X148972091Y-102323638D01*
X149080872Y-102160836D01*
X149155802Y-101979939D01*
X149194000Y-101787900D01*
X149194000Y-101592100D01*
X149155802Y-101400061D01*
X149080872Y-101219164D01*
X148972091Y-101056362D01*
X148833638Y-100917909D01*
X148670836Y-100809128D01*
X148489939Y-100734198D01*
X148297900Y-100696000D01*
X148102100Y-100696000D01*
X147910061Y-100734198D01*
X147729164Y-100809128D01*
X147566362Y-100917909D01*
X147427909Y-101056362D01*
X147319128Y-101219164D01*
X147244198Y-101400061D01*
X147206000Y-101592100D01*
X147206000Y-101787900D01*
X147244198Y-101979939D01*
X147319128Y-102160836D01*
X147427909Y-102323638D01*
X147566362Y-102462091D01*
X147729164Y-102570872D01*
X147739130Y-102575000D01*
X146120870Y-102575000D01*
X146130836Y-102570872D01*
X146293638Y-102462091D01*
X146432091Y-102323638D01*
X146540872Y-102160836D01*
X146615802Y-101979939D01*
X146654000Y-101787900D01*
X146654000Y-101592100D01*
X146615802Y-101400061D01*
X146540872Y-101219164D01*
X146432091Y-101056362D01*
X146293638Y-100917909D01*
X146130836Y-100809128D01*
X145949939Y-100734198D01*
X145757900Y-100696000D01*
X145562100Y-100696000D01*
X145370061Y-100734198D01*
X145189164Y-100809128D01*
X145026362Y-100917909D01*
X144887909Y-101056362D01*
X144779128Y-101219164D01*
X144704198Y-101400061D01*
X144666000Y-101592100D01*
X144666000Y-101787900D01*
X144704198Y-101979939D01*
X144779128Y-102160836D01*
X144887909Y-102323638D01*
X145026362Y-102462091D01*
X145189164Y-102570872D01*
X145199130Y-102575000D01*
X143664628Y-102575000D01*
X143701445Y-102511862D01*
X143120000Y-101930416D01*
X142538555Y-102511862D01*
X142625136Y-102660342D01*
X142823949Y-102738240D01*
X143034140Y-102775855D01*
X143048229Y-102775584D01*
X138664588Y-107159225D01*
X138650658Y-107170657D01*
X138639227Y-107184586D01*
X138605046Y-107226236D01*
X138571153Y-107289645D01*
X138550282Y-107358448D01*
X138543234Y-107430000D01*
X138545001Y-107447939D01*
X138545000Y-109024298D01*
X138533897Y-109031717D01*
X138451717Y-109113897D01*
X138387149Y-109210530D01*
X138342673Y-109317903D01*
X138320000Y-109431890D01*
X138320000Y-109548110D01*
X138342673Y-109662097D01*
X138387149Y-109769470D01*
X138451717Y-109866103D01*
X138510614Y-109925000D01*
X138071188Y-109925000D01*
X137690779Y-109544592D01*
X137679343Y-109530657D01*
X137623764Y-109485045D01*
X137560355Y-109451152D01*
X137491552Y-109430281D01*
X137437931Y-109425000D01*
X137437929Y-109425000D01*
X137420000Y-109423234D01*
X137402071Y-109425000D01*
X121117929Y-109425000D01*
X121100000Y-109423234D01*
X121082071Y-109425000D01*
X121082069Y-109425000D01*
X121028448Y-109430281D01*
X120996409Y-109440000D01*
X120959644Y-109451152D01*
X120939168Y-109462097D01*
X120896236Y-109485045D01*
X120840657Y-109530657D01*
X120829226Y-109544586D01*
X119948813Y-110425000D01*
X112281161Y-110425000D01*
X112281161Y-110155000D01*
X119462071Y-110155000D01*
X119480000Y-110156766D01*
X119497929Y-110155000D01*
X119497931Y-110155000D01*
X119551552Y-110149719D01*
X119620355Y-110128848D01*
X119683764Y-110094955D01*
X119739343Y-110049343D01*
X119750779Y-110035408D01*
X120641188Y-109145000D01*
X124324298Y-109145000D01*
X124331717Y-109156103D01*
X124413897Y-109238283D01*
X124510530Y-109302851D01*
X124617903Y-109347327D01*
X124731890Y-109370000D01*
X124848110Y-109370000D01*
X124962097Y-109347327D01*
X125069470Y-109302851D01*
X125166103Y-109238283D01*
X125248283Y-109156103D01*
X125312851Y-109059470D01*
X125357327Y-108952097D01*
X125380000Y-108838110D01*
X125380000Y-108721890D01*
X125357327Y-108607903D01*
X125312851Y-108500530D01*
X125295792Y-108475000D01*
X126174298Y-108475000D01*
X126181717Y-108486103D01*
X126263897Y-108568283D01*
X126360530Y-108632851D01*
X126467903Y-108677327D01*
X126581890Y-108700000D01*
X126698110Y-108700000D01*
X126812097Y-108677327D01*
X126919470Y-108632851D01*
X127016103Y-108568283D01*
X127098283Y-108486103D01*
X127162851Y-108389470D01*
X127207327Y-108282097D01*
X127230000Y-108168110D01*
X127230000Y-108051890D01*
X127207327Y-107937903D01*
X127162851Y-107830530D01*
X127105700Y-107744998D01*
X128024296Y-107744998D01*
X128031715Y-107756101D01*
X128113895Y-107838281D01*
X128210528Y-107902849D01*
X128317901Y-107947325D01*
X128431888Y-107969998D01*
X128548108Y-107969998D01*
X128662095Y-107947325D01*
X128769468Y-107902849D01*
X128866101Y-107838281D01*
X128948281Y-107756101D01*
X129012849Y-107659468D01*
X129057325Y-107552095D01*
X129079998Y-107438108D01*
X129079998Y-107321888D01*
X129057325Y-107207901D01*
X129012849Y-107100528D01*
X128982428Y-107055000D01*
X129889230Y-107055000D01*
X129926717Y-107111103D01*
X130008897Y-107193283D01*
X130105530Y-107257851D01*
X130212903Y-107302327D01*
X130326890Y-107325000D01*
X130443110Y-107325000D01*
X130557097Y-107302327D01*
X130664470Y-107257851D01*
X130761103Y-107193283D01*
X130843283Y-107111103D01*
X130907851Y-107014470D01*
X130952327Y-106907097D01*
X130975000Y-106793110D01*
X130975000Y-106676890D01*
X130952327Y-106562903D01*
X130907851Y-106455530D01*
X130907497Y-106455000D01*
X131835867Y-106455000D01*
X131886717Y-106531103D01*
X131968897Y-106613283D01*
X132065530Y-106677851D01*
X132172903Y-106722327D01*
X132286890Y-106745000D01*
X132403110Y-106745000D01*
X132517097Y-106722327D01*
X132624470Y-106677851D01*
X132721103Y-106613283D01*
X132803283Y-106531103D01*
X132867851Y-106434470D01*
X132912327Y-106327097D01*
X132935000Y-106213110D01*
X132935000Y-106096890D01*
X132912327Y-105982903D01*
X132867851Y-105875530D01*
X132867497Y-105875000D01*
X133784253Y-105875000D01*
X133811717Y-105916103D01*
X133893897Y-105998283D01*
X133990530Y-106062851D01*
X134097903Y-106107327D01*
X134211890Y-106130000D01*
X134328110Y-106130000D01*
X134442097Y-106107327D01*
X134549470Y-106062851D01*
X134646103Y-105998283D01*
X134728283Y-105916103D01*
X134792851Y-105819470D01*
X134837327Y-105712097D01*
X134860000Y-105598110D01*
X134860000Y-105481890D01*
X134837327Y-105367903D01*
X134794703Y-105265000D01*
X135724208Y-105265000D01*
X135771717Y-105336103D01*
X135853897Y-105418283D01*
X135950530Y-105482851D01*
X136057903Y-105527327D01*
X136171890Y-105550000D01*
X136288110Y-105550000D01*
X136402097Y-105527327D01*
X136509470Y-105482851D01*
X136606103Y-105418283D01*
X136688283Y-105336103D01*
X136752851Y-105239470D01*
X136797327Y-105132097D01*
X136820000Y-105018110D01*
X136820000Y-104901890D01*
X136797327Y-104787903D01*
X136754703Y-104685000D01*
X137675912Y-104685000D01*
X137706717Y-104731103D01*
X137788897Y-104813283D01*
X137885530Y-104877851D01*
X137992903Y-104922327D01*
X138106890Y-104945000D01*
X138223110Y-104945000D01*
X138337097Y-104922327D01*
X138444470Y-104877851D01*
X138541103Y-104813283D01*
X138623283Y-104731103D01*
X138687851Y-104634470D01*
X138732327Y-104527097D01*
X138755000Y-104413110D01*
X138755000Y-104296890D01*
X138732327Y-104182903D01*
X138687851Y-104075530D01*
X138667452Y-104045000D01*
X139564298Y-104045000D01*
X139571717Y-104056103D01*
X139653897Y-104138283D01*
X139750530Y-104202851D01*
X139857903Y-104247327D01*
X139971890Y-104270000D01*
X140088110Y-104270000D01*
X140202097Y-104247327D01*
X140309470Y-104202851D01*
X140406103Y-104138283D01*
X140488283Y-104056103D01*
X140552851Y-103959470D01*
X140597327Y-103852097D01*
X140620000Y-103738110D01*
X140620000Y-103621890D01*
X140597327Y-103507903D01*
X140552851Y-103400530D01*
X140488283Y-103303897D01*
X140406103Y-103221717D01*
X140309470Y-103157149D01*
X140202097Y-103112673D01*
X140088110Y-103090000D01*
X139971890Y-103090000D01*
X139857903Y-103112673D01*
X139750530Y-103157149D01*
X139653897Y-103221717D01*
X139571717Y-103303897D01*
X139564298Y-103315000D01*
X113906929Y-103315000D01*
X113889000Y-103313234D01*
X113871071Y-103315000D01*
X113871069Y-103315000D01*
X113817448Y-103320281D01*
X113748645Y-103341152D01*
X113685236Y-103375045D01*
X113629657Y-103420657D01*
X113618225Y-103434587D01*
X112281161Y-104771652D01*
X112281161Y-104640000D01*
X112276527Y-104592952D01*
X112262804Y-104547712D01*
X112240518Y-104506018D01*
X112210527Y-104469473D01*
X112173982Y-104439482D01*
X112132288Y-104417196D01*
X112087048Y-104403473D01*
X112040000Y-104398839D01*
X111667348Y-104398839D01*
X112771188Y-103295000D01*
X139322071Y-103295000D01*
X139340000Y-103296766D01*
X139357929Y-103295000D01*
X139357931Y-103295000D01*
X139411552Y-103289719D01*
X139480355Y-103268848D01*
X139543764Y-103234955D01*
X139599343Y-103189343D01*
X139610779Y-103175408D01*
X140184224Y-102601963D01*
X140290061Y-102645802D01*
X140482100Y-102684000D01*
X140677900Y-102684000D01*
X140869939Y-102645802D01*
X141050836Y-102570872D01*
X141213638Y-102462091D01*
X141352091Y-102323638D01*
X141460872Y-102160836D01*
X141535802Y-101979939D01*
X141574000Y-101787900D01*
X141574000Y-101604140D01*
X142034145Y-101604140D01*
X142038259Y-101817629D01*
X142083944Y-102026214D01*
X142149658Y-102184864D01*
X142298138Y-102271445D01*
X142879584Y-101690000D01*
X143360416Y-101690000D01*
X143941862Y-102271445D01*
X144090342Y-102184864D01*
X144168240Y-101986051D01*
X144205855Y-101775860D01*
X144201741Y-101562371D01*
X144156056Y-101353786D01*
X144090342Y-101195136D01*
X143941862Y-101108555D01*
X143360416Y-101690000D01*
X142879584Y-101690000D01*
X142298138Y-101108555D01*
X142149658Y-101195136D01*
X142071760Y-101393949D01*
X142034145Y-101604140D01*
X141574000Y-101604140D01*
X141574000Y-101592100D01*
X141535802Y-101400061D01*
X141460872Y-101219164D01*
X141352091Y-101056362D01*
X141213638Y-100917909D01*
X141050836Y-100809128D01*
X140869939Y-100734198D01*
X140677900Y-100696000D01*
X140482100Y-100696000D01*
X140290061Y-100734198D01*
X140109164Y-100809128D01*
X139946362Y-100917909D01*
X139807909Y-101056362D01*
X139699128Y-101219164D01*
X139624198Y-101400061D01*
X139586000Y-101592100D01*
X139586000Y-101787900D01*
X139624198Y-101979939D01*
X139668037Y-102085776D01*
X139188813Y-102565000D01*
X138519624Y-102565000D01*
X138673638Y-102462091D01*
X138812091Y-102323638D01*
X138920872Y-102160836D01*
X138995802Y-101979939D01*
X139034000Y-101787900D01*
X139034000Y-101592100D01*
X138995802Y-101400061D01*
X138920872Y-101219164D01*
X138812091Y-101056362D01*
X138673638Y-100917909D01*
X138510836Y-100809128D01*
X138329939Y-100734198D01*
X138137900Y-100696000D01*
X137942100Y-100696000D01*
X137750061Y-100734198D01*
X137569164Y-100809128D01*
X137406362Y-100917909D01*
X137267909Y-101056362D01*
X137159128Y-101219164D01*
X137084198Y-101400061D01*
X137046000Y-101592100D01*
X137046000Y-101787900D01*
X137084198Y-101979939D01*
X137159128Y-102160836D01*
X137267909Y-102323638D01*
X137406362Y-102462091D01*
X137560376Y-102565000D01*
X135979624Y-102565000D01*
X136133638Y-102462091D01*
X136272091Y-102323638D01*
X136380872Y-102160836D01*
X136455802Y-101979939D01*
X136494000Y-101787900D01*
X136494000Y-101592100D01*
X136455802Y-101400061D01*
X136380872Y-101219164D01*
X136272091Y-101056362D01*
X136133638Y-100917909D01*
X135970836Y-100809128D01*
X135789939Y-100734198D01*
X135597900Y-100696000D01*
X135402100Y-100696000D01*
X135210061Y-100734198D01*
X135029164Y-100809128D01*
X134866362Y-100917909D01*
X134727909Y-101056362D01*
X134619128Y-101219164D01*
X134544198Y-101400061D01*
X134506000Y-101592100D01*
X134506000Y-101787900D01*
X134544198Y-101979939D01*
X134619128Y-102160836D01*
X134727909Y-102323638D01*
X134866362Y-102462091D01*
X135020376Y-102565000D01*
X133439624Y-102565000D01*
X133593638Y-102462091D01*
X133732091Y-102323638D01*
X133840872Y-102160836D01*
X133915802Y-101979939D01*
X133954000Y-101787900D01*
X133954000Y-101592100D01*
X133915802Y-101400061D01*
X133840872Y-101219164D01*
X133732091Y-101056362D01*
X133593638Y-100917909D01*
X133430836Y-100809128D01*
X133249939Y-100734198D01*
X133057900Y-100696000D01*
X132862100Y-100696000D01*
X132670061Y-100734198D01*
X132489164Y-100809128D01*
X132326362Y-100917909D01*
X132187909Y-101056362D01*
X132079128Y-101219164D01*
X132004198Y-101400061D01*
X131966000Y-101592100D01*
X131966000Y-101787900D01*
X132004198Y-101979939D01*
X132079128Y-102160836D01*
X132187909Y-102323638D01*
X132326362Y-102462091D01*
X132480376Y-102565000D01*
X130899624Y-102565000D01*
X131053638Y-102462091D01*
X131192091Y-102323638D01*
X131300872Y-102160836D01*
X131375802Y-101979939D01*
X131414000Y-101787900D01*
X131414000Y-101592100D01*
X131375802Y-101400061D01*
X131300872Y-101219164D01*
X131192091Y-101056362D01*
X131053638Y-100917909D01*
X130890836Y-100809128D01*
X130709939Y-100734198D01*
X130517900Y-100696000D01*
X130322100Y-100696000D01*
X130130061Y-100734198D01*
X129949164Y-100809128D01*
X129786362Y-100917909D01*
X129647909Y-101056362D01*
X129539128Y-101219164D01*
X129464198Y-101400061D01*
X129426000Y-101592100D01*
X129426000Y-101787900D01*
X129464198Y-101979939D01*
X129539128Y-102160836D01*
X129647909Y-102323638D01*
X129786362Y-102462091D01*
X129940376Y-102565000D01*
X128359624Y-102565000D01*
X128513638Y-102462091D01*
X128652091Y-102323638D01*
X128760872Y-102160836D01*
X128835802Y-101979939D01*
X128874000Y-101787900D01*
X128874000Y-101592100D01*
X128835802Y-101400061D01*
X128760872Y-101219164D01*
X128652091Y-101056362D01*
X128513638Y-100917909D01*
X128350836Y-100809128D01*
X128169939Y-100734198D01*
X127977900Y-100696000D01*
X127782100Y-100696000D01*
X127590061Y-100734198D01*
X127409164Y-100809128D01*
X127246362Y-100917909D01*
X127107909Y-101056362D01*
X126999128Y-101219164D01*
X126924198Y-101400061D01*
X126886000Y-101592100D01*
X126886000Y-101787900D01*
X126924198Y-101979939D01*
X126999128Y-102160836D01*
X127107909Y-102323638D01*
X127246362Y-102462091D01*
X127400376Y-102565000D01*
X125819624Y-102565000D01*
X125973638Y-102462091D01*
X126112091Y-102323638D01*
X126220872Y-102160836D01*
X126295802Y-101979939D01*
X126334000Y-101787900D01*
X126334000Y-101592100D01*
X126295802Y-101400061D01*
X126220872Y-101219164D01*
X126112091Y-101056362D01*
X125973638Y-100917909D01*
X125810836Y-100809128D01*
X125629939Y-100734198D01*
X125437900Y-100696000D01*
X125242100Y-100696000D01*
X125050061Y-100734198D01*
X124869164Y-100809128D01*
X124706362Y-100917909D01*
X124567909Y-101056362D01*
X124459128Y-101219164D01*
X124384198Y-101400061D01*
X124346000Y-101592100D01*
X124346000Y-101787900D01*
X124384198Y-101979939D01*
X124459128Y-102160836D01*
X124567909Y-102323638D01*
X124706362Y-102462091D01*
X124860376Y-102565000D01*
X123279624Y-102565000D01*
X123433638Y-102462091D01*
X123572091Y-102323638D01*
X123680872Y-102160836D01*
X123755802Y-101979939D01*
X123794000Y-101787900D01*
X123794000Y-101592100D01*
X123755802Y-101400061D01*
X123680872Y-101219164D01*
X123572091Y-101056362D01*
X123433638Y-100917909D01*
X123270836Y-100809128D01*
X123089939Y-100734198D01*
X122897900Y-100696000D01*
X122702100Y-100696000D01*
X122510061Y-100734198D01*
X122329164Y-100809128D01*
X122166362Y-100917909D01*
X122027909Y-101056362D01*
X121919128Y-101219164D01*
X121844198Y-101400061D01*
X121806000Y-101592100D01*
X121806000Y-101787900D01*
X121844198Y-101979939D01*
X121919128Y-102160836D01*
X122027909Y-102323638D01*
X122166362Y-102462091D01*
X122320376Y-102565000D01*
X120739624Y-102565000D01*
X120893638Y-102462091D01*
X121032091Y-102323638D01*
X121140872Y-102160836D01*
X121215802Y-101979939D01*
X121254000Y-101787900D01*
X121254000Y-101592100D01*
X121215802Y-101400061D01*
X121140872Y-101219164D01*
X121032091Y-101056362D01*
X120893638Y-100917909D01*
X120730836Y-100809128D01*
X120549939Y-100734198D01*
X120357900Y-100696000D01*
X120162100Y-100696000D01*
X119970061Y-100734198D01*
X119789164Y-100809128D01*
X119626362Y-100917909D01*
X119487909Y-101056362D01*
X119379128Y-101219164D01*
X119304198Y-101400061D01*
X119266000Y-101592100D01*
X119266000Y-101787900D01*
X119304198Y-101979939D01*
X119379128Y-102160836D01*
X119487909Y-102323638D01*
X119626362Y-102462091D01*
X119780376Y-102565000D01*
X118199624Y-102565000D01*
X118353638Y-102462091D01*
X118492091Y-102323638D01*
X118600872Y-102160836D01*
X118675802Y-101979939D01*
X118714000Y-101787900D01*
X118714000Y-101592100D01*
X118675802Y-101400061D01*
X118600872Y-101219164D01*
X118492091Y-101056362D01*
X118353638Y-100917909D01*
X118190836Y-100809128D01*
X118009939Y-100734198D01*
X117817900Y-100696000D01*
X117622100Y-100696000D01*
X117430061Y-100734198D01*
X117249164Y-100809128D01*
X117086362Y-100917909D01*
X116947909Y-101056362D01*
X116839128Y-101219164D01*
X116764198Y-101400061D01*
X116726000Y-101592100D01*
X116726000Y-101787900D01*
X116764198Y-101979939D01*
X116839128Y-102160836D01*
X116947909Y-102323638D01*
X117086362Y-102462091D01*
X117240376Y-102565000D01*
X115659624Y-102565000D01*
X115813638Y-102462091D01*
X115952091Y-102323638D01*
X116060872Y-102160836D01*
X116135802Y-101979939D01*
X116174000Y-101787900D01*
X116174000Y-101592100D01*
X116135802Y-101400061D01*
X116060872Y-101219164D01*
X115952091Y-101056362D01*
X115813638Y-100917909D01*
X115650836Y-100809128D01*
X115469939Y-100734198D01*
X115277900Y-100696000D01*
X115082100Y-100696000D01*
X114890061Y-100734198D01*
X114709164Y-100809128D01*
X114546362Y-100917909D01*
X114407909Y-101056362D01*
X114299128Y-101219164D01*
X114224198Y-101400061D01*
X114186000Y-101592100D01*
X114186000Y-101787900D01*
X114224198Y-101979939D01*
X114299128Y-102160836D01*
X114407909Y-102323638D01*
X114546362Y-102462091D01*
X114700376Y-102565000D01*
X112637928Y-102565000D01*
X112619999Y-102563234D01*
X112602070Y-102565000D01*
X112602069Y-102565000D01*
X112548448Y-102570281D01*
X112479645Y-102591152D01*
X112479643Y-102591153D01*
X112416234Y-102625046D01*
X112392508Y-102644518D01*
X112360657Y-102670657D01*
X112349226Y-102684586D01*
X112211545Y-102822267D01*
X112210000Y-102292500D01*
X112127500Y-102210000D01*
X110150000Y-102210000D01*
X110150000Y-103087500D01*
X110232500Y-103170000D01*
X111862232Y-103171580D01*
X110634974Y-104398839D01*
X109440000Y-104398839D01*
X109392952Y-104403473D01*
X109347712Y-104417196D01*
X109306018Y-104439482D01*
X109269473Y-104469473D01*
X109239482Y-104506018D01*
X109217196Y-104547712D01*
X109203473Y-104592952D01*
X109198839Y-104640000D01*
X109198839Y-104940000D01*
X109203473Y-104987048D01*
X109217196Y-105032288D01*
X109221318Y-105040000D01*
X109217196Y-105047712D01*
X109203473Y-105092952D01*
X109198839Y-105140000D01*
X109198839Y-105440000D01*
X109203473Y-105487048D01*
X109217196Y-105532288D01*
X109221318Y-105540000D01*
X109217196Y-105547712D01*
X109203473Y-105592952D01*
X109198839Y-105640000D01*
X109198839Y-105940000D01*
X109203473Y-105987048D01*
X109217196Y-106032288D01*
X109221318Y-106040000D01*
X109217196Y-106047712D01*
X109203473Y-106092952D01*
X109198839Y-106140000D01*
X109198839Y-106440000D01*
X109203473Y-106487048D01*
X109217196Y-106532288D01*
X109221318Y-106540000D01*
X109217196Y-106547712D01*
X109203473Y-106592952D01*
X109198839Y-106640000D01*
X109198839Y-106940000D01*
X109203473Y-106987048D01*
X109217196Y-107032288D01*
X109221318Y-107040000D01*
X109217196Y-107047712D01*
X109203473Y-107092952D01*
X109198839Y-107140000D01*
X109198839Y-107440000D01*
X109203473Y-107487048D01*
X109217196Y-107532288D01*
X109221318Y-107540000D01*
X109217196Y-107547712D01*
X109203473Y-107592952D01*
X109198839Y-107640000D01*
X109198839Y-107940000D01*
X109203473Y-107987048D01*
X109217196Y-108032288D01*
X109221318Y-108040000D01*
X109217196Y-108047712D01*
X109203473Y-108092952D01*
X109198839Y-108140000D01*
X109198839Y-108440000D01*
X109203473Y-108487048D01*
X109217196Y-108532288D01*
X109221318Y-108540000D01*
X109217196Y-108547712D01*
X109203473Y-108592952D01*
X109198839Y-108640000D01*
X109198839Y-108925000D01*
X107615702Y-108925000D01*
X107608283Y-108913897D01*
X107526103Y-108831717D01*
X107429470Y-108767149D01*
X107322097Y-108722673D01*
X107208110Y-108700000D01*
X107091890Y-108700000D01*
X106977903Y-108722673D01*
X106870530Y-108767149D01*
X106773897Y-108831717D01*
X106691717Y-108913897D01*
X106627149Y-109010530D01*
X106582673Y-109117903D01*
X106560000Y-109231890D01*
X106560000Y-109348110D01*
X106582673Y-109462097D01*
X106627149Y-109569470D01*
X106691717Y-109666103D01*
X106773897Y-109748283D01*
X106870530Y-109812851D01*
X106977903Y-109857327D01*
X107091890Y-109880000D01*
X107208110Y-109880000D01*
X107322097Y-109857327D01*
X107429470Y-109812851D01*
X107526103Y-109748283D01*
X107608283Y-109666103D01*
X107615702Y-109655000D01*
X109198839Y-109655000D01*
X109198839Y-109925000D01*
X106575702Y-109925000D01*
X106568283Y-109913897D01*
X106486103Y-109831717D01*
X106389470Y-109767149D01*
X106282097Y-109722673D01*
X106168110Y-109700000D01*
X106051890Y-109700000D01*
X105937903Y-109722673D01*
X105830530Y-109767149D01*
X105733897Y-109831717D01*
X105651717Y-109913897D01*
X105587149Y-110010530D01*
X105542673Y-110117903D01*
X105520000Y-110231890D01*
X101989943Y-110231890D01*
X101989996Y-102840000D01*
X102188403Y-102840000D01*
X102194775Y-102904691D01*
X102213644Y-102966897D01*
X102244287Y-103024225D01*
X102285526Y-103074474D01*
X102335775Y-103115713D01*
X102393103Y-103146356D01*
X102455309Y-103165225D01*
X102520000Y-103171597D01*
X103767500Y-103170000D01*
X103850000Y-103087500D01*
X103850000Y-102210000D01*
X104190000Y-102210000D01*
X104190000Y-103087500D01*
X104272500Y-103170000D01*
X105520000Y-103171597D01*
X105584691Y-103165225D01*
X105646897Y-103146356D01*
X105704225Y-103115713D01*
X105754474Y-103074474D01*
X105795713Y-103024225D01*
X105826356Y-102966897D01*
X105845225Y-102904691D01*
X105851597Y-102840000D01*
X107748403Y-102840000D01*
X107754775Y-102904691D01*
X107773644Y-102966897D01*
X107804287Y-103024225D01*
X107845526Y-103074474D01*
X107895775Y-103115713D01*
X107953103Y-103146356D01*
X108015309Y-103165225D01*
X108080000Y-103171597D01*
X109727500Y-103170000D01*
X109810000Y-103087500D01*
X109810000Y-102210000D01*
X107832500Y-102210000D01*
X107750000Y-102292500D01*
X107748403Y-102840000D01*
X105851597Y-102840000D01*
X105850000Y-102292500D01*
X105767500Y-102210000D01*
X104190000Y-102210000D01*
X103850000Y-102210000D01*
X102272500Y-102210000D01*
X102190000Y-102292500D01*
X102188403Y-102840000D01*
X101989996Y-102840000D01*
X101990000Y-102364186D01*
X102023933Y-102018111D01*
X102120319Y-101698862D01*
X102189363Y-101569010D01*
X102190000Y-101787500D01*
X102272500Y-101870000D01*
X103850000Y-101870000D01*
X103850000Y-100992500D01*
X104190000Y-100992500D01*
X104190000Y-101870000D01*
X105767500Y-101870000D01*
X105850000Y-101787500D01*
X105851597Y-101240000D01*
X107748403Y-101240000D01*
X107750000Y-101787500D01*
X107832500Y-101870000D01*
X109810000Y-101870000D01*
X109810000Y-100992500D01*
X110150000Y-100992500D01*
X110150000Y-101870000D01*
X112127500Y-101870000D01*
X112210000Y-101787500D01*
X112211597Y-101240000D01*
X112205225Y-101175309D01*
X112186356Y-101113103D01*
X112155713Y-101055775D01*
X112114474Y-101005526D01*
X112064225Y-100964287D01*
X112006897Y-100933644D01*
X111944691Y-100914775D01*
X111880000Y-100908403D01*
X110232500Y-100910000D01*
X110150000Y-100992500D01*
X109810000Y-100992500D01*
X109727500Y-100910000D01*
X108080000Y-100908403D01*
X108015309Y-100914775D01*
X107953103Y-100933644D01*
X107895775Y-100964287D01*
X107845526Y-101005526D01*
X107804287Y-101055775D01*
X107773644Y-101113103D01*
X107754775Y-101175309D01*
X107748403Y-101240000D01*
X105851597Y-101240000D01*
X105845225Y-101175309D01*
X105826356Y-101113103D01*
X105795713Y-101055775D01*
X105754474Y-101005526D01*
X105704225Y-100964287D01*
X105646897Y-100933644D01*
X105584691Y-100914775D01*
X105520000Y-100908403D01*
X104272500Y-100910000D01*
X104190000Y-100992500D01*
X103850000Y-100992500D01*
X103767500Y-100910000D01*
X102790224Y-100908749D01*
X103037949Y-100774804D01*
X103356518Y-100676191D01*
X103701797Y-100639901D01*
X142847902Y-100639901D01*
X142783786Y-100653944D01*
G37*
G04 #@! TD.AperFunction*
M02*
