G04 #@! TF.GenerationSoftware,KiCad,Pcbnew,(5.1.10-1-10_14)*
G04 #@! TF.CreationDate,2021-11-28T23:58:15-05:00*
G04 #@! TF.ProjectId,SNAC Sniffer LONG,534e4143-2053-46e6-9966-666572204c4f,1*
G04 #@! TF.SameCoordinates,Original*
G04 #@! TF.FileFunction,Legend,Top*
G04 #@! TF.FilePolarity,Positive*
%FSLAX46Y46*%
G04 Gerber Fmt 4.6, Leading zero omitted, Abs format (unit mm)*
G04 Created by KiCad (PCBNEW (5.1.10-1-10_14)) date 2021-11-28 23:58:15*
%MOMM*%
%LPD*%
G01*
G04 APERTURE LIST*
%ADD10C,0.127000*%
%ADD11C,0.200000*%
%ADD12C,0.150000*%
%ADD13C,1.601600*%
%ADD14C,1.609600*%
G04 APERTURE END LIST*
D10*
X110950000Y-111470000D02*
X110950000Y-106820000D01*
X113910000Y-111470000D02*
X110950000Y-111470000D01*
X113910000Y-106820000D02*
X113910000Y-111470000D01*
X110950000Y-106820000D02*
X113910000Y-106820000D01*
X168000000Y-116800000D02*
X168000000Y-101800000D01*
X168000000Y-101800000D02*
X165240000Y-101800000D01*
X168000000Y-116800000D02*
X165240000Y-116800000D01*
X159440000Y-116800000D02*
X161640000Y-116800000D01*
X161640000Y-101800000D02*
X159440000Y-101800000D01*
X157190000Y-115400000D02*
X157190000Y-114500000D01*
X157190000Y-104100000D02*
X157190000Y-103200000D01*
D11*
X156148112Y-104100000D02*
G75*
G03*
X156148112Y-104100000I-158112J0D01*
G01*
X153160000Y-101770000D02*
G75*
G03*
X153160000Y-101770000I-100000J0D01*
G01*
D10*
X111370000Y-100420000D02*
X154550000Y-100420000D01*
X111370000Y-118200000D02*
X111370000Y-100420000D01*
X154550000Y-118200000D02*
X111370000Y-118200000D01*
X154550000Y-100420000D02*
X154550000Y-118200000D01*
D12*
X162381753Y-109742473D02*
X162381753Y-108742268D01*
X162762783Y-108742268D01*
X162858041Y-108789897D01*
X162905670Y-108837526D01*
X162953299Y-108932783D01*
X162953299Y-109075670D01*
X162905670Y-109170927D01*
X162858041Y-109218556D01*
X162762783Y-109266185D01*
X162381753Y-109266185D01*
X163334329Y-108837526D02*
X163381958Y-108789897D01*
X163477216Y-108742268D01*
X163715360Y-108742268D01*
X163810617Y-108789897D01*
X163858246Y-108837526D01*
X163905875Y-108932783D01*
X163905875Y-109028041D01*
X163858246Y-109170927D01*
X163286700Y-109742473D01*
X163905875Y-109742473D01*
X111802380Y-109871904D02*
X112611904Y-109871904D01*
X112707142Y-109824285D01*
X112754761Y-109776666D01*
X112802380Y-109681428D01*
X112802380Y-109490952D01*
X112754761Y-109395714D01*
X112707142Y-109348095D01*
X112611904Y-109300476D01*
X111802380Y-109300476D01*
X112802380Y-108300476D02*
X112802380Y-108871904D01*
X112802380Y-108586190D02*
X111802380Y-108586190D01*
X111945238Y-108681428D01*
X112040476Y-108776666D01*
X112088095Y-108871904D01*
X135452380Y-114883333D02*
X136166666Y-114883333D01*
X136309523Y-114930952D01*
X136404761Y-115026190D01*
X136452380Y-115169047D01*
X136452380Y-115264285D01*
X135452380Y-113978571D02*
X135452380Y-114169047D01*
X135500000Y-114264285D01*
X135547619Y-114311904D01*
X135690476Y-114407142D01*
X135880952Y-114454761D01*
X136261904Y-114454761D01*
X136357142Y-114407142D01*
X136404761Y-114359523D01*
X136452380Y-114264285D01*
X136452380Y-114073809D01*
X136404761Y-113978571D01*
X136357142Y-113930952D01*
X136261904Y-113883333D01*
X136023809Y-113883333D01*
X135928571Y-113930952D01*
X135880952Y-113978571D01*
X135833333Y-114073809D01*
X135833333Y-114264285D01*
X135880952Y-114359523D01*
X135928571Y-114407142D01*
X136023809Y-114454761D01*
X137982380Y-114883333D02*
X138696666Y-114883333D01*
X138839523Y-114930952D01*
X138934761Y-115026190D01*
X138982380Y-115169047D01*
X138982380Y-115264285D01*
X137982380Y-114502380D02*
X137982380Y-113835714D01*
X138982380Y-114264285D01*
X140532380Y-114883333D02*
X141246666Y-114883333D01*
X141389523Y-114930952D01*
X141484761Y-115026190D01*
X141532380Y-115169047D01*
X141532380Y-115264285D01*
X140960952Y-114264285D02*
X140913333Y-114359523D01*
X140865714Y-114407142D01*
X140770476Y-114454761D01*
X140722857Y-114454761D01*
X140627619Y-114407142D01*
X140580000Y-114359523D01*
X140532380Y-114264285D01*
X140532380Y-114073809D01*
X140580000Y-113978571D01*
X140627619Y-113930952D01*
X140722857Y-113883333D01*
X140770476Y-113883333D01*
X140865714Y-113930952D01*
X140913333Y-113978571D01*
X140960952Y-114073809D01*
X140960952Y-114264285D01*
X141008571Y-114359523D01*
X141056190Y-114407142D01*
X141151428Y-114454761D01*
X141341904Y-114454761D01*
X141437142Y-114407142D01*
X141484761Y-114359523D01*
X141532380Y-114264285D01*
X141532380Y-114073809D01*
X141484761Y-113978571D01*
X141437142Y-113930952D01*
X141341904Y-113883333D01*
X141151428Y-113883333D01*
X141056190Y-113930952D01*
X141008571Y-113978571D01*
X140960952Y-114073809D01*
%LPC*%
D13*
X122800000Y-112010000D03*
X122800000Y-114550000D03*
X125340000Y-112010000D03*
X125340000Y-114550000D03*
X127880000Y-112010000D03*
X127880000Y-114550000D03*
X130420000Y-112010000D03*
X130420000Y-114550000D03*
X132960000Y-112010000D03*
X132960000Y-114550000D03*
G36*
G01*
X105145400Y-102890800D02*
X102894600Y-102890800D01*
G75*
G02*
X102469200Y-102465400I0J425400D01*
G01*
X102469200Y-101614600D01*
G75*
G02*
X102894600Y-101189200I425400J0D01*
G01*
X105145400Y-101189200D01*
G75*
G02*
X105570800Y-101614600I0J-425400D01*
G01*
X105570800Y-102465400D01*
G75*
G02*
X105145400Y-102890800I-425400J0D01*
G01*
G37*
G36*
G01*
X105145400Y-117390800D02*
X102894600Y-117390800D01*
G75*
G02*
X102469200Y-116965400I0J425400D01*
G01*
X102469200Y-116114600D01*
G75*
G02*
X102894600Y-115689200I425400J0D01*
G01*
X105145400Y-115689200D01*
G75*
G02*
X105570800Y-116114600I0J-425400D01*
G01*
X105570800Y-116965400D01*
G75*
G02*
X105145400Y-117390800I-425400J0D01*
G01*
G37*
G36*
G01*
X111505400Y-117390800D02*
X108454600Y-117390800D01*
G75*
G02*
X108029200Y-116965400I0J425400D01*
G01*
X108029200Y-116114600D01*
G75*
G02*
X108454600Y-115689200I425400J0D01*
G01*
X111505400Y-115689200D01*
G75*
G02*
X111930800Y-116114600I0J-425400D01*
G01*
X111930800Y-116965400D01*
G75*
G02*
X111505400Y-117390800I-425400J0D01*
G01*
G37*
G36*
G01*
X111505400Y-102890800D02*
X108454600Y-102890800D01*
G75*
G02*
X108029200Y-102465400I0J425400D01*
G01*
X108029200Y-101614600D01*
G75*
G02*
X108454600Y-101189200I425400J0D01*
G01*
X111505400Y-101189200D01*
G75*
G02*
X111930800Y-101614600I0J-425400D01*
G01*
X111930800Y-102465400D01*
G75*
G02*
X111505400Y-102890800I-425400J0D01*
G01*
G37*
G36*
G01*
X164535400Y-102900800D02*
X162284600Y-102900800D01*
G75*
G02*
X161859200Y-102475400I0J425400D01*
G01*
X161859200Y-101624600D01*
G75*
G02*
X162284600Y-101199200I425400J0D01*
G01*
X164535400Y-101199200D01*
G75*
G02*
X164960800Y-101624600I0J-425400D01*
G01*
X164960800Y-102475400D01*
G75*
G02*
X164535400Y-102900800I-425400J0D01*
G01*
G37*
G36*
G01*
X164535400Y-117400800D02*
X162284600Y-117400800D01*
G75*
G02*
X161859200Y-116975400I0J425400D01*
G01*
X161859200Y-116124600D01*
G75*
G02*
X162284600Y-115699200I425400J0D01*
G01*
X164535400Y-115699200D01*
G75*
G02*
X164960800Y-116124600I0J-425400D01*
G01*
X164960800Y-116975400D01*
G75*
G02*
X164535400Y-117400800I-425400J0D01*
G01*
G37*
G36*
G01*
X158975400Y-117400800D02*
X155924600Y-117400800D01*
G75*
G02*
X155499200Y-116975400I0J425400D01*
G01*
X155499200Y-116124600D01*
G75*
G02*
X155924600Y-115699200I425400J0D01*
G01*
X158975400Y-115699200D01*
G75*
G02*
X159400800Y-116124600I0J-425400D01*
G01*
X159400800Y-116975400D01*
G75*
G02*
X158975400Y-117400800I-425400J0D01*
G01*
G37*
G36*
G01*
X158975400Y-102900800D02*
X155924600Y-102900800D01*
G75*
G02*
X155499200Y-102475400I0J425400D01*
G01*
X155499200Y-101624600D01*
G75*
G02*
X155924600Y-101199200I425400J0D01*
G01*
X158975400Y-101199200D01*
G75*
G02*
X159400800Y-101624600I0J-425400D01*
G01*
X159400800Y-102475400D01*
G75*
G02*
X158975400Y-102900800I-425400J0D01*
G01*
G37*
G36*
G01*
X157990000Y-114000800D02*
X155390000Y-114000800D01*
G75*
G02*
X155339200Y-113950000I0J50800D01*
G01*
X155339200Y-113650000D01*
G75*
G02*
X155390000Y-113599200I50800J0D01*
G01*
X157990000Y-113599200D01*
G75*
G02*
X158040800Y-113650000I0J-50800D01*
G01*
X158040800Y-113950000D01*
G75*
G02*
X157990000Y-114000800I-50800J0D01*
G01*
G37*
G36*
G01*
X157990000Y-113500800D02*
X155390000Y-113500800D01*
G75*
G02*
X155339200Y-113450000I0J50800D01*
G01*
X155339200Y-113150000D01*
G75*
G02*
X155390000Y-113099200I50800J0D01*
G01*
X157990000Y-113099200D01*
G75*
G02*
X158040800Y-113150000I0J-50800D01*
G01*
X158040800Y-113450000D01*
G75*
G02*
X157990000Y-113500800I-50800J0D01*
G01*
G37*
G36*
G01*
X157990000Y-113000800D02*
X155390000Y-113000800D01*
G75*
G02*
X155339200Y-112950000I0J50800D01*
G01*
X155339200Y-112650000D01*
G75*
G02*
X155390000Y-112599200I50800J0D01*
G01*
X157990000Y-112599200D01*
G75*
G02*
X158040800Y-112650000I0J-50800D01*
G01*
X158040800Y-112950000D01*
G75*
G02*
X157990000Y-113000800I-50800J0D01*
G01*
G37*
G36*
G01*
X157990000Y-112500800D02*
X155390000Y-112500800D01*
G75*
G02*
X155339200Y-112450000I0J50800D01*
G01*
X155339200Y-112150000D01*
G75*
G02*
X155390000Y-112099200I50800J0D01*
G01*
X157990000Y-112099200D01*
G75*
G02*
X158040800Y-112150000I0J-50800D01*
G01*
X158040800Y-112450000D01*
G75*
G02*
X157990000Y-112500800I-50800J0D01*
G01*
G37*
G36*
G01*
X157990000Y-112000800D02*
X155390000Y-112000800D01*
G75*
G02*
X155339200Y-111950000I0J50800D01*
G01*
X155339200Y-111650000D01*
G75*
G02*
X155390000Y-111599200I50800J0D01*
G01*
X157990000Y-111599200D01*
G75*
G02*
X158040800Y-111650000I0J-50800D01*
G01*
X158040800Y-111950000D01*
G75*
G02*
X157990000Y-112000800I-50800J0D01*
G01*
G37*
G36*
G01*
X157990000Y-111500800D02*
X155390000Y-111500800D01*
G75*
G02*
X155339200Y-111450000I0J50800D01*
G01*
X155339200Y-111150000D01*
G75*
G02*
X155390000Y-111099200I50800J0D01*
G01*
X157990000Y-111099200D01*
G75*
G02*
X158040800Y-111150000I0J-50800D01*
G01*
X158040800Y-111450000D01*
G75*
G02*
X157990000Y-111500800I-50800J0D01*
G01*
G37*
G36*
G01*
X157990000Y-111000800D02*
X155390000Y-111000800D01*
G75*
G02*
X155339200Y-110950000I0J50800D01*
G01*
X155339200Y-110650000D01*
G75*
G02*
X155390000Y-110599200I50800J0D01*
G01*
X157990000Y-110599200D01*
G75*
G02*
X158040800Y-110650000I0J-50800D01*
G01*
X158040800Y-110950000D01*
G75*
G02*
X157990000Y-111000800I-50800J0D01*
G01*
G37*
G36*
G01*
X157990000Y-110500800D02*
X155390000Y-110500800D01*
G75*
G02*
X155339200Y-110450000I0J50800D01*
G01*
X155339200Y-110150000D01*
G75*
G02*
X155390000Y-110099200I50800J0D01*
G01*
X157990000Y-110099200D01*
G75*
G02*
X158040800Y-110150000I0J-50800D01*
G01*
X158040800Y-110450000D01*
G75*
G02*
X157990000Y-110500800I-50800J0D01*
G01*
G37*
G36*
G01*
X157990000Y-110000800D02*
X155390000Y-110000800D01*
G75*
G02*
X155339200Y-109950000I0J50800D01*
G01*
X155339200Y-109650000D01*
G75*
G02*
X155390000Y-109599200I50800J0D01*
G01*
X157990000Y-109599200D01*
G75*
G02*
X158040800Y-109650000I0J-50800D01*
G01*
X158040800Y-109950000D01*
G75*
G02*
X157990000Y-110000800I-50800J0D01*
G01*
G37*
G36*
G01*
X157990000Y-109500800D02*
X155390000Y-109500800D01*
G75*
G02*
X155339200Y-109450000I0J50800D01*
G01*
X155339200Y-109150000D01*
G75*
G02*
X155390000Y-109099200I50800J0D01*
G01*
X157990000Y-109099200D01*
G75*
G02*
X158040800Y-109150000I0J-50800D01*
G01*
X158040800Y-109450000D01*
G75*
G02*
X157990000Y-109500800I-50800J0D01*
G01*
G37*
G36*
G01*
X157990000Y-109000800D02*
X155390000Y-109000800D01*
G75*
G02*
X155339200Y-108950000I0J50800D01*
G01*
X155339200Y-108650000D01*
G75*
G02*
X155390000Y-108599200I50800J0D01*
G01*
X157990000Y-108599200D01*
G75*
G02*
X158040800Y-108650000I0J-50800D01*
G01*
X158040800Y-108950000D01*
G75*
G02*
X157990000Y-109000800I-50800J0D01*
G01*
G37*
G36*
G01*
X157990000Y-108500800D02*
X155390000Y-108500800D01*
G75*
G02*
X155339200Y-108450000I0J50800D01*
G01*
X155339200Y-108150000D01*
G75*
G02*
X155390000Y-108099200I50800J0D01*
G01*
X157990000Y-108099200D01*
G75*
G02*
X158040800Y-108150000I0J-50800D01*
G01*
X158040800Y-108450000D01*
G75*
G02*
X157990000Y-108500800I-50800J0D01*
G01*
G37*
G36*
G01*
X157990000Y-108000800D02*
X155390000Y-108000800D01*
G75*
G02*
X155339200Y-107950000I0J50800D01*
G01*
X155339200Y-107650000D01*
G75*
G02*
X155390000Y-107599200I50800J0D01*
G01*
X157990000Y-107599200D01*
G75*
G02*
X158040800Y-107650000I0J-50800D01*
G01*
X158040800Y-107950000D01*
G75*
G02*
X157990000Y-108000800I-50800J0D01*
G01*
G37*
G36*
G01*
X157990000Y-107500800D02*
X155390000Y-107500800D01*
G75*
G02*
X155339200Y-107450000I0J50800D01*
G01*
X155339200Y-107150000D01*
G75*
G02*
X155390000Y-107099200I50800J0D01*
G01*
X157990000Y-107099200D01*
G75*
G02*
X158040800Y-107150000I0J-50800D01*
G01*
X158040800Y-107450000D01*
G75*
G02*
X157990000Y-107500800I-50800J0D01*
G01*
G37*
G36*
G01*
X157990000Y-107000800D02*
X155390000Y-107000800D01*
G75*
G02*
X155339200Y-106950000I0J50800D01*
G01*
X155339200Y-106650000D01*
G75*
G02*
X155390000Y-106599200I50800J0D01*
G01*
X157990000Y-106599200D01*
G75*
G02*
X158040800Y-106650000I0J-50800D01*
G01*
X158040800Y-106950000D01*
G75*
G02*
X157990000Y-107000800I-50800J0D01*
G01*
G37*
G36*
G01*
X157990000Y-106500800D02*
X155390000Y-106500800D01*
G75*
G02*
X155339200Y-106450000I0J50800D01*
G01*
X155339200Y-106150000D01*
G75*
G02*
X155390000Y-106099200I50800J0D01*
G01*
X157990000Y-106099200D01*
G75*
G02*
X158040800Y-106150000I0J-50800D01*
G01*
X158040800Y-106450000D01*
G75*
G02*
X157990000Y-106500800I-50800J0D01*
G01*
G37*
G36*
G01*
X157990000Y-106000800D02*
X155390000Y-106000800D01*
G75*
G02*
X155339200Y-105950000I0J50800D01*
G01*
X155339200Y-105650000D01*
G75*
G02*
X155390000Y-105599200I50800J0D01*
G01*
X157990000Y-105599200D01*
G75*
G02*
X158040800Y-105650000I0J-50800D01*
G01*
X158040800Y-105950000D01*
G75*
G02*
X157990000Y-106000800I-50800J0D01*
G01*
G37*
G36*
G01*
X157990000Y-105500800D02*
X155390000Y-105500800D01*
G75*
G02*
X155339200Y-105450000I0J50800D01*
G01*
X155339200Y-105150000D01*
G75*
G02*
X155390000Y-105099200I50800J0D01*
G01*
X157990000Y-105099200D01*
G75*
G02*
X158040800Y-105150000I0J-50800D01*
G01*
X158040800Y-105450000D01*
G75*
G02*
X157990000Y-105500800I-50800J0D01*
G01*
G37*
G36*
G01*
X157990000Y-105000800D02*
X155390000Y-105000800D01*
G75*
G02*
X155339200Y-104950000I0J50800D01*
G01*
X155339200Y-104650000D01*
G75*
G02*
X155390000Y-104599200I50800J0D01*
G01*
X157990000Y-104599200D01*
G75*
G02*
X158040800Y-104650000I0J-50800D01*
G01*
X158040800Y-104950000D01*
G75*
G02*
X157990000Y-105000800I-50800J0D01*
G01*
G37*
G36*
G01*
X149986000Y-100885200D02*
X151494000Y-100885200D01*
G75*
G02*
X151544800Y-100936000I0J-50800D01*
G01*
X151544800Y-102444000D01*
G75*
G02*
X151494000Y-102494800I-50800J0D01*
G01*
X149986000Y-102494800D01*
G75*
G02*
X149935200Y-102444000I0J50800D01*
G01*
X149935200Y-100936000D01*
G75*
G02*
X149986000Y-100885200I50800J0D01*
G01*
G37*
D14*
X148200000Y-101690000D03*
X145660000Y-101690000D03*
X143120000Y-101690000D03*
X140580000Y-101690000D03*
X138040000Y-101690000D03*
X135500000Y-101690000D03*
X132960000Y-101690000D03*
X130420000Y-101690000D03*
X127880000Y-101690000D03*
X125340000Y-101690000D03*
X122800000Y-101690000D03*
X120260000Y-101690000D03*
X117720000Y-101690000D03*
X115180000Y-101690000D03*
X115180000Y-116930000D03*
X117720000Y-116930000D03*
X120260000Y-116930000D03*
X122800000Y-116930000D03*
X125340000Y-116930000D03*
X127880000Y-116930000D03*
X130420000Y-116930000D03*
X132960000Y-116930000D03*
X135500000Y-116930000D03*
X138040000Y-116930000D03*
X140580000Y-116930000D03*
X143120000Y-116930000D03*
X145660000Y-116930000D03*
X148200000Y-116930000D03*
X150740000Y-116930000D03*
D13*
X135500000Y-112010000D03*
X135500000Y-114550000D03*
X138030000Y-112010000D03*
X138030000Y-114550000D03*
X140580000Y-112010000D03*
X140580000Y-114550000D03*
M02*
