G04 #@! TF.GenerationSoftware,KiCad,Pcbnew,(5.1.10-1-10_14)*
G04 #@! TF.CreationDate,2021-11-29T00:28:59-05:00*
G04 #@! TF.ProjectId,SNAC Sniffer LONG,534e4143-2053-46e6-9966-666572204c4f,1*
G04 #@! TF.SameCoordinates,Original*
G04 #@! TF.FileFunction,Legend,Bot*
G04 #@! TF.FilePolarity,Positive*
%FSLAX46Y46*%
G04 Gerber Fmt 4.6, Leading zero omitted, Abs format (unit mm)*
G04 Created by KiCad (PCBNEW (5.1.10-1-10_14)) date 2021-11-29 00:28:59*
%MOMM*%
%LPD*%
G01*
G04 APERTURE LIST*
%ADD10C,0.152400*%
%ADD11C,0.127000*%
%ADD12C,0.250000*%
%ADD13C,0.200000*%
%ADD14C,0.150000*%
%ADD15C,1.601600*%
%ADD16C,1.609600*%
G04 APERTURE END LIST*
D10*
X162910285Y-108329619D02*
X162910285Y-107313619D01*
X162523238Y-107313619D01*
X162426476Y-107362000D01*
X162378095Y-107410380D01*
X162329714Y-107507142D01*
X162329714Y-107652285D01*
X162378095Y-107749047D01*
X162426476Y-107797428D01*
X162523238Y-107845809D01*
X162910285Y-107845809D01*
X161749142Y-108329619D02*
X161845904Y-108281238D01*
X161894285Y-108232857D01*
X161942666Y-108136095D01*
X161942666Y-107845809D01*
X161894285Y-107749047D01*
X161845904Y-107700666D01*
X161749142Y-107652285D01*
X161604000Y-107652285D01*
X161507238Y-107700666D01*
X161458857Y-107749047D01*
X161410476Y-107845809D01*
X161410476Y-108136095D01*
X161458857Y-108232857D01*
X161507238Y-108281238D01*
X161604000Y-108329619D01*
X161749142Y-108329619D01*
X161071809Y-107652285D02*
X160878285Y-108329619D01*
X160684761Y-107845809D01*
X160491238Y-108329619D01*
X160297714Y-107652285D01*
X159523619Y-108281238D02*
X159620380Y-108329619D01*
X159813904Y-108329619D01*
X159910666Y-108281238D01*
X159959047Y-108184476D01*
X159959047Y-107797428D01*
X159910666Y-107700666D01*
X159813904Y-107652285D01*
X159620380Y-107652285D01*
X159523619Y-107700666D01*
X159475238Y-107797428D01*
X159475238Y-107894190D01*
X159959047Y-107990952D01*
X159039809Y-108329619D02*
X159039809Y-107652285D01*
X159039809Y-107845809D02*
X158991428Y-107749047D01*
X158943047Y-107700666D01*
X158846285Y-107652285D01*
X158749523Y-107652285D01*
X158023809Y-108281238D02*
X158120571Y-108329619D01*
X158314095Y-108329619D01*
X158410857Y-108281238D01*
X158459238Y-108184476D01*
X158459238Y-107797428D01*
X158410857Y-107700666D01*
X158314095Y-107652285D01*
X158120571Y-107652285D01*
X158023809Y-107700666D01*
X157975428Y-107797428D01*
X157975428Y-107894190D01*
X158459238Y-107990952D01*
X157104571Y-108329619D02*
X157104571Y-107313619D01*
X157104571Y-108281238D02*
X157201333Y-108329619D01*
X157394857Y-108329619D01*
X157491619Y-108281238D01*
X157540000Y-108232857D01*
X157588380Y-108136095D01*
X157588380Y-107845809D01*
X157540000Y-107749047D01*
X157491619Y-107700666D01*
X157394857Y-107652285D01*
X157201333Y-107652285D01*
X157104571Y-107700666D01*
X155508000Y-107797428D02*
X155362857Y-107845809D01*
X155314476Y-107894190D01*
X155266095Y-107990952D01*
X155266095Y-108136095D01*
X155314476Y-108232857D01*
X155362857Y-108281238D01*
X155459619Y-108329619D01*
X155846666Y-108329619D01*
X155846666Y-107313619D01*
X155508000Y-107313619D01*
X155411238Y-107362000D01*
X155362857Y-107410380D01*
X155314476Y-107507142D01*
X155314476Y-107603904D01*
X155362857Y-107700666D01*
X155411238Y-107749047D01*
X155508000Y-107797428D01*
X155846666Y-107797428D01*
X154927428Y-107652285D02*
X154685523Y-108329619D01*
X154443619Y-107652285D02*
X154685523Y-108329619D01*
X154782285Y-108571523D01*
X154830666Y-108619904D01*
X154927428Y-108668285D01*
X152701904Y-108329619D02*
X153040571Y-107845809D01*
X153282476Y-108329619D02*
X153282476Y-107313619D01*
X152895428Y-107313619D01*
X152798666Y-107362000D01*
X152750285Y-107410380D01*
X152701904Y-107507142D01*
X152701904Y-107652285D01*
X152750285Y-107749047D01*
X152798666Y-107797428D01*
X152895428Y-107845809D01*
X153282476Y-107845809D01*
X151879428Y-108281238D02*
X151976190Y-108329619D01*
X152169714Y-108329619D01*
X152266476Y-108281238D01*
X152314857Y-108184476D01*
X152314857Y-107797428D01*
X152266476Y-107700666D01*
X152169714Y-107652285D01*
X151976190Y-107652285D01*
X151879428Y-107700666D01*
X151831047Y-107797428D01*
X151831047Y-107894190D01*
X152314857Y-107990952D01*
X151540761Y-107652285D02*
X151153714Y-107652285D01*
X151395619Y-107313619D02*
X151395619Y-108184476D01*
X151347238Y-108281238D01*
X151250476Y-108329619D01*
X151153714Y-108329619D01*
X150815047Y-108329619D02*
X150815047Y-107652285D01*
X150815047Y-107845809D02*
X150766666Y-107749047D01*
X150718285Y-107700666D01*
X150621523Y-107652285D01*
X150524761Y-107652285D01*
X150040952Y-108329619D02*
X150137714Y-108281238D01*
X150186095Y-108232857D01*
X150234476Y-108136095D01*
X150234476Y-107845809D01*
X150186095Y-107749047D01*
X150137714Y-107700666D01*
X150040952Y-107652285D01*
X149895809Y-107652285D01*
X149799047Y-107700666D01*
X149750666Y-107749047D01*
X149702285Y-107845809D01*
X149702285Y-108136095D01*
X149750666Y-108232857D01*
X149799047Y-108281238D01*
X149895809Y-108329619D01*
X150040952Y-108329619D01*
X149315238Y-108281238D02*
X149170095Y-108329619D01*
X148928190Y-108329619D01*
X148831428Y-108281238D01*
X148783047Y-108232857D01*
X148734666Y-108136095D01*
X148734666Y-108039333D01*
X148783047Y-107942571D01*
X148831428Y-107894190D01*
X148928190Y-107845809D01*
X149121714Y-107797428D01*
X149218476Y-107749047D01*
X149266857Y-107700666D01*
X149315238Y-107603904D01*
X149315238Y-107507142D01*
X149266857Y-107410380D01*
X149218476Y-107362000D01*
X149121714Y-107313619D01*
X148879809Y-107313619D01*
X148734666Y-107362000D01*
X148299238Y-107652285D02*
X148299238Y-108668285D01*
X148299238Y-107700666D02*
X148202476Y-107652285D01*
X148008952Y-107652285D01*
X147912190Y-107700666D01*
X147863809Y-107749047D01*
X147815428Y-107845809D01*
X147815428Y-108136095D01*
X147863809Y-108232857D01*
X147912190Y-108281238D01*
X148008952Y-108329619D01*
X148202476Y-108329619D01*
X148299238Y-108281238D01*
X147476761Y-107652285D02*
X147234857Y-108329619D01*
X146992952Y-107652285D02*
X147234857Y-108329619D01*
X147331619Y-108571523D01*
X147380000Y-108619904D01*
X147476761Y-108668285D01*
D11*
X159101285Y-115028428D02*
X158992428Y-115064714D01*
X158811000Y-115064714D01*
X158738428Y-115028428D01*
X158702142Y-114992142D01*
X158665857Y-114919571D01*
X158665857Y-114847000D01*
X158702142Y-114774428D01*
X158738428Y-114738142D01*
X158811000Y-114701857D01*
X158956142Y-114665571D01*
X159028714Y-114629285D01*
X159065000Y-114593000D01*
X159101285Y-114520428D01*
X159101285Y-114447857D01*
X159065000Y-114375285D01*
X159028714Y-114339000D01*
X158956142Y-114302714D01*
X158774714Y-114302714D01*
X158665857Y-114339000D01*
X158339285Y-114556714D02*
X158339285Y-115318714D01*
X158339285Y-114593000D02*
X158266714Y-114556714D01*
X158121571Y-114556714D01*
X158049000Y-114593000D01*
X158012714Y-114629285D01*
X157976428Y-114701857D01*
X157976428Y-114919571D01*
X158012714Y-114992142D01*
X158049000Y-115028428D01*
X158121571Y-115064714D01*
X158266714Y-115064714D01*
X158339285Y-115028428D01*
X157359571Y-115028428D02*
X157432142Y-115064714D01*
X157577285Y-115064714D01*
X157649857Y-115028428D01*
X157686142Y-114955857D01*
X157686142Y-114665571D01*
X157649857Y-114593000D01*
X157577285Y-114556714D01*
X157432142Y-114556714D01*
X157359571Y-114593000D01*
X157323285Y-114665571D01*
X157323285Y-114738142D01*
X157686142Y-114810714D01*
X156670142Y-115028428D02*
X156742714Y-115064714D01*
X156887857Y-115064714D01*
X156960428Y-115028428D01*
X156996714Y-114992142D01*
X157033000Y-114919571D01*
X157033000Y-114701857D01*
X156996714Y-114629285D01*
X156960428Y-114593000D01*
X156887857Y-114556714D01*
X156742714Y-114556714D01*
X156670142Y-114593000D01*
X156343571Y-115064714D02*
X156343571Y-114556714D01*
X156343571Y-114302714D02*
X156379857Y-114339000D01*
X156343571Y-114375285D01*
X156307285Y-114339000D01*
X156343571Y-114302714D01*
X156343571Y-114375285D01*
X155654142Y-115064714D02*
X155654142Y-114665571D01*
X155690428Y-114593000D01*
X155763000Y-114556714D01*
X155908142Y-114556714D01*
X155980714Y-114593000D01*
X155654142Y-115028428D02*
X155726714Y-115064714D01*
X155908142Y-115064714D01*
X155980714Y-115028428D01*
X156017000Y-114955857D01*
X156017000Y-114883285D01*
X155980714Y-114810714D01*
X155908142Y-114774428D01*
X155726714Y-114774428D01*
X155654142Y-114738142D01*
X155182428Y-115064714D02*
X155255000Y-115028428D01*
X155291285Y-114955857D01*
X155291285Y-114302714D01*
X154420428Y-114302714D02*
X153985000Y-114302714D01*
X154202714Y-115064714D02*
X154202714Y-114302714D01*
X153731000Y-115064714D02*
X153731000Y-114302714D01*
X153404428Y-115064714D02*
X153404428Y-114665571D01*
X153440714Y-114593000D01*
X153513285Y-114556714D01*
X153622142Y-114556714D01*
X153694714Y-114593000D01*
X153731000Y-114629285D01*
X152715000Y-115064714D02*
X152715000Y-114665571D01*
X152751285Y-114593000D01*
X152823857Y-114556714D01*
X152969000Y-114556714D01*
X153041571Y-114593000D01*
X152715000Y-115028428D02*
X152787571Y-115064714D01*
X152969000Y-115064714D01*
X153041571Y-115028428D01*
X153077857Y-114955857D01*
X153077857Y-114883285D01*
X153041571Y-114810714D01*
X152969000Y-114774428D01*
X152787571Y-114774428D01*
X152715000Y-114738142D01*
X152352142Y-114556714D02*
X152352142Y-115064714D01*
X152352142Y-114629285D02*
X152315857Y-114593000D01*
X152243285Y-114556714D01*
X152134428Y-114556714D01*
X152061857Y-114593000D01*
X152025571Y-114665571D01*
X152025571Y-115064714D01*
X151662714Y-115064714D02*
X151662714Y-114302714D01*
X151590142Y-114774428D02*
X151372428Y-115064714D01*
X151372428Y-114556714D02*
X151662714Y-114847000D01*
X151082142Y-115028428D02*
X151009571Y-115064714D01*
X150864428Y-115064714D01*
X150791857Y-115028428D01*
X150755571Y-114955857D01*
X150755571Y-114919571D01*
X150791857Y-114847000D01*
X150864428Y-114810714D01*
X150973285Y-114810714D01*
X151045857Y-114774428D01*
X151082142Y-114701857D01*
X151082142Y-114665571D01*
X151045857Y-114593000D01*
X150973285Y-114556714D01*
X150864428Y-114556714D01*
X150791857Y-114593000D01*
X150429000Y-114992142D02*
X150392714Y-115028428D01*
X150429000Y-115064714D01*
X150465285Y-115028428D01*
X150429000Y-114992142D01*
X150429000Y-115064714D01*
X150429000Y-114593000D02*
X150392714Y-114629285D01*
X150429000Y-114665571D01*
X150465285Y-114629285D01*
X150429000Y-114593000D01*
X150429000Y-114665571D01*
X149159000Y-114556714D02*
X149159000Y-115064714D01*
X149340428Y-114266428D02*
X149521857Y-114810714D01*
X149050142Y-114810714D01*
X148614714Y-114302714D02*
X148542142Y-114302714D01*
X148469571Y-114339000D01*
X148433285Y-114375285D01*
X148397000Y-114447857D01*
X148360714Y-114593000D01*
X148360714Y-114774428D01*
X148397000Y-114919571D01*
X148433285Y-114992142D01*
X148469571Y-115028428D01*
X148542142Y-115064714D01*
X148614714Y-115064714D01*
X148687285Y-115028428D01*
X148723571Y-114992142D01*
X148759857Y-114919571D01*
X148796142Y-114774428D01*
X148796142Y-114593000D01*
X148759857Y-114447857D01*
X148723571Y-114375285D01*
X148687285Y-114339000D01*
X148614714Y-114302714D01*
X148106714Y-114556714D02*
X147961571Y-115064714D01*
X147816428Y-114701857D01*
X147671285Y-115064714D01*
X147526142Y-114556714D01*
X146909285Y-115064714D02*
X146909285Y-114665571D01*
X146945571Y-114593000D01*
X147018142Y-114556714D01*
X147163285Y-114556714D01*
X147235857Y-114593000D01*
X146909285Y-115028428D02*
X146981857Y-115064714D01*
X147163285Y-115064714D01*
X147235857Y-115028428D01*
X147272142Y-114955857D01*
X147272142Y-114883285D01*
X147235857Y-114810714D01*
X147163285Y-114774428D01*
X146981857Y-114774428D01*
X146909285Y-114738142D01*
X146655285Y-114556714D02*
X146365000Y-114556714D01*
X146546428Y-114302714D02*
X146546428Y-114955857D01*
X146510142Y-115028428D01*
X146437571Y-115064714D01*
X146365000Y-115064714D01*
X146219857Y-114556714D02*
X145929571Y-114556714D01*
X146111000Y-114302714D02*
X146111000Y-114955857D01*
X146074714Y-115028428D01*
X146002142Y-115064714D01*
X145929571Y-115064714D01*
X145240142Y-115064714D02*
X145494142Y-114701857D01*
X145675571Y-115064714D02*
X145675571Y-114302714D01*
X145385285Y-114302714D01*
X145312714Y-114339000D01*
X145276428Y-114375285D01*
X145240142Y-114447857D01*
X145240142Y-114556714D01*
X145276428Y-114629285D01*
X145312714Y-114665571D01*
X145385285Y-114701857D01*
X145675571Y-114701857D01*
X144587000Y-115064714D02*
X144587000Y-114665571D01*
X144623285Y-114593000D01*
X144695857Y-114556714D01*
X144841000Y-114556714D01*
X144913571Y-114593000D01*
X144587000Y-115028428D02*
X144659571Y-115064714D01*
X144841000Y-115064714D01*
X144913571Y-115028428D01*
X144949857Y-114955857D01*
X144949857Y-114883285D01*
X144913571Y-114810714D01*
X144841000Y-114774428D01*
X144659571Y-114774428D01*
X144587000Y-114738142D01*
X144224142Y-114556714D02*
X144224142Y-115064714D01*
X144224142Y-114629285D02*
X144187857Y-114593000D01*
X144115285Y-114556714D01*
X144006428Y-114556714D01*
X143933857Y-114593000D01*
X143897571Y-114665571D01*
X143897571Y-115064714D01*
X143208142Y-114556714D02*
X143208142Y-115173571D01*
X143244428Y-115246142D01*
X143280714Y-115282428D01*
X143353285Y-115318714D01*
X143462142Y-115318714D01*
X143534714Y-115282428D01*
X143208142Y-115028428D02*
X143280714Y-115064714D01*
X143425857Y-115064714D01*
X143498428Y-115028428D01*
X143534714Y-114992142D01*
X143571000Y-114919571D01*
X143571000Y-114701857D01*
X143534714Y-114629285D01*
X143498428Y-114593000D01*
X143425857Y-114556714D01*
X143280714Y-114556714D01*
X143208142Y-114593000D01*
X142555000Y-115028428D02*
X142627571Y-115064714D01*
X142772714Y-115064714D01*
X142845285Y-115028428D01*
X142881571Y-114955857D01*
X142881571Y-114665571D01*
X142845285Y-114593000D01*
X142772714Y-114556714D01*
X142627571Y-114556714D01*
X142555000Y-114593000D01*
X142518714Y-114665571D01*
X142518714Y-114738142D01*
X142881571Y-114810714D01*
X158675238Y-112702380D02*
X158675238Y-113416666D01*
X158722857Y-113559523D01*
X158818095Y-113654761D01*
X158960952Y-113702380D01*
X159056190Y-113702380D01*
X157818095Y-113654761D02*
X157913333Y-113702380D01*
X158103809Y-113702380D01*
X158199047Y-113654761D01*
X158246666Y-113559523D01*
X158246666Y-113178571D01*
X158199047Y-113083333D01*
X158103809Y-113035714D01*
X157913333Y-113035714D01*
X157818095Y-113083333D01*
X157770476Y-113178571D01*
X157770476Y-113273809D01*
X158246666Y-113369047D01*
X157484761Y-113035714D02*
X157103809Y-113035714D01*
X157341904Y-113702380D02*
X157341904Y-112845238D01*
X157294285Y-112750000D01*
X157199047Y-112702380D01*
X157103809Y-112702380D01*
X156913333Y-113035714D02*
X156532380Y-113035714D01*
X156770476Y-113702380D02*
X156770476Y-112845238D01*
X156722857Y-112750000D01*
X156627619Y-112702380D01*
X156532380Y-112702380D01*
X154865714Y-113607142D02*
X154913333Y-113654761D01*
X155056190Y-113702380D01*
X155151428Y-113702380D01*
X155294285Y-113654761D01*
X155389523Y-113559523D01*
X155437142Y-113464285D01*
X155484761Y-113273809D01*
X155484761Y-113130952D01*
X155437142Y-112940476D01*
X155389523Y-112845238D01*
X155294285Y-112750000D01*
X155151428Y-112702380D01*
X155056190Y-112702380D01*
X154913333Y-112750000D01*
X154865714Y-112797619D01*
X154437142Y-113702380D02*
X154437142Y-112702380D01*
X154008571Y-113702380D02*
X154008571Y-113178571D01*
X154056190Y-113083333D01*
X154151428Y-113035714D01*
X154294285Y-113035714D01*
X154389523Y-113083333D01*
X154437142Y-113130952D01*
X153151428Y-113654761D02*
X153246666Y-113702380D01*
X153437142Y-113702380D01*
X153532380Y-113654761D01*
X153580000Y-113559523D01*
X153580000Y-113178571D01*
X153532380Y-113083333D01*
X153437142Y-113035714D01*
X153246666Y-113035714D01*
X153151428Y-113083333D01*
X153103809Y-113178571D01*
X153103809Y-113273809D01*
X153580000Y-113369047D01*
X152675238Y-113035714D02*
X152675238Y-113702380D01*
X152675238Y-113130952D02*
X152627619Y-113083333D01*
X152532380Y-113035714D01*
X152389523Y-113035714D01*
X152294285Y-113083333D01*
X152246666Y-113178571D01*
X152246666Y-113702380D01*
X151722857Y-113654761D02*
X151722857Y-113702380D01*
X151770476Y-113797619D01*
X151818095Y-113845238D01*
X150580000Y-112797619D02*
X150532380Y-112750000D01*
X150437142Y-112702380D01*
X150199047Y-112702380D01*
X150103809Y-112750000D01*
X150056190Y-112797619D01*
X150008571Y-112892857D01*
X150008571Y-112988095D01*
X150056190Y-113130952D01*
X150627619Y-113702380D01*
X150008571Y-113702380D01*
X149389523Y-112702380D02*
X149294285Y-112702380D01*
X149199047Y-112750000D01*
X149151428Y-112797619D01*
X149103809Y-112892857D01*
X149056190Y-113083333D01*
X149056190Y-113321428D01*
X149103809Y-113511904D01*
X149151428Y-113607142D01*
X149199047Y-113654761D01*
X149294285Y-113702380D01*
X149389523Y-113702380D01*
X149484761Y-113654761D01*
X149532380Y-113607142D01*
X149580000Y-113511904D01*
X149627619Y-113321428D01*
X149627619Y-113083333D01*
X149580000Y-112892857D01*
X149532380Y-112797619D01*
X149484761Y-112750000D01*
X149389523Y-112702380D01*
X148675238Y-112797619D02*
X148627619Y-112750000D01*
X148532380Y-112702380D01*
X148294285Y-112702380D01*
X148199047Y-112750000D01*
X148151428Y-112797619D01*
X148103809Y-112892857D01*
X148103809Y-112988095D01*
X148151428Y-113130952D01*
X148722857Y-113702380D01*
X148103809Y-113702380D01*
X147151428Y-113702380D02*
X147722857Y-113702380D01*
X147437142Y-113702380D02*
X147437142Y-112702380D01*
X147532380Y-112845238D01*
X147627619Y-112940476D01*
X147722857Y-112988095D01*
D12*
X163990000Y-104903333D02*
X163990000Y-105170000D01*
X163456666Y-104903333D02*
X163456666Y-105170000D01*
X162856666Y-106303333D02*
X162856666Y-104903333D01*
X162390000Y-105903333D01*
X161923333Y-104903333D01*
X161923333Y-106303333D01*
X161256666Y-106303333D02*
X161256666Y-105370000D01*
X161256666Y-105636666D02*
X161190000Y-105503333D01*
X161123333Y-105436666D01*
X160990000Y-105370000D01*
X160856666Y-105370000D01*
X160390000Y-106170000D02*
X160323333Y-106236666D01*
X160390000Y-106303333D01*
X160456666Y-106236666D01*
X160390000Y-106170000D01*
X160390000Y-106303333D01*
X158656666Y-106303333D02*
X158656666Y-104903333D01*
X157856666Y-106303333D01*
X157856666Y-104903333D01*
X156990000Y-106303333D02*
X157123333Y-106236666D01*
X157190000Y-106170000D01*
X157256666Y-106036666D01*
X157256666Y-105636666D01*
X157190000Y-105503333D01*
X157123333Y-105436666D01*
X156990000Y-105370000D01*
X156790000Y-105370000D01*
X156656666Y-105436666D01*
X156590000Y-105503333D01*
X156523333Y-105636666D01*
X156523333Y-106036666D01*
X156590000Y-106170000D01*
X156656666Y-106236666D01*
X156790000Y-106303333D01*
X156990000Y-106303333D01*
X155990000Y-106236666D02*
X155856666Y-106303333D01*
X155590000Y-106303333D01*
X155456666Y-106236666D01*
X155390000Y-106103333D01*
X155390000Y-106036666D01*
X155456666Y-105903333D01*
X155590000Y-105836666D01*
X155790000Y-105836666D01*
X155923333Y-105770000D01*
X155990000Y-105636666D01*
X155990000Y-105570000D01*
X155923333Y-105436666D01*
X155790000Y-105370000D01*
X155590000Y-105370000D01*
X155456666Y-105436666D01*
X154923333Y-105370000D02*
X154590000Y-106303333D01*
X154256666Y-105370000D02*
X154590000Y-106303333D01*
X154723333Y-106636666D01*
X154790000Y-106703333D01*
X154923333Y-106770000D01*
X153790000Y-104903333D02*
X153790000Y-105170000D01*
X153256666Y-104903333D02*
X153256666Y-105170000D01*
X151656666Y-106236666D02*
X151456666Y-106303333D01*
X151123333Y-106303333D01*
X150990000Y-106236666D01*
X150923333Y-106170000D01*
X150856666Y-106036666D01*
X150856666Y-105903333D01*
X150923333Y-105770000D01*
X150990000Y-105703333D01*
X151123333Y-105636666D01*
X151390000Y-105570000D01*
X151523333Y-105503333D01*
X151590000Y-105436666D01*
X151656666Y-105303333D01*
X151656666Y-105170000D01*
X151590000Y-105036666D01*
X151523333Y-104970000D01*
X151390000Y-104903333D01*
X151056666Y-104903333D01*
X150856666Y-104970000D01*
X150256666Y-106303333D02*
X150256666Y-104903333D01*
X149456666Y-106303333D01*
X149456666Y-104903333D01*
X148856666Y-105903333D02*
X148190000Y-105903333D01*
X148990000Y-106303333D02*
X148523333Y-104903333D01*
X148056666Y-106303333D01*
X146790000Y-106170000D02*
X146856666Y-106236666D01*
X147056666Y-106303333D01*
X147190000Y-106303333D01*
X147390000Y-106236666D01*
X147523333Y-106103333D01*
X147590000Y-105970000D01*
X147656666Y-105703333D01*
X147656666Y-105503333D01*
X147590000Y-105236666D01*
X147523333Y-105103333D01*
X147390000Y-104970000D01*
X147190000Y-104903333D01*
X147056666Y-104903333D01*
X146856666Y-104970000D01*
X146790000Y-105036666D01*
X145190000Y-106236666D02*
X144990000Y-106303333D01*
X144656666Y-106303333D01*
X144523333Y-106236666D01*
X144456666Y-106170000D01*
X144390000Y-106036666D01*
X144390000Y-105903333D01*
X144456666Y-105770000D01*
X144523333Y-105703333D01*
X144656666Y-105636666D01*
X144923333Y-105570000D01*
X145056666Y-105503333D01*
X145123333Y-105436666D01*
X145190000Y-105303333D01*
X145190000Y-105170000D01*
X145123333Y-105036666D01*
X145056666Y-104970000D01*
X144923333Y-104903333D01*
X144590000Y-104903333D01*
X144390000Y-104970000D01*
X143790000Y-105370000D02*
X143790000Y-106303333D01*
X143790000Y-105503333D02*
X143723333Y-105436666D01*
X143590000Y-105370000D01*
X143390000Y-105370000D01*
X143256666Y-105436666D01*
X143190000Y-105570000D01*
X143190000Y-106303333D01*
X142523333Y-106303333D02*
X142523333Y-105370000D01*
X142523333Y-104903333D02*
X142590000Y-104970000D01*
X142523333Y-105036666D01*
X142456666Y-104970000D01*
X142523333Y-104903333D01*
X142523333Y-105036666D01*
X142056666Y-105370000D02*
X141523333Y-105370000D01*
X141856666Y-106303333D02*
X141856666Y-105103333D01*
X141790000Y-104970000D01*
X141656666Y-104903333D01*
X141523333Y-104903333D01*
X141256666Y-105370000D02*
X140723333Y-105370000D01*
X141056666Y-106303333D02*
X141056666Y-105103333D01*
X140990000Y-104970000D01*
X140856666Y-104903333D01*
X140723333Y-104903333D01*
X139723333Y-106236666D02*
X139856666Y-106303333D01*
X140123333Y-106303333D01*
X140256666Y-106236666D01*
X140323333Y-106103333D01*
X140323333Y-105570000D01*
X140256666Y-105436666D01*
X140123333Y-105370000D01*
X139856666Y-105370000D01*
X139723333Y-105436666D01*
X139656666Y-105570000D01*
X139656666Y-105703333D01*
X140323333Y-105836666D01*
X139056666Y-106303333D02*
X139056666Y-105370000D01*
X139056666Y-105636666D02*
X138990000Y-105503333D01*
X138923333Y-105436666D01*
X138790000Y-105370000D01*
X138656666Y-105370000D01*
D13*
X111598112Y-104090000D02*
G75*
G03*
X111598112Y-104090000I-158112J0D01*
G01*
D11*
X110240000Y-104090000D02*
X110240000Y-103190000D01*
X110240000Y-115390000D02*
X110240000Y-114490000D01*
X105790000Y-101790000D02*
X107990000Y-101790000D01*
X107990000Y-116790000D02*
X105790000Y-116790000D01*
X99430000Y-116790000D02*
X102190000Y-116790000D01*
X99430000Y-101790000D02*
X102190000Y-101790000D01*
X99430000Y-116790000D02*
X99430000Y-101790000D01*
D14*
X123053333Y-109962380D02*
X123053333Y-110676666D01*
X123100952Y-110819523D01*
X123196190Y-110914761D01*
X123339047Y-110962380D01*
X123434285Y-110962380D01*
X122053333Y-110962380D02*
X122624761Y-110962380D01*
X122339047Y-110962380D02*
X122339047Y-109962380D01*
X122434285Y-110105238D01*
X122529523Y-110200476D01*
X122624761Y-110248095D01*
X125693333Y-109962380D02*
X125693333Y-110676666D01*
X125740952Y-110819523D01*
X125836190Y-110914761D01*
X125979047Y-110962380D01*
X126074285Y-110962380D01*
X125264761Y-110057619D02*
X125217142Y-110010000D01*
X125121904Y-109962380D01*
X124883809Y-109962380D01*
X124788571Y-110010000D01*
X124740952Y-110057619D01*
X124693333Y-110152857D01*
X124693333Y-110248095D01*
X124740952Y-110390952D01*
X125312380Y-110962380D01*
X124693333Y-110962380D01*
X128153333Y-109962380D02*
X128153333Y-110676666D01*
X128200952Y-110819523D01*
X128296190Y-110914761D01*
X128439047Y-110962380D01*
X128534285Y-110962380D01*
X127772380Y-109962380D02*
X127153333Y-109962380D01*
X127486666Y-110343333D01*
X127343809Y-110343333D01*
X127248571Y-110390952D01*
X127200952Y-110438571D01*
X127153333Y-110533809D01*
X127153333Y-110771904D01*
X127200952Y-110867142D01*
X127248571Y-110914761D01*
X127343809Y-110962380D01*
X127629523Y-110962380D01*
X127724761Y-110914761D01*
X127772380Y-110867142D01*
X130763333Y-109992380D02*
X130763333Y-110706666D01*
X130810952Y-110849523D01*
X130906190Y-110944761D01*
X131049047Y-110992380D01*
X131144285Y-110992380D01*
X129858571Y-110325714D02*
X129858571Y-110992380D01*
X130096666Y-109944761D02*
X130334761Y-110659047D01*
X129715714Y-110659047D01*
X133273333Y-109952380D02*
X133273333Y-110666666D01*
X133320952Y-110809523D01*
X133416190Y-110904761D01*
X133559047Y-110952380D01*
X133654285Y-110952380D01*
X132320952Y-109952380D02*
X132797142Y-109952380D01*
X132844761Y-110428571D01*
X132797142Y-110380952D01*
X132701904Y-110333333D01*
X132463809Y-110333333D01*
X132368571Y-110380952D01*
X132320952Y-110428571D01*
X132273333Y-110523809D01*
X132273333Y-110761904D01*
X132320952Y-110857142D01*
X132368571Y-110904761D01*
X132463809Y-110952380D01*
X132701904Y-110952380D01*
X132797142Y-110904761D01*
X132844761Y-110857142D01*
X104748246Y-109752473D02*
X104748246Y-108752268D01*
X104367216Y-108752268D01*
X104271958Y-108799897D01*
X104224329Y-108847526D01*
X104176700Y-108942783D01*
X104176700Y-109085670D01*
X104224329Y-109180927D01*
X104271958Y-109228556D01*
X104367216Y-109276185D01*
X104748246Y-109276185D01*
X103224124Y-109752473D02*
X103795670Y-109752473D01*
X103509897Y-109752473D02*
X103509897Y-108752268D01*
X103605155Y-108895155D01*
X103700412Y-108990412D01*
X103795670Y-109038041D01*
X135833333Y-109942380D02*
X135833333Y-110656666D01*
X135880952Y-110799523D01*
X135976190Y-110894761D01*
X136119047Y-110942380D01*
X136214285Y-110942380D01*
X134928571Y-109942380D02*
X135119047Y-109942380D01*
X135214285Y-109990000D01*
X135261904Y-110037619D01*
X135357142Y-110180476D01*
X135404761Y-110370952D01*
X135404761Y-110751904D01*
X135357142Y-110847142D01*
X135309523Y-110894761D01*
X135214285Y-110942380D01*
X135023809Y-110942380D01*
X134928571Y-110894761D01*
X134880952Y-110847142D01*
X134833333Y-110751904D01*
X134833333Y-110513809D01*
X134880952Y-110418571D01*
X134928571Y-110370952D01*
X135023809Y-110323333D01*
X135214285Y-110323333D01*
X135309523Y-110370952D01*
X135357142Y-110418571D01*
X135404761Y-110513809D01*
X138393333Y-109932380D02*
X138393333Y-110646666D01*
X138440952Y-110789523D01*
X138536190Y-110884761D01*
X138679047Y-110932380D01*
X138774285Y-110932380D01*
X138012380Y-109932380D02*
X137345714Y-109932380D01*
X137774285Y-110932380D01*
X140913333Y-109932380D02*
X140913333Y-110646666D01*
X140960952Y-110789523D01*
X141056190Y-110884761D01*
X141199047Y-110932380D01*
X141294285Y-110932380D01*
X140294285Y-110360952D02*
X140389523Y-110313333D01*
X140437142Y-110265714D01*
X140484761Y-110170476D01*
X140484761Y-110122857D01*
X140437142Y-110027619D01*
X140389523Y-109980000D01*
X140294285Y-109932380D01*
X140103809Y-109932380D01*
X140008571Y-109980000D01*
X139960952Y-110027619D01*
X139913333Y-110122857D01*
X139913333Y-110170476D01*
X139960952Y-110265714D01*
X140008571Y-110313333D01*
X140103809Y-110360952D01*
X140294285Y-110360952D01*
X140389523Y-110408571D01*
X140437142Y-110456190D01*
X140484761Y-110551428D01*
X140484761Y-110741904D01*
X140437142Y-110837142D01*
X140389523Y-110884761D01*
X140294285Y-110932380D01*
X140103809Y-110932380D01*
X140008571Y-110884761D01*
X139960952Y-110837142D01*
X139913333Y-110741904D01*
X139913333Y-110551428D01*
X139960952Y-110456190D01*
X140008571Y-110408571D01*
X140103809Y-110360952D01*
%LPC*%
D15*
X122800000Y-112010000D03*
X122800000Y-114550000D03*
X125340000Y-112010000D03*
X125340000Y-114550000D03*
X127880000Y-112010000D03*
X127880000Y-114550000D03*
X130420000Y-112010000D03*
X130420000Y-114550000D03*
X132960000Y-112010000D03*
X132960000Y-114550000D03*
G36*
G01*
X105145400Y-102890800D02*
X102894600Y-102890800D01*
G75*
G02*
X102469200Y-102465400I0J425400D01*
G01*
X102469200Y-101614600D01*
G75*
G02*
X102894600Y-101189200I425400J0D01*
G01*
X105145400Y-101189200D01*
G75*
G02*
X105570800Y-101614600I0J-425400D01*
G01*
X105570800Y-102465400D01*
G75*
G02*
X105145400Y-102890800I-425400J0D01*
G01*
G37*
G36*
G01*
X105145400Y-117390800D02*
X102894600Y-117390800D01*
G75*
G02*
X102469200Y-116965400I0J425400D01*
G01*
X102469200Y-116114600D01*
G75*
G02*
X102894600Y-115689200I425400J0D01*
G01*
X105145400Y-115689200D01*
G75*
G02*
X105570800Y-116114600I0J-425400D01*
G01*
X105570800Y-116965400D01*
G75*
G02*
X105145400Y-117390800I-425400J0D01*
G01*
G37*
G36*
G01*
X111505400Y-117390800D02*
X108454600Y-117390800D01*
G75*
G02*
X108029200Y-116965400I0J425400D01*
G01*
X108029200Y-116114600D01*
G75*
G02*
X108454600Y-115689200I425400J0D01*
G01*
X111505400Y-115689200D01*
G75*
G02*
X111930800Y-116114600I0J-425400D01*
G01*
X111930800Y-116965400D01*
G75*
G02*
X111505400Y-117390800I-425400J0D01*
G01*
G37*
G36*
G01*
X111505400Y-102890800D02*
X108454600Y-102890800D01*
G75*
G02*
X108029200Y-102465400I0J425400D01*
G01*
X108029200Y-101614600D01*
G75*
G02*
X108454600Y-101189200I425400J0D01*
G01*
X111505400Y-101189200D01*
G75*
G02*
X111930800Y-101614600I0J-425400D01*
G01*
X111930800Y-102465400D01*
G75*
G02*
X111505400Y-102890800I-425400J0D01*
G01*
G37*
G36*
G01*
X112040000Y-113990800D02*
X109440000Y-113990800D01*
G75*
G02*
X109389200Y-113940000I0J50800D01*
G01*
X109389200Y-113640000D01*
G75*
G02*
X109440000Y-113589200I50800J0D01*
G01*
X112040000Y-113589200D01*
G75*
G02*
X112090800Y-113640000I0J-50800D01*
G01*
X112090800Y-113940000D01*
G75*
G02*
X112040000Y-113990800I-50800J0D01*
G01*
G37*
G36*
G01*
X112040000Y-113490800D02*
X109440000Y-113490800D01*
G75*
G02*
X109389200Y-113440000I0J50800D01*
G01*
X109389200Y-113140000D01*
G75*
G02*
X109440000Y-113089200I50800J0D01*
G01*
X112040000Y-113089200D01*
G75*
G02*
X112090800Y-113140000I0J-50800D01*
G01*
X112090800Y-113440000D01*
G75*
G02*
X112040000Y-113490800I-50800J0D01*
G01*
G37*
G36*
G01*
X112040000Y-112990800D02*
X109440000Y-112990800D01*
G75*
G02*
X109389200Y-112940000I0J50800D01*
G01*
X109389200Y-112640000D01*
G75*
G02*
X109440000Y-112589200I50800J0D01*
G01*
X112040000Y-112589200D01*
G75*
G02*
X112090800Y-112640000I0J-50800D01*
G01*
X112090800Y-112940000D01*
G75*
G02*
X112040000Y-112990800I-50800J0D01*
G01*
G37*
G36*
G01*
X112040000Y-112490800D02*
X109440000Y-112490800D01*
G75*
G02*
X109389200Y-112440000I0J50800D01*
G01*
X109389200Y-112140000D01*
G75*
G02*
X109440000Y-112089200I50800J0D01*
G01*
X112040000Y-112089200D01*
G75*
G02*
X112090800Y-112140000I0J-50800D01*
G01*
X112090800Y-112440000D01*
G75*
G02*
X112040000Y-112490800I-50800J0D01*
G01*
G37*
G36*
G01*
X112040000Y-111990800D02*
X109440000Y-111990800D01*
G75*
G02*
X109389200Y-111940000I0J50800D01*
G01*
X109389200Y-111640000D01*
G75*
G02*
X109440000Y-111589200I50800J0D01*
G01*
X112040000Y-111589200D01*
G75*
G02*
X112090800Y-111640000I0J-50800D01*
G01*
X112090800Y-111940000D01*
G75*
G02*
X112040000Y-111990800I-50800J0D01*
G01*
G37*
G36*
G01*
X112040000Y-111490800D02*
X109440000Y-111490800D01*
G75*
G02*
X109389200Y-111440000I0J50800D01*
G01*
X109389200Y-111140000D01*
G75*
G02*
X109440000Y-111089200I50800J0D01*
G01*
X112040000Y-111089200D01*
G75*
G02*
X112090800Y-111140000I0J-50800D01*
G01*
X112090800Y-111440000D01*
G75*
G02*
X112040000Y-111490800I-50800J0D01*
G01*
G37*
G36*
G01*
X112040000Y-110990800D02*
X109440000Y-110990800D01*
G75*
G02*
X109389200Y-110940000I0J50800D01*
G01*
X109389200Y-110640000D01*
G75*
G02*
X109440000Y-110589200I50800J0D01*
G01*
X112040000Y-110589200D01*
G75*
G02*
X112090800Y-110640000I0J-50800D01*
G01*
X112090800Y-110940000D01*
G75*
G02*
X112040000Y-110990800I-50800J0D01*
G01*
G37*
G36*
G01*
X112040000Y-110490800D02*
X109440000Y-110490800D01*
G75*
G02*
X109389200Y-110440000I0J50800D01*
G01*
X109389200Y-110140000D01*
G75*
G02*
X109440000Y-110089200I50800J0D01*
G01*
X112040000Y-110089200D01*
G75*
G02*
X112090800Y-110140000I0J-50800D01*
G01*
X112090800Y-110440000D01*
G75*
G02*
X112040000Y-110490800I-50800J0D01*
G01*
G37*
G36*
G01*
X112040000Y-109990800D02*
X109440000Y-109990800D01*
G75*
G02*
X109389200Y-109940000I0J50800D01*
G01*
X109389200Y-109640000D01*
G75*
G02*
X109440000Y-109589200I50800J0D01*
G01*
X112040000Y-109589200D01*
G75*
G02*
X112090800Y-109640000I0J-50800D01*
G01*
X112090800Y-109940000D01*
G75*
G02*
X112040000Y-109990800I-50800J0D01*
G01*
G37*
G36*
G01*
X112040000Y-109490800D02*
X109440000Y-109490800D01*
G75*
G02*
X109389200Y-109440000I0J50800D01*
G01*
X109389200Y-109140000D01*
G75*
G02*
X109440000Y-109089200I50800J0D01*
G01*
X112040000Y-109089200D01*
G75*
G02*
X112090800Y-109140000I0J-50800D01*
G01*
X112090800Y-109440000D01*
G75*
G02*
X112040000Y-109490800I-50800J0D01*
G01*
G37*
G36*
G01*
X112040000Y-108990800D02*
X109440000Y-108990800D01*
G75*
G02*
X109389200Y-108940000I0J50800D01*
G01*
X109389200Y-108640000D01*
G75*
G02*
X109440000Y-108589200I50800J0D01*
G01*
X112040000Y-108589200D01*
G75*
G02*
X112090800Y-108640000I0J-50800D01*
G01*
X112090800Y-108940000D01*
G75*
G02*
X112040000Y-108990800I-50800J0D01*
G01*
G37*
G36*
G01*
X112040000Y-108490800D02*
X109440000Y-108490800D01*
G75*
G02*
X109389200Y-108440000I0J50800D01*
G01*
X109389200Y-108140000D01*
G75*
G02*
X109440000Y-108089200I50800J0D01*
G01*
X112040000Y-108089200D01*
G75*
G02*
X112090800Y-108140000I0J-50800D01*
G01*
X112090800Y-108440000D01*
G75*
G02*
X112040000Y-108490800I-50800J0D01*
G01*
G37*
G36*
G01*
X112040000Y-107990800D02*
X109440000Y-107990800D01*
G75*
G02*
X109389200Y-107940000I0J50800D01*
G01*
X109389200Y-107640000D01*
G75*
G02*
X109440000Y-107589200I50800J0D01*
G01*
X112040000Y-107589200D01*
G75*
G02*
X112090800Y-107640000I0J-50800D01*
G01*
X112090800Y-107940000D01*
G75*
G02*
X112040000Y-107990800I-50800J0D01*
G01*
G37*
G36*
G01*
X112040000Y-107490800D02*
X109440000Y-107490800D01*
G75*
G02*
X109389200Y-107440000I0J50800D01*
G01*
X109389200Y-107140000D01*
G75*
G02*
X109440000Y-107089200I50800J0D01*
G01*
X112040000Y-107089200D01*
G75*
G02*
X112090800Y-107140000I0J-50800D01*
G01*
X112090800Y-107440000D01*
G75*
G02*
X112040000Y-107490800I-50800J0D01*
G01*
G37*
G36*
G01*
X112040000Y-106990800D02*
X109440000Y-106990800D01*
G75*
G02*
X109389200Y-106940000I0J50800D01*
G01*
X109389200Y-106640000D01*
G75*
G02*
X109440000Y-106589200I50800J0D01*
G01*
X112040000Y-106589200D01*
G75*
G02*
X112090800Y-106640000I0J-50800D01*
G01*
X112090800Y-106940000D01*
G75*
G02*
X112040000Y-106990800I-50800J0D01*
G01*
G37*
G36*
G01*
X112040000Y-106490800D02*
X109440000Y-106490800D01*
G75*
G02*
X109389200Y-106440000I0J50800D01*
G01*
X109389200Y-106140000D01*
G75*
G02*
X109440000Y-106089200I50800J0D01*
G01*
X112040000Y-106089200D01*
G75*
G02*
X112090800Y-106140000I0J-50800D01*
G01*
X112090800Y-106440000D01*
G75*
G02*
X112040000Y-106490800I-50800J0D01*
G01*
G37*
G36*
G01*
X112040000Y-105990800D02*
X109440000Y-105990800D01*
G75*
G02*
X109389200Y-105940000I0J50800D01*
G01*
X109389200Y-105640000D01*
G75*
G02*
X109440000Y-105589200I50800J0D01*
G01*
X112040000Y-105589200D01*
G75*
G02*
X112090800Y-105640000I0J-50800D01*
G01*
X112090800Y-105940000D01*
G75*
G02*
X112040000Y-105990800I-50800J0D01*
G01*
G37*
G36*
G01*
X112040000Y-105490800D02*
X109440000Y-105490800D01*
G75*
G02*
X109389200Y-105440000I0J50800D01*
G01*
X109389200Y-105140000D01*
G75*
G02*
X109440000Y-105089200I50800J0D01*
G01*
X112040000Y-105089200D01*
G75*
G02*
X112090800Y-105140000I0J-50800D01*
G01*
X112090800Y-105440000D01*
G75*
G02*
X112040000Y-105490800I-50800J0D01*
G01*
G37*
G36*
G01*
X112040000Y-104990800D02*
X109440000Y-104990800D01*
G75*
G02*
X109389200Y-104940000I0J50800D01*
G01*
X109389200Y-104640000D01*
G75*
G02*
X109440000Y-104589200I50800J0D01*
G01*
X112040000Y-104589200D01*
G75*
G02*
X112090800Y-104640000I0J-50800D01*
G01*
X112090800Y-104940000D01*
G75*
G02*
X112040000Y-104990800I-50800J0D01*
G01*
G37*
G36*
G01*
X164535400Y-102900800D02*
X162284600Y-102900800D01*
G75*
G02*
X161859200Y-102475400I0J425400D01*
G01*
X161859200Y-101624600D01*
G75*
G02*
X162284600Y-101199200I425400J0D01*
G01*
X164535400Y-101199200D01*
G75*
G02*
X164960800Y-101624600I0J-425400D01*
G01*
X164960800Y-102475400D01*
G75*
G02*
X164535400Y-102900800I-425400J0D01*
G01*
G37*
G36*
G01*
X164535400Y-117400800D02*
X162284600Y-117400800D01*
G75*
G02*
X161859200Y-116975400I0J425400D01*
G01*
X161859200Y-116124600D01*
G75*
G02*
X162284600Y-115699200I425400J0D01*
G01*
X164535400Y-115699200D01*
G75*
G02*
X164960800Y-116124600I0J-425400D01*
G01*
X164960800Y-116975400D01*
G75*
G02*
X164535400Y-117400800I-425400J0D01*
G01*
G37*
G36*
G01*
X158975400Y-117400800D02*
X155924600Y-117400800D01*
G75*
G02*
X155499200Y-116975400I0J425400D01*
G01*
X155499200Y-116124600D01*
G75*
G02*
X155924600Y-115699200I425400J0D01*
G01*
X158975400Y-115699200D01*
G75*
G02*
X159400800Y-116124600I0J-425400D01*
G01*
X159400800Y-116975400D01*
G75*
G02*
X158975400Y-117400800I-425400J0D01*
G01*
G37*
G36*
G01*
X158975400Y-102900800D02*
X155924600Y-102900800D01*
G75*
G02*
X155499200Y-102475400I0J425400D01*
G01*
X155499200Y-101624600D01*
G75*
G02*
X155924600Y-101199200I425400J0D01*
G01*
X158975400Y-101199200D01*
G75*
G02*
X159400800Y-101624600I0J-425400D01*
G01*
X159400800Y-102475400D01*
G75*
G02*
X158975400Y-102900800I-425400J0D01*
G01*
G37*
G36*
G01*
X149986000Y-100885200D02*
X151494000Y-100885200D01*
G75*
G02*
X151544800Y-100936000I0J-50800D01*
G01*
X151544800Y-102444000D01*
G75*
G02*
X151494000Y-102494800I-50800J0D01*
G01*
X149986000Y-102494800D01*
G75*
G02*
X149935200Y-102444000I0J50800D01*
G01*
X149935200Y-100936000D01*
G75*
G02*
X149986000Y-100885200I50800J0D01*
G01*
G37*
D16*
X148200000Y-101690000D03*
X145660000Y-101690000D03*
X143120000Y-101690000D03*
X140580000Y-101690000D03*
X138040000Y-101690000D03*
X135500000Y-101690000D03*
X132960000Y-101690000D03*
X130420000Y-101690000D03*
X127880000Y-101690000D03*
X125340000Y-101690000D03*
X122800000Y-101690000D03*
X120260000Y-101690000D03*
X117720000Y-101690000D03*
X115180000Y-101690000D03*
X115180000Y-116930000D03*
X117720000Y-116930000D03*
X120260000Y-116930000D03*
X122800000Y-116930000D03*
X125340000Y-116930000D03*
X127880000Y-116930000D03*
X130420000Y-116930000D03*
X132960000Y-116930000D03*
X135500000Y-116930000D03*
X138040000Y-116930000D03*
X140580000Y-116930000D03*
X143120000Y-116930000D03*
X145660000Y-116930000D03*
X148200000Y-116930000D03*
X150740000Y-116930000D03*
D15*
X135500000Y-112010000D03*
X135500000Y-114550000D03*
X138030000Y-112010000D03*
X138030000Y-114550000D03*
X140580000Y-112010000D03*
X140580000Y-114550000D03*
M02*
