M48
; DRILL file {KiCad (5.1.10-1-10_14)} date Monday, November 29, 2021 at 12:01:08 AM
; FORMAT={-:-/ absolute / inch / decimal}
; #@! TF.CreationDate,2021-11-29T00:01:08-05:00
; #@! TF.GenerationSoftware,Kicad,Pcbnew,(5.1.10-1-10_14)
FMAT,2
INCH
T1C0.0118
T2C0.0315
T3C0.0394
%
G90
G05
T1
X4.724Y-4.5398
X4.778Y-4.4618
X4.8327Y-3.9094
X4.8951Y-3.9104
X4.9402Y-4.2331
X4.9512Y-3.9094
X4.9965Y-3.663
X4.9969Y-3.863
X5.0441Y-3.8165
X5.0445Y-3.7122
X5.0886Y-3.7654
X5.1807Y-4.1421
X5.2228Y-3.6689
X5.2274Y-4.0896
X5.2618Y-4.1402
X5.4217Y-3.9102
X5.4224Y-4.211
X5.5248Y-4.1811
X5.561Y-4.0008
X5.6232Y-4.1453
X5.7213Y-4.1154
X5.8209Y-4.0866
X5.8701Y-3.9252
X5.9319Y-3.9299
X6.0028Y-3.7677
X6.0295Y-3.7201
X6.0461Y-4.1327
X6.1642Y-3.7169
X6.2177Y-3.674
T3
X4.8382Y-4.311
X4.8382Y-4.911
X4.9382Y-4.311
X4.9382Y-4.911
X5.0382Y-4.311
X5.0382Y-4.911
X5.1382Y-4.311
X5.1382Y-4.911
X5.139Y-5.0846
X5.139Y-5.1846
X5.2382Y-4.311
X5.2382Y-4.911
X5.239Y-5.0846
X5.239Y-5.1846
X5.3382Y-4.311
X5.3382Y-4.911
X5.339Y-5.0846
X5.339Y-5.1846
X5.4382Y-4.311
X5.4382Y-4.911
X5.439Y-5.0846
X5.439Y-5.1846
X5.5382Y-4.311
X5.5382Y-4.911
X5.539Y-5.0846
X5.539Y-5.1846
X5.6382Y-4.311
X5.6382Y-4.911
X5.639Y-5.0846
X5.639Y-5.1846
X5.7382Y-4.311
X5.7382Y-4.911
X5.739Y-5.0846
X5.739Y-5.1846
X5.8382Y-4.311
X5.8382Y-4.911
X5.839Y-5.0846
X5.839Y-5.1846
X5.9382Y-4.311
X5.9382Y-4.911
X6.0382Y-4.311
X6.0382Y-4.911
X6.1382Y-4.311
X6.1382Y-4.911
X6.2382Y-4.311
X6.2382Y-4.911
T2
G00X4.7244Y-3.763
M15
G01X4.7244Y-3.7394
M16
G05
G00X4.7244Y-4.0213
M15
G01X4.7244Y-3.9504
M16
G05
G00X5.2953Y-3.763
M15
G01X5.2953Y-3.7394
M16
G05
G00X5.2953Y-4.0213
M15
G01X5.2953Y-3.9504
M16
G05
G00X5.7606Y-3.763
M15
G01X5.7606Y-3.7394
M16
G05
G00X5.7606Y-4.0213
M15
G01X5.7606Y-3.9504
M16
G05
G00X6.3315Y-3.763
M15
G01X6.3315Y-3.7394
M16
G05
G00X6.3315Y-4.0213
M15
G01X6.3315Y-3.9504
M16
G05
T0
M30
