G04 #@! TF.GenerationSoftware,KiCad,Pcbnew,(5.1.10-1-10_14)*
G04 #@! TF.CreationDate,2021-11-29T21:51:49-05:00*
G04 #@! TF.ProjectId,SNAC Sniffer Indent,534e4143-2053-46e6-9966-66657220496e,1*
G04 #@! TF.SameCoordinates,Original*
G04 #@! TF.FileFunction,Legend,Top*
G04 #@! TF.FilePolarity,Positive*
%FSLAX46Y46*%
G04 Gerber Fmt 4.6, Leading zero omitted, Abs format (unit mm)*
G04 Created by KiCad (PCBNEW (5.1.10-1-10_14)) date 2021-11-29 21:51:49*
%MOMM*%
%LPD*%
G01*
G04 APERTURE LIST*
%ADD10C,0.200000*%
%ADD11C,0.127000*%
%ADD12C,0.152400*%
%ADD13C,0.250000*%
%ADD14C,0.150000*%
%ADD15C,1.601600*%
%ADD16C,1.609600*%
G04 APERTURE END LIST*
D10*
X161930952Y-103845238D02*
X161883333Y-103940476D01*
X161835714Y-103988095D01*
X161740476Y-104035714D01*
X161692857Y-104035714D01*
X161597619Y-103988095D01*
X161550000Y-103940476D01*
X161502380Y-103845238D01*
X161502380Y-103654761D01*
X161550000Y-103559523D01*
X161597619Y-103511904D01*
X161692857Y-103464285D01*
X161740476Y-103464285D01*
X161835714Y-103511904D01*
X161883333Y-103559523D01*
X161930952Y-103654761D01*
X161930952Y-103845238D01*
X161978571Y-103940476D01*
X162026190Y-103988095D01*
X162121428Y-104035714D01*
X162311904Y-104035714D01*
X162407142Y-103988095D01*
X162454761Y-103940476D01*
X162502380Y-103845238D01*
X162502380Y-103654761D01*
X162454761Y-103559523D01*
X162407142Y-103511904D01*
X162311904Y-103464285D01*
X162121428Y-103464285D01*
X162026190Y-103511904D01*
X161978571Y-103559523D01*
X161930952Y-103654761D01*
X162472380Y-124304285D02*
X162472380Y-124875714D01*
X162472380Y-124590000D02*
X161472380Y-124590000D01*
X161615238Y-124685238D01*
X161710476Y-124780476D01*
X161758095Y-124875714D01*
D11*
X120060000Y-118900000D02*
X115540000Y-118900000D01*
X120060000Y-113460000D02*
X120060000Y-118900000D01*
X115540000Y-113460000D02*
X120060000Y-113460000D01*
D12*
X123219714Y-114279619D02*
X123219714Y-113263619D01*
X123606761Y-113263619D01*
X123703523Y-113312000D01*
X123751904Y-113360380D01*
X123800285Y-113457142D01*
X123800285Y-113602285D01*
X123751904Y-113699047D01*
X123703523Y-113747428D01*
X123606761Y-113795809D01*
X123219714Y-113795809D01*
X124380857Y-114279619D02*
X124284095Y-114231238D01*
X124235714Y-114182857D01*
X124187333Y-114086095D01*
X124187333Y-113795809D01*
X124235714Y-113699047D01*
X124284095Y-113650666D01*
X124380857Y-113602285D01*
X124526000Y-113602285D01*
X124622761Y-113650666D01*
X124671142Y-113699047D01*
X124719523Y-113795809D01*
X124719523Y-114086095D01*
X124671142Y-114182857D01*
X124622761Y-114231238D01*
X124526000Y-114279619D01*
X124380857Y-114279619D01*
X125058190Y-113602285D02*
X125251714Y-114279619D01*
X125445238Y-113795809D01*
X125638761Y-114279619D01*
X125832285Y-113602285D01*
X126606380Y-114231238D02*
X126509619Y-114279619D01*
X126316095Y-114279619D01*
X126219333Y-114231238D01*
X126170952Y-114134476D01*
X126170952Y-113747428D01*
X126219333Y-113650666D01*
X126316095Y-113602285D01*
X126509619Y-113602285D01*
X126606380Y-113650666D01*
X126654761Y-113747428D01*
X126654761Y-113844190D01*
X126170952Y-113940952D01*
X127090190Y-114279619D02*
X127090190Y-113602285D01*
X127090190Y-113795809D02*
X127138571Y-113699047D01*
X127186952Y-113650666D01*
X127283714Y-113602285D01*
X127380476Y-113602285D01*
X128106190Y-114231238D02*
X128009428Y-114279619D01*
X127815904Y-114279619D01*
X127719142Y-114231238D01*
X127670761Y-114134476D01*
X127670761Y-113747428D01*
X127719142Y-113650666D01*
X127815904Y-113602285D01*
X128009428Y-113602285D01*
X128106190Y-113650666D01*
X128154571Y-113747428D01*
X128154571Y-113844190D01*
X127670761Y-113940952D01*
X129025428Y-114279619D02*
X129025428Y-113263619D01*
X129025428Y-114231238D02*
X128928666Y-114279619D01*
X128735142Y-114279619D01*
X128638380Y-114231238D01*
X128590000Y-114182857D01*
X128541619Y-114086095D01*
X128541619Y-113795809D01*
X128590000Y-113699047D01*
X128638380Y-113650666D01*
X128735142Y-113602285D01*
X128928666Y-113602285D01*
X129025428Y-113650666D01*
X130622000Y-113747428D02*
X130767142Y-113795809D01*
X130815523Y-113844190D01*
X130863904Y-113940952D01*
X130863904Y-114086095D01*
X130815523Y-114182857D01*
X130767142Y-114231238D01*
X130670380Y-114279619D01*
X130283333Y-114279619D01*
X130283333Y-113263619D01*
X130622000Y-113263619D01*
X130718761Y-113312000D01*
X130767142Y-113360380D01*
X130815523Y-113457142D01*
X130815523Y-113553904D01*
X130767142Y-113650666D01*
X130718761Y-113699047D01*
X130622000Y-113747428D01*
X130283333Y-113747428D01*
X131202571Y-113602285D02*
X131444476Y-114279619D01*
X131686380Y-113602285D02*
X131444476Y-114279619D01*
X131347714Y-114521523D01*
X131299333Y-114569904D01*
X131202571Y-114618285D01*
X133428095Y-114279619D02*
X133089428Y-113795809D01*
X132847523Y-114279619D02*
X132847523Y-113263619D01*
X133234571Y-113263619D01*
X133331333Y-113312000D01*
X133379714Y-113360380D01*
X133428095Y-113457142D01*
X133428095Y-113602285D01*
X133379714Y-113699047D01*
X133331333Y-113747428D01*
X133234571Y-113795809D01*
X132847523Y-113795809D01*
X134250571Y-114231238D02*
X134153809Y-114279619D01*
X133960285Y-114279619D01*
X133863523Y-114231238D01*
X133815142Y-114134476D01*
X133815142Y-113747428D01*
X133863523Y-113650666D01*
X133960285Y-113602285D01*
X134153809Y-113602285D01*
X134250571Y-113650666D01*
X134298952Y-113747428D01*
X134298952Y-113844190D01*
X133815142Y-113940952D01*
X134589238Y-113602285D02*
X134976285Y-113602285D01*
X134734380Y-113263619D02*
X134734380Y-114134476D01*
X134782761Y-114231238D01*
X134879523Y-114279619D01*
X134976285Y-114279619D01*
X135314952Y-114279619D02*
X135314952Y-113602285D01*
X135314952Y-113795809D02*
X135363333Y-113699047D01*
X135411714Y-113650666D01*
X135508476Y-113602285D01*
X135605238Y-113602285D01*
X136089047Y-114279619D02*
X135992285Y-114231238D01*
X135943904Y-114182857D01*
X135895523Y-114086095D01*
X135895523Y-113795809D01*
X135943904Y-113699047D01*
X135992285Y-113650666D01*
X136089047Y-113602285D01*
X136234190Y-113602285D01*
X136330952Y-113650666D01*
X136379333Y-113699047D01*
X136427714Y-113795809D01*
X136427714Y-114086095D01*
X136379333Y-114182857D01*
X136330952Y-114231238D01*
X136234190Y-114279619D01*
X136089047Y-114279619D01*
X136814761Y-114231238D02*
X136959904Y-114279619D01*
X137201809Y-114279619D01*
X137298571Y-114231238D01*
X137346952Y-114182857D01*
X137395333Y-114086095D01*
X137395333Y-113989333D01*
X137346952Y-113892571D01*
X137298571Y-113844190D01*
X137201809Y-113795809D01*
X137008285Y-113747428D01*
X136911523Y-113699047D01*
X136863142Y-113650666D01*
X136814761Y-113553904D01*
X136814761Y-113457142D01*
X136863142Y-113360380D01*
X136911523Y-113312000D01*
X137008285Y-113263619D01*
X137250190Y-113263619D01*
X137395333Y-113312000D01*
X137830761Y-113602285D02*
X137830761Y-114618285D01*
X137830761Y-113650666D02*
X137927523Y-113602285D01*
X138121047Y-113602285D01*
X138217809Y-113650666D01*
X138266190Y-113699047D01*
X138314571Y-113795809D01*
X138314571Y-114086095D01*
X138266190Y-114182857D01*
X138217809Y-114231238D01*
X138121047Y-114279619D01*
X137927523Y-114279619D01*
X137830761Y-114231238D01*
X138653238Y-113602285D02*
X138895142Y-114279619D01*
X139137047Y-113602285D02*
X138895142Y-114279619D01*
X138798380Y-114521523D01*
X138750000Y-114569904D01*
X138653238Y-114618285D01*
D11*
X135049047Y-120694761D02*
X135191904Y-120742380D01*
X135430000Y-120742380D01*
X135525238Y-120694761D01*
X135572857Y-120647142D01*
X135620476Y-120551904D01*
X135620476Y-120456666D01*
X135572857Y-120361428D01*
X135525238Y-120313809D01*
X135430000Y-120266190D01*
X135239523Y-120218571D01*
X135144285Y-120170952D01*
X135096666Y-120123333D01*
X135049047Y-120028095D01*
X135049047Y-119932857D01*
X135096666Y-119837619D01*
X135144285Y-119790000D01*
X135239523Y-119742380D01*
X135477619Y-119742380D01*
X135620476Y-119790000D01*
X136049047Y-120075714D02*
X136049047Y-121075714D01*
X136049047Y-120123333D02*
X136144285Y-120075714D01*
X136334761Y-120075714D01*
X136430000Y-120123333D01*
X136477619Y-120170952D01*
X136525238Y-120266190D01*
X136525238Y-120551904D01*
X136477619Y-120647142D01*
X136430000Y-120694761D01*
X136334761Y-120742380D01*
X136144285Y-120742380D01*
X136049047Y-120694761D01*
X137334761Y-120694761D02*
X137239523Y-120742380D01*
X137049047Y-120742380D01*
X136953809Y-120694761D01*
X136906190Y-120599523D01*
X136906190Y-120218571D01*
X136953809Y-120123333D01*
X137049047Y-120075714D01*
X137239523Y-120075714D01*
X137334761Y-120123333D01*
X137382380Y-120218571D01*
X137382380Y-120313809D01*
X136906190Y-120409047D01*
X138239523Y-120694761D02*
X138144285Y-120742380D01*
X137953809Y-120742380D01*
X137858571Y-120694761D01*
X137810952Y-120647142D01*
X137763333Y-120551904D01*
X137763333Y-120266190D01*
X137810952Y-120170952D01*
X137858571Y-120123333D01*
X137953809Y-120075714D01*
X138144285Y-120075714D01*
X138239523Y-120123333D01*
X138668095Y-120742380D02*
X138668095Y-120075714D01*
X138668095Y-119742380D02*
X138620476Y-119790000D01*
X138668095Y-119837619D01*
X138715714Y-119790000D01*
X138668095Y-119742380D01*
X138668095Y-119837619D01*
X139572857Y-120742380D02*
X139572857Y-120218571D01*
X139525238Y-120123333D01*
X139430000Y-120075714D01*
X139239523Y-120075714D01*
X139144285Y-120123333D01*
X139572857Y-120694761D02*
X139477619Y-120742380D01*
X139239523Y-120742380D01*
X139144285Y-120694761D01*
X139096666Y-120599523D01*
X139096666Y-120504285D01*
X139144285Y-120409047D01*
X139239523Y-120361428D01*
X139477619Y-120361428D01*
X139572857Y-120313809D01*
X140191904Y-120742380D02*
X140096666Y-120694761D01*
X140049047Y-120599523D01*
X140049047Y-119742380D01*
X141191904Y-119742380D02*
X141763333Y-119742380D01*
X141477619Y-120742380D02*
X141477619Y-119742380D01*
X142096666Y-120742380D02*
X142096666Y-119742380D01*
X142525238Y-120742380D02*
X142525238Y-120218571D01*
X142477619Y-120123333D01*
X142382380Y-120075714D01*
X142239523Y-120075714D01*
X142144285Y-120123333D01*
X142096666Y-120170952D01*
X143430000Y-120742380D02*
X143430000Y-120218571D01*
X143382380Y-120123333D01*
X143287142Y-120075714D01*
X143096666Y-120075714D01*
X143001428Y-120123333D01*
X143430000Y-120694761D02*
X143334761Y-120742380D01*
X143096666Y-120742380D01*
X143001428Y-120694761D01*
X142953809Y-120599523D01*
X142953809Y-120504285D01*
X143001428Y-120409047D01*
X143096666Y-120361428D01*
X143334761Y-120361428D01*
X143430000Y-120313809D01*
X143906190Y-120075714D02*
X143906190Y-120742380D01*
X143906190Y-120170952D02*
X143953809Y-120123333D01*
X144049047Y-120075714D01*
X144191904Y-120075714D01*
X144287142Y-120123333D01*
X144334761Y-120218571D01*
X144334761Y-120742380D01*
X144810952Y-120742380D02*
X144810952Y-119742380D01*
X144906190Y-120361428D02*
X145191904Y-120742380D01*
X145191904Y-120075714D02*
X144810952Y-120456666D01*
X145572857Y-120694761D02*
X145668095Y-120742380D01*
X145858571Y-120742380D01*
X145953809Y-120694761D01*
X146001428Y-120599523D01*
X146001428Y-120551904D01*
X145953809Y-120456666D01*
X145858571Y-120409047D01*
X145715714Y-120409047D01*
X145620476Y-120361428D01*
X145572857Y-120266190D01*
X145572857Y-120218571D01*
X145620476Y-120123333D01*
X145715714Y-120075714D01*
X145858571Y-120075714D01*
X145953809Y-120123333D01*
X146430000Y-120647142D02*
X146477619Y-120694761D01*
X146430000Y-120742380D01*
X146382380Y-120694761D01*
X146430000Y-120647142D01*
X146430000Y-120742380D01*
X146430000Y-120123333D02*
X146477619Y-120170952D01*
X146430000Y-120218571D01*
X146382380Y-120170952D01*
X146430000Y-120123333D01*
X146430000Y-120218571D01*
X148096666Y-120075714D02*
X148096666Y-120742380D01*
X147858571Y-119694761D02*
X147620476Y-120409047D01*
X148239523Y-120409047D01*
X148810952Y-119742380D02*
X148906190Y-119742380D01*
X149001428Y-119790000D01*
X149049047Y-119837619D01*
X149096666Y-119932857D01*
X149144285Y-120123333D01*
X149144285Y-120361428D01*
X149096666Y-120551904D01*
X149049047Y-120647142D01*
X149001428Y-120694761D01*
X148906190Y-120742380D01*
X148810952Y-120742380D01*
X148715714Y-120694761D01*
X148668095Y-120647142D01*
X148620476Y-120551904D01*
X148572857Y-120361428D01*
X148572857Y-120123333D01*
X148620476Y-119932857D01*
X148668095Y-119837619D01*
X148715714Y-119790000D01*
X148810952Y-119742380D01*
X149477619Y-120075714D02*
X149668095Y-120742380D01*
X149858571Y-120266190D01*
X150049047Y-120742380D01*
X150239523Y-120075714D01*
X151049047Y-120742380D02*
X151049047Y-120218571D01*
X151001428Y-120123333D01*
X150906190Y-120075714D01*
X150715714Y-120075714D01*
X150620476Y-120123333D01*
X151049047Y-120694761D02*
X150953809Y-120742380D01*
X150715714Y-120742380D01*
X150620476Y-120694761D01*
X150572857Y-120599523D01*
X150572857Y-120504285D01*
X150620476Y-120409047D01*
X150715714Y-120361428D01*
X150953809Y-120361428D01*
X151049047Y-120313809D01*
X151382380Y-120075714D02*
X151763333Y-120075714D01*
X151525238Y-119742380D02*
X151525238Y-120599523D01*
X151572857Y-120694761D01*
X151668095Y-120742380D01*
X151763333Y-120742380D01*
X151953809Y-120075714D02*
X152334761Y-120075714D01*
X152096666Y-119742380D02*
X152096666Y-120599523D01*
X152144285Y-120694761D01*
X152239523Y-120742380D01*
X152334761Y-120742380D01*
X153239523Y-120742380D02*
X152906190Y-120266190D01*
X152668095Y-120742380D02*
X152668095Y-119742380D01*
X153049047Y-119742380D01*
X153144285Y-119790000D01*
X153191904Y-119837619D01*
X153239523Y-119932857D01*
X153239523Y-120075714D01*
X153191904Y-120170952D01*
X153144285Y-120218571D01*
X153049047Y-120266190D01*
X152668095Y-120266190D01*
X154096666Y-120742380D02*
X154096666Y-120218571D01*
X154049047Y-120123333D01*
X153953809Y-120075714D01*
X153763333Y-120075714D01*
X153668095Y-120123333D01*
X154096666Y-120694761D02*
X154001428Y-120742380D01*
X153763333Y-120742380D01*
X153668095Y-120694761D01*
X153620476Y-120599523D01*
X153620476Y-120504285D01*
X153668095Y-120409047D01*
X153763333Y-120361428D01*
X154001428Y-120361428D01*
X154096666Y-120313809D01*
X154572857Y-120075714D02*
X154572857Y-120742380D01*
X154572857Y-120170952D02*
X154620476Y-120123333D01*
X154715714Y-120075714D01*
X154858571Y-120075714D01*
X154953809Y-120123333D01*
X155001428Y-120218571D01*
X155001428Y-120742380D01*
X155906190Y-120075714D02*
X155906190Y-120885238D01*
X155858571Y-120980476D01*
X155810952Y-121028095D01*
X155715714Y-121075714D01*
X155572857Y-121075714D01*
X155477619Y-121028095D01*
X155906190Y-120694761D02*
X155810952Y-120742380D01*
X155620476Y-120742380D01*
X155525238Y-120694761D01*
X155477619Y-120647142D01*
X155430000Y-120551904D01*
X155430000Y-120266190D01*
X155477619Y-120170952D01*
X155525238Y-120123333D01*
X155620476Y-120075714D01*
X155810952Y-120075714D01*
X155906190Y-120123333D01*
X156763333Y-120694761D02*
X156668095Y-120742380D01*
X156477619Y-120742380D01*
X156382380Y-120694761D01*
X156334761Y-120599523D01*
X156334761Y-120218571D01*
X156382380Y-120123333D01*
X156477619Y-120075714D01*
X156668095Y-120075714D01*
X156763333Y-120123333D01*
X156810952Y-120218571D01*
X156810952Y-120313809D01*
X156334761Y-120409047D01*
X141024761Y-117332380D02*
X141024761Y-118046666D01*
X140977142Y-118189523D01*
X140881904Y-118284761D01*
X140739047Y-118332380D01*
X140643809Y-118332380D01*
X141881904Y-118284761D02*
X141786666Y-118332380D01*
X141596190Y-118332380D01*
X141500952Y-118284761D01*
X141453333Y-118189523D01*
X141453333Y-117808571D01*
X141500952Y-117713333D01*
X141596190Y-117665714D01*
X141786666Y-117665714D01*
X141881904Y-117713333D01*
X141929523Y-117808571D01*
X141929523Y-117903809D01*
X141453333Y-117999047D01*
X142215238Y-117665714D02*
X142596190Y-117665714D01*
X142358095Y-118332380D02*
X142358095Y-117475238D01*
X142405714Y-117380000D01*
X142500952Y-117332380D01*
X142596190Y-117332380D01*
X142786666Y-117665714D02*
X143167619Y-117665714D01*
X142929523Y-118332380D02*
X142929523Y-117475238D01*
X142977142Y-117380000D01*
X143072380Y-117332380D01*
X143167619Y-117332380D01*
X144834285Y-118237142D02*
X144786666Y-118284761D01*
X144643809Y-118332380D01*
X144548571Y-118332380D01*
X144405714Y-118284761D01*
X144310476Y-118189523D01*
X144262857Y-118094285D01*
X144215238Y-117903809D01*
X144215238Y-117760952D01*
X144262857Y-117570476D01*
X144310476Y-117475238D01*
X144405714Y-117380000D01*
X144548571Y-117332380D01*
X144643809Y-117332380D01*
X144786666Y-117380000D01*
X144834285Y-117427619D01*
X145262857Y-118332380D02*
X145262857Y-117332380D01*
X145691428Y-118332380D02*
X145691428Y-117808571D01*
X145643809Y-117713333D01*
X145548571Y-117665714D01*
X145405714Y-117665714D01*
X145310476Y-117713333D01*
X145262857Y-117760952D01*
X146548571Y-118284761D02*
X146453333Y-118332380D01*
X146262857Y-118332380D01*
X146167619Y-118284761D01*
X146120000Y-118189523D01*
X146120000Y-117808571D01*
X146167619Y-117713333D01*
X146262857Y-117665714D01*
X146453333Y-117665714D01*
X146548571Y-117713333D01*
X146596190Y-117808571D01*
X146596190Y-117903809D01*
X146120000Y-117999047D01*
X147024761Y-117665714D02*
X147024761Y-118332380D01*
X147024761Y-117760952D02*
X147072380Y-117713333D01*
X147167619Y-117665714D01*
X147310476Y-117665714D01*
X147405714Y-117713333D01*
X147453333Y-117808571D01*
X147453333Y-118332380D01*
X147977142Y-118284761D02*
X147977142Y-118332380D01*
X147929523Y-118427619D01*
X147881904Y-118475238D01*
X149120000Y-117427619D02*
X149167619Y-117380000D01*
X149262857Y-117332380D01*
X149500952Y-117332380D01*
X149596190Y-117380000D01*
X149643809Y-117427619D01*
X149691428Y-117522857D01*
X149691428Y-117618095D01*
X149643809Y-117760952D01*
X149072380Y-118332380D01*
X149691428Y-118332380D01*
X150310476Y-117332380D02*
X150405714Y-117332380D01*
X150500952Y-117380000D01*
X150548571Y-117427619D01*
X150596190Y-117522857D01*
X150643809Y-117713333D01*
X150643809Y-117951428D01*
X150596190Y-118141904D01*
X150548571Y-118237142D01*
X150500952Y-118284761D01*
X150405714Y-118332380D01*
X150310476Y-118332380D01*
X150215238Y-118284761D01*
X150167619Y-118237142D01*
X150120000Y-118141904D01*
X150072380Y-117951428D01*
X150072380Y-117713333D01*
X150120000Y-117522857D01*
X150167619Y-117427619D01*
X150215238Y-117380000D01*
X150310476Y-117332380D01*
X151024761Y-117427619D02*
X151072380Y-117380000D01*
X151167619Y-117332380D01*
X151405714Y-117332380D01*
X151500952Y-117380000D01*
X151548571Y-117427619D01*
X151596190Y-117522857D01*
X151596190Y-117618095D01*
X151548571Y-117760952D01*
X150977142Y-118332380D01*
X151596190Y-118332380D01*
X152548571Y-118332380D02*
X151977142Y-118332380D01*
X152262857Y-118332380D02*
X152262857Y-117332380D01*
X152167619Y-117475238D01*
X152072380Y-117570476D01*
X151977142Y-117618095D01*
D13*
X118160000Y-110373333D02*
X118160000Y-110640000D01*
X118693333Y-110373333D02*
X118693333Y-110640000D01*
X119293333Y-111773333D02*
X119293333Y-110373333D01*
X119760000Y-111373333D01*
X120226666Y-110373333D01*
X120226666Y-111773333D01*
X120893333Y-111773333D02*
X120893333Y-110840000D01*
X120893333Y-111106666D02*
X120960000Y-110973333D01*
X121026666Y-110906666D01*
X121160000Y-110840000D01*
X121293333Y-110840000D01*
X121760000Y-111640000D02*
X121826666Y-111706666D01*
X121760000Y-111773333D01*
X121693333Y-111706666D01*
X121760000Y-111640000D01*
X121760000Y-111773333D01*
X123493333Y-111773333D02*
X123493333Y-110373333D01*
X124293333Y-111773333D01*
X124293333Y-110373333D01*
X125160000Y-111773333D02*
X125026666Y-111706666D01*
X124960000Y-111640000D01*
X124893333Y-111506666D01*
X124893333Y-111106666D01*
X124960000Y-110973333D01*
X125026666Y-110906666D01*
X125160000Y-110840000D01*
X125360000Y-110840000D01*
X125493333Y-110906666D01*
X125560000Y-110973333D01*
X125626666Y-111106666D01*
X125626666Y-111506666D01*
X125560000Y-111640000D01*
X125493333Y-111706666D01*
X125360000Y-111773333D01*
X125160000Y-111773333D01*
X126160000Y-111706666D02*
X126293333Y-111773333D01*
X126560000Y-111773333D01*
X126693333Y-111706666D01*
X126760000Y-111573333D01*
X126760000Y-111506666D01*
X126693333Y-111373333D01*
X126560000Y-111306666D01*
X126360000Y-111306666D01*
X126226666Y-111240000D01*
X126160000Y-111106666D01*
X126160000Y-111040000D01*
X126226666Y-110906666D01*
X126360000Y-110840000D01*
X126560000Y-110840000D01*
X126693333Y-110906666D01*
X127226666Y-110840000D02*
X127560000Y-111773333D01*
X127893333Y-110840000D02*
X127560000Y-111773333D01*
X127426666Y-112106666D01*
X127360000Y-112173333D01*
X127226666Y-112240000D01*
X128360000Y-110373333D02*
X128360000Y-110640000D01*
X128893333Y-110373333D02*
X128893333Y-110640000D01*
X130493333Y-111706666D02*
X130693333Y-111773333D01*
X131026666Y-111773333D01*
X131160000Y-111706666D01*
X131226666Y-111640000D01*
X131293333Y-111506666D01*
X131293333Y-111373333D01*
X131226666Y-111240000D01*
X131160000Y-111173333D01*
X131026666Y-111106666D01*
X130760000Y-111040000D01*
X130626666Y-110973333D01*
X130560000Y-110906666D01*
X130493333Y-110773333D01*
X130493333Y-110640000D01*
X130560000Y-110506666D01*
X130626666Y-110440000D01*
X130760000Y-110373333D01*
X131093333Y-110373333D01*
X131293333Y-110440000D01*
X131893333Y-111773333D02*
X131893333Y-110373333D01*
X132693333Y-111773333D01*
X132693333Y-110373333D01*
X133293333Y-111373333D02*
X133960000Y-111373333D01*
X133160000Y-111773333D02*
X133626666Y-110373333D01*
X134093333Y-111773333D01*
X135360000Y-111640000D02*
X135293333Y-111706666D01*
X135093333Y-111773333D01*
X134960000Y-111773333D01*
X134760000Y-111706666D01*
X134626666Y-111573333D01*
X134560000Y-111440000D01*
X134493333Y-111173333D01*
X134493333Y-110973333D01*
X134560000Y-110706666D01*
X134626666Y-110573333D01*
X134760000Y-110440000D01*
X134960000Y-110373333D01*
X135093333Y-110373333D01*
X135293333Y-110440000D01*
X135360000Y-110506666D01*
X136960000Y-111706666D02*
X137160000Y-111773333D01*
X137493333Y-111773333D01*
X137626666Y-111706666D01*
X137693333Y-111640000D01*
X137760000Y-111506666D01*
X137760000Y-111373333D01*
X137693333Y-111240000D01*
X137626666Y-111173333D01*
X137493333Y-111106666D01*
X137226666Y-111040000D01*
X137093333Y-110973333D01*
X137026666Y-110906666D01*
X136960000Y-110773333D01*
X136960000Y-110640000D01*
X137026666Y-110506666D01*
X137093333Y-110440000D01*
X137226666Y-110373333D01*
X137560000Y-110373333D01*
X137760000Y-110440000D01*
X138360000Y-110840000D02*
X138360000Y-111773333D01*
X138360000Y-110973333D02*
X138426666Y-110906666D01*
X138560000Y-110840000D01*
X138760000Y-110840000D01*
X138893333Y-110906666D01*
X138960000Y-111040000D01*
X138960000Y-111773333D01*
X139626666Y-111773333D02*
X139626666Y-110840000D01*
X139626666Y-110373333D02*
X139560000Y-110440000D01*
X139626666Y-110506666D01*
X139693333Y-110440000D01*
X139626666Y-110373333D01*
X139626666Y-110506666D01*
X140093333Y-110840000D02*
X140626666Y-110840000D01*
X140293333Y-111773333D02*
X140293333Y-110573333D01*
X140360000Y-110440000D01*
X140493333Y-110373333D01*
X140626666Y-110373333D01*
X140893333Y-110840000D02*
X141426666Y-110840000D01*
X141093333Y-111773333D02*
X141093333Y-110573333D01*
X141160000Y-110440000D01*
X141293333Y-110373333D01*
X141426666Y-110373333D01*
X142426666Y-111706666D02*
X142293333Y-111773333D01*
X142026666Y-111773333D01*
X141893333Y-111706666D01*
X141826666Y-111573333D01*
X141826666Y-111040000D01*
X141893333Y-110906666D01*
X142026666Y-110840000D01*
X142293333Y-110840000D01*
X142426666Y-110906666D01*
X142493333Y-111040000D01*
X142493333Y-111173333D01*
X141826666Y-111306666D01*
X143093333Y-111773333D02*
X143093333Y-110840000D01*
X143093333Y-111106666D02*
X143160000Y-110973333D01*
X143226666Y-110906666D01*
X143360000Y-110840000D01*
X143493333Y-110840000D01*
D11*
X165100000Y-102370000D02*
X165100000Y-87370000D01*
X165100000Y-87370000D02*
X162340000Y-87370000D01*
X165100000Y-102370000D02*
X162340000Y-102370000D01*
X156540000Y-102370000D02*
X158740000Y-102370000D01*
X158740000Y-87370000D02*
X156540000Y-87370000D01*
X154290000Y-100970000D02*
X154290000Y-100070000D01*
X154290000Y-89670000D02*
X154290000Y-88770000D01*
D10*
X153248112Y-89670000D02*
G75*
G03*
X153248112Y-89670000I-158112J0D01*
G01*
D11*
X158720000Y-107250000D02*
X158720000Y-125030000D01*
X158720000Y-125030000D02*
X115540000Y-125030000D01*
X115540000Y-125030000D02*
X115540000Y-107250000D01*
X115540000Y-107250000D02*
X158720000Y-107250000D01*
D10*
X157330000Y-108600000D02*
G75*
G03*
X157330000Y-108600000I-100000J0D01*
G01*
D14*
X151855973Y-98033726D02*
X150855768Y-98033726D01*
X150855768Y-97652696D01*
X150903397Y-97557438D01*
X150951026Y-97509809D01*
X151046283Y-97462180D01*
X151189170Y-97462180D01*
X151284427Y-97509809D01*
X151332056Y-97557438D01*
X151379685Y-97652696D01*
X151379685Y-98033726D01*
X150951026Y-97081150D02*
X150903397Y-97033521D01*
X150855768Y-96938263D01*
X150855768Y-96700119D01*
X150903397Y-96604862D01*
X150951026Y-96557233D01*
X151046283Y-96509604D01*
X151141541Y-96509604D01*
X151284427Y-96557233D01*
X151855973Y-97128779D01*
X151855973Y-96509604D01*
X117312380Y-116901904D02*
X118121904Y-116901904D01*
X118217142Y-116854285D01*
X118264761Y-116806666D01*
X118312380Y-116711428D01*
X118312380Y-116520952D01*
X118264761Y-116425714D01*
X118217142Y-116378095D01*
X118121904Y-116330476D01*
X117312380Y-116330476D01*
X118312380Y-115330476D02*
X118312380Y-115901904D01*
X118312380Y-115616190D02*
X117312380Y-115616190D01*
X117455238Y-115711428D01*
X117550476Y-115806666D01*
X117598095Y-115901904D01*
%LPC*%
D15*
X160750000Y-123140000D03*
X163290000Y-123140000D03*
X163290000Y-120600000D03*
X160750000Y-120600000D03*
X160750000Y-118060000D03*
X163290000Y-118060000D03*
X163290000Y-115520000D03*
X160750000Y-115520000D03*
X160750000Y-112980000D03*
X163290000Y-112980000D03*
X163290000Y-110440000D03*
X160750000Y-110440000D03*
X163290000Y-107900000D03*
X160750000Y-107900000D03*
X160750000Y-105360000D03*
X163290000Y-105360000D03*
G36*
G01*
X150655400Y-88470800D02*
X147604600Y-88470800D01*
G75*
G02*
X147179200Y-88045400I0J425400D01*
G01*
X147179200Y-87194600D01*
G75*
G02*
X147604600Y-86769200I425400J0D01*
G01*
X150655400Y-86769200D01*
G75*
G02*
X151080800Y-87194600I0J-425400D01*
G01*
X151080800Y-88045400D01*
G75*
G02*
X150655400Y-88470800I-425400J0D01*
G01*
G37*
G36*
G01*
X150655400Y-102970800D02*
X147604600Y-102970800D01*
G75*
G02*
X147179200Y-102545400I0J425400D01*
G01*
X147179200Y-101694600D01*
G75*
G02*
X147604600Y-101269200I425400J0D01*
G01*
X150655400Y-101269200D01*
G75*
G02*
X151080800Y-101694600I0J-425400D01*
G01*
X151080800Y-102545400D01*
G75*
G02*
X150655400Y-102970800I-425400J0D01*
G01*
G37*
G36*
G01*
X144295400Y-102970800D02*
X142044600Y-102970800D01*
G75*
G02*
X141619200Y-102545400I0J425400D01*
G01*
X141619200Y-101694600D01*
G75*
G02*
X142044600Y-101269200I425400J0D01*
G01*
X144295400Y-101269200D01*
G75*
G02*
X144720800Y-101694600I0J-425400D01*
G01*
X144720800Y-102545400D01*
G75*
G02*
X144295400Y-102970800I-425400J0D01*
G01*
G37*
G36*
G01*
X144295400Y-88470800D02*
X142044600Y-88470800D01*
G75*
G02*
X141619200Y-88045400I0J425400D01*
G01*
X141619200Y-87194600D01*
G75*
G02*
X142044600Y-86769200I425400J0D01*
G01*
X144295400Y-86769200D01*
G75*
G02*
X144720800Y-87194600I0J-425400D01*
G01*
X144720800Y-88045400D01*
G75*
G02*
X144295400Y-88470800I-425400J0D01*
G01*
G37*
G36*
G01*
X161635400Y-88470800D02*
X159384600Y-88470800D01*
G75*
G02*
X158959200Y-88045400I0J425400D01*
G01*
X158959200Y-87194600D01*
G75*
G02*
X159384600Y-86769200I425400J0D01*
G01*
X161635400Y-86769200D01*
G75*
G02*
X162060800Y-87194600I0J-425400D01*
G01*
X162060800Y-88045400D01*
G75*
G02*
X161635400Y-88470800I-425400J0D01*
G01*
G37*
G36*
G01*
X161635400Y-102970800D02*
X159384600Y-102970800D01*
G75*
G02*
X158959200Y-102545400I0J425400D01*
G01*
X158959200Y-101694600D01*
G75*
G02*
X159384600Y-101269200I425400J0D01*
G01*
X161635400Y-101269200D01*
G75*
G02*
X162060800Y-101694600I0J-425400D01*
G01*
X162060800Y-102545400D01*
G75*
G02*
X161635400Y-102970800I-425400J0D01*
G01*
G37*
G36*
G01*
X156075400Y-102970800D02*
X153024600Y-102970800D01*
G75*
G02*
X152599200Y-102545400I0J425400D01*
G01*
X152599200Y-101694600D01*
G75*
G02*
X153024600Y-101269200I425400J0D01*
G01*
X156075400Y-101269200D01*
G75*
G02*
X156500800Y-101694600I0J-425400D01*
G01*
X156500800Y-102545400D01*
G75*
G02*
X156075400Y-102970800I-425400J0D01*
G01*
G37*
G36*
G01*
X156075400Y-88470800D02*
X153024600Y-88470800D01*
G75*
G02*
X152599200Y-88045400I0J425400D01*
G01*
X152599200Y-87194600D01*
G75*
G02*
X153024600Y-86769200I425400J0D01*
G01*
X156075400Y-86769200D01*
G75*
G02*
X156500800Y-87194600I0J-425400D01*
G01*
X156500800Y-88045400D01*
G75*
G02*
X156075400Y-88470800I-425400J0D01*
G01*
G37*
G36*
G01*
X155090000Y-99570800D02*
X152490000Y-99570800D01*
G75*
G02*
X152439200Y-99520000I0J50800D01*
G01*
X152439200Y-99220000D01*
G75*
G02*
X152490000Y-99169200I50800J0D01*
G01*
X155090000Y-99169200D01*
G75*
G02*
X155140800Y-99220000I0J-50800D01*
G01*
X155140800Y-99520000D01*
G75*
G02*
X155090000Y-99570800I-50800J0D01*
G01*
G37*
G36*
G01*
X155090000Y-99070800D02*
X152490000Y-99070800D01*
G75*
G02*
X152439200Y-99020000I0J50800D01*
G01*
X152439200Y-98720000D01*
G75*
G02*
X152490000Y-98669200I50800J0D01*
G01*
X155090000Y-98669200D01*
G75*
G02*
X155140800Y-98720000I0J-50800D01*
G01*
X155140800Y-99020000D01*
G75*
G02*
X155090000Y-99070800I-50800J0D01*
G01*
G37*
G36*
G01*
X155090000Y-98570800D02*
X152490000Y-98570800D01*
G75*
G02*
X152439200Y-98520000I0J50800D01*
G01*
X152439200Y-98220000D01*
G75*
G02*
X152490000Y-98169200I50800J0D01*
G01*
X155090000Y-98169200D01*
G75*
G02*
X155140800Y-98220000I0J-50800D01*
G01*
X155140800Y-98520000D01*
G75*
G02*
X155090000Y-98570800I-50800J0D01*
G01*
G37*
G36*
G01*
X155090000Y-98070800D02*
X152490000Y-98070800D01*
G75*
G02*
X152439200Y-98020000I0J50800D01*
G01*
X152439200Y-97720000D01*
G75*
G02*
X152490000Y-97669200I50800J0D01*
G01*
X155090000Y-97669200D01*
G75*
G02*
X155140800Y-97720000I0J-50800D01*
G01*
X155140800Y-98020000D01*
G75*
G02*
X155090000Y-98070800I-50800J0D01*
G01*
G37*
G36*
G01*
X155090000Y-97570800D02*
X152490000Y-97570800D01*
G75*
G02*
X152439200Y-97520000I0J50800D01*
G01*
X152439200Y-97220000D01*
G75*
G02*
X152490000Y-97169200I50800J0D01*
G01*
X155090000Y-97169200D01*
G75*
G02*
X155140800Y-97220000I0J-50800D01*
G01*
X155140800Y-97520000D01*
G75*
G02*
X155090000Y-97570800I-50800J0D01*
G01*
G37*
G36*
G01*
X155090000Y-97070800D02*
X152490000Y-97070800D01*
G75*
G02*
X152439200Y-97020000I0J50800D01*
G01*
X152439200Y-96720000D01*
G75*
G02*
X152490000Y-96669200I50800J0D01*
G01*
X155090000Y-96669200D01*
G75*
G02*
X155140800Y-96720000I0J-50800D01*
G01*
X155140800Y-97020000D01*
G75*
G02*
X155090000Y-97070800I-50800J0D01*
G01*
G37*
G36*
G01*
X155090000Y-96570800D02*
X152490000Y-96570800D01*
G75*
G02*
X152439200Y-96520000I0J50800D01*
G01*
X152439200Y-96220000D01*
G75*
G02*
X152490000Y-96169200I50800J0D01*
G01*
X155090000Y-96169200D01*
G75*
G02*
X155140800Y-96220000I0J-50800D01*
G01*
X155140800Y-96520000D01*
G75*
G02*
X155090000Y-96570800I-50800J0D01*
G01*
G37*
G36*
G01*
X155090000Y-96070800D02*
X152490000Y-96070800D01*
G75*
G02*
X152439200Y-96020000I0J50800D01*
G01*
X152439200Y-95720000D01*
G75*
G02*
X152490000Y-95669200I50800J0D01*
G01*
X155090000Y-95669200D01*
G75*
G02*
X155140800Y-95720000I0J-50800D01*
G01*
X155140800Y-96020000D01*
G75*
G02*
X155090000Y-96070800I-50800J0D01*
G01*
G37*
G36*
G01*
X155090000Y-95570800D02*
X152490000Y-95570800D01*
G75*
G02*
X152439200Y-95520000I0J50800D01*
G01*
X152439200Y-95220000D01*
G75*
G02*
X152490000Y-95169200I50800J0D01*
G01*
X155090000Y-95169200D01*
G75*
G02*
X155140800Y-95220000I0J-50800D01*
G01*
X155140800Y-95520000D01*
G75*
G02*
X155090000Y-95570800I-50800J0D01*
G01*
G37*
G36*
G01*
X155090000Y-95070800D02*
X152490000Y-95070800D01*
G75*
G02*
X152439200Y-95020000I0J50800D01*
G01*
X152439200Y-94720000D01*
G75*
G02*
X152490000Y-94669200I50800J0D01*
G01*
X155090000Y-94669200D01*
G75*
G02*
X155140800Y-94720000I0J-50800D01*
G01*
X155140800Y-95020000D01*
G75*
G02*
X155090000Y-95070800I-50800J0D01*
G01*
G37*
G36*
G01*
X155090000Y-94570800D02*
X152490000Y-94570800D01*
G75*
G02*
X152439200Y-94520000I0J50800D01*
G01*
X152439200Y-94220000D01*
G75*
G02*
X152490000Y-94169200I50800J0D01*
G01*
X155090000Y-94169200D01*
G75*
G02*
X155140800Y-94220000I0J-50800D01*
G01*
X155140800Y-94520000D01*
G75*
G02*
X155090000Y-94570800I-50800J0D01*
G01*
G37*
G36*
G01*
X155090000Y-94070800D02*
X152490000Y-94070800D01*
G75*
G02*
X152439200Y-94020000I0J50800D01*
G01*
X152439200Y-93720000D01*
G75*
G02*
X152490000Y-93669200I50800J0D01*
G01*
X155090000Y-93669200D01*
G75*
G02*
X155140800Y-93720000I0J-50800D01*
G01*
X155140800Y-94020000D01*
G75*
G02*
X155090000Y-94070800I-50800J0D01*
G01*
G37*
G36*
G01*
X155090000Y-93570800D02*
X152490000Y-93570800D01*
G75*
G02*
X152439200Y-93520000I0J50800D01*
G01*
X152439200Y-93220000D01*
G75*
G02*
X152490000Y-93169200I50800J0D01*
G01*
X155090000Y-93169200D01*
G75*
G02*
X155140800Y-93220000I0J-50800D01*
G01*
X155140800Y-93520000D01*
G75*
G02*
X155090000Y-93570800I-50800J0D01*
G01*
G37*
G36*
G01*
X155090000Y-93070800D02*
X152490000Y-93070800D01*
G75*
G02*
X152439200Y-93020000I0J50800D01*
G01*
X152439200Y-92720000D01*
G75*
G02*
X152490000Y-92669200I50800J0D01*
G01*
X155090000Y-92669200D01*
G75*
G02*
X155140800Y-92720000I0J-50800D01*
G01*
X155140800Y-93020000D01*
G75*
G02*
X155090000Y-93070800I-50800J0D01*
G01*
G37*
G36*
G01*
X155090000Y-92570800D02*
X152490000Y-92570800D01*
G75*
G02*
X152439200Y-92520000I0J50800D01*
G01*
X152439200Y-92220000D01*
G75*
G02*
X152490000Y-92169200I50800J0D01*
G01*
X155090000Y-92169200D01*
G75*
G02*
X155140800Y-92220000I0J-50800D01*
G01*
X155140800Y-92520000D01*
G75*
G02*
X155090000Y-92570800I-50800J0D01*
G01*
G37*
G36*
G01*
X155090000Y-92070800D02*
X152490000Y-92070800D01*
G75*
G02*
X152439200Y-92020000I0J50800D01*
G01*
X152439200Y-91720000D01*
G75*
G02*
X152490000Y-91669200I50800J0D01*
G01*
X155090000Y-91669200D01*
G75*
G02*
X155140800Y-91720000I0J-50800D01*
G01*
X155140800Y-92020000D01*
G75*
G02*
X155090000Y-92070800I-50800J0D01*
G01*
G37*
G36*
G01*
X155090000Y-91570800D02*
X152490000Y-91570800D01*
G75*
G02*
X152439200Y-91520000I0J50800D01*
G01*
X152439200Y-91220000D01*
G75*
G02*
X152490000Y-91169200I50800J0D01*
G01*
X155090000Y-91169200D01*
G75*
G02*
X155140800Y-91220000I0J-50800D01*
G01*
X155140800Y-91520000D01*
G75*
G02*
X155090000Y-91570800I-50800J0D01*
G01*
G37*
G36*
G01*
X155090000Y-91070800D02*
X152490000Y-91070800D01*
G75*
G02*
X152439200Y-91020000I0J50800D01*
G01*
X152439200Y-90720000D01*
G75*
G02*
X152490000Y-90669200I50800J0D01*
G01*
X155090000Y-90669200D01*
G75*
G02*
X155140800Y-90720000I0J-50800D01*
G01*
X155140800Y-91020000D01*
G75*
G02*
X155090000Y-91070800I-50800J0D01*
G01*
G37*
G36*
G01*
X155090000Y-90570800D02*
X152490000Y-90570800D01*
G75*
G02*
X152439200Y-90520000I0J50800D01*
G01*
X152439200Y-90220000D01*
G75*
G02*
X152490000Y-90169200I50800J0D01*
G01*
X155090000Y-90169200D01*
G75*
G02*
X155140800Y-90220000I0J-50800D01*
G01*
X155140800Y-90520000D01*
G75*
G02*
X155090000Y-90570800I-50800J0D01*
G01*
G37*
D16*
X154910000Y-123760000D03*
X152370000Y-123760000D03*
X149830000Y-123760000D03*
X147290000Y-123760000D03*
X144750000Y-123760000D03*
X142210000Y-123760000D03*
X139670000Y-123760000D03*
X137130000Y-123760000D03*
X134590000Y-123760000D03*
X132050000Y-123760000D03*
X129510000Y-123760000D03*
X126970000Y-123760000D03*
X124430000Y-123760000D03*
X121890000Y-123760000D03*
X119350000Y-123760000D03*
X121890000Y-108520000D03*
X124430000Y-108520000D03*
X126970000Y-108520000D03*
X129510000Y-108520000D03*
X132050000Y-108520000D03*
X134590000Y-108520000D03*
X137130000Y-108520000D03*
X139670000Y-108520000D03*
X142210000Y-108520000D03*
X144750000Y-108520000D03*
X147290000Y-108520000D03*
M02*
