G04 #@! TF.GenerationSoftware,KiCad,Pcbnew,(5.1.10-1-10_14)*
G04 #@! TF.CreationDate,2021-11-29T21:51:49-05:00*
G04 #@! TF.ProjectId,SNAC Sniffer Indent,534e4143-2053-46e6-9966-66657220496e,1*
G04 #@! TF.SameCoordinates,Original*
G04 #@! TF.FileFunction,Legend,Bot*
G04 #@! TF.FilePolarity,Positive*
%FSLAX46Y46*%
G04 Gerber Fmt 4.6, Leading zero omitted, Abs format (unit mm)*
G04 Created by KiCad (PCBNEW (5.1.10-1-10_14)) date 2021-11-29 21:51:49*
%MOMM*%
%LPD*%
G01*
G04 APERTURE LIST*
%ADD10C,0.200000*%
%ADD11C,0.127000*%
%ADD12C,0.150000*%
%ADD13C,1.601600*%
%ADD14C,1.609600*%
G04 APERTURE END LIST*
D10*
X150748112Y-89670000D02*
G75*
G03*
X150748112Y-89670000I-158112J0D01*
G01*
D11*
X149390000Y-89670000D02*
X149390000Y-88770000D01*
X149390000Y-100970000D02*
X149390000Y-100070000D01*
X144940000Y-87370000D02*
X147140000Y-87370000D01*
X147140000Y-102370000D02*
X144940000Y-102370000D01*
X138580000Y-102370000D02*
X141340000Y-102370000D01*
X138580000Y-87370000D02*
X141340000Y-87370000D01*
X138580000Y-102370000D02*
X138580000Y-87370000D01*
D12*
X162333333Y-123752380D02*
X162333333Y-124466666D01*
X162380952Y-124609523D01*
X162476190Y-124704761D01*
X162619047Y-124752380D01*
X162714285Y-124752380D01*
X161333333Y-124752380D02*
X161904761Y-124752380D01*
X161619047Y-124752380D02*
X161619047Y-123752380D01*
X161714285Y-123895238D01*
X161809523Y-123990476D01*
X161904761Y-124038095D01*
X162323333Y-121282380D02*
X162323333Y-121996666D01*
X162370952Y-122139523D01*
X162466190Y-122234761D01*
X162609047Y-122282380D01*
X162704285Y-122282380D01*
X161894761Y-121377619D02*
X161847142Y-121330000D01*
X161751904Y-121282380D01*
X161513809Y-121282380D01*
X161418571Y-121330000D01*
X161370952Y-121377619D01*
X161323333Y-121472857D01*
X161323333Y-121568095D01*
X161370952Y-121710952D01*
X161942380Y-122282380D01*
X161323333Y-122282380D01*
X162273333Y-118862380D02*
X162273333Y-119576666D01*
X162320952Y-119719523D01*
X162416190Y-119814761D01*
X162559047Y-119862380D01*
X162654285Y-119862380D01*
X161892380Y-118862380D02*
X161273333Y-118862380D01*
X161606666Y-119243333D01*
X161463809Y-119243333D01*
X161368571Y-119290952D01*
X161320952Y-119338571D01*
X161273333Y-119433809D01*
X161273333Y-119671904D01*
X161320952Y-119767142D01*
X161368571Y-119814761D01*
X161463809Y-119862380D01*
X161749523Y-119862380D01*
X161844761Y-119814761D01*
X161892380Y-119767142D01*
X162293333Y-116172380D02*
X162293333Y-116886666D01*
X162340952Y-117029523D01*
X162436190Y-117124761D01*
X162579047Y-117172380D01*
X162674285Y-117172380D01*
X161388571Y-116505714D02*
X161388571Y-117172380D01*
X161626666Y-116124761D02*
X161864761Y-116839047D01*
X161245714Y-116839047D01*
X162253333Y-113782380D02*
X162253333Y-114496666D01*
X162300952Y-114639523D01*
X162396190Y-114734761D01*
X162539047Y-114782380D01*
X162634285Y-114782380D01*
X161300952Y-113782380D02*
X161777142Y-113782380D01*
X161824761Y-114258571D01*
X161777142Y-114210952D01*
X161681904Y-114163333D01*
X161443809Y-114163333D01*
X161348571Y-114210952D01*
X161300952Y-114258571D01*
X161253333Y-114353809D01*
X161253333Y-114591904D01*
X161300952Y-114687142D01*
X161348571Y-114734761D01*
X161443809Y-114782380D01*
X161681904Y-114782380D01*
X161777142Y-114734761D01*
X161824761Y-114687142D01*
X162233333Y-111232380D02*
X162233333Y-111946666D01*
X162280952Y-112089523D01*
X162376190Y-112184761D01*
X162519047Y-112232380D01*
X162614285Y-112232380D01*
X161328571Y-111232380D02*
X161519047Y-111232380D01*
X161614285Y-111280000D01*
X161661904Y-111327619D01*
X161757142Y-111470476D01*
X161804761Y-111660952D01*
X161804761Y-112041904D01*
X161757142Y-112137142D01*
X161709523Y-112184761D01*
X161614285Y-112232380D01*
X161423809Y-112232380D01*
X161328571Y-112184761D01*
X161280952Y-112137142D01*
X161233333Y-112041904D01*
X161233333Y-111803809D01*
X161280952Y-111708571D01*
X161328571Y-111660952D01*
X161423809Y-111613333D01*
X161614285Y-111613333D01*
X161709523Y-111660952D01*
X161757142Y-111708571D01*
X161804761Y-111803809D01*
X162153333Y-108822380D02*
X162153333Y-109536666D01*
X162200952Y-109679523D01*
X162296190Y-109774761D01*
X162439047Y-109822380D01*
X162534285Y-109822380D01*
X161772380Y-108822380D02*
X161105714Y-108822380D01*
X161534285Y-109822380D01*
X162243333Y-106122380D02*
X162243333Y-106836666D01*
X162290952Y-106979523D01*
X162386190Y-107074761D01*
X162529047Y-107122380D01*
X162624285Y-107122380D01*
X161624285Y-106550952D02*
X161719523Y-106503333D01*
X161767142Y-106455714D01*
X161814761Y-106360476D01*
X161814761Y-106312857D01*
X161767142Y-106217619D01*
X161719523Y-106170000D01*
X161624285Y-106122380D01*
X161433809Y-106122380D01*
X161338571Y-106170000D01*
X161290952Y-106217619D01*
X161243333Y-106312857D01*
X161243333Y-106360476D01*
X161290952Y-106455714D01*
X161338571Y-106503333D01*
X161433809Y-106550952D01*
X161624285Y-106550952D01*
X161719523Y-106598571D01*
X161767142Y-106646190D01*
X161814761Y-106741428D01*
X161814761Y-106931904D01*
X161767142Y-107027142D01*
X161719523Y-107074761D01*
X161624285Y-107122380D01*
X161433809Y-107122380D01*
X161338571Y-107074761D01*
X161290952Y-107027142D01*
X161243333Y-106931904D01*
X161243333Y-106741428D01*
X161290952Y-106646190D01*
X161338571Y-106598571D01*
X161433809Y-106550952D01*
X152728973Y-96557233D02*
X151728768Y-96557233D01*
X151728768Y-96938263D01*
X151776397Y-97033521D01*
X151824026Y-97081150D01*
X151919283Y-97128779D01*
X152062170Y-97128779D01*
X152157427Y-97081150D01*
X152205056Y-97033521D01*
X152252685Y-96938263D01*
X152252685Y-96557233D01*
X152728973Y-98081355D02*
X152728973Y-97509809D01*
X152728973Y-97795582D02*
X151728768Y-97795582D01*
X151871655Y-97700324D01*
X151966912Y-97605067D01*
X152014541Y-97509809D01*
%LPC*%
D13*
X160750000Y-123140000D03*
X163290000Y-123140000D03*
X163290000Y-120600000D03*
X160750000Y-120600000D03*
X160750000Y-118060000D03*
X163290000Y-118060000D03*
X163290000Y-115520000D03*
X160750000Y-115520000D03*
X160750000Y-112980000D03*
X163290000Y-112980000D03*
X163290000Y-110440000D03*
X160750000Y-110440000D03*
X163290000Y-107900000D03*
X160750000Y-107900000D03*
X160750000Y-105360000D03*
X163290000Y-105360000D03*
G36*
G01*
X151190000Y-90570800D02*
X148590000Y-90570800D01*
G75*
G02*
X148539200Y-90520000I0J50800D01*
G01*
X148539200Y-90220000D01*
G75*
G02*
X148590000Y-90169200I50800J0D01*
G01*
X151190000Y-90169200D01*
G75*
G02*
X151240800Y-90220000I0J-50800D01*
G01*
X151240800Y-90520000D01*
G75*
G02*
X151190000Y-90570800I-50800J0D01*
G01*
G37*
G36*
G01*
X151190000Y-91070800D02*
X148590000Y-91070800D01*
G75*
G02*
X148539200Y-91020000I0J50800D01*
G01*
X148539200Y-90720000D01*
G75*
G02*
X148590000Y-90669200I50800J0D01*
G01*
X151190000Y-90669200D01*
G75*
G02*
X151240800Y-90720000I0J-50800D01*
G01*
X151240800Y-91020000D01*
G75*
G02*
X151190000Y-91070800I-50800J0D01*
G01*
G37*
G36*
G01*
X151190000Y-91570800D02*
X148590000Y-91570800D01*
G75*
G02*
X148539200Y-91520000I0J50800D01*
G01*
X148539200Y-91220000D01*
G75*
G02*
X148590000Y-91169200I50800J0D01*
G01*
X151190000Y-91169200D01*
G75*
G02*
X151240800Y-91220000I0J-50800D01*
G01*
X151240800Y-91520000D01*
G75*
G02*
X151190000Y-91570800I-50800J0D01*
G01*
G37*
G36*
G01*
X151190000Y-92070800D02*
X148590000Y-92070800D01*
G75*
G02*
X148539200Y-92020000I0J50800D01*
G01*
X148539200Y-91720000D01*
G75*
G02*
X148590000Y-91669200I50800J0D01*
G01*
X151190000Y-91669200D01*
G75*
G02*
X151240800Y-91720000I0J-50800D01*
G01*
X151240800Y-92020000D01*
G75*
G02*
X151190000Y-92070800I-50800J0D01*
G01*
G37*
G36*
G01*
X151190000Y-92570800D02*
X148590000Y-92570800D01*
G75*
G02*
X148539200Y-92520000I0J50800D01*
G01*
X148539200Y-92220000D01*
G75*
G02*
X148590000Y-92169200I50800J0D01*
G01*
X151190000Y-92169200D01*
G75*
G02*
X151240800Y-92220000I0J-50800D01*
G01*
X151240800Y-92520000D01*
G75*
G02*
X151190000Y-92570800I-50800J0D01*
G01*
G37*
G36*
G01*
X151190000Y-93070800D02*
X148590000Y-93070800D01*
G75*
G02*
X148539200Y-93020000I0J50800D01*
G01*
X148539200Y-92720000D01*
G75*
G02*
X148590000Y-92669200I50800J0D01*
G01*
X151190000Y-92669200D01*
G75*
G02*
X151240800Y-92720000I0J-50800D01*
G01*
X151240800Y-93020000D01*
G75*
G02*
X151190000Y-93070800I-50800J0D01*
G01*
G37*
G36*
G01*
X151190000Y-93570800D02*
X148590000Y-93570800D01*
G75*
G02*
X148539200Y-93520000I0J50800D01*
G01*
X148539200Y-93220000D01*
G75*
G02*
X148590000Y-93169200I50800J0D01*
G01*
X151190000Y-93169200D01*
G75*
G02*
X151240800Y-93220000I0J-50800D01*
G01*
X151240800Y-93520000D01*
G75*
G02*
X151190000Y-93570800I-50800J0D01*
G01*
G37*
G36*
G01*
X151190000Y-94070800D02*
X148590000Y-94070800D01*
G75*
G02*
X148539200Y-94020000I0J50800D01*
G01*
X148539200Y-93720000D01*
G75*
G02*
X148590000Y-93669200I50800J0D01*
G01*
X151190000Y-93669200D01*
G75*
G02*
X151240800Y-93720000I0J-50800D01*
G01*
X151240800Y-94020000D01*
G75*
G02*
X151190000Y-94070800I-50800J0D01*
G01*
G37*
G36*
G01*
X151190000Y-94570800D02*
X148590000Y-94570800D01*
G75*
G02*
X148539200Y-94520000I0J50800D01*
G01*
X148539200Y-94220000D01*
G75*
G02*
X148590000Y-94169200I50800J0D01*
G01*
X151190000Y-94169200D01*
G75*
G02*
X151240800Y-94220000I0J-50800D01*
G01*
X151240800Y-94520000D01*
G75*
G02*
X151190000Y-94570800I-50800J0D01*
G01*
G37*
G36*
G01*
X151190000Y-95070800D02*
X148590000Y-95070800D01*
G75*
G02*
X148539200Y-95020000I0J50800D01*
G01*
X148539200Y-94720000D01*
G75*
G02*
X148590000Y-94669200I50800J0D01*
G01*
X151190000Y-94669200D01*
G75*
G02*
X151240800Y-94720000I0J-50800D01*
G01*
X151240800Y-95020000D01*
G75*
G02*
X151190000Y-95070800I-50800J0D01*
G01*
G37*
G36*
G01*
X151190000Y-95570800D02*
X148590000Y-95570800D01*
G75*
G02*
X148539200Y-95520000I0J50800D01*
G01*
X148539200Y-95220000D01*
G75*
G02*
X148590000Y-95169200I50800J0D01*
G01*
X151190000Y-95169200D01*
G75*
G02*
X151240800Y-95220000I0J-50800D01*
G01*
X151240800Y-95520000D01*
G75*
G02*
X151190000Y-95570800I-50800J0D01*
G01*
G37*
G36*
G01*
X151190000Y-96070800D02*
X148590000Y-96070800D01*
G75*
G02*
X148539200Y-96020000I0J50800D01*
G01*
X148539200Y-95720000D01*
G75*
G02*
X148590000Y-95669200I50800J0D01*
G01*
X151190000Y-95669200D01*
G75*
G02*
X151240800Y-95720000I0J-50800D01*
G01*
X151240800Y-96020000D01*
G75*
G02*
X151190000Y-96070800I-50800J0D01*
G01*
G37*
G36*
G01*
X151190000Y-96570800D02*
X148590000Y-96570800D01*
G75*
G02*
X148539200Y-96520000I0J50800D01*
G01*
X148539200Y-96220000D01*
G75*
G02*
X148590000Y-96169200I50800J0D01*
G01*
X151190000Y-96169200D01*
G75*
G02*
X151240800Y-96220000I0J-50800D01*
G01*
X151240800Y-96520000D01*
G75*
G02*
X151190000Y-96570800I-50800J0D01*
G01*
G37*
G36*
G01*
X151190000Y-97070800D02*
X148590000Y-97070800D01*
G75*
G02*
X148539200Y-97020000I0J50800D01*
G01*
X148539200Y-96720000D01*
G75*
G02*
X148590000Y-96669200I50800J0D01*
G01*
X151190000Y-96669200D01*
G75*
G02*
X151240800Y-96720000I0J-50800D01*
G01*
X151240800Y-97020000D01*
G75*
G02*
X151190000Y-97070800I-50800J0D01*
G01*
G37*
G36*
G01*
X151190000Y-97570800D02*
X148590000Y-97570800D01*
G75*
G02*
X148539200Y-97520000I0J50800D01*
G01*
X148539200Y-97220000D01*
G75*
G02*
X148590000Y-97169200I50800J0D01*
G01*
X151190000Y-97169200D01*
G75*
G02*
X151240800Y-97220000I0J-50800D01*
G01*
X151240800Y-97520000D01*
G75*
G02*
X151190000Y-97570800I-50800J0D01*
G01*
G37*
G36*
G01*
X151190000Y-98070800D02*
X148590000Y-98070800D01*
G75*
G02*
X148539200Y-98020000I0J50800D01*
G01*
X148539200Y-97720000D01*
G75*
G02*
X148590000Y-97669200I50800J0D01*
G01*
X151190000Y-97669200D01*
G75*
G02*
X151240800Y-97720000I0J-50800D01*
G01*
X151240800Y-98020000D01*
G75*
G02*
X151190000Y-98070800I-50800J0D01*
G01*
G37*
G36*
G01*
X151190000Y-98570800D02*
X148590000Y-98570800D01*
G75*
G02*
X148539200Y-98520000I0J50800D01*
G01*
X148539200Y-98220000D01*
G75*
G02*
X148590000Y-98169200I50800J0D01*
G01*
X151190000Y-98169200D01*
G75*
G02*
X151240800Y-98220000I0J-50800D01*
G01*
X151240800Y-98520000D01*
G75*
G02*
X151190000Y-98570800I-50800J0D01*
G01*
G37*
G36*
G01*
X151190000Y-99070800D02*
X148590000Y-99070800D01*
G75*
G02*
X148539200Y-99020000I0J50800D01*
G01*
X148539200Y-98720000D01*
G75*
G02*
X148590000Y-98669200I50800J0D01*
G01*
X151190000Y-98669200D01*
G75*
G02*
X151240800Y-98720000I0J-50800D01*
G01*
X151240800Y-99020000D01*
G75*
G02*
X151190000Y-99070800I-50800J0D01*
G01*
G37*
G36*
G01*
X151190000Y-99570800D02*
X148590000Y-99570800D01*
G75*
G02*
X148539200Y-99520000I0J50800D01*
G01*
X148539200Y-99220000D01*
G75*
G02*
X148590000Y-99169200I50800J0D01*
G01*
X151190000Y-99169200D01*
G75*
G02*
X151240800Y-99220000I0J-50800D01*
G01*
X151240800Y-99520000D01*
G75*
G02*
X151190000Y-99570800I-50800J0D01*
G01*
G37*
G36*
G01*
X150655400Y-88470800D02*
X147604600Y-88470800D01*
G75*
G02*
X147179200Y-88045400I0J425400D01*
G01*
X147179200Y-87194600D01*
G75*
G02*
X147604600Y-86769200I425400J0D01*
G01*
X150655400Y-86769200D01*
G75*
G02*
X151080800Y-87194600I0J-425400D01*
G01*
X151080800Y-88045400D01*
G75*
G02*
X150655400Y-88470800I-425400J0D01*
G01*
G37*
G36*
G01*
X150655400Y-102970800D02*
X147604600Y-102970800D01*
G75*
G02*
X147179200Y-102545400I0J425400D01*
G01*
X147179200Y-101694600D01*
G75*
G02*
X147604600Y-101269200I425400J0D01*
G01*
X150655400Y-101269200D01*
G75*
G02*
X151080800Y-101694600I0J-425400D01*
G01*
X151080800Y-102545400D01*
G75*
G02*
X150655400Y-102970800I-425400J0D01*
G01*
G37*
G36*
G01*
X144295400Y-102970800D02*
X142044600Y-102970800D01*
G75*
G02*
X141619200Y-102545400I0J425400D01*
G01*
X141619200Y-101694600D01*
G75*
G02*
X142044600Y-101269200I425400J0D01*
G01*
X144295400Y-101269200D01*
G75*
G02*
X144720800Y-101694600I0J-425400D01*
G01*
X144720800Y-102545400D01*
G75*
G02*
X144295400Y-102970800I-425400J0D01*
G01*
G37*
G36*
G01*
X144295400Y-88470800D02*
X142044600Y-88470800D01*
G75*
G02*
X141619200Y-88045400I0J425400D01*
G01*
X141619200Y-87194600D01*
G75*
G02*
X142044600Y-86769200I425400J0D01*
G01*
X144295400Y-86769200D01*
G75*
G02*
X144720800Y-87194600I0J-425400D01*
G01*
X144720800Y-88045400D01*
G75*
G02*
X144295400Y-88470800I-425400J0D01*
G01*
G37*
G36*
G01*
X161635400Y-88470800D02*
X159384600Y-88470800D01*
G75*
G02*
X158959200Y-88045400I0J425400D01*
G01*
X158959200Y-87194600D01*
G75*
G02*
X159384600Y-86769200I425400J0D01*
G01*
X161635400Y-86769200D01*
G75*
G02*
X162060800Y-87194600I0J-425400D01*
G01*
X162060800Y-88045400D01*
G75*
G02*
X161635400Y-88470800I-425400J0D01*
G01*
G37*
G36*
G01*
X161635400Y-102970800D02*
X159384600Y-102970800D01*
G75*
G02*
X158959200Y-102545400I0J425400D01*
G01*
X158959200Y-101694600D01*
G75*
G02*
X159384600Y-101269200I425400J0D01*
G01*
X161635400Y-101269200D01*
G75*
G02*
X162060800Y-101694600I0J-425400D01*
G01*
X162060800Y-102545400D01*
G75*
G02*
X161635400Y-102970800I-425400J0D01*
G01*
G37*
G36*
G01*
X156075400Y-102970800D02*
X153024600Y-102970800D01*
G75*
G02*
X152599200Y-102545400I0J425400D01*
G01*
X152599200Y-101694600D01*
G75*
G02*
X153024600Y-101269200I425400J0D01*
G01*
X156075400Y-101269200D01*
G75*
G02*
X156500800Y-101694600I0J-425400D01*
G01*
X156500800Y-102545400D01*
G75*
G02*
X156075400Y-102970800I-425400J0D01*
G01*
G37*
G36*
G01*
X156075400Y-88470800D02*
X153024600Y-88470800D01*
G75*
G02*
X152599200Y-88045400I0J425400D01*
G01*
X152599200Y-87194600D01*
G75*
G02*
X153024600Y-86769200I425400J0D01*
G01*
X156075400Y-86769200D01*
G75*
G02*
X156500800Y-87194600I0J-425400D01*
G01*
X156500800Y-88045400D01*
G75*
G02*
X156075400Y-88470800I-425400J0D01*
G01*
G37*
D14*
X154910000Y-123760000D03*
X152370000Y-123760000D03*
X149830000Y-123760000D03*
X147290000Y-123760000D03*
X144750000Y-123760000D03*
X142210000Y-123760000D03*
X139670000Y-123760000D03*
X137130000Y-123760000D03*
X134590000Y-123760000D03*
X132050000Y-123760000D03*
X129510000Y-123760000D03*
X126970000Y-123760000D03*
X124430000Y-123760000D03*
X121890000Y-123760000D03*
X119350000Y-123760000D03*
X121890000Y-108520000D03*
X124430000Y-108520000D03*
X126970000Y-108520000D03*
X129510000Y-108520000D03*
X132050000Y-108520000D03*
X134590000Y-108520000D03*
X137130000Y-108520000D03*
X139670000Y-108520000D03*
X142210000Y-108520000D03*
X144750000Y-108520000D03*
X147290000Y-108520000D03*
M02*
