G04 #@! TF.GenerationSoftware,KiCad,Pcbnew,(5.1.10-1-10_14)*
G04 #@! TF.CreationDate,2021-11-29T00:01:07-05:00*
G04 #@! TF.ProjectId,SNAC Sniffer SQUARE,534e4143-2053-46e6-9966-666572205351,1*
G04 #@! TF.SameCoordinates,Original*
G04 #@! TF.FileFunction,Legend,Top*
G04 #@! TF.FilePolarity,Positive*
%FSLAX46Y46*%
G04 Gerber Fmt 4.6, Leading zero omitted, Abs format (unit mm)*
G04 Created by KiCad (PCBNEW (5.1.10-1-10_14)) date 2021-11-29 00:01:07*
%MOMM*%
%LPD*%
G01*
G04 APERTURE LIST*
%ADD10C,0.200000*%
%ADD11C,0.127000*%
%ADD12C,0.152400*%
%ADD13C,0.250000*%
%ADD14C,0.150000*%
%ADD15C,1.601600*%
%ADD16C,1.609600*%
G04 APERTURE END LIST*
D10*
X150447142Y-129961428D02*
X150304285Y-129890000D01*
X150232857Y-129818571D01*
X150161428Y-129675714D01*
X150161428Y-129604285D01*
X150232857Y-129461428D01*
X150304285Y-129390000D01*
X150447142Y-129318571D01*
X150732857Y-129318571D01*
X150875714Y-129390000D01*
X150947142Y-129461428D01*
X151018571Y-129604285D01*
X151018571Y-129675714D01*
X150947142Y-129818571D01*
X150875714Y-129890000D01*
X150732857Y-129961428D01*
X150447142Y-129961428D01*
X150304285Y-130032857D01*
X150232857Y-130104285D01*
X150161428Y-130247142D01*
X150161428Y-130532857D01*
X150232857Y-130675714D01*
X150304285Y-130747142D01*
X150447142Y-130818571D01*
X150732857Y-130818571D01*
X150875714Y-130747142D01*
X150947142Y-130675714D01*
X151018571Y-130532857D01*
X151018571Y-130247142D01*
X150947142Y-130104285D01*
X150875714Y-130032857D01*
X150732857Y-129961428D01*
X128688571Y-130818571D02*
X127831428Y-130818571D01*
X128260000Y-130818571D02*
X128260000Y-129318571D01*
X128117142Y-129532857D01*
X127974285Y-129675714D01*
X127831428Y-129747142D01*
D11*
X122060000Y-119760000D02*
X119080000Y-119760000D01*
X122060000Y-114660000D02*
X122060000Y-119760000D01*
X119080000Y-114660000D02*
X122060000Y-114660000D01*
D12*
X123839714Y-115669619D02*
X123839714Y-114653619D01*
X124226761Y-114653619D01*
X124323523Y-114702000D01*
X124371904Y-114750380D01*
X124420285Y-114847142D01*
X124420285Y-114992285D01*
X124371904Y-115089047D01*
X124323523Y-115137428D01*
X124226761Y-115185809D01*
X123839714Y-115185809D01*
X125000857Y-115669619D02*
X124904095Y-115621238D01*
X124855714Y-115572857D01*
X124807333Y-115476095D01*
X124807333Y-115185809D01*
X124855714Y-115089047D01*
X124904095Y-115040666D01*
X125000857Y-114992285D01*
X125146000Y-114992285D01*
X125242761Y-115040666D01*
X125291142Y-115089047D01*
X125339523Y-115185809D01*
X125339523Y-115476095D01*
X125291142Y-115572857D01*
X125242761Y-115621238D01*
X125146000Y-115669619D01*
X125000857Y-115669619D01*
X125678190Y-114992285D02*
X125871714Y-115669619D01*
X126065238Y-115185809D01*
X126258761Y-115669619D01*
X126452285Y-114992285D01*
X127226380Y-115621238D02*
X127129619Y-115669619D01*
X126936095Y-115669619D01*
X126839333Y-115621238D01*
X126790952Y-115524476D01*
X126790952Y-115137428D01*
X126839333Y-115040666D01*
X126936095Y-114992285D01*
X127129619Y-114992285D01*
X127226380Y-115040666D01*
X127274761Y-115137428D01*
X127274761Y-115234190D01*
X126790952Y-115330952D01*
X127710190Y-115669619D02*
X127710190Y-114992285D01*
X127710190Y-115185809D02*
X127758571Y-115089047D01*
X127806952Y-115040666D01*
X127903714Y-114992285D01*
X128000476Y-114992285D01*
X128726190Y-115621238D02*
X128629428Y-115669619D01*
X128435904Y-115669619D01*
X128339142Y-115621238D01*
X128290761Y-115524476D01*
X128290761Y-115137428D01*
X128339142Y-115040666D01*
X128435904Y-114992285D01*
X128629428Y-114992285D01*
X128726190Y-115040666D01*
X128774571Y-115137428D01*
X128774571Y-115234190D01*
X128290761Y-115330952D01*
X129645428Y-115669619D02*
X129645428Y-114653619D01*
X129645428Y-115621238D02*
X129548666Y-115669619D01*
X129355142Y-115669619D01*
X129258380Y-115621238D01*
X129210000Y-115572857D01*
X129161619Y-115476095D01*
X129161619Y-115185809D01*
X129210000Y-115089047D01*
X129258380Y-115040666D01*
X129355142Y-114992285D01*
X129548666Y-114992285D01*
X129645428Y-115040666D01*
X131242000Y-115137428D02*
X131387142Y-115185809D01*
X131435523Y-115234190D01*
X131483904Y-115330952D01*
X131483904Y-115476095D01*
X131435523Y-115572857D01*
X131387142Y-115621238D01*
X131290380Y-115669619D01*
X130903333Y-115669619D01*
X130903333Y-114653619D01*
X131242000Y-114653619D01*
X131338761Y-114702000D01*
X131387142Y-114750380D01*
X131435523Y-114847142D01*
X131435523Y-114943904D01*
X131387142Y-115040666D01*
X131338761Y-115089047D01*
X131242000Y-115137428D01*
X130903333Y-115137428D01*
X131822571Y-114992285D02*
X132064476Y-115669619D01*
X132306380Y-114992285D02*
X132064476Y-115669619D01*
X131967714Y-115911523D01*
X131919333Y-115959904D01*
X131822571Y-116008285D01*
X134048095Y-115669619D02*
X133709428Y-115185809D01*
X133467523Y-115669619D02*
X133467523Y-114653619D01*
X133854571Y-114653619D01*
X133951333Y-114702000D01*
X133999714Y-114750380D01*
X134048095Y-114847142D01*
X134048095Y-114992285D01*
X133999714Y-115089047D01*
X133951333Y-115137428D01*
X133854571Y-115185809D01*
X133467523Y-115185809D01*
X134870571Y-115621238D02*
X134773809Y-115669619D01*
X134580285Y-115669619D01*
X134483523Y-115621238D01*
X134435142Y-115524476D01*
X134435142Y-115137428D01*
X134483523Y-115040666D01*
X134580285Y-114992285D01*
X134773809Y-114992285D01*
X134870571Y-115040666D01*
X134918952Y-115137428D01*
X134918952Y-115234190D01*
X134435142Y-115330952D01*
X135209238Y-114992285D02*
X135596285Y-114992285D01*
X135354380Y-114653619D02*
X135354380Y-115524476D01*
X135402761Y-115621238D01*
X135499523Y-115669619D01*
X135596285Y-115669619D01*
X135934952Y-115669619D02*
X135934952Y-114992285D01*
X135934952Y-115185809D02*
X135983333Y-115089047D01*
X136031714Y-115040666D01*
X136128476Y-114992285D01*
X136225238Y-114992285D01*
X136709047Y-115669619D02*
X136612285Y-115621238D01*
X136563904Y-115572857D01*
X136515523Y-115476095D01*
X136515523Y-115185809D01*
X136563904Y-115089047D01*
X136612285Y-115040666D01*
X136709047Y-114992285D01*
X136854190Y-114992285D01*
X136950952Y-115040666D01*
X136999333Y-115089047D01*
X137047714Y-115185809D01*
X137047714Y-115476095D01*
X136999333Y-115572857D01*
X136950952Y-115621238D01*
X136854190Y-115669619D01*
X136709047Y-115669619D01*
X137434761Y-115621238D02*
X137579904Y-115669619D01*
X137821809Y-115669619D01*
X137918571Y-115621238D01*
X137966952Y-115572857D01*
X138015333Y-115476095D01*
X138015333Y-115379333D01*
X137966952Y-115282571D01*
X137918571Y-115234190D01*
X137821809Y-115185809D01*
X137628285Y-115137428D01*
X137531523Y-115089047D01*
X137483142Y-115040666D01*
X137434761Y-114943904D01*
X137434761Y-114847142D01*
X137483142Y-114750380D01*
X137531523Y-114702000D01*
X137628285Y-114653619D01*
X137870190Y-114653619D01*
X138015333Y-114702000D01*
X138450761Y-114992285D02*
X138450761Y-116008285D01*
X138450761Y-115040666D02*
X138547523Y-114992285D01*
X138741047Y-114992285D01*
X138837809Y-115040666D01*
X138886190Y-115089047D01*
X138934571Y-115185809D01*
X138934571Y-115476095D01*
X138886190Y-115572857D01*
X138837809Y-115621238D01*
X138741047Y-115669619D01*
X138547523Y-115669619D01*
X138450761Y-115621238D01*
X139273238Y-114992285D02*
X139515142Y-115669619D01*
X139757047Y-114992285D02*
X139515142Y-115669619D01*
X139418380Y-115911523D01*
X139370000Y-115959904D01*
X139273238Y-116008285D01*
D11*
X138909047Y-122504761D02*
X139051904Y-122552380D01*
X139290000Y-122552380D01*
X139385238Y-122504761D01*
X139432857Y-122457142D01*
X139480476Y-122361904D01*
X139480476Y-122266666D01*
X139432857Y-122171428D01*
X139385238Y-122123809D01*
X139290000Y-122076190D01*
X139099523Y-122028571D01*
X139004285Y-121980952D01*
X138956666Y-121933333D01*
X138909047Y-121838095D01*
X138909047Y-121742857D01*
X138956666Y-121647619D01*
X139004285Y-121600000D01*
X139099523Y-121552380D01*
X139337619Y-121552380D01*
X139480476Y-121600000D01*
X139909047Y-121885714D02*
X139909047Y-122885714D01*
X139909047Y-121933333D02*
X140004285Y-121885714D01*
X140194761Y-121885714D01*
X140290000Y-121933333D01*
X140337619Y-121980952D01*
X140385238Y-122076190D01*
X140385238Y-122361904D01*
X140337619Y-122457142D01*
X140290000Y-122504761D01*
X140194761Y-122552380D01*
X140004285Y-122552380D01*
X139909047Y-122504761D01*
X141194761Y-122504761D02*
X141099523Y-122552380D01*
X140909047Y-122552380D01*
X140813809Y-122504761D01*
X140766190Y-122409523D01*
X140766190Y-122028571D01*
X140813809Y-121933333D01*
X140909047Y-121885714D01*
X141099523Y-121885714D01*
X141194761Y-121933333D01*
X141242380Y-122028571D01*
X141242380Y-122123809D01*
X140766190Y-122219047D01*
X142099523Y-122504761D02*
X142004285Y-122552380D01*
X141813809Y-122552380D01*
X141718571Y-122504761D01*
X141670952Y-122457142D01*
X141623333Y-122361904D01*
X141623333Y-122076190D01*
X141670952Y-121980952D01*
X141718571Y-121933333D01*
X141813809Y-121885714D01*
X142004285Y-121885714D01*
X142099523Y-121933333D01*
X142528095Y-122552380D02*
X142528095Y-121885714D01*
X142528095Y-121552380D02*
X142480476Y-121600000D01*
X142528095Y-121647619D01*
X142575714Y-121600000D01*
X142528095Y-121552380D01*
X142528095Y-121647619D01*
X143432857Y-122552380D02*
X143432857Y-122028571D01*
X143385238Y-121933333D01*
X143290000Y-121885714D01*
X143099523Y-121885714D01*
X143004285Y-121933333D01*
X143432857Y-122504761D02*
X143337619Y-122552380D01*
X143099523Y-122552380D01*
X143004285Y-122504761D01*
X142956666Y-122409523D01*
X142956666Y-122314285D01*
X143004285Y-122219047D01*
X143099523Y-122171428D01*
X143337619Y-122171428D01*
X143432857Y-122123809D01*
X144051904Y-122552380D02*
X143956666Y-122504761D01*
X143909047Y-122409523D01*
X143909047Y-121552380D01*
X145051904Y-121552380D02*
X145623333Y-121552380D01*
X145337619Y-122552380D02*
X145337619Y-121552380D01*
X145956666Y-122552380D02*
X145956666Y-121552380D01*
X146385238Y-122552380D02*
X146385238Y-122028571D01*
X146337619Y-121933333D01*
X146242380Y-121885714D01*
X146099523Y-121885714D01*
X146004285Y-121933333D01*
X145956666Y-121980952D01*
X147290000Y-122552380D02*
X147290000Y-122028571D01*
X147242380Y-121933333D01*
X147147142Y-121885714D01*
X146956666Y-121885714D01*
X146861428Y-121933333D01*
X147290000Y-122504761D02*
X147194761Y-122552380D01*
X146956666Y-122552380D01*
X146861428Y-122504761D01*
X146813809Y-122409523D01*
X146813809Y-122314285D01*
X146861428Y-122219047D01*
X146956666Y-122171428D01*
X147194761Y-122171428D01*
X147290000Y-122123809D01*
X147766190Y-121885714D02*
X147766190Y-122552380D01*
X147766190Y-121980952D02*
X147813809Y-121933333D01*
X147909047Y-121885714D01*
X148051904Y-121885714D01*
X148147142Y-121933333D01*
X148194761Y-122028571D01*
X148194761Y-122552380D01*
X148670952Y-122552380D02*
X148670952Y-121552380D01*
X148766190Y-122171428D02*
X149051904Y-122552380D01*
X149051904Y-121885714D02*
X148670952Y-122266666D01*
X149432857Y-122504761D02*
X149528095Y-122552380D01*
X149718571Y-122552380D01*
X149813809Y-122504761D01*
X149861428Y-122409523D01*
X149861428Y-122361904D01*
X149813809Y-122266666D01*
X149718571Y-122219047D01*
X149575714Y-122219047D01*
X149480476Y-122171428D01*
X149432857Y-122076190D01*
X149432857Y-122028571D01*
X149480476Y-121933333D01*
X149575714Y-121885714D01*
X149718571Y-121885714D01*
X149813809Y-121933333D01*
X150290000Y-122457142D02*
X150337619Y-122504761D01*
X150290000Y-122552380D01*
X150242380Y-122504761D01*
X150290000Y-122457142D01*
X150290000Y-122552380D01*
X150290000Y-121933333D02*
X150337619Y-121980952D01*
X150290000Y-122028571D01*
X150242380Y-121980952D01*
X150290000Y-121933333D01*
X150290000Y-122028571D01*
X151956666Y-121885714D02*
X151956666Y-122552380D01*
X151718571Y-121504761D02*
X151480476Y-122219047D01*
X152099523Y-122219047D01*
X152670952Y-121552380D02*
X152766190Y-121552380D01*
X152861428Y-121600000D01*
X152909047Y-121647619D01*
X152956666Y-121742857D01*
X153004285Y-121933333D01*
X153004285Y-122171428D01*
X152956666Y-122361904D01*
X152909047Y-122457142D01*
X152861428Y-122504761D01*
X152766190Y-122552380D01*
X152670952Y-122552380D01*
X152575714Y-122504761D01*
X152528095Y-122457142D01*
X152480476Y-122361904D01*
X152432857Y-122171428D01*
X152432857Y-121933333D01*
X152480476Y-121742857D01*
X152528095Y-121647619D01*
X152575714Y-121600000D01*
X152670952Y-121552380D01*
X153337619Y-121885714D02*
X153528095Y-122552380D01*
X153718571Y-122076190D01*
X153909047Y-122552380D01*
X154099523Y-121885714D01*
X154909047Y-122552380D02*
X154909047Y-122028571D01*
X154861428Y-121933333D01*
X154766190Y-121885714D01*
X154575714Y-121885714D01*
X154480476Y-121933333D01*
X154909047Y-122504761D02*
X154813809Y-122552380D01*
X154575714Y-122552380D01*
X154480476Y-122504761D01*
X154432857Y-122409523D01*
X154432857Y-122314285D01*
X154480476Y-122219047D01*
X154575714Y-122171428D01*
X154813809Y-122171428D01*
X154909047Y-122123809D01*
X155242380Y-121885714D02*
X155623333Y-121885714D01*
X155385238Y-121552380D02*
X155385238Y-122409523D01*
X155432857Y-122504761D01*
X155528095Y-122552380D01*
X155623333Y-122552380D01*
X155813809Y-121885714D02*
X156194761Y-121885714D01*
X155956666Y-121552380D02*
X155956666Y-122409523D01*
X156004285Y-122504761D01*
X156099523Y-122552380D01*
X156194761Y-122552380D01*
X157099523Y-122552380D02*
X156766190Y-122076190D01*
X156528095Y-122552380D02*
X156528095Y-121552380D01*
X156909047Y-121552380D01*
X157004285Y-121600000D01*
X157051904Y-121647619D01*
X157099523Y-121742857D01*
X157099523Y-121885714D01*
X157051904Y-121980952D01*
X157004285Y-122028571D01*
X156909047Y-122076190D01*
X156528095Y-122076190D01*
X157956666Y-122552380D02*
X157956666Y-122028571D01*
X157909047Y-121933333D01*
X157813809Y-121885714D01*
X157623333Y-121885714D01*
X157528095Y-121933333D01*
X157956666Y-122504761D02*
X157861428Y-122552380D01*
X157623333Y-122552380D01*
X157528095Y-122504761D01*
X157480476Y-122409523D01*
X157480476Y-122314285D01*
X157528095Y-122219047D01*
X157623333Y-122171428D01*
X157861428Y-122171428D01*
X157956666Y-122123809D01*
X158432857Y-121885714D02*
X158432857Y-122552380D01*
X158432857Y-121980952D02*
X158480476Y-121933333D01*
X158575714Y-121885714D01*
X158718571Y-121885714D01*
X158813809Y-121933333D01*
X158861428Y-122028571D01*
X158861428Y-122552380D01*
X159766190Y-121885714D02*
X159766190Y-122695238D01*
X159718571Y-122790476D01*
X159670952Y-122838095D01*
X159575714Y-122885714D01*
X159432857Y-122885714D01*
X159337619Y-122838095D01*
X159766190Y-122504761D02*
X159670952Y-122552380D01*
X159480476Y-122552380D01*
X159385238Y-122504761D01*
X159337619Y-122457142D01*
X159290000Y-122361904D01*
X159290000Y-122076190D01*
X159337619Y-121980952D01*
X159385238Y-121933333D01*
X159480476Y-121885714D01*
X159670952Y-121885714D01*
X159766190Y-121933333D01*
X160623333Y-122504761D02*
X160528095Y-122552380D01*
X160337619Y-122552380D01*
X160242380Y-122504761D01*
X160194761Y-122409523D01*
X160194761Y-122028571D01*
X160242380Y-121933333D01*
X160337619Y-121885714D01*
X160528095Y-121885714D01*
X160623333Y-121933333D01*
X160670952Y-122028571D01*
X160670952Y-122123809D01*
X160194761Y-122219047D01*
X144674761Y-119392380D02*
X144674761Y-120106666D01*
X144627142Y-120249523D01*
X144531904Y-120344761D01*
X144389047Y-120392380D01*
X144293809Y-120392380D01*
X145531904Y-120344761D02*
X145436666Y-120392380D01*
X145246190Y-120392380D01*
X145150952Y-120344761D01*
X145103333Y-120249523D01*
X145103333Y-119868571D01*
X145150952Y-119773333D01*
X145246190Y-119725714D01*
X145436666Y-119725714D01*
X145531904Y-119773333D01*
X145579523Y-119868571D01*
X145579523Y-119963809D01*
X145103333Y-120059047D01*
X145865238Y-119725714D02*
X146246190Y-119725714D01*
X146008095Y-120392380D02*
X146008095Y-119535238D01*
X146055714Y-119440000D01*
X146150952Y-119392380D01*
X146246190Y-119392380D01*
X146436666Y-119725714D02*
X146817619Y-119725714D01*
X146579523Y-120392380D02*
X146579523Y-119535238D01*
X146627142Y-119440000D01*
X146722380Y-119392380D01*
X146817619Y-119392380D01*
X148484285Y-120297142D02*
X148436666Y-120344761D01*
X148293809Y-120392380D01*
X148198571Y-120392380D01*
X148055714Y-120344761D01*
X147960476Y-120249523D01*
X147912857Y-120154285D01*
X147865238Y-119963809D01*
X147865238Y-119820952D01*
X147912857Y-119630476D01*
X147960476Y-119535238D01*
X148055714Y-119440000D01*
X148198571Y-119392380D01*
X148293809Y-119392380D01*
X148436666Y-119440000D01*
X148484285Y-119487619D01*
X148912857Y-120392380D02*
X148912857Y-119392380D01*
X149341428Y-120392380D02*
X149341428Y-119868571D01*
X149293809Y-119773333D01*
X149198571Y-119725714D01*
X149055714Y-119725714D01*
X148960476Y-119773333D01*
X148912857Y-119820952D01*
X150198571Y-120344761D02*
X150103333Y-120392380D01*
X149912857Y-120392380D01*
X149817619Y-120344761D01*
X149770000Y-120249523D01*
X149770000Y-119868571D01*
X149817619Y-119773333D01*
X149912857Y-119725714D01*
X150103333Y-119725714D01*
X150198571Y-119773333D01*
X150246190Y-119868571D01*
X150246190Y-119963809D01*
X149770000Y-120059047D01*
X150674761Y-119725714D02*
X150674761Y-120392380D01*
X150674761Y-119820952D02*
X150722380Y-119773333D01*
X150817619Y-119725714D01*
X150960476Y-119725714D01*
X151055714Y-119773333D01*
X151103333Y-119868571D01*
X151103333Y-120392380D01*
X151627142Y-120344761D02*
X151627142Y-120392380D01*
X151579523Y-120487619D01*
X151531904Y-120535238D01*
X152770000Y-119487619D02*
X152817619Y-119440000D01*
X152912857Y-119392380D01*
X153150952Y-119392380D01*
X153246190Y-119440000D01*
X153293809Y-119487619D01*
X153341428Y-119582857D01*
X153341428Y-119678095D01*
X153293809Y-119820952D01*
X152722380Y-120392380D01*
X153341428Y-120392380D01*
X153960476Y-119392380D02*
X154055714Y-119392380D01*
X154150952Y-119440000D01*
X154198571Y-119487619D01*
X154246190Y-119582857D01*
X154293809Y-119773333D01*
X154293809Y-120011428D01*
X154246190Y-120201904D01*
X154198571Y-120297142D01*
X154150952Y-120344761D01*
X154055714Y-120392380D01*
X153960476Y-120392380D01*
X153865238Y-120344761D01*
X153817619Y-120297142D01*
X153770000Y-120201904D01*
X153722380Y-120011428D01*
X153722380Y-119773333D01*
X153770000Y-119582857D01*
X153817619Y-119487619D01*
X153865238Y-119440000D01*
X153960476Y-119392380D01*
X154674761Y-119487619D02*
X154722380Y-119440000D01*
X154817619Y-119392380D01*
X155055714Y-119392380D01*
X155150952Y-119440000D01*
X155198571Y-119487619D01*
X155246190Y-119582857D01*
X155246190Y-119678095D01*
X155198571Y-119820952D01*
X154627142Y-120392380D01*
X155246190Y-120392380D01*
X156198571Y-120392380D02*
X155627142Y-120392380D01*
X155912857Y-120392380D02*
X155912857Y-119392380D01*
X155817619Y-119535238D01*
X155722380Y-119630476D01*
X155627142Y-119678095D01*
D13*
X122800000Y-112163333D02*
X122800000Y-112430000D01*
X123333333Y-112163333D02*
X123333333Y-112430000D01*
X123933333Y-113563333D02*
X123933333Y-112163333D01*
X124400000Y-113163333D01*
X124866666Y-112163333D01*
X124866666Y-113563333D01*
X125533333Y-113563333D02*
X125533333Y-112630000D01*
X125533333Y-112896666D02*
X125600000Y-112763333D01*
X125666666Y-112696666D01*
X125800000Y-112630000D01*
X125933333Y-112630000D01*
X126400000Y-113430000D02*
X126466666Y-113496666D01*
X126400000Y-113563333D01*
X126333333Y-113496666D01*
X126400000Y-113430000D01*
X126400000Y-113563333D01*
X128133333Y-113563333D02*
X128133333Y-112163333D01*
X128933333Y-113563333D01*
X128933333Y-112163333D01*
X129800000Y-113563333D02*
X129666666Y-113496666D01*
X129600000Y-113430000D01*
X129533333Y-113296666D01*
X129533333Y-112896666D01*
X129600000Y-112763333D01*
X129666666Y-112696666D01*
X129800000Y-112630000D01*
X130000000Y-112630000D01*
X130133333Y-112696666D01*
X130200000Y-112763333D01*
X130266666Y-112896666D01*
X130266666Y-113296666D01*
X130200000Y-113430000D01*
X130133333Y-113496666D01*
X130000000Y-113563333D01*
X129800000Y-113563333D01*
X130800000Y-113496666D02*
X130933333Y-113563333D01*
X131200000Y-113563333D01*
X131333333Y-113496666D01*
X131400000Y-113363333D01*
X131400000Y-113296666D01*
X131333333Y-113163333D01*
X131200000Y-113096666D01*
X131000000Y-113096666D01*
X130866666Y-113030000D01*
X130800000Y-112896666D01*
X130800000Y-112830000D01*
X130866666Y-112696666D01*
X131000000Y-112630000D01*
X131200000Y-112630000D01*
X131333333Y-112696666D01*
X131866666Y-112630000D02*
X132200000Y-113563333D01*
X132533333Y-112630000D02*
X132200000Y-113563333D01*
X132066666Y-113896666D01*
X132000000Y-113963333D01*
X131866666Y-114030000D01*
X133000000Y-112163333D02*
X133000000Y-112430000D01*
X133533333Y-112163333D02*
X133533333Y-112430000D01*
X135133333Y-113496666D02*
X135333333Y-113563333D01*
X135666666Y-113563333D01*
X135800000Y-113496666D01*
X135866666Y-113430000D01*
X135933333Y-113296666D01*
X135933333Y-113163333D01*
X135866666Y-113030000D01*
X135800000Y-112963333D01*
X135666666Y-112896666D01*
X135400000Y-112830000D01*
X135266666Y-112763333D01*
X135200000Y-112696666D01*
X135133333Y-112563333D01*
X135133333Y-112430000D01*
X135200000Y-112296666D01*
X135266666Y-112230000D01*
X135400000Y-112163333D01*
X135733333Y-112163333D01*
X135933333Y-112230000D01*
X136533333Y-113563333D02*
X136533333Y-112163333D01*
X137333333Y-113563333D01*
X137333333Y-112163333D01*
X137933333Y-113163333D02*
X138600000Y-113163333D01*
X137800000Y-113563333D02*
X138266666Y-112163333D01*
X138733333Y-113563333D01*
X140000000Y-113430000D02*
X139933333Y-113496666D01*
X139733333Y-113563333D01*
X139600000Y-113563333D01*
X139400000Y-113496666D01*
X139266666Y-113363333D01*
X139200000Y-113230000D01*
X139133333Y-112963333D01*
X139133333Y-112763333D01*
X139200000Y-112496666D01*
X139266666Y-112363333D01*
X139400000Y-112230000D01*
X139600000Y-112163333D01*
X139733333Y-112163333D01*
X139933333Y-112230000D01*
X140000000Y-112296666D01*
X141600000Y-113496666D02*
X141800000Y-113563333D01*
X142133333Y-113563333D01*
X142266666Y-113496666D01*
X142333333Y-113430000D01*
X142400000Y-113296666D01*
X142400000Y-113163333D01*
X142333333Y-113030000D01*
X142266666Y-112963333D01*
X142133333Y-112896666D01*
X141866666Y-112830000D01*
X141733333Y-112763333D01*
X141666666Y-112696666D01*
X141600000Y-112563333D01*
X141600000Y-112430000D01*
X141666666Y-112296666D01*
X141733333Y-112230000D01*
X141866666Y-112163333D01*
X142200000Y-112163333D01*
X142400000Y-112230000D01*
X143000000Y-112630000D02*
X143000000Y-113563333D01*
X143000000Y-112763333D02*
X143066666Y-112696666D01*
X143200000Y-112630000D01*
X143400000Y-112630000D01*
X143533333Y-112696666D01*
X143600000Y-112830000D01*
X143600000Y-113563333D01*
X144266666Y-113563333D02*
X144266666Y-112630000D01*
X144266666Y-112163333D02*
X144200000Y-112230000D01*
X144266666Y-112296666D01*
X144333333Y-112230000D01*
X144266666Y-112163333D01*
X144266666Y-112296666D01*
X144733333Y-112630000D02*
X145266666Y-112630000D01*
X144933333Y-113563333D02*
X144933333Y-112363333D01*
X145000000Y-112230000D01*
X145133333Y-112163333D01*
X145266666Y-112163333D01*
X145533333Y-112630000D02*
X146066666Y-112630000D01*
X145733333Y-113563333D02*
X145733333Y-112363333D01*
X145800000Y-112230000D01*
X145933333Y-112163333D01*
X146066666Y-112163333D01*
X147066666Y-113496666D02*
X146933333Y-113563333D01*
X146666666Y-113563333D01*
X146533333Y-113496666D01*
X146466666Y-113363333D01*
X146466666Y-112830000D01*
X146533333Y-112696666D01*
X146666666Y-112630000D01*
X146933333Y-112630000D01*
X147066666Y-112696666D01*
X147133333Y-112830000D01*
X147133333Y-112963333D01*
X146466666Y-113096666D01*
X147733333Y-113563333D02*
X147733333Y-112630000D01*
X147733333Y-112896666D02*
X147800000Y-112763333D01*
X147866666Y-112696666D01*
X148000000Y-112630000D01*
X148133333Y-112630000D01*
D11*
X134750000Y-90690000D02*
X119750000Y-90690000D01*
X119750000Y-90690000D02*
X119750000Y-93450000D01*
X134750000Y-90690000D02*
X134750000Y-93450000D01*
X134750000Y-99250000D02*
X134750000Y-97050000D01*
X119750000Y-97050000D02*
X119750000Y-99250000D01*
X133350000Y-101500000D02*
X132450000Y-101500000D01*
X122050000Y-101500000D02*
X121150000Y-101500000D01*
D10*
X122208112Y-102700000D02*
G75*
G03*
X122208112Y-102700000I-158112J0D01*
G01*
D11*
X161070000Y-90690000D02*
X146070000Y-90690000D01*
X146070000Y-90690000D02*
X146070000Y-93450000D01*
X161070000Y-90690000D02*
X161070000Y-93450000D01*
X161070000Y-99250000D02*
X161070000Y-97050000D01*
X146070000Y-97050000D02*
X146070000Y-99250000D01*
X159670000Y-101500000D02*
X158770000Y-101500000D01*
X148370000Y-101500000D02*
X147470000Y-101500000D01*
D10*
X148528112Y-102700000D02*
G75*
G03*
X148528112Y-102700000I-158112J0D01*
G01*
X160870000Y-109580000D02*
G75*
G03*
X160870000Y-109580000I-100000J0D01*
G01*
D11*
X119080000Y-108230000D02*
X162260000Y-108230000D01*
X119080000Y-126010000D02*
X119080000Y-108230000D01*
X162260000Y-126010000D02*
X119080000Y-126010000D01*
X162260000Y-108230000D02*
X162260000Y-126010000D01*
D14*
X130186666Y-126752380D02*
X130186666Y-127466666D01*
X130139047Y-127609523D01*
X130043809Y-127704761D01*
X129900952Y-127752380D01*
X129805714Y-127752380D01*
X131186666Y-127752380D02*
X130615238Y-127752380D01*
X130900952Y-127752380D02*
X130900952Y-126752380D01*
X130805714Y-126895238D01*
X130710476Y-126990476D01*
X130615238Y-127038095D01*
X132736666Y-126712380D02*
X132736666Y-127426666D01*
X132689047Y-127569523D01*
X132593809Y-127664761D01*
X132450952Y-127712380D01*
X132355714Y-127712380D01*
X133165238Y-126807619D02*
X133212857Y-126760000D01*
X133308095Y-126712380D01*
X133546190Y-126712380D01*
X133641428Y-126760000D01*
X133689047Y-126807619D01*
X133736666Y-126902857D01*
X133736666Y-126998095D01*
X133689047Y-127140952D01*
X133117619Y-127712380D01*
X133736666Y-127712380D01*
X135286666Y-126752380D02*
X135286666Y-127466666D01*
X135239047Y-127609523D01*
X135143809Y-127704761D01*
X135000952Y-127752380D01*
X134905714Y-127752380D01*
X135667619Y-126752380D02*
X136286666Y-126752380D01*
X135953333Y-127133333D01*
X136096190Y-127133333D01*
X136191428Y-127180952D01*
X136239047Y-127228571D01*
X136286666Y-127323809D01*
X136286666Y-127561904D01*
X136239047Y-127657142D01*
X136191428Y-127704761D01*
X136096190Y-127752380D01*
X135810476Y-127752380D01*
X135715238Y-127704761D01*
X135667619Y-127657142D01*
X137816666Y-126712380D02*
X137816666Y-127426666D01*
X137769047Y-127569523D01*
X137673809Y-127664761D01*
X137530952Y-127712380D01*
X137435714Y-127712380D01*
X138721428Y-127045714D02*
X138721428Y-127712380D01*
X138483333Y-126664761D02*
X138245238Y-127379047D01*
X138864285Y-127379047D01*
X140356666Y-126752380D02*
X140356666Y-127466666D01*
X140309047Y-127609523D01*
X140213809Y-127704761D01*
X140070952Y-127752380D01*
X139975714Y-127752380D01*
X141309047Y-126752380D02*
X140832857Y-126752380D01*
X140785238Y-127228571D01*
X140832857Y-127180952D01*
X140928095Y-127133333D01*
X141166190Y-127133333D01*
X141261428Y-127180952D01*
X141309047Y-127228571D01*
X141356666Y-127323809D01*
X141356666Y-127561904D01*
X141309047Y-127657142D01*
X141261428Y-127704761D01*
X141166190Y-127752380D01*
X140928095Y-127752380D01*
X140832857Y-127704761D01*
X140785238Y-127657142D01*
X142886666Y-126762380D02*
X142886666Y-127476666D01*
X142839047Y-127619523D01*
X142743809Y-127714761D01*
X142600952Y-127762380D01*
X142505714Y-127762380D01*
X143791428Y-126762380D02*
X143600952Y-126762380D01*
X143505714Y-126810000D01*
X143458095Y-126857619D01*
X143362857Y-127000476D01*
X143315238Y-127190952D01*
X143315238Y-127571904D01*
X143362857Y-127667142D01*
X143410476Y-127714761D01*
X143505714Y-127762380D01*
X143696190Y-127762380D01*
X143791428Y-127714761D01*
X143839047Y-127667142D01*
X143886666Y-127571904D01*
X143886666Y-127333809D01*
X143839047Y-127238571D01*
X143791428Y-127190952D01*
X143696190Y-127143333D01*
X143505714Y-127143333D01*
X143410476Y-127190952D01*
X143362857Y-127238571D01*
X143315238Y-127333809D01*
X145436666Y-126802380D02*
X145436666Y-127516666D01*
X145389047Y-127659523D01*
X145293809Y-127754761D01*
X145150952Y-127802380D01*
X145055714Y-127802380D01*
X145817619Y-126802380D02*
X146484285Y-126802380D01*
X146055714Y-127802380D01*
X147986666Y-126832380D02*
X147986666Y-127546666D01*
X147939047Y-127689523D01*
X147843809Y-127784761D01*
X147700952Y-127832380D01*
X147605714Y-127832380D01*
X148605714Y-127260952D02*
X148510476Y-127213333D01*
X148462857Y-127165714D01*
X148415238Y-127070476D01*
X148415238Y-127022857D01*
X148462857Y-126927619D01*
X148510476Y-126880000D01*
X148605714Y-126832380D01*
X148796190Y-126832380D01*
X148891428Y-126880000D01*
X148939047Y-126927619D01*
X148986666Y-127022857D01*
X148986666Y-127070476D01*
X148939047Y-127165714D01*
X148891428Y-127213333D01*
X148796190Y-127260952D01*
X148605714Y-127260952D01*
X148510476Y-127308571D01*
X148462857Y-127356190D01*
X148415238Y-127451428D01*
X148415238Y-127641904D01*
X148462857Y-127737142D01*
X148510476Y-127784761D01*
X148605714Y-127832380D01*
X148796190Y-127832380D01*
X148891428Y-127784761D01*
X148939047Y-127737142D01*
X148986666Y-127641904D01*
X148986666Y-127451428D01*
X148939047Y-127356190D01*
X148891428Y-127308571D01*
X148796190Y-127260952D01*
X126501753Y-95942473D02*
X126501753Y-94942268D01*
X126882783Y-94942268D01*
X126978041Y-94989897D01*
X127025670Y-95037526D01*
X127073299Y-95132783D01*
X127073299Y-95275670D01*
X127025670Y-95370927D01*
X126978041Y-95418556D01*
X126882783Y-95466185D01*
X126501753Y-95466185D01*
X128025875Y-95942473D02*
X127454329Y-95942473D01*
X127740102Y-95942473D02*
X127740102Y-94942268D01*
X127644844Y-95085155D01*
X127549587Y-95180412D01*
X127454329Y-95228041D01*
X152871753Y-97242473D02*
X152871753Y-96242268D01*
X153252783Y-96242268D01*
X153348041Y-96289897D01*
X153395670Y-96337526D01*
X153443299Y-96432783D01*
X153443299Y-96575670D01*
X153395670Y-96670927D01*
X153348041Y-96718556D01*
X153252783Y-96766185D01*
X152871753Y-96766185D01*
X153824329Y-96337526D02*
X153871958Y-96289897D01*
X153967216Y-96242268D01*
X154205360Y-96242268D01*
X154300617Y-96289897D01*
X154348246Y-96337526D01*
X154395875Y-96432783D01*
X154395875Y-96528041D01*
X154348246Y-96670927D01*
X153776700Y-97242473D01*
X154395875Y-97242473D01*
X120082380Y-117981904D02*
X120891904Y-117981904D01*
X120987142Y-117934285D01*
X121034761Y-117886666D01*
X121082380Y-117791428D01*
X121082380Y-117600952D01*
X121034761Y-117505714D01*
X120987142Y-117458095D01*
X120891904Y-117410476D01*
X120082380Y-117410476D01*
X121082380Y-116410476D02*
X121082380Y-116981904D01*
X121082380Y-116696190D02*
X120082380Y-116696190D01*
X120225238Y-116791428D01*
X120320476Y-116886666D01*
X120368095Y-116981904D01*
%LPC*%
D15*
X130530000Y-131690000D03*
X130530000Y-129150000D03*
X133070000Y-131690000D03*
X133070000Y-129150000D03*
X135610000Y-131690000D03*
X135610000Y-129150000D03*
X138150000Y-131690000D03*
X138150000Y-129150000D03*
X140690000Y-131690000D03*
X140690000Y-129150000D03*
X143230000Y-131690000D03*
X143230000Y-129150000D03*
X145770000Y-131690000D03*
X145770000Y-129150000D03*
X148310000Y-131690000D03*
X148310000Y-129150000D03*
G36*
G01*
X120850800Y-94154600D02*
X120850800Y-96405400D01*
G75*
G02*
X120425400Y-96830800I-425400J0D01*
G01*
X119574600Y-96830800D01*
G75*
G02*
X119149200Y-96405400I0J425400D01*
G01*
X119149200Y-94154600D01*
G75*
G02*
X119574600Y-93729200I425400J0D01*
G01*
X120425400Y-93729200D01*
G75*
G02*
X120850800Y-94154600I0J-425400D01*
G01*
G37*
G36*
G01*
X135350800Y-94154600D02*
X135350800Y-96405400D01*
G75*
G02*
X134925400Y-96830800I-425400J0D01*
G01*
X134074600Y-96830800D01*
G75*
G02*
X133649200Y-96405400I0J425400D01*
G01*
X133649200Y-94154600D01*
G75*
G02*
X134074600Y-93729200I425400J0D01*
G01*
X134925400Y-93729200D01*
G75*
G02*
X135350800Y-94154600I0J-425400D01*
G01*
G37*
G36*
G01*
X135350800Y-99714600D02*
X135350800Y-102765400D01*
G75*
G02*
X134925400Y-103190800I-425400J0D01*
G01*
X134074600Y-103190800D01*
G75*
G02*
X133649200Y-102765400I0J425400D01*
G01*
X133649200Y-99714600D01*
G75*
G02*
X134074600Y-99289200I425400J0D01*
G01*
X134925400Y-99289200D01*
G75*
G02*
X135350800Y-99714600I0J-425400D01*
G01*
G37*
G36*
G01*
X120850800Y-99714600D02*
X120850800Y-102765400D01*
G75*
G02*
X120425400Y-103190800I-425400J0D01*
G01*
X119574600Y-103190800D01*
G75*
G02*
X119149200Y-102765400I0J425400D01*
G01*
X119149200Y-99714600D01*
G75*
G02*
X119574600Y-99289200I425400J0D01*
G01*
X120425400Y-99289200D01*
G75*
G02*
X120850800Y-99714600I0J-425400D01*
G01*
G37*
G36*
G01*
X131950800Y-100700000D02*
X131950800Y-103300000D01*
G75*
G02*
X131900000Y-103350800I-50800J0D01*
G01*
X131600000Y-103350800D01*
G75*
G02*
X131549200Y-103300000I0J50800D01*
G01*
X131549200Y-100700000D01*
G75*
G02*
X131600000Y-100649200I50800J0D01*
G01*
X131900000Y-100649200D01*
G75*
G02*
X131950800Y-100700000I0J-50800D01*
G01*
G37*
G36*
G01*
X131450800Y-100700000D02*
X131450800Y-103300000D01*
G75*
G02*
X131400000Y-103350800I-50800J0D01*
G01*
X131100000Y-103350800D01*
G75*
G02*
X131049200Y-103300000I0J50800D01*
G01*
X131049200Y-100700000D01*
G75*
G02*
X131100000Y-100649200I50800J0D01*
G01*
X131400000Y-100649200D01*
G75*
G02*
X131450800Y-100700000I0J-50800D01*
G01*
G37*
G36*
G01*
X130950800Y-100700000D02*
X130950800Y-103300000D01*
G75*
G02*
X130900000Y-103350800I-50800J0D01*
G01*
X130600000Y-103350800D01*
G75*
G02*
X130549200Y-103300000I0J50800D01*
G01*
X130549200Y-100700000D01*
G75*
G02*
X130600000Y-100649200I50800J0D01*
G01*
X130900000Y-100649200D01*
G75*
G02*
X130950800Y-100700000I0J-50800D01*
G01*
G37*
G36*
G01*
X130450800Y-100700000D02*
X130450800Y-103300000D01*
G75*
G02*
X130400000Y-103350800I-50800J0D01*
G01*
X130100000Y-103350800D01*
G75*
G02*
X130049200Y-103300000I0J50800D01*
G01*
X130049200Y-100700000D01*
G75*
G02*
X130100000Y-100649200I50800J0D01*
G01*
X130400000Y-100649200D01*
G75*
G02*
X130450800Y-100700000I0J-50800D01*
G01*
G37*
G36*
G01*
X129950800Y-100700000D02*
X129950800Y-103300000D01*
G75*
G02*
X129900000Y-103350800I-50800J0D01*
G01*
X129600000Y-103350800D01*
G75*
G02*
X129549200Y-103300000I0J50800D01*
G01*
X129549200Y-100700000D01*
G75*
G02*
X129600000Y-100649200I50800J0D01*
G01*
X129900000Y-100649200D01*
G75*
G02*
X129950800Y-100700000I0J-50800D01*
G01*
G37*
G36*
G01*
X129450800Y-100700000D02*
X129450800Y-103300000D01*
G75*
G02*
X129400000Y-103350800I-50800J0D01*
G01*
X129100000Y-103350800D01*
G75*
G02*
X129049200Y-103300000I0J50800D01*
G01*
X129049200Y-100700000D01*
G75*
G02*
X129100000Y-100649200I50800J0D01*
G01*
X129400000Y-100649200D01*
G75*
G02*
X129450800Y-100700000I0J-50800D01*
G01*
G37*
G36*
G01*
X128950800Y-100700000D02*
X128950800Y-103300000D01*
G75*
G02*
X128900000Y-103350800I-50800J0D01*
G01*
X128600000Y-103350800D01*
G75*
G02*
X128549200Y-103300000I0J50800D01*
G01*
X128549200Y-100700000D01*
G75*
G02*
X128600000Y-100649200I50800J0D01*
G01*
X128900000Y-100649200D01*
G75*
G02*
X128950800Y-100700000I0J-50800D01*
G01*
G37*
G36*
G01*
X128450800Y-100700000D02*
X128450800Y-103300000D01*
G75*
G02*
X128400000Y-103350800I-50800J0D01*
G01*
X128100000Y-103350800D01*
G75*
G02*
X128049200Y-103300000I0J50800D01*
G01*
X128049200Y-100700000D01*
G75*
G02*
X128100000Y-100649200I50800J0D01*
G01*
X128400000Y-100649200D01*
G75*
G02*
X128450800Y-100700000I0J-50800D01*
G01*
G37*
G36*
G01*
X127950800Y-100700000D02*
X127950800Y-103300000D01*
G75*
G02*
X127900000Y-103350800I-50800J0D01*
G01*
X127600000Y-103350800D01*
G75*
G02*
X127549200Y-103300000I0J50800D01*
G01*
X127549200Y-100700000D01*
G75*
G02*
X127600000Y-100649200I50800J0D01*
G01*
X127900000Y-100649200D01*
G75*
G02*
X127950800Y-100700000I0J-50800D01*
G01*
G37*
G36*
G01*
X127450800Y-100700000D02*
X127450800Y-103300000D01*
G75*
G02*
X127400000Y-103350800I-50800J0D01*
G01*
X127100000Y-103350800D01*
G75*
G02*
X127049200Y-103300000I0J50800D01*
G01*
X127049200Y-100700000D01*
G75*
G02*
X127100000Y-100649200I50800J0D01*
G01*
X127400000Y-100649200D01*
G75*
G02*
X127450800Y-100700000I0J-50800D01*
G01*
G37*
G36*
G01*
X126950800Y-100700000D02*
X126950800Y-103300000D01*
G75*
G02*
X126900000Y-103350800I-50800J0D01*
G01*
X126600000Y-103350800D01*
G75*
G02*
X126549200Y-103300000I0J50800D01*
G01*
X126549200Y-100700000D01*
G75*
G02*
X126600000Y-100649200I50800J0D01*
G01*
X126900000Y-100649200D01*
G75*
G02*
X126950800Y-100700000I0J-50800D01*
G01*
G37*
G36*
G01*
X126450800Y-100700000D02*
X126450800Y-103300000D01*
G75*
G02*
X126400000Y-103350800I-50800J0D01*
G01*
X126100000Y-103350800D01*
G75*
G02*
X126049200Y-103300000I0J50800D01*
G01*
X126049200Y-100700000D01*
G75*
G02*
X126100000Y-100649200I50800J0D01*
G01*
X126400000Y-100649200D01*
G75*
G02*
X126450800Y-100700000I0J-50800D01*
G01*
G37*
G36*
G01*
X125950800Y-100700000D02*
X125950800Y-103300000D01*
G75*
G02*
X125900000Y-103350800I-50800J0D01*
G01*
X125600000Y-103350800D01*
G75*
G02*
X125549200Y-103300000I0J50800D01*
G01*
X125549200Y-100700000D01*
G75*
G02*
X125600000Y-100649200I50800J0D01*
G01*
X125900000Y-100649200D01*
G75*
G02*
X125950800Y-100700000I0J-50800D01*
G01*
G37*
G36*
G01*
X125450800Y-100700000D02*
X125450800Y-103300000D01*
G75*
G02*
X125400000Y-103350800I-50800J0D01*
G01*
X125100000Y-103350800D01*
G75*
G02*
X125049200Y-103300000I0J50800D01*
G01*
X125049200Y-100700000D01*
G75*
G02*
X125100000Y-100649200I50800J0D01*
G01*
X125400000Y-100649200D01*
G75*
G02*
X125450800Y-100700000I0J-50800D01*
G01*
G37*
G36*
G01*
X124950800Y-100700000D02*
X124950800Y-103300000D01*
G75*
G02*
X124900000Y-103350800I-50800J0D01*
G01*
X124600000Y-103350800D01*
G75*
G02*
X124549200Y-103300000I0J50800D01*
G01*
X124549200Y-100700000D01*
G75*
G02*
X124600000Y-100649200I50800J0D01*
G01*
X124900000Y-100649200D01*
G75*
G02*
X124950800Y-100700000I0J-50800D01*
G01*
G37*
G36*
G01*
X124450800Y-100700000D02*
X124450800Y-103300000D01*
G75*
G02*
X124400000Y-103350800I-50800J0D01*
G01*
X124100000Y-103350800D01*
G75*
G02*
X124049200Y-103300000I0J50800D01*
G01*
X124049200Y-100700000D01*
G75*
G02*
X124100000Y-100649200I50800J0D01*
G01*
X124400000Y-100649200D01*
G75*
G02*
X124450800Y-100700000I0J-50800D01*
G01*
G37*
G36*
G01*
X123950800Y-100700000D02*
X123950800Y-103300000D01*
G75*
G02*
X123900000Y-103350800I-50800J0D01*
G01*
X123600000Y-103350800D01*
G75*
G02*
X123549200Y-103300000I0J50800D01*
G01*
X123549200Y-100700000D01*
G75*
G02*
X123600000Y-100649200I50800J0D01*
G01*
X123900000Y-100649200D01*
G75*
G02*
X123950800Y-100700000I0J-50800D01*
G01*
G37*
G36*
G01*
X123450800Y-100700000D02*
X123450800Y-103300000D01*
G75*
G02*
X123400000Y-103350800I-50800J0D01*
G01*
X123100000Y-103350800D01*
G75*
G02*
X123049200Y-103300000I0J50800D01*
G01*
X123049200Y-100700000D01*
G75*
G02*
X123100000Y-100649200I50800J0D01*
G01*
X123400000Y-100649200D01*
G75*
G02*
X123450800Y-100700000I0J-50800D01*
G01*
G37*
G36*
G01*
X122950800Y-100700000D02*
X122950800Y-103300000D01*
G75*
G02*
X122900000Y-103350800I-50800J0D01*
G01*
X122600000Y-103350800D01*
G75*
G02*
X122549200Y-103300000I0J50800D01*
G01*
X122549200Y-100700000D01*
G75*
G02*
X122600000Y-100649200I50800J0D01*
G01*
X122900000Y-100649200D01*
G75*
G02*
X122950800Y-100700000I0J-50800D01*
G01*
G37*
G36*
G01*
X147170800Y-94154600D02*
X147170800Y-96405400D01*
G75*
G02*
X146745400Y-96830800I-425400J0D01*
G01*
X145894600Y-96830800D01*
G75*
G02*
X145469200Y-96405400I0J425400D01*
G01*
X145469200Y-94154600D01*
G75*
G02*
X145894600Y-93729200I425400J0D01*
G01*
X146745400Y-93729200D01*
G75*
G02*
X147170800Y-94154600I0J-425400D01*
G01*
G37*
G36*
G01*
X161670800Y-94154600D02*
X161670800Y-96405400D01*
G75*
G02*
X161245400Y-96830800I-425400J0D01*
G01*
X160394600Y-96830800D01*
G75*
G02*
X159969200Y-96405400I0J425400D01*
G01*
X159969200Y-94154600D01*
G75*
G02*
X160394600Y-93729200I425400J0D01*
G01*
X161245400Y-93729200D01*
G75*
G02*
X161670800Y-94154600I0J-425400D01*
G01*
G37*
G36*
G01*
X161670800Y-99714600D02*
X161670800Y-102765400D01*
G75*
G02*
X161245400Y-103190800I-425400J0D01*
G01*
X160394600Y-103190800D01*
G75*
G02*
X159969200Y-102765400I0J425400D01*
G01*
X159969200Y-99714600D01*
G75*
G02*
X160394600Y-99289200I425400J0D01*
G01*
X161245400Y-99289200D01*
G75*
G02*
X161670800Y-99714600I0J-425400D01*
G01*
G37*
G36*
G01*
X147170800Y-99714600D02*
X147170800Y-102765400D01*
G75*
G02*
X146745400Y-103190800I-425400J0D01*
G01*
X145894600Y-103190800D01*
G75*
G02*
X145469200Y-102765400I0J425400D01*
G01*
X145469200Y-99714600D01*
G75*
G02*
X145894600Y-99289200I425400J0D01*
G01*
X146745400Y-99289200D01*
G75*
G02*
X147170800Y-99714600I0J-425400D01*
G01*
G37*
G36*
G01*
X158270800Y-100700000D02*
X158270800Y-103300000D01*
G75*
G02*
X158220000Y-103350800I-50800J0D01*
G01*
X157920000Y-103350800D01*
G75*
G02*
X157869200Y-103300000I0J50800D01*
G01*
X157869200Y-100700000D01*
G75*
G02*
X157920000Y-100649200I50800J0D01*
G01*
X158220000Y-100649200D01*
G75*
G02*
X158270800Y-100700000I0J-50800D01*
G01*
G37*
G36*
G01*
X157770800Y-100700000D02*
X157770800Y-103300000D01*
G75*
G02*
X157720000Y-103350800I-50800J0D01*
G01*
X157420000Y-103350800D01*
G75*
G02*
X157369200Y-103300000I0J50800D01*
G01*
X157369200Y-100700000D01*
G75*
G02*
X157420000Y-100649200I50800J0D01*
G01*
X157720000Y-100649200D01*
G75*
G02*
X157770800Y-100700000I0J-50800D01*
G01*
G37*
G36*
G01*
X157270800Y-100700000D02*
X157270800Y-103300000D01*
G75*
G02*
X157220000Y-103350800I-50800J0D01*
G01*
X156920000Y-103350800D01*
G75*
G02*
X156869200Y-103300000I0J50800D01*
G01*
X156869200Y-100700000D01*
G75*
G02*
X156920000Y-100649200I50800J0D01*
G01*
X157220000Y-100649200D01*
G75*
G02*
X157270800Y-100700000I0J-50800D01*
G01*
G37*
G36*
G01*
X156770800Y-100700000D02*
X156770800Y-103300000D01*
G75*
G02*
X156720000Y-103350800I-50800J0D01*
G01*
X156420000Y-103350800D01*
G75*
G02*
X156369200Y-103300000I0J50800D01*
G01*
X156369200Y-100700000D01*
G75*
G02*
X156420000Y-100649200I50800J0D01*
G01*
X156720000Y-100649200D01*
G75*
G02*
X156770800Y-100700000I0J-50800D01*
G01*
G37*
G36*
G01*
X156270800Y-100700000D02*
X156270800Y-103300000D01*
G75*
G02*
X156220000Y-103350800I-50800J0D01*
G01*
X155920000Y-103350800D01*
G75*
G02*
X155869200Y-103300000I0J50800D01*
G01*
X155869200Y-100700000D01*
G75*
G02*
X155920000Y-100649200I50800J0D01*
G01*
X156220000Y-100649200D01*
G75*
G02*
X156270800Y-100700000I0J-50800D01*
G01*
G37*
G36*
G01*
X155770800Y-100700000D02*
X155770800Y-103300000D01*
G75*
G02*
X155720000Y-103350800I-50800J0D01*
G01*
X155420000Y-103350800D01*
G75*
G02*
X155369200Y-103300000I0J50800D01*
G01*
X155369200Y-100700000D01*
G75*
G02*
X155420000Y-100649200I50800J0D01*
G01*
X155720000Y-100649200D01*
G75*
G02*
X155770800Y-100700000I0J-50800D01*
G01*
G37*
G36*
G01*
X155270800Y-100700000D02*
X155270800Y-103300000D01*
G75*
G02*
X155220000Y-103350800I-50800J0D01*
G01*
X154920000Y-103350800D01*
G75*
G02*
X154869200Y-103300000I0J50800D01*
G01*
X154869200Y-100700000D01*
G75*
G02*
X154920000Y-100649200I50800J0D01*
G01*
X155220000Y-100649200D01*
G75*
G02*
X155270800Y-100700000I0J-50800D01*
G01*
G37*
G36*
G01*
X154770800Y-100700000D02*
X154770800Y-103300000D01*
G75*
G02*
X154720000Y-103350800I-50800J0D01*
G01*
X154420000Y-103350800D01*
G75*
G02*
X154369200Y-103300000I0J50800D01*
G01*
X154369200Y-100700000D01*
G75*
G02*
X154420000Y-100649200I50800J0D01*
G01*
X154720000Y-100649200D01*
G75*
G02*
X154770800Y-100700000I0J-50800D01*
G01*
G37*
G36*
G01*
X154270800Y-100700000D02*
X154270800Y-103300000D01*
G75*
G02*
X154220000Y-103350800I-50800J0D01*
G01*
X153920000Y-103350800D01*
G75*
G02*
X153869200Y-103300000I0J50800D01*
G01*
X153869200Y-100700000D01*
G75*
G02*
X153920000Y-100649200I50800J0D01*
G01*
X154220000Y-100649200D01*
G75*
G02*
X154270800Y-100700000I0J-50800D01*
G01*
G37*
G36*
G01*
X153770800Y-100700000D02*
X153770800Y-103300000D01*
G75*
G02*
X153720000Y-103350800I-50800J0D01*
G01*
X153420000Y-103350800D01*
G75*
G02*
X153369200Y-103300000I0J50800D01*
G01*
X153369200Y-100700000D01*
G75*
G02*
X153420000Y-100649200I50800J0D01*
G01*
X153720000Y-100649200D01*
G75*
G02*
X153770800Y-100700000I0J-50800D01*
G01*
G37*
G36*
G01*
X153270800Y-100700000D02*
X153270800Y-103300000D01*
G75*
G02*
X153220000Y-103350800I-50800J0D01*
G01*
X152920000Y-103350800D01*
G75*
G02*
X152869200Y-103300000I0J50800D01*
G01*
X152869200Y-100700000D01*
G75*
G02*
X152920000Y-100649200I50800J0D01*
G01*
X153220000Y-100649200D01*
G75*
G02*
X153270800Y-100700000I0J-50800D01*
G01*
G37*
G36*
G01*
X152770800Y-100700000D02*
X152770800Y-103300000D01*
G75*
G02*
X152720000Y-103350800I-50800J0D01*
G01*
X152420000Y-103350800D01*
G75*
G02*
X152369200Y-103300000I0J50800D01*
G01*
X152369200Y-100700000D01*
G75*
G02*
X152420000Y-100649200I50800J0D01*
G01*
X152720000Y-100649200D01*
G75*
G02*
X152770800Y-100700000I0J-50800D01*
G01*
G37*
G36*
G01*
X152270800Y-100700000D02*
X152270800Y-103300000D01*
G75*
G02*
X152220000Y-103350800I-50800J0D01*
G01*
X151920000Y-103350800D01*
G75*
G02*
X151869200Y-103300000I0J50800D01*
G01*
X151869200Y-100700000D01*
G75*
G02*
X151920000Y-100649200I50800J0D01*
G01*
X152220000Y-100649200D01*
G75*
G02*
X152270800Y-100700000I0J-50800D01*
G01*
G37*
G36*
G01*
X151770800Y-100700000D02*
X151770800Y-103300000D01*
G75*
G02*
X151720000Y-103350800I-50800J0D01*
G01*
X151420000Y-103350800D01*
G75*
G02*
X151369200Y-103300000I0J50800D01*
G01*
X151369200Y-100700000D01*
G75*
G02*
X151420000Y-100649200I50800J0D01*
G01*
X151720000Y-100649200D01*
G75*
G02*
X151770800Y-100700000I0J-50800D01*
G01*
G37*
G36*
G01*
X151270800Y-100700000D02*
X151270800Y-103300000D01*
G75*
G02*
X151220000Y-103350800I-50800J0D01*
G01*
X150920000Y-103350800D01*
G75*
G02*
X150869200Y-103300000I0J50800D01*
G01*
X150869200Y-100700000D01*
G75*
G02*
X150920000Y-100649200I50800J0D01*
G01*
X151220000Y-100649200D01*
G75*
G02*
X151270800Y-100700000I0J-50800D01*
G01*
G37*
G36*
G01*
X150770800Y-100700000D02*
X150770800Y-103300000D01*
G75*
G02*
X150720000Y-103350800I-50800J0D01*
G01*
X150420000Y-103350800D01*
G75*
G02*
X150369200Y-103300000I0J50800D01*
G01*
X150369200Y-100700000D01*
G75*
G02*
X150420000Y-100649200I50800J0D01*
G01*
X150720000Y-100649200D01*
G75*
G02*
X150770800Y-100700000I0J-50800D01*
G01*
G37*
G36*
G01*
X150270800Y-100700000D02*
X150270800Y-103300000D01*
G75*
G02*
X150220000Y-103350800I-50800J0D01*
G01*
X149920000Y-103350800D01*
G75*
G02*
X149869200Y-103300000I0J50800D01*
G01*
X149869200Y-100700000D01*
G75*
G02*
X149920000Y-100649200I50800J0D01*
G01*
X150220000Y-100649200D01*
G75*
G02*
X150270800Y-100700000I0J-50800D01*
G01*
G37*
G36*
G01*
X149770800Y-100700000D02*
X149770800Y-103300000D01*
G75*
G02*
X149720000Y-103350800I-50800J0D01*
G01*
X149420000Y-103350800D01*
G75*
G02*
X149369200Y-103300000I0J50800D01*
G01*
X149369200Y-100700000D01*
G75*
G02*
X149420000Y-100649200I50800J0D01*
G01*
X149720000Y-100649200D01*
G75*
G02*
X149770800Y-100700000I0J-50800D01*
G01*
G37*
G36*
G01*
X149270800Y-100700000D02*
X149270800Y-103300000D01*
G75*
G02*
X149220000Y-103350800I-50800J0D01*
G01*
X148920000Y-103350800D01*
G75*
G02*
X148869200Y-103300000I0J50800D01*
G01*
X148869200Y-100700000D01*
G75*
G02*
X148920000Y-100649200I50800J0D01*
G01*
X149220000Y-100649200D01*
G75*
G02*
X149270800Y-100700000I0J-50800D01*
G01*
G37*
G36*
G01*
X157696000Y-108695200D02*
X159204000Y-108695200D01*
G75*
G02*
X159254800Y-108746000I0J-50800D01*
G01*
X159254800Y-110254000D01*
G75*
G02*
X159204000Y-110304800I-50800J0D01*
G01*
X157696000Y-110304800D01*
G75*
G02*
X157645200Y-110254000I0J50800D01*
G01*
X157645200Y-108746000D01*
G75*
G02*
X157696000Y-108695200I50800J0D01*
G01*
G37*
D16*
X155910000Y-109500000D03*
X153370000Y-109500000D03*
X150830000Y-109500000D03*
X148290000Y-109500000D03*
X145750000Y-109500000D03*
X143210000Y-109500000D03*
X140670000Y-109500000D03*
X138130000Y-109500000D03*
X135590000Y-109500000D03*
X133050000Y-109500000D03*
X130510000Y-109500000D03*
X127970000Y-109500000D03*
X125430000Y-109500000D03*
X122890000Y-109500000D03*
X122890000Y-124740000D03*
X125430000Y-124740000D03*
X127970000Y-124740000D03*
X130510000Y-124740000D03*
X133050000Y-124740000D03*
X135590000Y-124740000D03*
X138130000Y-124740000D03*
X140670000Y-124740000D03*
X143210000Y-124740000D03*
X145750000Y-124740000D03*
X148290000Y-124740000D03*
X150830000Y-124740000D03*
X153370000Y-124740000D03*
X155910000Y-124740000D03*
X158450000Y-124740000D03*
M02*
